<?xml version="1.0" encoding="UTF-8"?>
<svg width="179px" height="148px" viewBox="0 0 179 148" version="1.1" xmlns="http://www.w3.org/2000/svg" xmlns:xlink="http://www.w3.org/1999/xlink">
    <!-- Generator: Sketch 61.2 (89653) - https://sketch.com -->
    <title>Group 12</title>
    <desc>Created with Sketch.</desc>
    <g id="Page-1" stroke="none" stroke-width="1" fill="none" fill-rule="evenodd">
        <g id="Artboard" transform="translate(-145.000000, -4296.000000)" fill="#604838" fill-rule="nonzero">
            <g id="Group-12" transform="translate(120.000000, 4268.000000)">
                <g id="yasai5" transform="translate(75.000000, 80.500000) rotate(-31.000000) translate(-75.000000, -80.500000) translate(26.000000, 17.000000)">
                    <path d="M72.2450291,99.9568357 C72.1440834,99.7138887 72.1975432,99.434706 72.3812575,99.2454108 C73.3180455,98.534561 73.2148597,97.5695077 73.0403713,96.5872008 C73.1080025,96.0998814 73.1756336,95.6127538 73.2432648,95.1258179 C74.5493188,93.5062766 73.9336822,91.6716401 73.8380324,89.8950908 C73.8675969,88.2548452 73.9209289,86.6169001 73.9191898,84.9755043 C73.9279738,83.8810774 73.8803767,82.7869202 73.7765847,81.6973136 C73.7736727,81.2768766 73.5278787,80.8953871 73.1444807,80.7162439 C72.7610828,80.5371007 72.3080904,80.5920813 71.9795285,80.8576367 C69.8590022,82.1229033 67.6770282,83.2593427 65.8567842,85.0088613 C62.1009367,88.6206223 57.9607511,91.813695 54.70692,95.9672201 C51.954806,99.3990215 50.0491114,103.421394 49.1418428,107.713495 C48.924457,108.75849 48.4398315,109.093786 47.4700009,108.994865 C47.1777921,107.375571 47.3848804,105.706481 48.0641888,104.205831 C49.3140124,101.184144 50.3574644,98.0428324 52.6518993,95.5956919 C53.5649198,94.6220117 52.4333541,94.1981474 52.3463998,93.5085771 C53.0721786,92.9909681 53.140003,92.2220311 53.147539,91.4277887 C53.1585532,90.2597176 53.1805817,89.0916465 53.1979725,87.9241505 C54.4217098,89.1894171 53.3776782,90.769275 53.7962183,92.1392136 C53.9504207,92.465457 54.1511178,92.7680009 54.3921454,93.0375529 C54.6191058,92.8921088 54.8356556,92.7312663 55.040245,92.5561765 C55.5289283,92.0805512 56.0089162,91.5612168 55.8935568,90.8187354 C55.5938542,88.8840278 56.2605041,87.0867741 56.6373062,85.2469615 C57.7195978,84.2353233 57.4048231,82.9769582 57.2662759,81.7496496 L57.4587348,80.3503798 C57.9773866,80.8083958 58.2448236,81.4843167 58.1787167,82.1700632 C58.1821948,82.9844348 58.2436426,83.7988064 58.2801634,84.6137531 L58.1132111,86.084913 C57.2199002,86.7440019 57.336419,87.7142313 57.3271439,88.6390261 C57.323086,89.0312588 57.3271439,89.5063089 57.8210445,89.5856756 C58.4274061,89.6828711 58.7856579,89.2831619 59.0111595,88.7626772 C60.9357487,86.9982054 62.7890353,85.1474655 64.8081149,83.4985931 C66.1112705,82.4357692 65.988375,81.3706448 65.7593953,79.9023604 C65.411578,77.678942 64.240593,76.5666576 62.2139773,75.8765122 C61.0864695,75.4906059 59.7212865,75.3589031 59.0105798,74.1701277 C58.8880795,73.9287832 58.8770829,73.6465972 58.9804356,73.3965897 C59.0789838,73.2039241 59.4511484,72.9663991 59.6181007,73.0187351 C60.7998646,73.3758046 61.9623368,73.7929349 63.1009115,74.2684734 C69.1616285,76.9088547 75.2959667,79.4048806 81.2308897,82.3017659 C85.5519403,84.4107353 89.6034324,87.062619 93.7749216,89.4729518 C93.8246554,89.7211391 93.986629,89.932867 94.2141903,90.0471532 C94.4417517,90.1614393 94.7096371,90.1655957 94.9406893,90.0584252 C95.4125615,89.862884 95.3174914,89.5488678 94.8438802,89.3820827 C94.42534,87.4583024 93.0282737,86.0314268 92.2352502,84.300312 C92.0277192,83.8476917 91.7094664,83.2650939 92.2897416,82.8176496 C92.8114676,82.4150648 93.3100058,82.8349033 93.8155003,82.9326739 C94.8218517,84.8501279 95.8444347,86.7595302 96.8264389,88.6896368 C97.2617903,89.5454171 97.6264188,90.4661861 97.0241151,91.3852297 C96.5852856,92.0546708 95.0780772,92.2720666 93.9557866,91.746981 C92.846829,91.2293719 91.822507,90.5311748 90.7541281,89.924422 C86.7206065,87.6337143 82.9282382,84.9208678 78.6031298,83.142018 C77.8524241,82.8326028 77.0924432,82.543892 76.1544958,82.1735139 C75.5846551,83.1057853 75.8536338,84.0374816 75.7736358,84.8972878 C75.6855221,85.8422119 75.6090023,86.7877111 75.5272652,87.7332103 C74.1939655,89.6656174 74.8258336,91.7855141 74.9330773,93.8553752 L74.7075757,95.9654948 C73.7800629,96.7033752 73.896002,97.6822315 74.0745482,98.6748906 C73.9887533,99.1430393 73.9027651,99.6111879 73.8165837,100.079337 C73.4175646,100.245536 73.2054378,100.680242 73.3215237,101.09385 L73.174281,100.897159 L73.3081907,101.101902 L72.1957549,100.979976 L72.2067691,101.003556 C72.2206818,100.653116 72.2334351,100.304209 72.2450291,99.9568357 Z M69.9129139,79.6711617 C69.9929119,79.0552069 69.2636549,78.5410486 68.14948,78.4530551 C67.9548397,78.4070834 67.7497874,78.4566272 67.5982487,78.5862409 C67.4467101,78.7158547 67.3671166,78.9097737 67.3842819,79.107543 C67.378485,79.8097659 67.5703642,80.4205446 68.3662862,80.602858 C69.034379,80.6728012 69.6673054,80.2915231 69.9129139,79.6711617 L69.9129139,79.6711617 Z" id="Shape"></path>
                    <path d="M47.8290339,60.2710348 C49.7404207,59.4153885 51.9858255,59.4287493 53.8106357,58.044239 C53.368816,57.0232532 52.9850864,56.0401228 52.5259514,55.0937346 C51.5764022,53.1397214 50.7726366,52.6492696 48.7685291,53.2382571 C44.8084178,54.3595147 40.9476539,55.8038314 37.2253615,57.5565708 C35.422335,58.4266912 34.0845876,58.5870205 34.1326237,57.9718682 C34.235957,56.6530484 35.4692539,56.4893789 36.3372536,55.9710922 C36.790803,55.6999798 37.2923885,55.5095888 37.7621361,55.2640845 C39.1222258,54.55318 39.2261176,54.2063565 38.5295953,52.7695166 C38.4784426,52.6469562 38.4144098,52.5301402 38.3385683,52.421023 C37.8615595,51.8186748 37.0751093,51.1261413 38.1112351,50.518226 C38.6759376,50.1875469 39.3741356,50.7731941 39.7623337,51.3276663 C40.2801173,52.0686326 40.7118829,52.8680523 41.2548017,53.7626675 C44.3436296,52.8719492 47.2224395,51.5358717 50.3967268,51.0209252 C50.2954268,50.5896846 50.1676488,50.1650518 50.0141144,49.7494248 C47.9770519,45.2440602 48.4747274,45.1082257 43.7091073,46.464901 C43.0656897,46.6313937 42.4128783,46.7594765 41.7541529,46.8484666 C41.2164699,46.9645507 40.6637403,46.7303669 40.3745137,46.2639327 C39.741667,45.1254834 39.196514,43.9363744 38.6720277,42.7433686 C38.612262,42.6069773 38.8574691,42.2484632 39.0479375,42.117639 C39.2568603,41.9718143 39.5210537,41.9287824 39.765685,42.0007322 C40.4299406,42.4501282 40.9100547,43.1224606 41.1185134,43.8951787 C41.4447115,44.8415669 42.195414,44.9662675 43.0460984,44.7614022 C43.9492874,44.5442897 44.8446565,44.2948885 45.7372328,44.0376936 C46.6046739,43.7877358 46.8280973,43.3529539 46.5024578,42.6158845 C46.4567761,42.4919215 46.4022711,42.371368 46.3393587,42.2551436 C44.3257557,39.0212794 45.2155392,38.5469719 40.9269279,39.8440805 C40.1666048,40.0790306 39.3840371,40.2353589 38.5915953,40.3105942 C38.2564603,40.3400992 37.6364604,40.0984919 37.5861902,39.8791525 C37.5170141,39.621428 37.5574866,39.3466804 37.6980709,39.1196498 C37.8386552,38.8926193 38.0669181,38.7333843 38.3290728,38.6794663 C39.1019641,38.4888386 39.8638516,38.25635 40.6113424,37.9830359 C41.3045134,37.7046864 42.2121708,37.9134485 42.8349634,36.8796586 C41.5569818,34.5376261 39.2763879,32.845818 37.680028,30.6295996 C38.0486765,30.303374 38.4169527,29.9767773 38.7848565,29.6498094 L40.9537387,31.3071022 C41.1205843,31.6600384 41.3266813,31.9931775 41.5681529,32.3002531 C45.2669266,36.0501772 47.7022412,40.6100982 49.9465288,45.2880394 C51.6663301,48.8765208 53.3626719,52.4772496 54.9947795,56.1052566 C55.530437,57.2949223 56.31968,58.4350417 56.209644,59.8457168 C56.266424,60.2826178 56.5515678,60.6566695 56.9586708,60.8282905 L60.964093,56.9191505 C61.7332279,56.8517899 62.5012457,56.7471305 63.2714977,56.7287594 C63.5245839,56.6814938 63.7838573,56.7713495 63.9529197,56.964918 C64.1219822,57.1584866 64.1755458,57.4268146 64.0936957,57.6701374 C63.4802298,57.6012244 62.880951,57.8865814 62.5492817,58.4055367 L62.2772638,58.5925875 L61.9482729,58.5647526 C61.5163198,58.6039144 61.1418992,58.8788623 60.9763813,59.2784406 L60.9506876,59.3007086 C60.690027,59.5501097 60.4293665,59.8000675 60.1687059,60.050582 L60.1312825,60.0884376 L59.38058,60.8928675 L59.38058,60.895651 C58.9854602,61.0237901 58.693658,61.3589522 58.6220577,61.7668849 L58.6578054,61.7262459 C58.2270804,61.8274181 57.9161744,62.2014003 57.8964903,62.6420156 L57.9015174,62.6498094 C57.1513735,62.2322852 56.4621124,61.670576 55.5416082,61.6549884 C54.7596264,60.8577955 53.879897,60.4013024 52.7186541,60.7481258 C51.8394832,61.0108877 50.9435555,61.217423 50.0615918,61.4718344 C48.9003489,61.8058538 48.4110518,61.0147846 47.9128177,60.2270556 L47.8290339,60.2710348 Z" id="Path"></path>
                    <path d="M19.1533234,52.7716589 C19.2284993,52.7232124 19.3224656,52.7147039 19.4050432,52.7488661 C19.4876207,52.7830284 19.5484126,52.8555601 19.5678943,52.9431664 C19.8844061,53.5284154 20.5450493,53.8359765 21.1937631,53.7000863 L21.2415326,53.7200956 C20.8872422,54.4009805 20.2241561,54.4867343 19.5724438,54.5942123 L18.7194171,54.3598187 C18.4794544,53.9839681 18.0315353,53.7987838 17.5979714,53.8961766 L16.2899972,53.6183344 C15.9100493,53.0578571 15.211148,52.8116815 14.5663147,53.0111977 C14.3202085,53.1020137 14.0441891,53.0453673 13.8531844,52.8648446 C13.1508591,51.9341304 12.1920572,52.0541857 11.2230189,52.2176895 C9.21670022,51.9975882 7.21379364,51.7323232 5.2023568,51.5779664 C4.32658277,51.5105068 3.14428783,51.1091791 2.73540372,52.2639966 C2.39419306,53.2301557 3.1454252,54.0522485 3.80964862,54.7262731 C4.37833305,55.3013951 5.03345752,55.7884765 5.64593066,56.3195782 C9.52966622,59.6853183 13.2416591,63.2326659 16.7819093,66.9616209 C18.6051116,68.888794 20.09279,70.8737079 20.3265193,73.5932458 C20.4561794,75.0979386 21.3336595,75.6421892 22.7388787,75.7410919 C25.468564,75.933752 27.9707755,76.9742311 30.4291983,78.0850282 C31.1539431,78.4269654 31.8493454,78.8285156 32.5083086,79.285581 C32.6755066,79.4786406 32.7419447,79.7398617 32.6874442,79.9899053 C32.667572,80.1901552 32.5673432,80.3736039 32.4099003,80.4978939 C32.2524574,80.6221839 32.0514118,80.6765698 31.8531842,80.6484942 C31.583733,80.6365312 31.3137924,80.6422603 31.0450836,80.665645 C29.566504,79.3907723 27.7245352,78.8065033 25.9269237,78.3788778 C20.9225006,77.1869004 15.8663273,76.1744342 10.6770819,77.3126726 C9.87587864,77.4409263 9.06757148,77.5193969 8.2567609,77.5476379 L7.27350551,76.5185927 C9.42711346,75.1911243 11.8502778,75.0893632 14.2654806,74.9961774 C15.6098506,74.9435818 16.9582014,74.9870304 18.3804812,74.9870304 C18.5590481,72.3686819 17.5337101,70.5083968 15.8782697,68.731007 C11.9771713,64.5540316 7.82824081,60.618174 3.45422084,56.945009 C2.24507584,56.0537657 1.33953266,54.8085737 0.861588505,53.3799389 C0.288923279,51.3790177 1.33530264,49.7811391 3.38825345,49.6719459 C5.83295886,49.6171268 8.27258826,49.9202508 10.6304497,50.5717888 C11.3367558,51.4521942 12.2796346,51.3292805 13.2264942,51.1897877 L14.7118979,51.4453339 C15.0843196,51.9851214 15.7572325,52.2267019 16.3855362,52.046182 C16.6391147,51.9487946 16.9251612,51.9954848 17.1350623,52.168524 C17.6531338,52.8974311 18.3770691,52.9220138 19.1533234,52.7716589 Z" id="Path"></path>
                    <path d="M55.5381792,122.346354 C55.6261975,123.09568 55.713838,123.845005 55.8011007,124.594331 L55.661707,126.393857 L55.6333749,126.420169 C55.3862582,126.36801 55.1304694,126.375063 54.8865417,126.440761 L54.8531099,126.415021 C54.9492304,125.786027 54.6884173,125.155653 54.1776735,124.782521 L53.9634831,122.548843 C54.03318,121.717149 53.9022858,121.013584 52.9027307,120.869439 C51.0441473,121.04104 49.4088206,120.649789 48.2840377,118.990976 C47.7615944,118.221058 47.0283606,118.152418 46.1664992,118.148986 C39.4852321,118.123817 34.6342162,114.895425 31.2423015,109.253745 C29.7730007,106.811287 28.4702924,104.266439 27.0032582,101.822836 C25.7566474,99.7447445 24.680029,97.5139274 22.6401204,96.03644 C22.3913649,95.5588164 22.1046444,95.0960648 21.9034868,94.598421 C21.7567267,94.2311942 21.7051623,93.8027629 22.1868074,93.5859732 C22.5321682,93.3665589 22.978538,93.3982648 23.290058,93.6643378 C23.5847114,93.9383279 23.868032,94.2254741 24.1451196,94.5171964 C25.9518376,96.5259593 27.5148961,98.7449764 28.8012109,101.127279 C30.4864021,104.053082 32.0310662,107.081845 33.931581,109.85721 C36.3658715,113.525706 40.3424446,115.853289 44.7056981,116.163558 C46.4753187,116.327724 46.915599,115.953633 46.7575061,114.120359 C46.7342738,113.851517 46.7501398,113.579243 46.7478732,113.308113 C48.1962083,112.500442 48.6223225,112.553639 48.6393217,113.640447 C48.6767201,116.033713 49.205963,118.092929 51.6170216,119.152853 C52.4941823,120.231082 53.720394,119.786062 54.8185448,119.896459 L54.879742,119.909043 C54.7811465,120.810522 54.7448814,121.692553 55.5381792,122.346354 Z" id="Path"></path>
                    <path d="M51.417812,16.666809 C51.5353956,12.427859 47.6760525,10.4552902 44.4939458,11.0453184 C42.2768162,11.4568961 40.0704274,11.7158596 38.2371405,13.4679189 C37.1692777,14.4893526 35.6864804,15.0511412 34.1788097,14.0813799 C34.1652423,13.3831999 34.0470934,12.4591028 34.9498869,12.4410775 C37.6243489,12.3906067 39.0647483,10.9035193 39.8573071,8.31268271 C40.463315,6.33290379 41.9353714,5.41781933 43.8709787,5.37816367 C44.4046274,5.36734849 44.941668,5.52116439 45.4736208,5.49833235 C45.8252411,5.48451295 46.4346408,5.34691981 46.4685591,5.17027186 C46.5304446,4.59909842 46.2651527,4.04391229 45.7947146,3.76009246 C43.4017748,1.85902403 39.446895,2.75367981 37.7458897,4.94315307 C36.9182819,6.00844837 36.5819249,7.58265801 35.1047807,8.0230762 L35.1980562,8.0963791 C35.1996353,7.57268108 34.9237414,7.09262635 34.4846402,6.85503668 L34.4778565,6.69761572 C34.9498414,6.14278241 35.2477641,5.44564546 35.3303377,4.70281572 C37.1415777,2.54278379 39.2337747,1.00101969 42.0608693,0.663345712 C44.4102805,0.382751857 46.2560041,1.40658897 47.7518035,3.02045427 C49.0463539,4.41921765 49.3991047,6.23256295 48.1152951,8.01105934 L45.6562146,7.99723994 C44.8060288,7.0426497 43.4031441,6.9578217 42.4565834,7.80376837 C42.1509478,8.02644219 41.939819,8.36779098 41.8686653,8.75430259 C41.8296592,9.21274609 42.1761917,9.41222609 42.6533099,9.32690633 C43.686689,9.14184657 44.7274171,9.00004753 45.7624921,8.84022319 L47.9236564,8.97000536 C48.8405825,9.55342428 49.7835127,10.0959858 50.6682164,10.7304764 C51.7963744,11.5436052 52.5909345,12.7827634 52.8904338,14.196141 C53.234705,15.7186781 53.4664804,17.3079089 52.2572912,18.6171466 C52.1566667,17.8811134 52.0939178,17.1252525 51.417812,16.666809 Z" id="Path"></path>
                    <path d="M21.2575673,14.5988855 C21.6645816,14.6886237 21.9462535,15.0354269 21.9291313,15.4257362 C21.9822427,15.8964898 21.6930807,16.5508043 22.4679169,16.7101108 C23.1509761,16.8903761 23.884653,16.7001266 24.370485,16.2167566 C24.4601842,16.1263543 24.4566434,15.9565743 24.5475229,15.8634158 C26.7174183,13.5664247 28.5603836,13.4782273 30.7273284,15.8248294 C32.2280203,17.4493153 34.0780671,18.5716272 35.9204422,19.757331 C37.3957586,20.7071068 38.8421589,20.4777935 40.1693535,19.6470843 C41.0834596,19.0754549 41.7697768,18.196237 42.6177887,17.5198732 C43.8759202,16.4324947 45.6022414,15.9506849 47.2927714,16.2151029 C48.5408891,16.4201619 49.7600906,16.82146 50.0988232,18.214979 C50.0594815,19.0925431 50.0189594,19.9701072 49.9772572,20.8476714 C49.9766695,21.483504 49.6499417,22.0805702 49.0985587,22.4534153 C48.2830038,22.073064 48.4913185,21.5003322 48.6134747,20.8206609 C48.9911557,18.7259727 47.6102595,17.5209757 45.5778636,18.097015 C44.7471777,18.2556248 43.9984081,18.672169 43.4534079,19.2788601 C41.2109269,22.235678 38.1357774,22.2092188 34.83756,21.4352866 C34.7933005,20.929254 34.376081,20.8553887 33.9618121,20.7776647 C33.6831514,20.1442591 32.9149943,19.8335328 32.2297906,20.0770466 C32.2888033,19.4888802 31.9347274,19.2909873 31.378238,19.2843725 C31.4000727,18.7529831 31.0831747,18.5242211 30.5573719,18.4850835 C30.5566023,18.0660424 30.2150127,17.7161795 29.7683727,17.6769748 C29.3889213,16.8534316 28.9014768,16.0954852 27.8492811,15.9868921 C27.5034669,15.9510619 27.1234254,16.2024245 26.7587272,16.3220423 C26.9109798,16.6439628 26.9735333,17.0772325 27.2361396,17.262447 C27.687775,17.5143426 28.1704924,17.7140655 28.6736879,17.8572283 C29.1230465,18.4734068 29.80817,18.9052483 30.5880585,19.063879 L31.4283988,19.2380688 C31.382959,19.8058396 31.718741,20.0230257 32.2722797,20.037909 C32.4209916,20.9160244 33.098457,21.3674848 33.8549992,21.7588608 C33.9326324,22.1578493 34.2864467,22.4589979 34.7189445,22.4942066 C35.840185,23.7862985 36.5483369,25.381569 38.0195224,26.4206446 C38.0059495,26.9106915 38.432611,27.4525542 37.9050379,27.8786579 C37.3774647,28.3047616 36.84281,28.0511941 36.4332622,27.7088779 C36.0411359,27.3383802 35.687997,26.9335711 35.378706,26.5000223 C34.7885795,25.7701888 34.2433025,25.0116912 33.6337018,24.2983947 C32.0947133,22.4293017 30.1821986,20.8568049 28.0021239,19.6680312 C27.5012522,19.4611198 26.9790226,19.3026411 26.4435996,19.1950726 C25.7024006,18.3814516 24.6620075,18.5010693 23.7048222,18.5049279 C22.8261237,18.5087866 22.0217812,18.4597268 21.386805,17.8197444 C21.3102313,17.6503671 21.2136383,17.4895116 21.0988232,17.340171 L21.2575673,14.5988855 Z" id="Path"></path>
                    <path d="M92.4980357,81.4695532 C92.5086497,81.7412183 92.4880239,82.0132201 92.4365849,82.2799328 C92.1689944,83.1396 91.4930353,83.4376179 91.091929,82.8845654 C90.6834609,82.3594486 90.332918,81.7895519 90.0467062,81.18529 C85.8339725,71.3690371 78.6956205,64.2893914 70.0472541,58.6104301 C69.5965296,58.3321004 69.1661661,58.0204583 68.7595799,57.6779778 C68.2568004,57.2292315 68.6333264,56.6756058 68.6785765,56.1649635 C69.7440009,56.2518223 70.7603838,56.6608864 71.5991669,57.3404151 C78.8872354,62.3104376 85.3133163,68.1538819 89.6288406,76.1264352 C90.59306,77.9036538 91.5427546,79.6883229 92.4980357,81.4695532 Z" id="Path"></path>
                    <path d="M58.638183,123.764239 C58.9320821,123.059073 59.5968663,123.014577 60.1466916,122.769572 C60.4424523,122.664708 60.6860141,122.433942 60.8212534,122.130449 C60.9564927,121.826956 60.9717441,121.476914 60.8634933,121.160983 C60.5914416,120.001289 60.2226372,118.866377 59.9791952,117.700488 C59.7823799,116.903918 60.0797772,116.060506 60.7168038,115.608646 C61.8044905,114.736201 62.8609667,113.81588 63.9044385,112.881479 C66.7654031,110.318776 69.3907282,107.550493 70.7967622,103.700806 C70.9699806,103.227128 71.2649201,102.73937 71.8745656,102.82667 C72.7822716,102.95734 72.5034576,103.784164 72.638183,104.372741 C70.7523288,108.42433 68.0199957,111.944015 64.6581726,114.652279 C63.9689403,115.212131 63.3514921,115.880124 62.6461343,116.412378 C61.8573188,116.887177 61.5701867,117.962243 62.0031975,118.819629 C62.4411359,120.061305 62.8199744,121.326483 63.1382202,122.610177 C63.2230756,122.865907 63.2059396,123.148322 63.0909132,123.389832 C62.9758868,123.631343 62.7733215,123.810217 62.5316957,123.883644 C61.2707906,124.241296 60.1035171,125.311436 58.6771962,124.547694 C58.7094226,124.286193 58.6961907,124.020472 58.638183,123.764239 L58.638183,123.764239 Z" id="Path"></path>
                    <path d="M7.69448401,76.4424039 L8.60732455,77.4202042 C8.05771957,77.9286604 7.41255408,78.3176076 8.25834387,79.2204432 C11.5480543,82.7307463 15.1276141,85.9075109 18.7172051,89.0788432 C19.4310052,89.7095244 20.5122646,90.0810886 20.5070042,91.3337594 L18.9278606,91.4424039 L16.9744135,90.2473146 C13.9550179,87.3378155 10.9218953,84.4435265 7.92678582,81.5068663 C7.20998341,80.7874882 6.55842484,80.0023598 5.98020221,79.161232 C5.13969201,77.9661427 5.38994442,77.3729438 6.96378921,76.6080867 C7.20048205,76.5246097 7.44561396,76.4690268 7.69448401,76.4424039 Z" id="Path"></path>
                    <path d="M32.3968686,12.5037074 C31.8930665,11.9902134 31.3371409,11.5119208 30.7349318,11.0738541 C28.6384832,9.7749938 26.9651867,9.910138 25.0340229,11.4525346 C24.8426105,11.6056673 24.6994772,11.7975444 24.5262405,11.9658981 C24.1672712,12.3145978 23.755479,12.6005684 23.166474,12.3376599 C22.5774691,12.0747514 22.8035289,11.5627717 22.688795,11.1554941 C22.9659738,10.9276401 23.2442886,10.7011698 23.5191954,10.471932 C26.3182468,8.13527492 28.7611689,7.94432032 31.945317,9.82619177 C32.262004,10.022754 32.5523315,10.245841 32.8115008,10.4917654 C33.7134678,11.3146229 34.4331103,10.8519962 35.1323051,10.2837448 C35.3061126,10.1236658 35.4662783,9.95415036 35.6116881,9.77637753 L36.4778719,9.84141279 L36.3841536,9.78514115 C36.9051684,10.4262041 36.7433659,11.2835538 36.0098487,11.7684861 C34.9670203,12.5987235 33.7094919,12.6125608 32.3968686,12.5037074 Z" id="Path"></path>
                    <path d="M19.8511726,15.1278715 C20.0164113,15.0176641 20.1807665,14.9058823 20.344238,14.7925261 C20.5859107,15.4700393 20.1825337,16.3978808 20.9185973,16.8843678 C21.0045568,17.0265462 21.0768739,17.1796873 21.134203,17.3409414 L21.0392128,18.7054142 C19.1796139,20.2913514 18.8098149,22.7001706 18.6246945,25.1457257 C18.600953,26.3612883 18.6498225,27.5773204 18.7709352,28.7846696 C18.8151167,29.7996274 18.6074637,29.9329259 17.3756838,29.6846968 C17.1372234,27.9529666 17.0750698,26.1934429 17.1905634,24.4440718 C17.3412222,22.2787584 17.7578537,20.1790448 19.0227697,18.5705413 C19.8551489,17.5125501 19.9368846,16.3963064 19.8511726,15.1278715 Z" id="Path"></path>
                    <path d="M16.8595707,32.1404476 C16.8037982,32.0587858 16.8035622,31.9584144 16.8589505,31.876568 C16.9143387,31.7947216 17.0170884,31.7436099 17.1290826,31.7421938 C17.7173191,32.1782862 18.0334079,32.8181112 17.9857452,33.4762451 C18.0256219,34.3877781 18.1136258,35.298155 18.1810037,36.2091099 C18.1810037,38.7227136 18.1832955,41.237088 18.187879,43.7522331 C18.0565608,45.0406332 17.5691019,46.3810548 18.9682258,47.4394041 C19.1749791,47.619549 19.223527,47.8899479 19.0892311,48.1133721 C18.8657838,49.0191248 19.2624887,50.0907685 18.0923123,50.7421938 C17.1735987,49.314513 16.7615006,47.6951721 16.9049477,46.0764398 C16.9049477,44.3007713 17.707983,42.4453364 16.1644777,40.8234204 C16.1644777,39.9918465 16.1644777,39.1598872 16.1644777,38.3275426 C17.75336,36.3721108 16.9853888,34.2305574 16.8595707,32.1404476 Z" id="Path"></path>
                    <path d="M48.5051354,21.9481317 C48.9946652,21.6384786 49.2850222,21.142806 49.2862161,20.6147375 C49.3211872,19.8850147 49.3572075,19.155292 49.3942769,18.4255692 C49.6250865,18.7757628 49.8800262,19.1158723 50.0793617,19.4798169 C50.2367319,19.7713393 50.4140356,20.0073992 50.8200506,20.0252755 C50.7558432,20.517033 51.0228527,20.9968805 51.5051354,21.2564535 C50.9459468,21.92613 50.0153645,22.0512646 49.2416278,22.3922909 C48.9567878,22.5183422 48.6205402,22.268073 48.5051354,21.9481317 Z" id="Path"></path>
                    <path d="M74.7630996,94.441808 C74.6464344,92.4126863 73.9603166,90.3356549 75.4094882,88.441808 C75.546964,90.4737479 75.6447105,92.4994876 74.7630996,94.441808 Z" id="Path"></path>
                    <path d="M17.2822646,31.4676214 C17.4034418,33.4952849 18.1478157,35.572855 16.6097981,37.4676214 C16.5955942,35.6358457 16.5818341,33.80407 16.568518,31.9722943 C16.8002193,31.7977148 17.0381349,31.6294905 17.2822646,31.4676214 Z" id="Path"></path>
                    <path d="M17.6336991,50.7397767 C18.8154199,50.1218502 18.4157202,49.1053145 18.6416374,48.2461389 C19.9053835,49.4814437 19.7538452,50.80941 19.0545445,52.1735636 C18.1056923,52.3205062 17.2200969,52.2969296 16.5875287,51.5978557 C17.1044964,51.4784015 17.5025694,51.1518982 17.6336991,50.7397767 L17.6336991,50.7397767 Z" id="Path"></path>
                    <path d="M16.875856,41.9001501 C18.2716229,43.1351853 17.5448294,44.5480375 17.5454511,45.9001501 C16.5587776,44.6307839 16.6632269,43.2703086 16.875856,41.9001501 Z" id="Path"></path>
                    <path d="M52.9366507,20.8127271 C52.637802,20.513697 52.4726272,19.9602709 52.5131132,19.3936443 L52.5455434,19.317735 L52.9291918,18.39259 C52.8702944,18.1922202 52.9037007,17.9523336 53.0099428,17.8127271 C53.3991044,18.2149411 53.4338046,18.8780935 53.4915302,19.5254314 C53.5158719,19.6373014 53.5114668,19.7603932 53.4793091,19.8669207 C53.4471515,19.9734482 53.3899523,20.054431 53.3206234,20.0915885 L52.9726482,20.7526322 L52.9366507,20.8127271 Z" id="Path"></path>
                    <path d="M14.014097,50.1894426 C12.919902,50.3662423 11.8303073,50.522029 11.014097,49.406162 C12.070112,49.1484686 13.1750381,49.4369576 14.014097,50.1894426 L14.014097,50.1894426 Z" id="Path"></path>
                    <path d="M73.0127515,99.5434716 C72.7998264,98.4443419 72.658798,97.3604956 73.7676681,96.5434716 C74.0323859,97.5972018 73.7537509,98.7044835 73.0127515,99.5434716 Z" id="Path"></path>
                    <path d="M57.0046198,124.15561 C57.0428757,124.299913 57.0520665,124.449653 57.0317193,124.597123 L56.0422508,124.60062 L56.1255816,123.60062 C56.3928498,123.821853 56.5557853,124.187715 57.0046198,124.15561 Z" id="Path"></path>
                    <path d="M16.100637,50.9152679 C15.7252251,51.1792875 15.3231592,50.8259637 15.100637,50.0364972 C15.4731385,49.8885175 15.8504952,50.2201276 16.100637,50.9152679 Z" id="Path"></path>
                    <path d="M53.6436577,119.826133 C54.5722302,119.911964 54.6938979,120.330901 54.6291138,120.826133 L53.6436577,119.826133 Z" id="Path"></path>
                    <path d="M54.7671426,123.942749 C55.4305566,124.171314 55.7693313,124.557454 55.6444788,124.942749 C54.5441285,124.769659 54.5890257,124.369519 54.7671426,123.942749 Z" id="Path"></path>
                    <path d="M51.4769891,21.5269866 L52.4630067,20.5270617 C52.5121335,20.7776813 52.4304035,21.0342864 52.2399311,21.2274453 C52.0494588,21.4206042 51.7699337,21.5303495 51.4769891,21.5269866 L51.4769891,21.5269866 Z" id="Path"></path>
                    <path d="M57.9399913,60.9751999 C57.396482,60.8005352 57.0157963,60.4198495 56.9399913,59.9751999 L57.9399913,60.9751999 Z" id="Path"></path>
                    <path d="M73.0811852,102.143029 C72.9109819,101.736162 73.2219989,101.308541 73.8070347,101.14505 C73.8835293,101.429432 73.9594574,101.714381 74.0348188,101.999895 C73.7435045,102.10638 73.4129637,102.155992 73.0811852,102.143029 L73.0811852,102.143029 Z" id="Path"></path>
                    <path d="M55.5272127,124.581639 C55.8538287,124.466783 56.1963267,124.454453 56.5272127,124.545639 C56.2176528,125.735639 55.8838136,125.702639 55.5272127,124.581639 Z" id="Path"></path>
                    <path d="M34.2589549,80.3618205 C34.146912,79.8778521 33.6231114,79.4528358 34.0062981,78.902055 C34.1608124,78.6859407 34.397094,78.542893 34.6598631,78.5063788 C34.9226322,78.4698647 35.1888347,78.5430877 35.3961905,78.7089168 C36.7967269,79.4635033 38.1709333,80.2618828 39.5557838,81.0428573 L43.3366719,83.1763607 C44.8324449,82.66825 44.4918344,81.1416722 45.1254371,80.1978776 C45.7543015,79.179648 46.2685472,78.094661 46.6587444,76.9628127 C46.7607035,76.6994935 46.5002037,76.2059804 46.2772383,75.9190804 C41.8733631,70.2502752 36.8991679,65.0506462 31.4332326,60.4023345 C29.4203816,58.6938475 27.3038909,57.108879 25.2350185,55.4672043 C25.5750687,54.9012644 26.1537704,54.8597172 26.7190269,54.7878518 C27.4311867,55.1246504 28.1161508,55.5164109 28.7677316,55.9595944 C35.0258887,60.9222356 41.0515567,66.1291069 45.8257053,72.6239405 C46.2929243,73.2589385 46.8021593,73.8636183 47.2968288,74.4879487 C49.0895155,72.8344836 50.3914541,70.7312984 51.9073948,67.002159 C50.4284283,67.0178795 49.3567378,67.8443314 48.1746851,68.2889984 C47.6307167,68.493927 47.0766645,68.4327292 46.9276474,67.8089601 C46.8835879,67.4304874 47.0326882,67.0552273 47.3242793,66.8107051 C48.8671103,66.0527499 50.3987369,65.1387122 52.0446474,64.7586117 C53.9583404,64.3161904 54.9958578,63.1130068 55.8541065,61.5858675 C56.0221709,61.2849312 55.8714732,60.8037701 55.8681119,60.4068261 C56.7913455,60.4225467 57.4826503,60.989048 58.2350185,61.4101342 C54.2860659,66.7944231 51.0704342,72.6205718 47.9920551,78.5270076 C44.169711,85.8606449 43.2750483,93.733834 43.7607544,101.859113 C43.8909557,103.187315 44.2675267,104.479463 44.8710997,105.669101 C44.9758598,105.900418 44.6991138,106.451199 44.4414151,106.663988 C44.1125691,106.935167 43.6699996,106.720132 43.4038977,106.412459 C42.6241118,105.49121 42.1599021,104.343481 42.0795504,103.138093 C41.9876752,102.076955 41.9988795,101.004589 41.9675075,99.9378374 L41.9226903,98.7453212 C41.6498658,97.5595425 42.1669439,96.235086 40.3159949,95.5141865 C38.9552337,94.9841793 38.049927,93.3295912 36.8818796,92.240943 C35.2045971,90.678994 33.1558924,89.6835462 31.1604081,88.6083727 C30.9857037,88.5104787 30.8573226,88.3466242 30.8038659,88.153313 C30.7504091,87.9600019 30.7763175,87.7532932 30.8758191,87.5792381 C31.0447259,87.2010038 31.469883,87.0099381 31.8640376,87.1351325 C34.8331748,88.1429321 37.2633857,89.9985186 39.5188096,92.1129328 C40.1697789,92.7232271 40.7647268,93.3935963 41.2879672,93.9353939 C41.6845992,93.7967162 41.8414592,93.787733 41.9109258,93.7046387 C41.9765865,93.5882441 42.0118501,93.4571145 42.0134451,93.3234153 C42.3294061,91.0776222 42.6296811,88.8245303 42.9624486,86.5792987 C43.0953374,85.7593381 42.6696124,84.9504665 41.9193291,84.5973863 C39.3983635,83.1224617 37.0740332,81.2949476 34.2589549,80.3618205 Z" id="Path"></path>
                    <path d="M74.1469268,73.583241 C75.6075151,74.5793743 77.0800044,75.555109 78.5286916,76.5838802 C78.765422,76.7040218 78.9474163,76.9502134 79.0253844,77.2557781 C79.1033524,77.5613428 79.0692256,77.8946594 78.9322467,78.1654543 C78.6624946,78.4910023 78.2791204,78.6207688 77.9157855,78.5095113 C74.8748264,76.7953955 71.9825425,74.6918315 69.2847908,72.2321714 C68.8682527,71.8595563 69.1051925,71.0470107 69.5146982,70.5486041 C69.7622058,70.5893384 70.0033453,70.6771499 70.2298455,70.8090266 C70.4425512,71.2572823 70.8348328,71.5212152 71.2495525,71.4951007 C71.4472865,71.4875267 71.6372955,71.5918435 71.7672499,71.7793217 C72.3567854,72.728299 73.2040908,73.3706008 74.1469268,73.583241 L74.1469268,73.583241 Z" id="Path"></path>
                    <path d="M74.947687,72.9169499 C73.922059,72.7315362 73.0004419,72.1715329 72.3594344,71.3442467 C72.786496,71.2619093 73.1635574,70.8928719 72.8482612,70.6055796 C72.0374573,69.8610016 70.9754534,69.4553831 69.8782412,69.4712193 C69.3243092,69.0932341 68.7987672,68.6746896 68.3058778,68.2189803 C68.16415,67.982954 68.1436962,67.692721 68.2509029,67.438905 C68.3581097,67.185089 68.5799137,66.9986177 68.8470579,66.9377159 C69.3911318,66.8845243 69.9402847,66.9337374 70.4664805,67.0828429 C71.9959074,67.7048757 73.488574,68.4148979 74.9370987,69.2093983 C76.5929921,70.1506508 76.5529919,70.4118795 75.085335,72.1711746 C74.9441576,72.3376264 74.9888637,72.6634218 74.947687,72.9169499 Z" id="Path"></path>
                    <path d="M43.8658913,99.3824527 L43.923164,100.324081 C42.2107082,100.425604 40.4996843,100.412747 39.4437176,99.4077224 C38.3698532,98.3836347 35.186919,98.2550696 36.0789424,96.3970818 C38.5223419,96.1368483 39.3950357,97.5417548 40.9671732,98.193447 C41.9315035,98.5924422 42.6194926,99.2436911 43.8658913,99.3824527 Z" id="Path"></path>
                    <path d="M53.0323757,89.1570219 C53.020812,90.366465 53.0061647,91.5765039 52.998841,92.7865428 C52.9938301,93.6093216 52.9487318,94.4035027 52.4661414,94.9420922 C51.7757904,93.0564333 52.0340456,91.1183454 52.3855812,89.2112383 C52.4669123,88.7709533 52.804186,88.9586255 53.0323757,89.1570219 Z" id="Path"></path>
                    <path d="M58.2073053,84.5132519 C58.1846523,83.8637179 58.1465379,83.2146424 58.1443805,82.5655668 C58.1853849,82.0190088 58.0195007,81.4802821 57.6977945,81.1152313 C57.7229644,80.7682326 57.85205,80.5005348 58.1382678,80.513828 C58.3992884,80.4997374 58.6242937,80.7457156 58.6531721,81.0767268 C58.7831548,82.2533992 58.6275662,83.4526008 58.2073053,84.5132519 L58.2073053,84.5132519 Z" id="Path"></path>
                    <path d="M57.3219007,89.7333015 C57.1880414,90.3222776 56.9753807,90.7803701 56.6154405,90.6697735 C56.3215696,90.5794638 56.319849,90.0389147 56.3222578,89.5926017 C56.3277636,88.5402977 56.2585972,87.4330226 56.7888725,86.6863318 C56.7974753,87.2838154 56.8191543,87.8819533 56.8108956,88.4787824 C56.7911205,88.7740325 56.8338602,89.0721243 56.9297035,89.3074201 C57.0255468,89.5427158 57.1666348,89.6959212 57.3219007,89.7333015 L57.3219007,89.7333015 Z" id="Path"></path>
                    <path d="M57.4924741,82.2275865 C57.6528494,83.631303 58.0172168,85.0705399 56.7644103,86.2275865 C56.5076677,84.8518128 56.7662006,83.4314266 57.4924741,82.2275865 L57.4924741,82.2275865 Z" id="Path"></path>
                    <path d="M63.4588889,57.8441285 C63.673643,57.1816376 64.061673,56.817355 64.4588889,56.9053282 C64.3453265,58.1255554 63.8784188,57.8896116 63.4588889,57.8441285 Z" id="Path"></path>
                    <path d="M94.0039082,88.8099552 C94.3248818,89.0311986 94.3893123,89.4477466 94.0695173,89.7071355 C93.9129296,89.849299 93.7313796,89.8437855 93.5771578,89.6921829 C93.422936,89.5405803 93.313164,89.2597194 93.2794587,88.9304947 L94.0039082,88.8099552 Z" id="Path"></path>
                    <path d="M21.4208065,90.0992182 L22.4208065,89.96499 C22.1640362,91.2636479 22.0005457,91.2857955 21.4208065,90.0992182 Z" id="Path"></path>
                    <path d="M62.9438509,58.7495157 C63.1141558,58.1896376 63.4994051,57.8043882 63.9438509,57.7495157 C63.7774529,58.3135178 63.390041,58.7009297 62.9438509,58.7495157 Z" id="Path"></path>
                    <path d="M61.0566074,59.9488122 C61.3899407,59.6152314 61.7232741,59.2818981 62.0566074,58.9488122 C61.9982033,59.4888071 61.5780258,59.9089846 61.0566074,59.9488122 L61.0566074,59.9488122 Z" id="Path"></path>
                    <path d="M60.0265313,61.6631468 L61.0265313,60.6631468 C60.9976576,61.1777805 60.5763012,61.5991369 60.0265313,61.6631468 L60.0265313,61.6631468 Z" id="Path"></path>
                    <path d="M59.5114932,62.5203141 C59.6058876,62.0520901 59.9905858,61.6673918 60.5114932,61.5203141 C60.4834676,62.0137509 60.0705197,62.4266988 59.5114932,62.5203141 Z" id="Path"></path>
                    <path d="M59.5114932,62.5203141 C59.5373485,62.0391721 59.9457287,61.6307919 60.5114932,61.5203141 C60.4901044,62.0028756 60.0797712,62.4132088 59.5114932,62.5203141 L59.5114932,62.5203141 Z" id="Path"></path>
                    <path d="M31.8208302,33.796801 C29.9366773,34.8085537 28.053448,35.8195259 26.1711424,36.8297173 C25.9420329,36.9661906 25.7023193,37.0817592 25.4546101,37.1751653 C24.9615789,37.4192839 24.3742251,37.2040305 24.1301615,36.6897816 C24.0736128,36.2956435 24.2113103,35.8982632 24.4953546,35.6358724 C25.4928473,34.9596141 26.565152,34.4063118 27.5986653,33.7921169 C28.7097613,33.1316672 28.7524318,33.0040271 28.1040616,31.4606356 C27.9982165,31.2076974 27.8718674,30.9647128 27.7549391,30.7170442 C27.8048138,30.2486401 27.8543189,29.7786747 27.9034547,29.3071479 C28.4113532,29.193015 28.9363952,29.3948204 29.2561656,29.8270764 C29.9122942,30.4623495 30.0375349,31.5666121 31.0799148,32.013938 C32.2065274,31.6193075 33.4179268,31.1678831 34.6465053,30.7773512 C35.1382057,30.6257458 35.6471927,30.545769 36.1593693,30.5396361 C36.4181316,30.5028941 36.6784485,30.5944983 36.864684,30.787833 C37.0509194,30.9811676 37.1421893,31.2545523 37.1119748,31.5285542 C37.0776167,32.2657051 36.4724711,32.2411139 35.9781581,32.3289397 C35.3078889,32.0492862 34.5454926,32.3419956 34.2015128,33.0110531 L33.9039274,33.168554 L33.5714299,33.1451338 C32.9155238,32.8864654 32.1784133,33.1608575 31.8208302,33.796801 Z" id="Path"></path>
                    <path d="M33.2780356,42.4113011 C33.7749135,42.6132251 33.9573568,43.1255352 34.2356085,43.5709218 C34.7202555,44.3468869 34.5301679,45.6795853 35.4118076,45.9870868 C36.0330324,46.2040108 36.8209024,45.7332394 37.538445,45.7095855 C37.8828404,45.7316206 38.1955915,45.9441413 38.3747287,46.2778573 C38.5469797,46.8547831 38.2585357,47.2857466 37.6882728,47.4369011 C34.5241583,48.3590612 31.4537172,49.6526151 28.5268637,51.2965342 C28.1994683,51.5198927 27.7745061,51.4076131 27.5682716,51.0432638 C27.4309651,50.8165914 27.3892577,50.5327714 27.4543439,50.2679824 C27.51943,50.0031933 27.684643,49.7845574 27.9056389,49.6707575 C28.3207097,49.3918533 28.7485391,49.138035 29.1873291,48.9103694 C30.1693636,48.3790208 31.163629,47.8753647 32.1431155,47.3376699 C33.2673336,46.7203594 33.3427571,46.5224738 32.9748127,45.1032365 C32.8392542,44.5840034 32.6354068,44.082078 32.4651943,43.5726526 L33.2780356,42.4113011 Z" id="Path"></path>
                    <path d="M32.4352446,42.624859 L31.6101385,43.8081388 C31.0428781,43.1027559 30.5787559,42.2762823 29.4958042,42.8053195 C28.2653648,43.4066583 26.9797464,43.8663328 25.7034105,44.333649 C25.4680914,44.3542108 25.2391533,44.2403579 25.0923163,44.0297465 C24.8629613,43.6892429 24.8980027,43.2058632 25.1732799,42.9128903 C25.5270547,42.5338229 25.9318507,42.221848 26.3722621,41.9888388 C28.9871607,40.7873366 31.6128889,39.6156173 34.2494465,38.4736808 C34.5939051,38.3475088 34.9581686,38.3074111 35.3174432,38.356117 C35.5397061,38.3761029 35.9177078,38.5683197 35.9300844,38.7164501 C35.9615416,39.0861883 35.9336942,39.6892906 35.7367002,39.8191986 C34.8940606,40.3758633 33.9756144,40.7826341 33.0958451,41.2693483 C32.6340876,41.5014538 32.3641498,42.0553493 32.4352446,42.624859 Z" id="Path"></path>
                    <path d="M26.2746112,28.1954568 C25.370918,27.9811496 24.612786,28.4208681 23.8261484,28.6812569 C23.1529272,28.903337 22.6737879,28.7023546 22.5069988,28.1482648 C22.4183585,27.7802156 22.5254538,27.3954865 22.7956955,27.111151 C24.2147419,25.9949164 26.1171484,25.5406978 27.9509925,25.8802723 C28.1971685,25.9764755 28.382185,26.1699486 28.4537856,26.4060468 C28.5102527,26.6540367 28.460534,26.9124071 28.3148958,27.127807 C27.8181678,27.7940471 26.634269,27.4265047 26.2188127,28.2587497 L26.2746112,28.1954568 Z" id="Path"></path>
                    <path d="M40.6919457,64.2480937 C40.3221003,64.2102994 39.8982575,63.4549862 40.1260823,63.2379554 C40.353907,63.0209245 40.5321725,62.7477749 40.8221313,62.6309561 C42.6898503,61.8790788 44.5671854,61.1380816 46.4785463,60.4549212 C46.9670609,60.2450278 47.582432,60.3699306 47.8750823,60.7383784 C48.1754804,61.0866543 48.1076684,61.5518745 47.7145695,61.8395666 C45.8557267,63.1566404 43.5057292,63.7292812 41.193456,64.34487 C41.0566132,64.3826643 40.8591158,64.2818795 40.6919457,64.2480937 Z" id="Path"></path>
                    <path d="M27.4015971,54.868416 C26.7679524,54.9376052 26.1192359,54.9765241 25.7380442,55.5224701 C25.1100515,55.2446322 24.625869,54.7889566 23.7912666,54.7997674 C22.1729274,54.7864148 20.6144264,54.2713214 19.4015971,53.3489566 C20.1219048,53.2473349 20.8541444,53.1662539 21.2453839,52.5224701 C23.6053808,52.7019295 25.406464,53.9727403 27.4015971,54.868416 Z" id="Path"></path>
                    <path d="M31.9598776,34.6638023 C32.532871,34.4957638 33.154699,34.3197901 33.7088096,34.5909856 C35.1538955,35.2539688 36.0076595,36.4119474 35.9578084,37.6413513 C35.9377435,37.95564 35.7130517,38.2449518 35.3509564,38.4227304 C35.0429724,38.5160851 34.2505487,38.3578488 34.1789245,38.1935445 C33.6222094,36.9458586 32.0360597,36.0137116 32.0445244,34.6031217 L31.9598776,34.6638023 Z" id="Path"></path>
                    <path d="M49.3142893,59.9435377 C48.1737595,59.2246154 47.3699372,58.2319873 47.0278535,57.1200528 C46.8803641,56.7423893 46.865685,56.3696304 47.3633745,56.1347487 C47.9397881,55.8490383 48.7037227,55.9777758 49.0773276,56.4235823 C50.3425214,57.5680174 50.0559306,58.7702192 49.2234191,59.9827755 L49.3142893,59.9435377 Z" id="Path"></path>
                    <path d="M17.6621669,35.6104541 C17.6243492,34.8977135 17.5766989,34.1854253 17.5547646,33.4722325 C17.5809816,32.9573018 17.4071165,32.4566962 17.083556,32.115493 C17.153897,31.7803783 17.3584907,31.530286 17.6156511,31.6343027 C17.8149504,31.7148025 18.1012305,32.0567009 18.0826998,32.2452877 C17.9718939,33.3709293 18.1560661,34.5558152 17.6621669,35.6104541 Z" id="Path"></path>
                    <path d="M19.3896539,46.9302263 C18.0307448,45.7820839 18.5050621,44.3279375 18.6324807,42.9302263 C19.4917222,44.1617673 19.5224094,45.532515 19.3896539,46.9302263 Z" id="Path"></path>
                    <path d="M39.781323,28.5287911 C39.5861169,28.7075174 39.3907133,28.8862438 39.1951121,29.0649701 C38.8341389,28.9071629 38.6536523,28.5577326 38.8839283,28.2811129 C39.2345287,27.8597859 39.5643835,28.1150802 39.781323,28.5287911 Z" id="Path"></path>
                    <path d="M27.0893454,30.0618127 C27.0288778,30.2977313 26.9679556,30.5344363 26.9065788,30.7719277 C25.8215726,30.5569469 26.6065142,30.0774423 26.1530076,29.7719277 C26.1530076,29.7719277 26.0848111,29.8043666 26.0895848,29.8028921 C26.1509617,30.084225 26.8377003,29.9170177 27.0893454,30.0618127 Z" id="Path"></path>
                    <path d="M35.3489653,32.797644 C35.5425773,31.9805883 35.9716986,31.6231304 36.3489653,31.9646443 C36.0473434,32.4415635 35.7557027,32.9856946 35.3489653,32.797644 Z" id="Path"></path>
                    <path d="M31.2323492,33.6552598 C31.4358978,32.9814904 31.8574605,32.6904106 32.2323492,32.9647818 C32.1851665,33.2628773 32.1377731,33.5620021 32.0901691,33.8621562 L32.1309274,33.7855737 C31.8303481,33.7431651 31.5308221,33.6997271 31.2323492,33.6552598 Z" id="Path"></path>
                    <path d="M22.1008081,54.5670765 C21.7019768,54.7373595 21.2956929,54.3531542 21.1008081,53.6214194 C21.4944655,53.5283568 21.8805063,53.893419 22.1008081,54.5670765 Z" id="Path"></path>
                    <path d="M61.9246913,107.195397 C61.8244466,107.159116 61.4429269,107.129637 61.379242,106.977142 C61.2004037,106.630638 61.1454768,106.23709 61.2229781,105.85752 C62.5927931,102.1982 64.0056545,98.5547538 65.4273609,94.9135746 C65.5340175,94.6708307 65.7204159,94.4683368 65.9580684,94.3370404 C66.1929027,94.2032036 66.4727176,94.1625375 66.7382085,94.2236611 C66.976595,94.3381593 67.1428316,94.5562426 67.1845925,94.8092656 C67.2075262,95.341708 67.135326,95.8739888 66.9711301,96.3829715 C65.7292745,99.659069 64.4520385,102.923262 63.1659572,106.183486 C62.9690058,106.671017 62.7667473,107.214672 61.9246913,107.195397 Z" id="Path"></path>
                    <path d="M57.6830406,106.720641 C57.7091915,105.677554 57.7614735,104.638277 57.8396576,103.607357 C57.9208566,103.214207 58.0855689,102.930589 58.2813594,102.846791 C58.6817359,102.740906 58.7128797,103.522132 58.6670625,104.049622 C58.5269157,105.654687 58.6685597,107.40373 58.1726559,108.837055 C58.1214484,108.010633 58.0711393,107.184858 57.6830406,106.720641 Z" id="Path"></path>
                    <path d="M73.6914058,92.0133099 C73.8013882,93.3718585 74.5092746,94.7748272 73.0075155,96.0133099 C72.9001994,94.655201 72.8782029,93.3032494 73.6914058,92.0133099 Z" id="Path"></path>
                    <path d="M59.0268497,106.652882 C59.4994492,107.066971 59.5590694,107.806334 59.6212344,108.54339 C59.645955,109.114926 59.5485268,109.67089 59.1486349,109.652435 C58.979206,109.62557 58.8257052,109.482279 58.7286241,109.26036 C58.631543,109.038441 58.6006317,108.760181 58.6440441,108.498982 C58.7367279,107.866754 58.8648393,107.24893 59.0268497,106.652882 Z" id="Path"></path>
                    <path d="M54.4443612,118.938889 C53.4153347,118.79318 52.2673701,119.362175 51.4443612,117.991779 C52.0709099,117.973565 52.6974585,117.948795 53.3245382,117.939324 C53.8560426,117.928396 54.3020603,118.120003 54.4443612,118.938889 Z" id="Path"></path>
                    <path d="M73.2112737,97.4006389 C73.4213905,98.5092499 73.5467602,99.5983888 72.4149312,100.400639 C72.2100033,99.3412526 72.4994028,98.2510203 73.2112737,97.4006389 L73.2112737,97.4006389 Z" id="Path"></path>
                    <path d="M56.4033069,120.626836 C55.4274128,119.82134 55.4720251,118.734659 55.595406,117.626836 C56.4161036,118.384614 56.7307594,119.553034 56.4033069,120.626836 Z" id="Path"></path>
                    <path d="M72.1649805,100.114973 C72.1436471,100.448307 72.1229805,100.78164 72.1029805,101.114973 C71.0949805,100.762162 71.4419805,100.43526 72.1649805,100.114973 Z" id="Path"></path>
                    <path d="M73.0348188,101.14505 L74.0348188,101.321647 C73.9201757,101.92141 73.6846364,102.32875 73.2901601,102.061355 C73.1494618,101.96556 73.1166322,101.462425 73.0348188,101.14505 Z" id="Path"></path>
                    <path d="M15.2133935,52.1350377 C14.1543977,52.3433628 13.0635754,52.0539467 12.2133935,51.3390801 C13.3219341,51.1388613 14.4123124,50.9913316 15.2133935,52.1350377 Z" id="Path"></path>
                    <path d="M17.2999335,52.8383347 C16.9274933,53.0230477 16.5434527,52.6953136 16.2999335,51.9849507 C16.6740784,51.7053657 17.0794208,52.0512784 17.2999335,52.8383347 L17.2999335,52.8383347 Z" id="Path"></path>
                    <path d="M19.8714354,54.3354537 C19.4840346,54.5254274 19.0789748,54.1969239 18.8714354,53.5244537 C19.258047,53.3540948 19.6574591,53.678018 19.8714354,54.3354537 L19.8714354,54.3354537 Z" id="Path"></path>
                    <path d="M22.6373321,17.5348359 C21.5775737,17.0025443 22.1579933,15.9873431 21.8108858,15.2460396 C21.9380314,14.7648526 22.0747129,14.2882592 22.8108858,14.6787212 L22.6373321,17.5348359 Z" id="Path"></path>
                    <path d="M52.9920272,19.6698944 L51.9920272,20.6698944 L52.9920272,19.6698944 Z" id="Path"></path>
                    <path d="M28.8411331,17.555736 L29.4132663,17.4257678 C29.6464533,17.4542274 29.8247166,17.7064359 29.8251035,18.0084387 C29.8308577,18.1470185 29.8362009,18.2861282 29.8411331,18.4257678 C29.4337467,18.3113903 29.0758623,18.0000195 28.8411331,17.555736 L28.8411331,17.555736 Z" id="Path"></path>
                    <path d="M31.1057123,18.3233144 C31.0948795,18.0813084 31.083144,17.8397625 31.0705058,17.5986767 C31.6751097,17.647676 32.0373304,17.9340804 32.0129567,18.5986767 L32.0705058,18.5407057 L31.1057123,18.3233144 Z" id="Path"></path>
                    <path d="M32.412635,19.9242329 C31.7930841,19.9064931 31.4172585,19.6476232 31.4681172,18.9708821 L31.412635,19.0254156 C32.0368094,19.033957 32.4337711,19.2698308 32.3650789,19.9708821 L32.412635,19.9242329 Z" id="Path"></path>
                    <path d="M33.7413594,71.0811116 C32.1548952,69.2877489 30.1627495,67.9384727 28.3122524,66.4332996 C28.0074562,66.158421 27.9654388,65.7051936 28.2147982,65.3820938 C28.4363737,65.0384396 28.8963038,64.9221036 29.2629977,65.1169594 C29.7559284,65.3200511 30.2221228,65.5793284 30.6517204,65.8893075 C34.8598166,68.9808956 38.3749679,72.7509644 41.768868,76.6341133 C41.9722303,76.8113494 42.0759331,77.0720623 42.0479277,77.3356805 C42.0199224,77.5992987 41.8635808,77.8340814 41.6272194,77.9674705 C41.2527065,78.0772934 40.8472727,78.0216674 40.5189609,77.8154162 C40.0929818,77.5001034 39.7064089,77.1377393 39.3670746,76.7356659 C38.5296482,75.8908587 37.6990209,75.0394643 36.8655606,74.1908145 C36.381869,73.1753671 35.5612956,72.3459756 34.5345915,71.834796 L34.477932,71.7799027 C34.4792358,71.5915982 34.4015466,71.410855 34.2626734,71.2791051 C34.1238002,71.1473552 33.9356524,71.0758972 33.7413594,71.0811116 Z" id="Path"></path>
                    <path d="M35.2197369,74.8268685 C35.5897272,75.3524417 35.9282797,75.9048525 36.2331779,76.4804836 C36.5019712,76.9066305 36.4233005,77.4943473 36.0547507,77.8134413 C35.6694265,78.0811067 35.1799527,78.0715465 34.8031928,77.7889965 C34.6638034,77.7258316 34.5339191,77.6390199 34.418098,77.5316077 C32.4926243,75.6369003 30.569076,73.7390773 28.6474532,71.8381388 C28.3476593,71.4697876 28.3081711,70.9209488 28.5514328,70.5035693 C28.7946945,70.0861898 29.2591404,69.9059014 29.6807907,70.0651757 C30.601809,70.6281238 31.4778996,71.2795044 32.376454,71.8942179 C33.0218002,73.1855029 34.0177608,74.2127677 35.2197369,74.8268685 Z" id="Path"></path>
                    <path d="M33.6088114,71.6227294 C33.8721863,71.6152676 34.1272607,71.7174094 34.3157282,71.9058066 C34.5041957,72.0942039 34.6099446,72.3527509 34.6088114,72.6223475 C34.0672229,72.6179681 33.6257323,72.1766421 33.6088114,71.6227294 L33.6088114,71.6227294 Z" id="Path"></path>
                    <path d="M70.13963,69.1255972 C70.5625265,68.919648 71.0026095,69.3355469 71.13963,70.0706436 C70.7328954,70.1057567 70.3483417,69.7423357 70.13963,69.1255972 Z" id="Path"></path>
                </g>
                <g id="yasai13" transform="translate(143.000000, 119.000000)">
                    <path d="M3,39.7883652 C3.03008058,39.3976852 3.12222011,39.0152729 3.27249423,38.657416 C3.39998654,38.4246874 3.61883202,38.2651339 3.86874018,38.2227115 C4.11864834,38.180289 4.3732502,38.2594738 4.56240464,38.4384509 C4.8893291,38.8306428 5.14065981,39.287419 5.3021064,39.7828077 C6.68963447,43.0000386 8.99382894,45.3847575 11.4880385,47.6188685 C12.9632659,48.9382166 14.7313463,49.5295335 16.5244836,50.0686101 C17.0465032,50.225887 17.4468922,49.8846572 17.7736764,49.4300545 C18.0675735,49.0210232 17.8822565,48.6686784 17.70738,48.3457882 C17.3973003,47.775034 17.0339747,47.2342902 16.6805674,46.6924349 C13.5270471,41.8351887 12.8776547,36.4394217 13.7050558,30.7491078 C13.9885124,28.7939828 14.2583965,26.8132934 15.2283089,25.064907 C15.3880344,24.6966235 15.7697553,24.4995954 16.1402771,24.5941877 C16.7144987,24.7547991 17.0214462,25.2144035 16.829343,25.7562588 C15.5851,29.3794671 15.1200505,33.2536505 15.4684379,37.0935383 C15.7317745,41.9174724 17.9501864,46.3818019 21.5478781,49.3277967 C21.7619061,51.6302647 21.7619061,51.6174825 23.677196,51.6113693 C25.2432548,51.6069233 26.8093135,51.6391567 28.3785044,51.6547177 C30.0196087,52.3400918 31.8718813,52.1271207 33.3376905,51.0845192 C34.0634774,50.5754739 34.8181981,50.1148013 35.5975134,49.7051502 C39.3905077,47.7939294 41.3329426,44.3699599 42.3712396,40.2574173 C43.4539082,35.9725926 43.2858179,31.5827313 42.889083,27.2395529 C42.6515641,24.6241981 41.9369193,22.0566377 41.423774,19.4712934 C40.9805794,17.2377382 39.9673394,15.2737213 38.8742303,13.341382 C38.7248948,13.1265231 38.6797354,12.8491616 38.7524338,12.5933289 C38.8251321,12.3374963 39.0071338,12.1332969 39.2432982,12.0425966 C39.589945,11.941786 39.9609616,12.0222277 40.2429657,12.2593387 C41.4907837,13.7445343 42.3938898,15.5206919 42.8796867,17.4450326 C44.7723131,24.044491 45.4071634,30.9800484 44.7469507,37.8443552 C44.5470007,39.8176394 44.0683064,41.7474667 43.3270574,43.5685698 C41.983901,46.9625289 39.9370622,49.6984812 36.7678813,51.3740645 C35.880448,51.8431166 35.0326882,52.4038673 34.1917146,52.9646181 C33.5934801,53.3642016 33.3350804,53.821583 34.0053536,54.4873703 C34.2326686,54.7897875 34.297758,55.1954781 34.1776201,55.5610774 C33.8551211,55.9896508 33.296194,56.1220619 32.8334196,55.8795216 C32.132229,55.6194436 31.458614,55.2817361 30.8236442,54.8719486 C29.0201331,53.6601745 26.8923764,53.1133929 24.7682169,53.3158514 C22.5198786,53.4303357 20.3310504,53.4270012 18.1834618,52.5755938 C17.5753682,52.4411107 16.9518693,52.4036511 16.3334244,52.464444 C16.2488572,52.3699667 16.1768185,52.2204702 16.0760687,52.1865695 C10.1574106,50.3248104 6.15769651,46.1472452 3.46720753,40.3791263 C3.33485516,40.1625234 3.17793699,39.964108 3,39.7883652 Z" id="Path"></path>
                    <path d="M53.8927606,14.2672841 C53.9646617,14.5143129 54.0007811,14.7706202 54,15.0281766 C53.98303,15.394236 53.8707463,15.7492141 53.6745546,16.0570118 C53.537621,16.189632 53.3539044,16.2609807 53.1646122,16.2550543 C52.9753201,16.2491279 52.7962968,16.1664226 52.6676972,16.0254891 C51.3756172,14.981436 50.0374298,13.9895584 48.8112941,12.8732205 C46.2684163,10.5465201 43.4151176,8.50732841 41.7246909,5.35288578 C41.2962617,4.36848353 40.2102034,3.8633759 39.1946803,4.17621999 C38.7207389,4.27459251 38.0007126,4.29470181 37.7187068,4.01317161 C35.8009598,2.10550558 34.0805097,2.5457362 32.1171914,4.03110693 C31.3832256,4.58655841 31.0679796,3.25771412 30.5002149,2.69411023 C29.9989308,3.05064268 29.4510031,3.37891342 28.9749172,3.79196931 C28.1148546,4.58370593 26.9834569,5.00307779 25.8224564,4.96048269 C22.6823267,4.83602242 19.845112,6.0952994 16.9382,6.98282607 C13.66779,7.98122564 11.2165909,10.2981431 8.81310763,12.616691 C2.86042531,18.3521895 1.39088534,25.5692542 2.23261382,33.5113407 C2.314106,34.2760376 2.59503958,35.0173642 2.7360425,35.7782567 C2.83308254,36.3010985 2.80734816,36.8326362 2.14093511,36.9739448 C1.763785,37.0649895 1.370096,36.9127685 1.14855332,36.5902376 C0.920160758,36.2880546 0.671931278,36.0010895 0.432279923,35.7070589 C0.326125632,34.5497777 0.21997134,33.3914096 0.113817049,32.2319544 C-0.412665347,26.5334136 0.926594351,21.214232 3.31935497,16.1108178 C3.41330143,15.8709798 3.53591954,15.6437319 3.6844614,15.434167 C7.44864969,10.8198979 11.4583868,6.51324674 17.3606726,4.71264915 C20.0332946,3.89740726 22.6742847,2.88270285 25.5484925,3.05227317 C26.4514448,3.06234911 27.3201883,2.70255498 27.9578733,2.05441709 C29.3035666,0.88209925 30.589213,-0.540769598 32.6109697,0.813075436 C32.8423479,0.871531999 33.0872784,0.810526156 33.2655878,0.650027058 C34.5147772,-0.647294539 35.5784647,0.288603153 36.6185623,0.94840559 C37.7814343,1.68592776 38.8027673,2.69356673 40.3714918,1.81419248 C40.9489068,1.48809572 41.6019165,1.8625635 42.0511958,2.39681868 C42.1422053,2.48736217 42.2244319,2.58655182 42.2967446,2.69302324 C44.9280843,7.44860094 49.1753283,10.5726079 53.2611962,13.8574892 C53.4646145,14.0050237 53.675417,14.1418043 53.8927606,14.2672841 Z" id="Path"></path>
                    <path d="M44.8218945,56.8913146 C42.4162638,56.9304968 40.0111661,56.9834458 37.6055353,56.9972125 C36.9757512,57.0151383 36.3464939,56.9465384 35.7356145,56.7933589 C35.3852099,56.6655755 35.1145427,56.3832114 35.0032111,56.0293049 C34.9621667,55.8058601 35.3230379,55.3780322 35.6028864,55.2562495 C36.0676669,55.0705787 36.5630461,54.97202 37.0639619,54.9655595 C38.2041445,54.9242592 39.3475254,54.9126105 40.487708,54.9512632 C50.2701444,55.2689572 57.4502565,47.7957355 58.6890524,39.0459135 C59.6160179,33.1344559 58.3505072,27.0897508 55.1277808,22.0355181 C54.8612584,21.6087492 54.5488942,21.2068663 54.295165,20.7716255 C53.9705407,20.2156611 53.6917583,19.5638589 54.3591303,19.1259707 C54.8270076,18.878913 55.4061408,19.0043615 55.7279891,19.4224851 C55.9173119,19.5892869 56.1212066,19.7390175 56.3372592,19.8699041 C57.3804277,22.1546534 58.8009918,24.2556697 59.542457,26.6907941 C61.2396713,32.2647352 61.6900941,37.8243801 59.614418,43.4094405 C57.3820268,49.4165044 53.532378,53.8186842 47.2424505,55.8482193 C46.4098347,56.1182592 45.6273251,56.5402627 44.8218945,56.8913146 Z" id="Path"></path>
                    <path d="M34.9916327,33.0944604 C35.1357816,37.6737578 33.3907955,41.7015826 31.8130025,45.7586561 C31.2452626,47.0126351 30.3698983,48.0726655 29.2830423,48.8223343 C29.0065083,49.0610029 28.6141637,49.0590123 28.3397005,48.8175481 C27.8616557,48.439441 27.9587356,47.9709285 28.2009449,47.4949709 C28.2490592,47.3800552 28.312497,47.2734411 28.389221,47.1785521 C31.0564659,44.4132116 31.7639722,40.6560712 32.7078043,37.0403885 C33.3652404,34.4751136 33.4158294,31.7714707 32.854895,29.1793764 C32.7649535,28.813977 32.6919701,28.4439135 32.6362201,28.0705813 C32.5553203,27.3382978 32.3719472,26.5480486 33.1377995,26.0758136 C33.6589909,25.7567358 34.233135,26.4640248 34.5150588,27.8360591 C34.6678179,28.5741635 34.7765634,29.3221782 34.8406196,30.0754531 C34.9259322,31.0784208 34.9445637,32.0877701 34.9916327,33.0944604 Z" id="Path"></path>
                    <path d="M24.1290207,40.1065712 C23.9659795,42.0648032 24.2461264,44.0370002 24.9444331,45.8469649 C25.0320863,46.0863276 25.0153645,46.3566926 24.8990482,46.5807681 C24.7827319,46.8048436 24.5796243,46.9579647 24.3477898,46.9963572 C24.0113692,47.0251099 23.6815413,46.8824999 23.452825,46.6093951 C21.862026,43.8592256 21.5587307,40.4385524 22.6364182,37.401668 C22.7134638,37.2263511 22.8524223,37.0934617 23.0208893,37.0339889 C23.1893562,36.9745162 23.372605,36.993659 23.5279026,37.0869534 C23.7108732,37.1964193 23.975385,37.3710175 23.9922899,37.541237 C24.0748256,38.4246271 24.0927249,39.3162272 24.1290207,40.1065712 Z" id="Path"></path>
                </g>
            </g>
        </g>
    </g>
</svg>