<?xml version="1.0" encoding="UTF-8"?>
<svg width="146px" height="167px" viewBox="0 0 146 167" version="1.1" xmlns="http://www.w3.org/2000/svg" xmlns:xlink="http://www.w3.org/1999/xlink">
    <!-- Generator: Sketch 61.2 (89653) - https://sketch.com -->
    <title>Group 13</title>
    <desc>Created with Sketch.</desc>
    <g id="Page-1" stroke="none" stroke-width="1" fill="none" fill-rule="evenodd">
        <g id="Artboard" transform="translate(-964.000000, -4297.000000)" fill="#604838" fill-rule="nonzero">
            <g id="Group-13" transform="translate(964.000000, 4291.000000)">
                <g id="yasai14" transform="translate(111.500000, 39.500000) rotate(-105.000000) translate(-111.500000, -39.500000) translate(81.000000, 1.000000)">
                    <path d="M20.1297799,36.9784032 C23.1563327,36.283293 26.2199039,35.7666413 29.1843613,34.7836571 C32.9693375,33.5829227 36.4302076,31.5631984 39.3106851,28.8740502 C42.1981203,26.155631 44.887328,23.3980095 46.6928706,19.818309 C47.8099904,17.6042543 47.5568323,15.1959432 48.2852589,12.9614097 C48.3222976,12.8250081 48.3098458,12.6802347 48.2500317,12.5518329 C47.074399,10.1862348 46.1119206,7.61175261 43.794091,6.07701014 C40.7054429,4.03029678 37.2716877,2.65704456 33.4868548,2.63656572 C21.7305272,2.57395899 12.3600953,7.11440946 5.55766566,16.6388235 C3.82615983,19.0635176 3.67928037,21.8182136 3.22908885,24.5436541 C2.99921652,25.9321192 2.12988118,25.4213185 1.34413578,25.1287637 C1.14292286,20.090385 3.19505581,15.9747241 6.53865328,12.2633739 C13.2365955,4.82897138 21.6338017,1.13458939 31.680118,0.718576464 C36.5814736,0.514958324 40.882773,2.18661644 45.0139071,4.44923525 C45.8461825,4.9898507 46.5407009,5.71049107 47.0439484,6.55562979 C49.6238921,10.395119 51.9829195,14.3463641 53.3621535,18.7937821 C53.9720795,20.7960697 54.6932226,22.764193 55.5223563,24.6893464 C57.4208438,29.2021399 58.9223664,33.8656535 60.0105388,38.6289974 C60.2315897,39.7211739 60.338619,40.8325642 60.3299718,41.9459837 C60.340122,42.2695493 60.2272756,42.7897117 59.574677,42.6890729 C59.146945,42.6573507 58.7870638,42.3627524 58.6790705,41.9559306 C58.5309969,41.4205553 58.4999492,40.8547543 58.380535,40.3117726 C57.2190181,34.9921253 55.5708091,29.7858408 53.4558936,24.7560489 C52.4641587,22.4495469 51.7202083,20.0406507 50.8640085,17.6762228 C50.8871066,17.4091596 50.8669553,17.1401968 50.8043014,16.8793035 C50.7135056,16.6269662 50.5218959,16.4216641 50.2735053,16.310577 C50.0708732,16.2655497 49.8582606,16.3067436 49.6883597,16.4239496 C49.5184589,16.5411556 49.4071715,16.7234038 49.3820783,16.9255272 C49.3106439,17.461725 49.2761347,18.0020282 49.278785,18.5427701 C44.9398703,29.8353853 32.6718529,38.0807497 20.1238092,38.5283586 C20.1250034,38.0115117 20.1269936,37.49486 20.1297799,36.9784032 Z" id="Path"></path>
                    <path d="M14.9165649,36.4705303 L15.0821776,36.3258996 L15.2579645,36.4560067 C15.8441093,37.5664555 16.8762214,37.3715974 17.8122442,37.455108 C17.5245415,38.3023169 16.8326986,38.3095787 16.1815523,38.2932396 C13.1076805,38.1846425 10.1465326,37.0278846 7.72965057,34.9915457 C6.82132407,34.2653667 6.21822241,32.8862317 4.77179584,33.0937978 C4.52648551,32.798485 4.20656467,32.4916744 4.14608494,33.1543128 C4.12404092,33.3927415 4.54626861,33.678372 4.76783923,33.9410067 C6.42905364,37.7207685 8.05070187,41.5211054 9.7701351,45.2706097 C10.4834684,46.824089 11.3091491,48.3154845 12.2396301,49.7311644 C14.7927793,53.6174325 17.4358002,57.436529 20.0047759,61.3119043 C20.190076,61.6791898 20.2059408,62.1176758 20.0477335,62.499207 C19.6769418,63.2108625 19.0597094,62.8169104 18.6730913,62.5222027 C17.6003975,61.6370507 16.7227581,60.5100433 16.1024199,59.2211139 C14.6409314,56.6275017 13.0328705,54.1318613 11.2872156,51.7481266 C7.8155657,46.7253884 5.63490384,40.95166 3.34967422,35.2602319 C3.04557984,34.5037954 3.13149498,33.5658142 3.03653615,32.7137642 L2.55382873,31.3794102 C2.15719694,30.6471372 2.05190758,29.774989 2.26160421,28.9588135 C2.33282334,28.1382312 2.48769668,27.3618248 3.23436706,26.9079629 L3.22023628,26.9000959 C3.17219163,27.6746869 3.27054185,28.3693982 4.06808303,28.6828654 L4.02342977,28.6187196 L4.71583796,29.6057179 L4.7655783,29.6710741 L5.4709868,30.4771328 L5.57385888,30.5902957 L6.34087758,31.3207107 L6.40361824,31.3673072 L7.24750838,32.1594475 L7.23394283,32.1473445 C7.35289782,32.583349 7.68676381,32.9135662 8.10213791,33.0060512 L8.06313696,32.9679268 C8.17264028,33.4317419 8.56305631,33.7561507 9.00989917,33.7546208 L8.96185452,33.706814 C9.11785832,34.6060657 9.73282984,34.7652199 10.4478473,34.7634045 L10.4659347,34.7755074 C10.7552918,35.4081698 11.4005378,35.7597452 12.0485819,35.637845 L12.0802349,35.6487377 C12.7958176,36.8318044 13.9098882,36.4390625 14.9165649,36.4705303 Z" id="Path"></path>
                    <path d="M58.2276039,46.6932799 C58.2276039,45.5721307 58.2006925,44.4491933 58.2510051,43.3304282 C58.2603656,43.1247947 58.5470304,42.8655178 58.7658317,42.7498862 C58.9518481,42.6516722 59.1709741,42.6422994 59.364416,42.7242828 C59.5578579,42.8062661 59.7058094,42.9712114 59.7685735,43.174862 C60.026512,43.9781391 60.1787765,44.812713 60.2213869,45.6567682 C60.4483787,52.983875 59.3988344,60.0588574 55.9026938,66.5777354 C54.8753807,68.4928086 53.9071556,70.2958264 54.9830262,72.5411051 C55.2790345,73.3535852 55.2211566,74.2560838 54.823898,75.0224153 C54.4254924,76.0166082 53.7807891,76.7109936 52.6481706,76.6668867 C50.1483945,76.5838809 47.6958268,75.9509156 45.458734,74.8114175 C45.3060412,74.7333364 45.2165315,74.3190893 45.263334,74.0961707 C45.3219965,73.8324283 45.4938081,73.6094651 45.7313581,73.4888071 C46.1270569,73.3724708 46.5439815,73.352059 46.9488061,73.4292032 C48.0328671,73.6676187 49.0911868,74.0306065 50.1775879,74.252333 C52.9950935,74.8275105 53.2314457,74.6755206 52.6879526,71.9408939 C52.2357243,69.6640251 52.9295701,67.8097479 54.0095359,65.913748 C57.3945209,59.9754119 58.1427745,53.3909696 58.2276039,46.6932799 Z" id="Path"></path>
                    <path d="M40.6054273,75.4906515 C33.5182797,74.9021702 27.4380235,72.3423042 22.6776911,67.266307 C22.4978807,67.0677668 22.3734912,66.8303375 22.315729,66.5754089 C22.2018548,66.1857195 22.4062285,65.7760622 22.7979522,65.6088159 C23.0101775,65.5147032 23.3833404,65.4477171 23.5242344,65.5534555 C24.0642301,65.9636762 24.537021,66.450848 25.0392876,66.905357 C29.856803,71.268312 35.4896174,73.8004978 42.3038195,73.6814729 C42.7207405,73.6480738 43.140394,73.6607085 43.5541805,73.719118 C43.9238064,73.7966226 44.348257,73.9233979 44.2763362,74.4592868 C44.2285308,74.8539474 43.9269728,75.1802633 43.5176306,75.2802819 C43.1169283,75.397269 42.7018194,75.4651855 42.282597,75.4823475 C41.724916,75.5155637 41.1642873,75.4906515 40.6054273,75.4906515 Z" id="Path"></path>
                    <path d="M17.8539557,37.8136058 C16.7053914,37.7226141 15.438919,37.934928 14.7196791,36.7250026 L19.7196791,36.9096234 C19.7169048,37.4916184 19.7138993,38.0738331 19.7106626,38.6562677 C18.7944468,38.9668262 18.4462709,38.1432857 17.8539557,37.8136058 Z" id="Path"></path>
                    <path d="M2.48066286,28.2519598 C1.59771186,28.7160444 1.4153778,29.5099383 1.33122362,30.3490031 C0.66645762,29.5632507 0.372605765,28.5619711 0.516397432,27.5725401 C1.32788417,27.4122763 2.27428475,26.9160152 2.48066286,28.2519598 Z" id="Path"></path>
                    <path d="M4.56786781,34.7309455 C4.25491789,34.5075033 3.65240864,34.2661653 3.68063866,34.0662433 C3.76936157,33.5038031 4.22346159,33.7645708 4.57351381,34.0151124 C4.71699616,34.2452955 4.71497395,34.5016835 4.56786781,34.7309455 Z" id="Path"></path>
                    <path d="M2.10236243,32.2473816 L2.95236243,33.2473816 C2.26876727,33.0155499 1.93847556,32.6269714 2.10236243,32.2473816 L2.10236243,32.2473816 Z" id="Path"></path>
                    <path d="M15.2036437,33.1389374 C14.0488946,33.1799956 12.9106204,32.8373321 11.9454155,32.1580877 C9.99001566,30.6795954 8.43326888,28.6762311 7.43188086,26.349658 C6.42479214,24.2308199 7.21269096,22.4256255 9.25234181,21.2534214 C9.62022539,21.0424247 9.96322796,20.6590823 10.3447369,20.6166295 C13.8226317,20.1597708 17.3314711,20.0325511 20.8303076,20.2364552 C21.1895634,20.2703607 21.5186724,20.4651388 21.7363613,20.7726891 C21.9540501,21.0802393 22.040026,21.471892 21.9730571,21.8509287 C21.818712,22.8834662 21.6044396,23.9047296 21.3314823,24.9087974 C20.9659684,26.3509252 20.4938215,27.7639064 20.1679987,29.2174395 C19.5110214,32.1403462 18.9239479,32.7784055 16.3831223,33.0679715 C15.9672539,33.1123252 15.5448691,33.1186615 15.2036437,33.1389374 Z M15.473188,22.6581655 C13.4761904,22.6581655 12.070413,22.5979712 10.6711521,22.675907 C10.0992382,22.6355977 9.55229708,22.9321122 9.24457663,23.4492995 C8.93685619,23.9664868 8.91734795,24.6220067 9.1936937,25.1590788 C10.0056668,27.4114008 11.4875496,29.3156599 13.4110258,30.5784635 C14.5651823,31.1826231 15.9036097,31.240106 17.0993401,30.7368694 C18.289482,30.3408545 18.0987275,29.0824776 18.3078466,28.0965589 C18.339244,27.9501918 18.361163,27.8006566 18.4014466,27.6574576 C18.8416036,26.0949412 20.1425252,24.3144582 19.4677758,23.0091931 C18.5027478,21.1304984 16.4210362,23.0921978 15.473188,22.6581655 Z" id="Shape"></path>
                    <path d="M23.9110364,16.7979349 C23.7100823,17.4856277 23.0829266,17.9876127 22.3298118,18.0635711 C18.9756246,18.3147308 15.6159065,18.4941305 12.2580321,18.6960999 C12.1113015,18.6998181 11.9645025,18.6916865 11.8192469,18.6717941 C9.20189925,18.3980649 8.26041615,16.8228194 9.36721189,14.6358786 C10.5668039,12.2631724 12.6722355,10.8395486 15.0646596,9.70354313 C15.4590216,9.52164117 15.864992,9.36296283 16.2802298,9.22842316 C18.9909883,8.31811415 19.3406644,8.4390643 20.9040672,10.6861908 C21.8547684,12.0525223 22.8392697,13.3974417 23.8084073,14.7521991 C23.8428219,15.4335323 23.8770315,16.1154443 23.9110364,16.7979349 Z M16.2292225,16.6463132 L16.2292225,16.4970063 C16.8124259,16.4970063 17.3968582,16.5097379 17.9782179,16.4970063 C18.7064539,16.4773302 19.4383771,16.4674921 20.1604676,16.3899452 C20.6957364,16.3320743 21.3496124,16.5346224 21.7017467,15.93508 C22.0538811,15.3355376 21.6458231,14.9171311 21.2777106,14.4923588 C20.8174163,13.9616828 20.3448311,13.43853 19.9134205,12.8870205 C18.1085015,10.5808657 17.5166945,10.3846834 15.1138232,11.8337704 C13.9194706,12.6115276 12.8203081,13.5115095 11.8364541,14.5172433 C11.4769876,14.931524 11.3020819,15.4609077 11.3485053,15.9941083 C11.4167198,16.7105499 12.1984212,16.6133268 12.7355336,16.634739 C13.898253,16.6775635 15.0646596,16.6457345 16.2292225,16.6457345 L16.2292225,16.6463132 Z" id="Shape"></path>
                    <path d="M34.0659167,11.7056591 C35.5429071,10.6525005 36.9918867,9.55133131 38.5073921,8.56218712 C39.4758999,7.86454543 40.7924342,8.08666332 41.5063071,9.06814638 C42.4233134,10.1469248 43.2386881,11.3172055 43.9409195,12.562466 C44.4911117,13.6050232 44.5227171,14.8656018 44.0255357,15.9373742 C43.9134922,16.2026643 43.7833583,16.4593371 43.6648956,16.7221651 C41.5792521,21.3564318 40.1752066,21.9922662 35.5534112,20.3038888 C34.519781,19.8977091 33.5069055,19.4350306 32.5188991,18.9177328 C30.5867318,17.9624423 29.9290597,16.4224058 30.6801014,14.2736177 C31.9277528,13.5910036 33.290949,13.0801201 34.0659167,11.7056591 Z M39.4282498,19.1251638 C39.8563725,18.8759807 40.2474513,18.5617849 40.5889507,18.1926476 C41.0720189,17.4865602 41.4914767,16.7344052 41.8418541,15.9459916 C42.70669,14.1203527 42.1698148,12.1377556 40.2341462,10.747291 C39.0810316,9.91879807 38.2010231,11.0310467 37.3513597,11.7013504 C35.8090105,12.9176223 34.2900038,14.1677479 32.7744984,15.4221822 C32.6040244,15.5515544 32.5001338,15.7570565 32.4932781,15.9784541 C32.4864223,16.1998518 32.5773778,16.4120665 32.7394848,16.5528965 C34.6582301,18.0763139 36.9206924,18.6899896 39.4282498,19.1251638 Z" id="Shape"></path>
                    <path d="M28.9661722,31.9331668 C27.8203336,31.967844 26.6821805,31.7452532 25.6457669,31.2837889 C24.6389699,30.7996441 23.9432309,30.022586 24.1518299,28.9907453 C24.6119747,26.7109896 25.2009602,24.4491439 25.8660229,22.2144518 C26.0936412,21.4501039 28.1526361,20.6297154 28.9103413,21.0514644 C31.6712104,22.5899817 34.9480554,23.1255452 37.5070743,25.0182162 C37.8263654,25.2011972 38.0434441,25.5077141 38.1001276,25.8556123 C38.1568111,26.2035105 38.0473027,26.557212 37.8009535,26.8219154 C35.5739496,29.4382089 32.4510852,31.2449028 28.9661722,31.9331668 L28.9661722,31.9331668 Z M35.3468476,26.3574137 C34.6185916,25.1083433 33.2301812,24.941377 32.0589592,24.5866456 C30.7190173,24.1822287 29.6662059,23.0735488 27.9722593,23.1642537 C27.3912497,24.8096526 26.772815,26.4637176 26.2292305,28.1391589 C26.1079283,28.5382835 26.1809295,28.9675166 26.4285307,29.3110066 C26.6761319,29.6544966 27.0728103,29.8768363 27.5115009,29.9180154 C28.3605467,30.096147 29.2476675,30.0168765 30.0459788,29.6915419 C32.0411669,28.9000403 33.9878864,28.0363215 35.3468476,26.3574137 L35.3468476,26.3574137 Z" id="Shape"></path>
                    <path d="M30.7434295,13.4641354 C30.067655,13.9528218 29.3623425,14.4040165 28.6310625,14.8154356 C27.4723398,15.3926298 25.4837373,14.8081008 24.9838962,13.6926434 C24.3776947,12.3416452 23.8652134,10.9548837 23.4496947,9.54113325 C23.0096432,8.04482924 23.6446089,7.10258651 25.2720821,6.42947539 C27.7969974,5.38567357 30.4923131,5.20850937 33.1834435,5.04150108 C33.7495106,5.03646934 34.3109459,5.13813459 34.8348326,5.3405362 C35.5329017,5.53814662 36.0699665,6.06682198 36.2497216,6.73332327 C36.4294767,7.39982455 36.2255744,8.10645908 35.7125441,8.59494101 C34.8713042,9.48527575 33.6719246,10.0714974 33.1810519,11.2614315 L30.7434295,13.4641354 Z M33.8997231,7.12233412 C32.0665736,6.61453864 30.7213073,7.23517756 29.3527231,7.37792451 C25.2391978,7.81180753 25.0329237,8.21353018 26.5127165,11.7291676 C26.6155547,11.9729094 26.6633864,12.236963 26.7751929,12.4778838 C27.0884905,13.1549444 27.7168793,13.0505642 28.1766614,12.792717 C30.51025,11.4842973 32.0725525,9.46834923 33.8997231,7.12233412 Z" id="Shape"></path>
                    <path d="M15.3389387,37.27456 C14.2733225,37.2381095 13.0940245,37.6951428 12.3389387,36.3191359 C13.4093416,36.3324544 14.467778,36.4025515 15.3389387,37.27456 Z" id="Path"></path>
                    <path d="M3.81778017,28.7883429 C2.88818959,28.4366796 2.77355545,27.6573178 2.82955489,26.7883429 C3.39222338,27.3025064 3.74526704,28.0170068 3.81778017,28.7883429 L3.81778017,28.7883429 Z" id="Path"></path>
                    <path d="M11.6999803,35.5497131 C11.2905118,35.6872508 10.8828114,35.2905746 10.6999803,34.576753 C11.0901001,34.617443 11.4531674,34.970693 11.6999803,35.5497131 Z" id="Path"></path>
                    <path d="M9.76812864,35.0591149 C9.28695709,35.0591149 8.87311152,34.9102031 8.76812864,34.0591149 C9.18884893,34.1309877 9.56095263,34.5030913 9.76812864,35.0591149 L9.76812864,35.0591149 Z" id="Path"></path>
                    <path d="M24.7663702,17.0263467 L24.6043688,15.0263467 C25.6753243,15.6645362 26.1099149,16.3202646 24.7663702,17.0263467 Z" id="Path"></path>
                    <path d="M8.80220281,34.8002958 C8.33023334,34.8022337 7.91786366,34.3898668 7.80220281,33.8002958 C8.26870616,33.8184695 8.67277252,34.2225331 8.80220281,34.8002958 L8.80220281,34.8002958 Z" id="Path"></path>
                    <path d="M8.09509603,33.575551 C7.61748828,33.4680795 7.23312989,33.0837211 7.09509603,32.575551 C7.58676961,32.6520744 7.98429342,33.0495982 8.09509603,33.575551 L8.09509603,33.575551 Z" id="Path"></path>
                    <path d="M7.38798925,32.3508061 L6.38798925,31.3508061 C6.89351247,31.3524995 7.32040961,31.7793966 7.38798925,32.3508061 L7.38798925,32.3508061 Z" id="Path"></path>
                    <path d="M6.42206343,32.0919871 L5.42206343,31.0919871 L6.42206343,32.0919871 Z" id="Path"></path>
                    <path d="M5.71495664,30.8672422 L4.71495664,29.8672422 C5.24803467,29.9564801 5.65492097,30.3633664 5.71495664,30.8672422 L5.71495664,30.8672422 Z" id="Path"></path>
                    <path d="M4.04192404,29.3836783 L3.04192404,28.3836783 C3.60306193,28.5453385 3.991591,28.9338676 4.04192404,29.3836783 Z" id="Path"></path>
                </g>
                <g id="pasta" transform="translate(0.000000, 113.000000)">
                    <path d="M4.88992096,44.2709566 C3.88316213,43.0695497 2.93621592,41.8169629 2.05268731,40.5179648 C-0.69799049,36.0510762 -0.666515632,31.4702863 2.04088423,27.0350369 C4.36188931,23.0320189 7.87616336,19.8964861 12.0673128,18.0891792 C15.0787822,16.8299366 18.1689389,15.7674326 21.2225622,14.6128872 C22.3753289,14.1768406 23.8231723,14.000236 24.282368,12.6759891 C25.1687225,10.1178109 27.2859688,9.55750829 29.4273833,9.24456722 C31.0899302,9.00180778 32.2938436,8.53987455 33.0666638,6.88600401 C33.520801,5.91208998 34.5993769,5.89828376 35.5256371,6.33030351 C36.0798998,6.61541591 36.6005457,6.96436522 37.07746,7.37037235 C37.6807818,7.88859186 38.5394449,7.95635518 39.2132539,7.53892333 C40.744281,6.79856459 42.4546023,6.61850842 43.9727022,5.6911904 C45.5974571,4.6224401 47.7057108,4.72616039 49.2228209,5.94948184 C50.2097826,6.71975406 50.8685064,6.55983197 51.5120548,5.6388418 C52.6080544,4.0678086 54.2380024,3.63924041 55.9679955,3.41086246 C56.1478518,4.07931379 57.0027314,4.80183949 55.8887463,5.38285141 C55.2075404,5.73778641 54.4302238,5.91496628 53.7855513,6.32109936 C53.410913,6.58392429 53.1673635,7.00134092 53.1189588,7.46356436 C53.1189588,7.72703313 53.6596519,8.1573271 54.0182404,8.23326133 C57.3264728,8.93967978 60.7493637,8.8729497 64.0306177,9.87102461 C65.1058213,10.1983472 65.5903093,9.13124113 65.9134887,8.20277259 C67.3017547,7.50785933 68.2454384,8.82635369 69.4381107,9.0184903 L69.6736101,9.1910681 L69.9546356,9.11398335 C70.3233411,9.79393987 70.9410352,10.4497355 71.0062331,11.1590302 C71.0015129,12.2885794 71.7228942,13.2869098 72.7795042,13.6130865 C73.7507284,13.9467369 74.4898255,15.036278 75.706666,14.5806727 C76.8037896,11.5973778 76.8824768,11.2217335 73.6310115,9.42749968 C73.2118033,9.238653 72.7778832,9.08605985 72.3337977,8.97131904 C71.609876,8.04054946 70.5841328,7.8702727 69.518484,7.80124158 C68.4247327,6.60815376 66.9768892,7.26107308 65.696537,7.03269513 C63.4606979,6.10192556 61.0877184,5.83385471 58.7338487,5.40241022 C57.1258206,5.10672693 58.1830386,4.10980253 58.4612539,3.37116957 C59.5055447,3.31364364 60.4340531,3.47241521 61.1517922,2.14241566 C62.4394512,-0.244335253 63.2471185,-0.532540172 65.1165003,0.761793296 C66.4563117,1.83090633 68.2422749,2.11164104 69.8337947,1.50330256 C72.2011537,0.734756108 74.4139486,1.85190971 76.5075887,2.91268789 C77.766021,3.55007522 78.7636616,3.999928 80.3486455,3.38842735 C81.9223885,2.78095351 83.8800122,3.57883818 85.4767992,2.19533952 C86.0624564,1.6879608 87.0055781,2.27932738 87.302341,3.12438332 C87.8334793,4.63961637 88.8710255,5.32590073 90.3773223,5.6106541 C91.2768708,5.8564291 92.1447492,6.21057997 92.9627571,6.66567969 C94.4038559,7.3329805 95.6684708,8.13604251 96.1580172,9.87562669 C96.7560395,11.9983336 98.4253311,12.8456906 100.412744,12.888835 C102.2816,12.9030901 104.075408,13.6433149 105.431297,14.9597686 C106.425566,15.8617752 107.918373,16.1862214 109.185236,16.775287 C113.859815,18.9486167 118.346668,21.4182049 122,25.216067 L120.811262,26.3901712 L118.808112,25.3345704 C117.714361,25.806283 118.205031,27.0868103 117.495723,27.7201708 C116.795969,28.3449024 116.142866,29.0242836 115.509435,29.6415369 C115.581939,29.9032799 115.576881,30.1017444 115.671867,30.1978127 C117.493475,31.9811165 118.167374,33.7776514 116.005726,35.8600901 C115.180635,36.6550985 116.29462,36.700544 116.646464,37.0140603 C119.100379,39.2000457 118.867127,41.6092318 116.054624,42.965118 C114.502357,43.7497714 112.753051,44.0307466 111.040567,43.770481 C109.049782,43.4471853 107.079793,42.9898541 105.100811,42.5906242 L104.62082,42.0303216 C104.495482,42.2305118 104.22345,42.490529 104.273472,42.6199624 C104.444768,42.9681518 104.654468,43.2951127 104.898473,43.5944517 C105.19886,44.5581119 104.702866,45.5927026 103.774371,45.9392087 C102.657212,46.4836641 101.45916,46.83362 100.229515,46.9746754 C99.3324424,47.0478992 98.4926578,47.4549431 97.8689006,48.1188662 C95.8640645,49.9378362 93.633846,49.771011 91.4395987,48.4398609 C90.6431724,47.9560678 89.9692732,47.2617298 89.1750951,46.7716089 C88.7901112,46.5380274 88.3285649,46.4756791 87.8975531,46.5990311 C87.4136271,46.8043987 87.5361543,47.3215568 87.7879531,47.7604797 C89.0244654,49.9154011 88.4517354,51.6935276 86.6913915,53.22947 C85.7477078,54.0532414 83.9733127,54.2885224 83.8327999,53.5798029 C83.63552,52.5846043 84.472414,52.2906468 85.0462681,51.791897 C85.7207294,51.2057077 86.7110633,50.6195185 85.9832072,49.4983381 C85.4880403,48.7361195 84.7000447,48.861526 83.8974358,49.1405268 C83.1642281,49.3958796 82.4001552,49.5466717 81.6267496,49.5886538 C77.7148744,49.7830914 74.9883648,46.3936635 71.2462289,45.9581922 C69.8203054,45.7919423 68.8962935,44.5505327 67.8907842,43.5495815 C67.1550594,42.8178516 67.0336564,41.4665675 65.68642,41.2715546 C64.3346873,41.9083666 62.8396315,42.3892834 62.0117303,43.828007 C63.1386427,46.1106359 65.3497515,47.2490741 66.6981119,49.1848217 L65.5262355,50.3692807 C63.5837871,49.2791643 62.1460605,47.6137885 60.7662252,45.9046931 C59.9860984,44.9388327 59.266673,44.6696113 57.9807003,45.0596372 C56.2641964,45.5802469 54.5212761,46.8521452 52.6243538,45.8293341 C50.9382007,44.9209997 49.3464722,45.247747 47.6946042,45.806899 C45.3398751,46.6097862 42.8983062,47.1159117 40.4239119,47.3140784 C38.994054,47.4291303 37.3523029,47.4228025 36.5418253,46.2067042 C35.3053131,44.3526435 33.4758369,44.2439195 31.7233618,43.8354853 C29.5875678,43.3373108 27.8912978,42.4761476 27.7462886,39.9277488 C27.6861491,38.8755995 27.045973,38.6621783 26.1922175,38.6454958 C23.8990492,38.6029266 21.5271938,38.9129913 19.6162203,37.1302627 L20.82463,35.7968116 C24.3138429,37.0318934 27.9064731,36.3772483 31.461446,36.3835761 C32.6979583,36.3835761 34.0839761,36.4353495 35.1237706,35.8986325 C36.3934439,35.2434121 35.4047961,33.5141826 35.9994461,32.3953033 C36.4887074,31.3946298 36.7042851,30.2770987 36.6233227,29.1611954 C36.6831432,28.3561167 36.3364412,27.5756648 35.7043693,27.0925629 C35.3482456,26.4397485 34.6153587,26.1040007 33.9024337,26.2670657 L33.8136296,26.2348512 C34.214934,25.4806862 34.9478486,25.3978489 35.6622155,25.2770444 C38.432565,24.6914305 41.1528921,24.3646832 43.4691044,26.6191244 C43.714152,26.7997657 44.0291198,26.8487847 44.3155533,26.7508588 C45.5318317,26.1451108 47.1303049,26.2515337 47.9508994,24.7173171 C47.1364875,24.2346746 46.3507401,23.7221185 45.5250871,23.2889482 C42.484391,21.6949047 39.5353092,19.9046977 36.2900265,18.7443996 C35.7038072,18.53443 35.0360906,18.2335693 35.1586177,17.4788291 C35.2772105,16.7482498 36.0393517,16.7056806 36.6199504,16.5279255 C39.1373771,17.7566794 41.6598621,18.9745033 44.1711062,20.2164882 C46.4329213,21.2693814 48.5906264,22.5423387 50.6144593,24.0178018 C51.3501841,24.5798301 52.1780853,25.0728274 53.1886531,24.7731173 C54.1284024,24.4941165 56.4238189,22.7913489 57.9441669,21.2128374 C55.7830807,19.583703 53.6900026,18.026476 50.7948777,19.1700915 C50.6443783,19.2090723 50.490641,19.2335319 50.335682,19.2431494 C49.2463451,19.3797885 48.1443142,19.1274218 47.2157367,18.5286774 C46.2135997,17.9839068 46.3580468,16.9369348 46.3366888,16.0038642 C46.3421279,15.1881193 45.8477543,14.4562716 45.1001765,14.1733891 C40.7903692,12.227862 36.3119465,11.0042855 31.5654254,11.1820406 C30.3296147,11.2738592 29.1073541,11.5039939 27.9205244,11.868325 C26.693567,12.1996743 26.24224,13.1551801 26.3703877,14.5427055 C28.7433671,15.0776967 31.3164368,14.6905472 33.6208461,15.8013729 C33.5803784,16.6015586 33.6067948,17.5271509 32.474824,17.443163 C30.459309,17.2964719 28.4533488,17.0191969 26.4383958,16.8633016 C24.7180137,16.7177913 22.9942914,17.1003181 21.4872882,17.9620469 C20.5318014,18.5050917 20.4491799,19.5762246 21.4097252,20.2630842 C22.1201577,20.7721887 23.500555,20.8147579 23.048666,22.0826294 C22.8193492,22.7269199 21.6901886,22.6722702 20.8988208,22.6417815 C19.9641299,22.6061154 19.028877,22.5842556 18.093624,22.5537668 C17.5962786,22.4773655 17.1203301,22.7890129 16.9796389,23.2831956 L16.8672286,23.3746619 C16.3863623,23.4483252 16.0428613,23.8898009 16.0803572,24.3859678 L16.0595613,24.3692852 L15.0855268,24.337646 C15.11288,23.7658382 15.1406079,23.1938387 15.1687104,22.6216474 L15.2985442,22.4709295 L16.033707,21.7760162 C16.6662543,21.329053 17.2570512,20.8231626 17.7985472,20.26481 C18.0316186,19.8663245 18.0874415,19.3849695 17.9519872,18.9417136 C17.8739095,18.7242775 17.7114427,18.5495758 17.5031101,18.4590327 C17.2947775,18.3684896 17.0591336,18.3701691 16.8520533,18.4636731 C14.6209467,19.1059865 12.4915219,20.0728948 10.5289791,21.3347923 C7.35395273,23.3947959 4.74210154,26.0421393 3.16723452,29.6237039 C1.57381982,33.2478376 1.85484534,36.6884636 4.15925461,39.9122168 C4.8650198,40.7487277 5.52908476,41.6211636 6.14891529,42.5261951 C6.94253136,43.9125701 5.75547956,44.0189931 4.88992096,44.2709566 Z M70.256457,42.7447937 C70.5076939,43.1509267 70.7443174,43.5806455 71.3310986,43.4517874 C71.2518494,43.9119948 71.4002309,44.2462205 71.8897774,44.1812162 C72.0396566,44.1767372 72.1721118,44.0802129 72.2252861,43.9367204 C72.2784603,43.7932278 72.2418623,43.6310783 72.1325834,43.5259958 C71.8656259,43.2548721 71.5743223,43.0100738 71.2625284,42.7948412 C70.9134576,42.5243501 70.4197747,42.5744776 70.1294335,42.9098931 L70.0917761,42.4099927 C70.1376391,42.5260112 70.1927172,42.6379865 70.256457,42.7447937 Z M55.4391055,34.9603846 L54.4420269,35.7157 C52.8947004,36.2535675 51.3012857,35.8249993 49.7342874,35.9458038 L49.7938648,35.7605703 C50.2007151,35.1363832 50.9239126,34.8098012 51.6486332,34.9229927 C52.3726948,35.0351902 53.0978828,34.7275335 53.5320663,34.1239575 C53.769024,33.9489945 54.0516319,33.8504414 54.343668,33.8409299 C54.6077806,33.8505221 54.8637833,33.74666 55.049747,33.5544686 C55.2357107,33.3622772 55.3346972,33.0992622 55.3227609,32.8290488 C55.3681837,32.5128857 55.3903533,32.1936786 55.3890829,31.8741183 C55.081641,27.6620696 54.0401604,26.7065638 50.1867385,27.2593881 C48.9620366,27.484798 47.7535252,27.7942181 46.569378,28.1855556 C45.8325291,28.3978262 45.0687017,29.0053001 44.4026712,28.8948503 C42.0763419,28.508276 40.8842317,30.5320383 39.1396253,31.329923 C38.2032482,31.7584912 37.8351048,33.0453463 37.7727171,34.2298052 C37.6473797,36.6343892 39.136253,37.8637183 41.3248797,37.0836667 C42.0527358,36.8242248 42.726635,36.4071617 43.4331332,36.0792639 C44.6364844,35.5206871 45.5689271,34.0480233 47.1988751,34.9086112 C47.5855663,37.2194279 45.2446237,36.8731218 44.367262,37.9574856 L42.3168998,38.770327 L37.4270557,38.7795312 C35.3390361,37.9678403 33.2206657,38.4314993 31.1140984,38.6466463 C30.8055501,38.6603489 30.5150918,38.7994705 30.3071292,39.0331625 C30.0991666,39.2668545 29.9908854,39.5758047 30.0062958,39.8915074 C29.9768739,40.5325063 30.337751,41.1253564 30.9128842,41.3808538 C33.0526125,42.3415369 35.0327183,42.3432627 36.6767176,40.3614943 C37.5357444,40.5490207 38.4280419,40.4993866 39.2621524,40.2176795 C40.2373109,39.954786 41.2495649,39.832831 42.2455193,39.6493233 L45.8274706,39.814998 L45.9893413,39.7154781 C45.4497723,41.0845953 44.2975677,41.441256 43.02396,41.5752915 C41.4923709,41.7386651 39.951227,41.8318571 38.4331271,42.0780681 C38.0880278,42.135594 37.6816649,42.6406717 37.5484588,43.0278213 C37.318153,43.6373402 37.5321358,44.3288042 38.0632975,44.6914712 C38.4192098,44.9913543 38.8520261,45.1798936 39.3099267,45.234516 C42.0870647,45.2239517 44.8377244,44.6813395 47.4197612,43.6347198 C48.0874778,43.3499665 48.1700993,42.8138248 48.0706163,42.1102826 C48.0043345,41.3260091 47.9883755,40.5381308 48.022842,39.7517194 C49.3852537,38.6679309 51.0579176,38.2940123 52.6131128,37.6508724 C53.6922508,37.7291077 54.3858218,36.8317031 55.3154542,36.5331435 C56.0910847,36.2777284 56.9521469,36.1580745 57.2933118,35.2181007 C58.3702016,34.61753 59.4144925,33.941025 60.5318499,33.4347968 C62.3450266,32.6110255 62.8924643,31.0929162 62.9599104,29.2486348 C66.3856115,29.1761521 69.7860203,28.9932196 72.8964108,27.2519097 C73.448907,26.9429954 74.1076308,26.7341763 73.9541908,25.9362916 C73.7400494,24.8208638 72.8300888,24.9957426 72.1320214,25.1706215 C68.9845355,25.959302 65.7353185,26.4419446 62.8727925,28.1619699 C59.7050729,28.7038642 56.986432,29.7255248 57.1241345,33.7995113 C56.5609593,34.184935 55.999283,34.5718928 55.4391055,34.9603846 Z M100.397006,21.4682525 C100.145769,20.8124569 99.690508,20.3643299 99.1127196,20.9545459 C98.7895402,21.2841695 99.3032549,21.7253934 99.6236239,21.9854106 C99.8738843,22.1475614 100.141005,22.2806911 100.42005,22.3823395 C101.2339,22.9869371 101.182754,24.5878838 102.602494,24.4532731 C103.185341,24.3957472 104.022797,24.2525076 104.244246,23.8555787 C104.520775,23.3608556 104.062703,22.6711197 103.420841,22.441016 C102.423762,22.0878068 101.405888,21.7898224 100.397006,21.4682525 Z M47.9430307,11.7365906 C48.2466303,11.7794787 48.5522669,11.805595 48.8586119,11.8148259 C50.9449453,11.775133 53.2178797,11.1550034 53.9491081,14.2826883 C54.1143511,14.9919831 55.2935342,14.9419355 56.0123975,14.6376233 C56.9515848,14.2406944 56.6840485,13.3858591 56.5041922,12.6368714 C56.3726977,11.8479665 55.8605593,11.1805214 55.1429046,10.8627717 C54.0081235,10.4025642 52.8862696,9.84341217 51.601983,10.0177157 C50.336244,9.16460617 49.1059143,8.24131496 47.7867805,7.47622007 C46.4249309,6.68926532 45.6476143,7.01601261 44.0350898,8.76997828 C43.0290185,9.5431268 41.6947093,8.4443815 40.6498564,9.44015538 C41.4670786,10.7195321 43.3550081,9.35616752 44.0429585,10.8449386 C45.0898419,11.8420297 46.581115,12.1829712 47.9430307,11.7365906 Z M106.013582,37.7227798 C106.267067,38.6069534 105.441976,39.8702228 106.402522,40.3839294 C109.264485,41.9152697 112.2827,42.3875576 115.347564,40.9016628 C115.792386,40.7515314 116.099636,40.3348347 116.118698,39.8558414 C116.118698,39.3549468 115.74372,38.9376509 115.25595,38.8968841 C113.437714,38.4780953 111.605428,38.1231603 109.778762,37.7463654 C109.840026,37.1711061 109.481437,36.3272007 110.340813,36.1799343 C111.928607,35.9072614 113.08025,34.8050645 114.451655,34.1308606 C114.899589,33.9713734 115.141693,33.4755324 114.997406,33.0131318 C114.819883,32.5851566 114.473832,32.2539592 114.04473,32.1013457 C111.634474,31.6703514 109.153717,31.9686403 106.906681,32.9596326 C107.28719,34.4432264 109.369027,34.8315265 108.750771,36.6504964 C108.566806,36.5006624 108.305161,36.5042715 108.125208,36.6591253 C106.412076,35.8831005 105.067088,34.3580881 103.111151,34.0779368 C100.144796,32.637213 96.8822984,31.9512234 93.601247,32.0783354 C92.6671182,32.1030715 91.7313032,32.1416139 90.7994226,32.0961684 C90.2413059,32.0691312 89.4690478,32.1634738 89.3864263,31.3391271 C89.3094253,30.573457 89.9046373,30.2409571 90.5667335,30.1857322 C93.5225599,29.938946 96.5559494,29.6403864 99.3785697,30.5803601 C102.568209,31.6434393 105.414436,30.9680849 108.56136,29.8434529 C106.661627,27.6229519 104.136332,27.2375282 101.816747,26.4557508 C101.194687,26.2728552 100.536346,26.5889889 100.276165,27.1955343 C99.4443297,28.5997423 98.3089866,28.6336826 97.1095696,27.7822988 C96.0978778,27.0626494 94.8726065,26.9291892 93.8328121,26.0921869 C91.927459,24.5585456 90.1485675,24.9859632 88.909245,27.1546909 C87.922738,29.0324787 85.9276834,30.1165774 83.855282,29.9009788 C81.679942,29.8806235 79.5169905,29.563153 77.4237319,28.9569783 C74.4791465,27.9686828 72.2826511,29.6156502 70.0271402,30.7500616 C68.2465625,31.6451651 68.8507674,33.8369031 68.7243059,35.5344934 C68.7080064,35.7473393 68.9794771,35.9837709 69.0502955,36.099398 C73.5652515,34.7187756 78.0240024,33.3381533 82.4939944,32.0018259 C83.3426914,31.7481365 84.2824408,31.2384568 85.0597574,32.1651995 C85.5138946,32.7059433 84.7326437,33.412937 82.8677583,34.014083 C80.7954761,34.6831096 78.6866606,35.2370843 76.6216851,35.9273955 C74.858531,36.516461 72.9587985,36.7287317 71.3766248,37.8384069 C70.8105585,38.0217095 70.2555924,38.2391545 69.7146398,38.4896005 C69.4741797,38.6406588 69.3176624,38.8991899 69.2925395,39.1868148 C69.3764504,39.4474739 69.5868049,39.6446849 69.8478459,39.7074245 C71.3726904,39.7937134 72.931258,39.9777963 74.2374646,38.8583417 C77.6659759,38.0236404 81.0703191,37.0669842 84.526933,36.3847266 C89.0935977,35.4844458 93.6799342,35.2877071 98.1611671,36.9812705 C98.1459918,37.7659243 98.2392922,38.6828876 97.0769707,38.5873946 C96.3182018,38.5252666 95.5807908,38.213476 94.8214599,38.1271871 C91.6177689,37.7561449 88.403399,37.2458898 85.2986291,38.6765598 C85.474551,38.0633333 85.1502476,39.3852792 84.857419,38.8203746 C84.8191995,38.9469316 84.7169062,39.1609281 84.7517534,39.1879653 C86.7800416,40.8223614 88.613492,42.6952297 90.2143275,44.7679807 C90.9746905,45.5506396 91.8237995,46.2373926 92.7435572,46.8136028 C93.4028518,47.2332361 94.1882608,47.3944588 94.954666,47.2674824 C95.3385393,47.256414 95.6877096,47.0372757 95.8714307,46.6921236 C96.0551518,46.3469715 96.0457101,45.9278704 95.846641,45.591752 C94.582712,43.6080835 92.921545,41.9218004 90.9730964,40.6445219 C91.0725794,39.5572818 91.4660151,38.6201843 92.6485705,39.4577619 C94.0059426,40.4829143 95.2870117,41.609882 96.4811966,42.8293568 C97.4357271,43.8693337 98.7012625,44.5546155 100.078323,44.7771848 C100.83091,44.864049 101.743118,44.8203293 102.177022,44.1524532 C102.682868,43.3747026 102.109576,42.6642574 101.502561,42.1436477 C100.686462,41.4464334 99.8298967,40.7975409 99.018295,40.1492236 C99.1869103,38.998705 99.3403502,37.9166422 99.4966004,36.8351547 C100.290779,35.9762925 100.70501,34.5392947 102.301797,34.9034339 L106.013582,37.7227798 Z M89.8905861,12.8773298 C89.9574701,13.6579567 90.0473983,14.4374331 90.0839316,15.2192105 C90.1142824,15.883635 90.2592916,16.4588943 90.9730964,16.6308969 C93.3472,17.2021294 95.7201795,17.7814155 98.1111446,18.2709612 C98.4230829,18.334815 98.9008263,17.9258056 99.1790416,17.6168913 C99.3313029,17.3528459 99.3487006,17.0295381 99.2256918,16.7499756 C98.9010941,16.0477275 98.4834968,15.3946096 97.9846831,14.8090506 C96.1265424,12.8560452 93.7889721,12.3797305 91.2316399,12.7105046 C90.825839,11.1975726 91.7667124,10.8593201 92.9088002,10.4854016 C93.699606,10.2265349 93.7698624,9.45453687 93.1842052,9.11801017 C90.5914637,7.62923905 87.984671,6.2468909 84.8000898,8.65032434 C86.9134017,9.70189837 88.3646175,11.3304575 89.8905861,12.8773298 L89.8905861,12.8773298 Z M83.4084514,27.7414554 C83.5922421,27.7414554 83.9036184,27.7581379 84.2121844,27.7385791 C86.4367824,27.5982158 87.2219677,26.6455864 86.8369628,24.3284418 C86.6548582,23.2354491 85.9798349,21.8876165 86.6548582,21.1133175 C87.8677644,19.7223405 87.0977544,18.0374059 87.79807,16.6084618 C88.8423609,14.4765507 87.3034651,12.3866336 85.088984,11.2527975 C81.3794472,9.35444175 78.1527121,11.267179 77.9447532,15.4901576 C77.8979864,17.8676586 77.4031292,20.2135519 76.4873549,22.3990221 C75.3233472,25.0256561 76.3490903,26.374064 78.679354,27.1610187 C80.1165185,27.6476881 81.7419701,27.5585229 83.4084514,27.7414554 Z M49.8787345,41.0989768 C51.3198334,43.4742225 53.1060316,44.2122802 55.5194787,43.6387466 C59.8776225,42.6032799 63.450581,40.0307202 67.0668174,37.5409979 C67.2608404,37.3266157 67.339254,37.0281824 67.2764624,36.7431132 C67.1609501,36.4708547 66.9368372,36.262423 66.6610165,36.1707302 C65.3317658,35.7881827 63.8636885,36.2035199 62.5940152,35.3216474 C62.0555703,34.9471536 61.4058393,35.2957607 60.86346,35.6432174 C57.3668908,37.7910173 53.6908782,39.6167744 49.8787345,41.0989768 Z M57.3905467,27.9255383 C57.6765304,27.8559135 57.956292,27.7618152 58.2268786,27.6442365 C61.5665859,25.8827925 65.1783259,24.9405177 68.7737664,23.9458944 C70.1226889,23.5737016 71.4716114,23.2020841 72.8334611,22.8782131 C73.7634411,22.6688146 74.5052795,21.9524371 74.7635443,21.0143729 C74.9124879,20.58638 75.1092057,20.1106405 74.7073392,19.7608828 C74.4636037,19.5708098 74.1546195,19.4908135 73.8518976,19.539408 C69.0126381,20.6582874 64.1064946,21.5528156 59.5347714,23.6335286 C58.4219268,24.1898267 57.3403506,24.8093896 56.2951092,25.4893151 C55.7549781,25.8143366 55.9887914,26.3286185 56.1135667,26.7635145 C56.292861,27.396875 56.6177265,27.9157589 57.3905467,27.9266889 L57.3905467,27.9255383 Z M74.1396677,17.1992531 C72.7221986,15.686703 70.882571,14.6595794 68.8726874,14.2585274 C67.2072544,13.9556592 65.6118781,13.3365781 64.1688822,12.4332296 C62.5451168,11.4081175 60.5717556,10.6453237 58.4415821,11.1929705 C58.6377379,13.1850936 58.9980126,14.5335014 61.2231727,15.0299502 C63.7630814,15.5977311 66.3676259,16.3214074 68.5674937,17.9401871 C69.2278861,18.3794843 70.0613377,18.4445189 70.7791645,18.1127649 C71.665519,17.8308878 72.5749176,17.6220687 74.1419159,17.1981026 L74.1396677,17.1992531 Z M67.1702348,4.83117772 C70.4544721,5.7278361 73.613577,7.04951345 76.5711005,8.76422568 C78.5208556,9.94063099 80.9168791,9.14332158 82.2551227,7.22310597 C82.5032727,6.644105 82.2561316,5.96812955 81.697568,5.69809351 C81.2805262,5.59397158 80.72803,5.41046385 80.4217122,5.59339632 C78.8406626,6.53337004 77.5799821,6.03404496 76.1433797,5.10730219 C73.4039429,3.33895505 70.4812775,2.54164563 67.172483,4.8300272 L67.1702348,4.83117772 Z M73.8367222,41.9808493 C74.5544614,43.6042311 75.8758434,44.6880196 77.1146039,45.851194 C78.3665609,47.0514587 80.0592356,47.6482644 81.7678244,47.4918336 C82.1888007,47.4636459 82.7862609,47.3192558 82.9481316,47.0206962 C83.0869582,46.7704584 82.8295388,46.1037328 82.5518856,45.8293341 C81.2293795,44.522345 79.8130109,43.3154509 78.481512,42.0176659 C76.6638389,40.2412651 76.6823866,40.2199805 73.8389704,41.9825751 L73.8367222,41.9808493 Z M113.885107,21.9342125 C111.306979,19.6567609 108.593959,18.9290579 106.123182,17.7520773 C105.847809,17.5997618 105.523407,17.569863 105.225877,17.6693764 C104.928347,17.7688898 104.683795,17.9890839 104.549439,18.2784396 C104.176237,18.9837075 103.908701,19.8000005 104.404992,20.5081447 C106.294046,23.2026593 108.069565,23.8348693 111.138926,22.9616257 C111.878585,22.7528065 112.585645,22.427785 113.887355,21.9359383 L113.885107,21.9342125 Z M90.7516483,23.4362146 C91.8308651,23.4398292 92.9086738,23.3561562 93.975011,23.1859768 C95.1704936,22.8805141 95.6443026,21.8116823 95.7853774,20.6600131 C95.9275763,19.4974141 94.910826,19.5791009 94.2346786,19.3656797 C92.741309,18.893967 91.2282675,18.4377864 89.6460939,18.8013503 C88.8564122,18.982557 88.1881335,19.3938674 88.2774996,20.4017217 C88.3337047,21.0287544 88.4180123,21.6540612 88.5118749,22.2770671 C88.6029802,22.9294664 89.145006,23.4165936 89.7888548,23.4247094 C90.1094406,23.4597029 90.4325099,23.4641323 90.7538965,23.4379404 L90.7516483,23.4362146 Z M115.896688,25.6032165 C115.855096,25.0417634 114.800688,24.1581651 114.199294,24.2852974 C112.391175,24.6684201 110.597108,25.1217244 108.791801,25.5192286 C108.415788,25.602066 108.202771,25.7648643 108.283144,26.1635191 C108.309809,26.463063 108.422009,26.7479531 108.605762,26.9826883 C109.178158,27.5147391 109.798212,27.9904673 110.45772,28.4035788 C111.957834,29.2998329 115.263256,27.8415505 115.83149,26.0714776 C115.867685,25.9183683 115.890259,25.7622189 115.898936,25.6049423 L115.896688,25.6032165 Z M56.1731441,16.8851615 C56.9836217,18.5016402 58.7136148,18.7599316 59.6893354,19.8707574 C60.422812,20.7048834 61.2945532,20.710636 62.2095723,20.4126516 C63.3336744,20.0450609 64.4397908,19.603837 65.9949861,19.0320293 C62.646286,17.5501613 59.8320964,15.9325321 56.1731441,16.8851615 Z M86.6160767,44.3089238 C86.5789813,44.0212941 86.6430552,43.6485261 86.4896152,43.4638678 C84.9720774,41.6379947 82.9104742,40.6002269 80.8691048,39.5521044 C80.695431,39.4629393 80.2412938,39.6993708 80.0822334,39.9133673 C79.9429474,40.1650428 79.9355679,40.4712626 80.0625616,40.7296603 C81.3250073,42.5334495 83.0365921,43.9580965 85.0192897,44.8554201 C85.610181,45.1076975 86.2923036,44.8742428 86.6160767,44.3089238 L86.6160767,44.3089238 Z M103.525382,38.415392 C103.482104,38.537347 103.379811,38.6759845 103.406227,38.7795312 C103.518638,39.2115509 103.717604,39.231685 103.90027,38.8290035 C103.928606,38.6987492 103.900306,38.5623201 103.822707,38.4550849 C103.784488,38.3987095 103.628238,38.4251714 103.525382,38.415392 L103.525382,38.415392 Z" id="Shape"></path>
                    <path d="M9.31681149,47.6522513 C8.53393617,46.8975539 7.79478282,46.1000492 7.10285661,45.263519 C6.94565064,44.8393946 6.96943907,44.3706252 7.16879933,43.9640668 C7.26427258,43.7472701 7.4616005,43.5904035 7.69684498,43.5442948 C7.93208947,43.498186 8.17532567,43.5687006 8.34774033,43.7329903 C16.5171822,49.6613175 26.2136279,51.6370499 35.7449302,54.0376467 C51.9559424,58.1196218 68.4559557,58.3456134 85.0264991,57.5891062 C87.2507755,57.48741 89.4716113,57.3066166 91.6953142,57.1936208 C98.6829016,56.7852809 105.617455,55.7435776 112.411074,54.0817151 C117.973198,52.7687033 122.555357,49.674877 126.533136,45.7053328 C129.756874,42.4849511 130.746588,38.787162 128.71842,34.5509476 C127.704622,32.4334054 126.654126,30.3328126 125.621979,28.2231801 L126.808948,27 C129.625562,29.9486267 130.989143,33.6102572 131.805685,37.452116 C132.551125,40.9679819 131.072288,43.9454225 128.728741,46.4646649 C124.369419,51.3073822 118.629633,54.7427649 112.258545,56.3224228 C102.616574,58.685731 92.7790684,59.5066458 82.9203462,59.8580629 C74.8105395,60.1473323 66.6749291,59.9388549 58.5565211,59.7252928 C50.2420053,59.5066458 42.1717642,57.6286548 34.0934953,55.8427554 C28.0600909,54.4300606 22.107271,52.7019817 16.2602923,50.6658506 C13.8754598,49.8714898 11.6265266,48.6697789 9.31681149,47.6522513 Z" id="Path"></path>
                    <path d="M126,26.79939 L124.85,28 C123.698668,27.2667557 122.725156,26.2870427 122,25.1318453 L123.175,24 C124.433791,24.5483156 125.441516,25.5469059 126,26.79939 L126,26.79939 Z" id="Path"></path>
                    <path d="M14.9617369,24.0327279 L15.0756519,25.5861356 C15.0641871,26.1597245 15.4287189,26.6767469 15.9821758,26.8718756 L15.9767798,26.8672001 C17.5032414,28.6409369 19.5003519,27.7093598 21.3283885,27.7526074 C25.4718981,27.7333213 28.8473806,29.9927171 32.5136462,31.3760565 C32.7365077,31.4893571 32.9009704,31.6879245 32.9676151,31.9241652 C33.0342599,32.1604058 32.997079,32.413024 32.8649841,32.621471 C32.6237847,33.056366 32.093299,33.2548698 31.615516,33.0890128 C30.5153366,32.7512138 29.4271482,32.3777648 28.330566,32.0288617 C25.1217592,31.0090361 22.4879236,32.1100971 20.1952336,34.2321525 C19.9284326,34.4793652 20.0849159,35.1613918 20.0447458,35.641791 L18.758705,37 C17.5176306,36.0929689 17.5554025,34.842879 17.9319216,33.6038932 C18.1549553,32.8692681 18.7886826,32.2486064 18.9895328,31.5128124 C19.1369587,31.1421843 19.1184224,30.7283124 18.9384216,30.3716184 C18.7584208,30.0149243 18.4334063,29.7480073 18.0422394,29.6356321 C17.278409,29.4018612 16.4570217,29.3434184 15.7039833,29.0845172 C14.7461586,28.8247631 14.0244943,28.0548168 13.8453695,27.1015555 C14.0428124,26.2928892 13.7091781,25.4491826 13.0059955,24.9789157 C13.0035973,24.6543637 13.0015988,24.3298118 13,24.0052598 L13.4616557,24 L13.9227118,24 L14.9617369,24.0327279 Z" id="Path"></path>
                    <path d="M24.1717415,22.7508064 C23.9085936,21.9002435 23.7453443,21.0629309 25.2645367,21.0517191 C26.2470777,21.0445844 27.2990605,21.3544359 28.1999768,21.1505862 C29.9013017,20.7653103 31.0671935,21.1037008 31.9413078,22.3466744 C32.855016,23.6416296 34.9169511,23.4805884 36,24.5671073 C35.2251754,24.6736188 34.4308583,24.7470047 33.9959331,25.4151221 C33.0042551,25.4553824 31.924861,24.9564602 31.0355183,25.4783155 C29.1770356,26.5668729 27.9898239,25.7795034 26.6880942,24.6914556 C25.8876857,24.022319 25.5526593,22.8970686 24.1717415,22.7508064 Z" id="Path"></path>
                    <path d="M67.1674666,49 C71.5180161,51.0961054 76.074721,52.4954662 81.1468142,52.2469084 C81.5708891,52.2258691 82.0885183,52.4670875 81.9871212,52.9279959 C81.8375642,53.2828911 81.5984156,53.6038115 81.2874256,53.8669376 C81.2123581,53.9491378 81.0006008,53.9569664 80.8499057,53.964795 C75.3660621,54.1766562 70.190331,53.5024188 66,50.009399 L67.1674666,49 Z" id="Path"></path>
                    <path d="M37,38.9346039 L37.6664674,38.0054043 L42,38 C41.9274878,38.16745 41.905132,38.3430476 41.9342499,38.5164472 C41.0516039,38.6241952 40.1545129,38.695802 39.2902969,38.8501619 C38.5513912,39.0154472 37.7609773,39.0445893 37,38.9346039 Z" id="Path"></path>
                    <path d="M48.6812327,35 C48.2467451,34.9515847 47.8980575,34.7694511 48.0272565,34.4993795 C48.1270241,34.2945203 48.5260942,34.0195084 48.8074387,34.0102865 C49.8674688,33.9757041 50.9349815,34.0372936 52,34.0629834 C51.6143447,34.4084853 50.9706469,34.5845961 50.327896,34.5204583 C49.6845174,34.4555167 49.0424067,34.6425123 48.6812327,35 Z" id="Path"></path>
                    <path d="M66.2270588,7.17844728 C66.1517647,6.78563152 66.0760784,6.39281576 66,6 C67.3382353,6.23174971 68.8535294,5.57184241 70,6.77346466 C69.9721569,7.1817304 69.9447059,7.59057551 69.9176471,8 C68.6676471,7.80648899 67.68,6.47856315 66.2270588,7.17844728 Z" id="Path"></path>
                    <path d="M55.0008202,36 C54.9940231,35.8740103 55.0295591,35.7487399 55.1042456,35.6354079 C55.1125803,35.3730025 55.1209149,35.1115784 55.1292496,34.8511354 C55.6975213,34.5671433 56.2642776,34.2834315 56.8295185,34 C56.8863457,34.345949 56.9431728,34.6921783 57,35.038688 C56.6556274,35.72582 55.7850351,35.8132885 55.0008202,36 Z" id="Path"></path>
                    <path d="M100.983623,21.4634935 C100.995049,21.643567 101.000496,21.8224025 100.999965,22 C100.802083,21.9403393 100.612657,21.8622013 100.435188,21.7670299 C100.208001,21.6144176 99.8437061,21.3554494 100.072885,21.1619829 C100.482618,20.8142159 100.805461,21.0785863 100.983623,21.4634935 Z" id="Path"></path>
                    <path d="M13.9162244,22.996992 L13.4809311,22.996992 L13.0450717,23 C12.8560863,22.5692742 13.2780025,22.127444 14,22 C13.9724522,22.3322193 13.944527,22.6645499 13.9162244,22.996992 Z" id="Path"></path>
                    <path d="M34,26.9812689 C33.6089392,27.0888437 33.2222022,26.7272429 33,26.0462647 C33.3956106,25.8614773 33.8023178,26.2417503 34,26.9812689 L34,26.9812689 Z" id="Path"></path>
                    <path d="M103.266759,38 C103.449759,38.0147412 103.727759,37.9762504 103.795759,38.0565078 C103.933821,38.2091705 103.984172,38.4033943 103.933759,38.5888274 C103.608759,39.1620948 103.252759,39.1334314 103.054759,38.5183975 C103.007759,38.3709859 103.189759,38.1777129 103.266759,38 Z" id="Path"></path>
                    <path d="M106,42.3592661 L105.7572,43 C105.464328,42.80828 105.212701,42.5989699 105.007218,42.3761468 C104.947193,42.293211 105.276996,42.1277064 105.424025,42 L106,42.3592661 Z" id="Path"></path>
                    <path d="M71.1467594,42 C71.4163412,42.1543512 71.6682069,42.329905 71.8990226,42.5243378 C71.9935068,42.5996963 72.02515,42.7159797 71.9791747,42.8188834 C71.9331994,42.9217872 71.8186766,42.9910083 71.6890886,42.9942204 C71.2658191,43.0408373 71.1375262,42.7999142 71.2060463,42.4715327 L71,42.2516491 L71.1467594,42 Z" id="Path"></path>
                    <path d="M15,22 C15.0175841,21.3014044 15.3279817,20.9438878 16,21.0071723 L15,22 Z" id="Path"></path>
                    <path d="M17,22.0148784 C16.9293999,22.3450029 16.8549336,22.6733768 16.7766011,23 C16.5177341,22.9744904 16.258867,22.9634862 16,22.9669875 C16.126429,22.3222456 16.5535452,21.9155844 17,22.0148784 Z" id="Path"></path>
                    <path d="M16,23 L15.0034795,24 C14.9564152,23.5082423 15.3919055,23.0712314 16,23 L16,23 Z" id="Path"></path>
                    <path d="M54,33.9993974 L54.9990132,33 C55.0111924,33.2668797 54.910192,33.5266499 54.7204447,33.7164702 C54.5306974,33.9062904 54.2694861,34.0088712 54,33.9993974 L54,33.9993974 Z" id="Path"></path>
                    <path d="M55,34 C54.9921082,34.3324397 54.9838407,34.665773 54.9751973,35 C54.6501315,34.9024129 54.3250658,34.8037534 54,34.7040214 L55,34 Z" id="Path"></path>
                    <path d="M13.0762522,25 C13.8016065,25.4430964 14.1457604,26.2380561 13.942092,27 C13.1857561,26.5791849 12.8328214,25.7639425 13.0762522,25 Z" id="Path"></path>
                    <path d="M22,26.8109971 C20.2920681,26.7713841 18.4261707,27.6246708 17,26 C18.6379117,26.4325318 20.4730002,25.7553626 22,26.8109971 Z" id="Path"></path>
                    <path d="M16,27 C15.3896505,26.8482363 14.9876465,26.4461158 15.0002899,26 L16,27 Z" id="Path"></path>
                </g>
            </g>
        </g>
    </g>
</svg>