<?xml version="1.0" encoding="UTF-8"?>
<svg width="182px" height="400px" viewBox="0 0 182 400" version="1.1" xmlns="http://www.w3.org/2000/svg" xmlns:xlink="http://www.w3.org/1999/xlink">
    <!-- Generator: Sketch 61.2 (89653) - https://sketch.com -->
    <title>Artboard</title>
    <desc>Created with Sketch.</desc>
    <g id="Artboard" stroke="none" stroke-width="1" fill="none" fill-rule="evenodd">
        <g id="yasai7" transform="translate(146.500000, 362.002080) rotate(-60.000000) translate(-146.500000, -362.002080) translate(124.000000, 333.502080)" fill="#604838" fill-rule="nonzero">
            <path d="M30.5965454,25.1955588 C30.4214182,25.1683291 30.2909743,25.0191405 30.2870018,24.8415337 L30.8355312,24.0003915 L30.8328758,24.0003915 C30.8838098,24.2760703 31.1106211,24.4846661 31.3889921,24.5118455 L31.4269264,24.5464495 C31.4917632,24.7998481 31.7161146,24.9796097 31.9769732,24.9871745 L32.049807,25.0328061 C32.0947427,25.1634396 32.1909328,25.2700213 32.3161133,25.3278819 C32.4412937,25.3857425 32.5846128,25.3898661 32.7128979,25.3392983 L32.7026556,25.3339746 L33.0285109,25.5621325 C33.0376152,25.4199141 33.04634,25.2780759 33.0554443,25.1358574 C33.5167249,21.8735793 32.0460135,19.6250829 29.4418264,17.8408879 C28.1346446,16.8858448 26.7128414,16.0993746 25.20988,15.4999875 C24.8855421,14.4238426 24.8749205,14.3325794 25.6271569,14.2451189 C26.06881,14.2327099 26.4717666,13.9894836 26.6893163,13.6039951 C27.2040842,12.7563884 27.7177142,11.9072606 28.2560013,11.0744842 C28.4499291,10.773591 28.6852986,10.5016767 28.9551298,10.2668051 C29.0332744,10.1991182 29.3101945,10.2880998 29.4433438,10.380884 C29.576493,10.4736683 29.7441625,10.7056288 29.7062282,10.7965117 C29.493287,11.2922495 29.2509603,11.7747777 28.9805458,12.241512 C28.4653985,13.1469187 27.930146,14.0405373 27.3596147,15.0132506 L30.0950544,16.5381061 C32.0178481,14.0882495 34.1094783,11.7764215 36.3545871,9.61959708 C36.8019682,9.17935131 37.2883954,8.78083925 37.8078487,8.42899294 C38.0567229,8.36187936 38.3225625,8.413353 38.5285997,8.56854955 C38.6303364,8.65759914 38.6882703,8.78669885 38.6872499,8.92208509 C38.6862295,9.05747133 38.6263562,9.18567881 38.5232889,9.27317729 C37.1341362,10.6801512 35.6888408,12.0369304 34.338381,13.4815503 C33.2955682,14.5968623 32.3547984,15.8095217 31.3901301,16.9963233 C31.2741528,17.1383124 31.2219349,17.3220683 31.2458616,17.5040072 C31.2697884,17.6859461 31.3677281,17.8498589 31.5164512,17.9568681 C31.7668174,18.2078419 31.995561,18.4808709 32.2337881,18.744013 C32.4566151,19.390819 32.8825166,19.9478359 33.4476845,20.3316119 C33.7890929,20.8449673 34.0261821,21.4853305 34.8823584,21.0864344 C38.0142111,19.6277447 40.5929823,17.3598549 43.3234905,15.314419 C43.4740718,15.2075146 43.5628776,15.0334622 43.5612133,14.8485008 C43.5595489,14.6635395 43.4676255,14.4911212 43.315145,14.386957 C42.9012822,14.0447202 42.4373461,13.7678885 42.0071716,13.4461858 C41.6053383,13.1989126 41.4342991,12.7011215 41.5989989,12.2582436 C41.9961707,11.4942947 41.9430627,10.9303644 41.3084225,10.3424775 C40.9620827,10.021155 41.0694366,9.53517865 41.0618498,9.07734173 C41.0368132,7.53841649 40.3866199,6.7577361 38.729272,6.43185052 C38.4641175,6.41047309 38.2189548,6.28219094 38.0498574,6.07634474 C37.88076,5.87049854 37.8021932,5.60469714 37.8321266,5.33973456 C37.8533524,4.89672654 37.9105698,4.4561903 38.0032102,4.02250277 C38.0560231,3.66034849 37.9112683,3.29758328 37.6238675,3.07184473 C36.6114021,2.20484459 35.9369309,2.20750643 34.5223622,3.08743552 L34.2033351,3.59090402 L34.1540205,3.67760403 C33.9073822,3.75917375 33.7499087,4.00100868 33.7746779,4.26016728 L33.7435718,4.30922124 C33.4912721,4.39147709 33.3252541,4.63300552 33.3384339,4.89862923 L33.3118799,4.93665555 C33.0565378,5.01646211 32.8847763,5.25611572 32.8908096,5.52416222 L32.8650143,5.55990696 C32.6071921,5.63653184 32.4322075,5.87637715 32.4374951,6.14589258 L32.4116998,6.18163732 C32.1512916,6.2609804 31.9780597,6.50766701 31.9913882,6.78017163 L31.9746971,6.80602953 C31.7163498,6.90746471 31.5510359,7.16245802 31.5634897,7.44030858 L31.5596963,7.44943489 L30.7846993,6.81059269 C30.8574976,6.3896405 31.0920179,6.01407079 31.4379273,5.76448857 L31.7690934,5.30589113 L31.8635497,5.17850295 L32.2227872,4.68416077 L32.3145881,4.55601207 L32.6742049,4.04645935 L32.7523495,3.92743697 C33.3470542,3.45047551 33.7677099,2.78975086 33.9487962,2.04817614 L33.9643492,2.03182482 C34.2099037,1.99945675 34.405401,1.80981669 34.445735,1.56486159 C35.5314136,0.672764081 36.607988,0.956440442 37.6773548,1.59490239 C38.6473339,2.17252221 39.478853,2.84444732 39.2823535,4.15065148 C39.1628109,4.60225037 39.4244206,5.06700039 39.8718519,5.19789638 C40.8334855,5.58272276 41.3736694,6.46987684 42.0940411,7.13723879 C42.3542054,7.38106538 42.4971077,7.72533436 42.4862813,8.08219289 C42.2844711,9.128297 42.8709348,9.96487608 43.0405009,10.8877749 C43.1841765,12.0160779 43.6954342,13.0652693 44.4949005,13.8724609 C45.2634487,14.6356492 45.1356102,15.5437178 44.243017,16.2000521 C41.5633407,18.1705761 39.0926822,20.4711685 36.0340426,21.8621714 C34.6911697,22.4728741 34.0652543,23.2763703 34.2018177,24.7605376 C34.2484768,25.2689496 33.9833163,25.8058812 33.8604093,26.3298839 C33.4935615,26.661743 33.4028998,27.2030961 33.6415286,27.6368486 C33.6781213,27.6983026 33.6877109,27.7721972 33.6680211,27.8409907 C33.6483313,27.9097842 33.6011178,27.9673418 33.5375888,28 C33.236966,27.8481073 33.0217782,27.5671664 32.9530218,27.2368117 C32.8868195,26.9006669 32.6100828,26.6468383 32.270205,26.6105182 L32.2660323,26.6078564 C32.1844142,26.3426097 31.9482504,26.1551551 31.6719817,26.13633 L31.6621188,26.1078102 C31.6199509,25.8490412 31.4029333,25.6551224 31.1416607,25.6427483 L31.0551706,25.5743009 L30.5965454,25.1955588 Z" id="Path"></path>
            <path d="M1,51.1712112 C1.42539128,51.0601523 1.88632537,50.8605568 2.10818732,51.4795356 C2.3562387,52.1703532 2.51973561,52.8972843 2.81492798,53.5648028 C3.58414916,55.3122334 4.48731059,55.6675443 6.4260772,55.5118288 C9.87148469,55.2349582 12.2322754,53.0627077 14.7270063,50.8667699 C13.4398419,49.2643968 11.8568805,47.9454262 10.0712727,46.987474 C9.36789923,46.5933313 8.62150028,46.2826769 7.90503211,45.9129983 C7.57878656,45.7448566 7.30117852,45.458278 7.51031989,45.0664652 C7.72277371,44.7458543 8.13288828,44.6411916 8.46436366,44.8229899 C10.5453502,45.6503268 12.4710481,46.8487053 14.15458,48.364061 C15.9627736,49.9464565 15.9968199,49.9301471 17.6972626,48.2731946 C18.9210576,47.0806703 20.1665523,45.9025137 21.0330486,44.376036 C21.7180894,44.2890528 21.9840993,43.6646375 22.3758184,43.2180719 C23.0062356,42.4989072 23.5962462,41.7424639 24.203467,41 L25,41.5727689 C24.5811766,42.4837228 24.0212769,43.317237 23.3425828,44.040141 C20.2551377,47.7124812 16.8068947,51.0403959 13.0538754,53.9698184 C11.0993951,55.4551344 9.01321943,56.5579573 6.56712602,56.9245294 C4.20221987,57.2790637 2.61289518,56.4197161 1.44671697,53.5966449 C1.14217123,52.8576759 1.14104882,51.9835723 1,51.1712112 Z" id="Path"></path>
            <path d="M6.57201195,32.1464509 C4.14183668,36.5428999 2.70252508,41.2914569 1.54053307,46.1286063 C1.29491805,47.1513782 1.34954161,48.2438932 1.25213597,49.3024791 C1.18146913,50.0632434 0.640963314,50.0451479 0.0748646429,49.9591944 C-0.117903938,48.0881083 0.0624759917,46.197875 0.605820887,44.3952096 C1.86636449,39.7205425 3.40346371,35.1276821 5.64150158,30.8288733 C8.24659593,25.7044951 11.5940302,20.9818954 15.578405,16.809773 C15.9150882,16.5116954 16.2755747,16.2408937 16.6563607,16 C16.9879219,16.4674667 17.1976305,16.950767 16.7201519,17.441607 C16.0344926,18.1473309 15.332026,18.8364673 14.6371991,19.5335205 C13.9525206,19.9082418 13.4378411,20.5258964 13.1975055,21.2612624 C11.3937822,24.0132841 9.57936339,26.761159 7.79244734,29.5252444 C7.26722084,30.3384103 6.63771301,31.1184011 6.57201195,32.1464509 Z" id="Path"></path>
            <path d="M20.5245098,15.0399475 C19.949095,15.0952891 19.5874811,15.5578976 19.1199095,15.8194058 C18.4411765,16.194715 18.2266214,16.0177779 18,14.9783703 C18.6711916,14.5216078 19.3257919,14.0356155 20.0177225,13.6143183 C20.8582202,13.1026039 22.1900452,13.2951301 22.6150075,12.3551034 C23.0026395,11.4976993 22.8359729,10.3674848 22.8789593,9.354189 C22.9720965,7.19859709 23.7609351,5.20279413 24.1870287,3.12436859 C24.3182504,2.48482306 24.9121418,2.35348434 25.3042986,2 L26,2.45715229 C25.8868778,2.60018289 25.7224736,2.7260654 25.6730769,2.88936191 C24.5961538,6.462009 23.4890649,10.0330972 24.3533183,13.8547812 C23.0437406,14.4175501 21.5343137,13.8914157 20.5245098,15.0399475 Z" id="Path"></path>
            <path d="M24.7948108,42 L24,41.4409702 C25.5911163,38.8531363 27.5854301,36.5457646 29.0734116,33.881751 C29.9459472,32.3198787 31.0060686,30.8641273 31.5942361,29.1472428 C31.7699893,28.5271793 32.2956968,28.0748254 32.9275154,28 C33.1707791,28.940307 32.7541293,29.7331817 32.3819471,30.5393216 C31.1417017,33.0940341 29.6849891,35.5346406 28.0282372,37.8336176 C27.0297725,39.2745878 26.1706893,40.8508622 24.7948108,42 Z" id="Path"></path>
            <path d="M24.6853426,2.71994407 L24,2.30971654 C24.2486411,1.464431 25.0302439,1.42386289 25.6936585,1.49485709 C26.4741463,1.57844138 27.0134262,1.52598262 27.4441812,0.812543438 C27.9581882,-0.0383377025 28.80223,-0.201659319 29.7198606,0.232349516 C30.4929152,0.599560859 31.4198374,0.710423712 32,1.40847499 L31.489338,2.16772816 C30.6270848,2.04812218 29.952892,1.33118574 29.01036,1.47072605 C28.3164692,2.80912397 27.4865505,4.08072439 27.0840418,5.53662994 C27.0483376,5.69966037 26.9399813,5.84042653 26.7864926,5.92317759 C26.6330038,6.00592865 26.4491504,6.02270281 26.281626,5.96923987 C26.0224058,5.87446603 25.8868847,5.60576334 25.9727758,5.35687124 C26.0894774,4.7917155 26.2760511,4.23775096 26.4332636,3.68133834 C26.5982811,3.09729744 26.4146806,2.79548469 25.727108,2.67832679 C25.3792973,2.65510967 25.0298106,2.66907125 24.6853426,2.71994407 Z" id="Path"></path>
            <path d="M33,1.87419355 L33.3514066,1 L34,1.00645161 C33.8779462,1.79315467 33.5942365,2.49409057 33.1930946,3 L33,1.87419355 Z" id="Path"></path>
            <path d="M32,26 C32.2681727,26.033786 32.4865255,26.2699047 32.5387609,26.5825964 C32.5930115,26.8899019 32.7628005,27.1512413 33,27.2925363 C32.9871296,27.8645207 32.5345705,27.799434 32.2657887,28 L32,26 Z" id="Path"></path>
            <path d="M33.2974448,27 C32.7611082,26.6681222 32.9648775,26.2539159 33.7893959,26 C34.1955925,26.338152 34.0049618,26.7256514 33.2974448,27 L33.2974448,27 Z" id="Path"></path>
            <path d="M35,1.02000672 C34.9158991,1.53418953 34.509857,1.93210812 34,2 C34.0181245,1.34267769 34.2395587,0.898605755 35,1.02000672 Z" id="Path"></path>
            <path d="M13,21.7461651 C13.2455511,21.0029578 13.7713996,20.378717 14.4709361,20 C14.4389682,20.4549322 14.7175859,20.8761208 15.1554736,21.034821 C17.4649527,22.1778721 19.6781948,23.4974857 21.7744908,24.9813142 C22.520301,25.5177751 23.2813319,26.0397577 23.774636,26.8276847 C23.962357,27.1275389 24.1528098,27.4921647 23.8113216,27.8064973 C23.6881057,27.9428989 23.5057481,28.0139056 23.3201983,27.9977319 C23.1346484,27.9815581 22.9680607,27.880135 22.871546,27.7245803 C21.5610119,26.1475833 19.7708331,25.1786769 18.0594893,24.1156613 C16.6599731,23.2456903 15.2396423,22.4084861 13.798497,21.6040487 C13.6189718,21.5038433 13.2704587,21.6916808 13,21.7461651 Z" id="Path"></path>
            <path d="M12.7313581,37.6783711 C11.2246068,36.337963 9.39922215,35.5346536 7.67319626,34.5715398 C6.93885486,34.1618949 6.87375772,33.6797533 7.15203847,33 C8.85370051,33.3578059 10.211604,34.4495428 11.6441217,35.3280772 C13.3172324,36.3527741 14.8525351,37.6144493 16.4373268,38.7884269 C16.8350205,39.0185003 17.0539348,39.4749779 16.9885587,39.9378493 C16.427429,40.1175318 15.9854537,39.8825024 15.5400522,39.553929 C14.8373077,39.0355391 14.1052504,38.5588543 13.3857557,38.0650197 C13.2764767,37.8009345 13.0093593,37.643109 12.7313581,37.6783711 Z" id="Path"></path>
            <path d="M20,44.7903708 C19.3632634,45.1642535 18.5668052,45.0280822 18.0742997,44.4611319 C16.0661411,42.4340291 13.8408819,40.6612855 11.4436552,39.1788561 C11.1394972,38.9993807 10.8322976,38.693831 11.10642,38.2955323 C11.2322654,38.1128449 11.5569541,38.0574364 11.8033221,38.0032325 C11.9820974,37.9923147 12.1614234,38.0090883 12.3355986,38.0530198 C12.4116381,38.3967131 12.6838595,38.4264248 12.9439146,38.4758107 C13.9244439,39.3129607 14.8490842,40.2328219 16.0159104,40.7941339 C17.4032511,42.060499 18.9582588,43.1401614 20,44.7903708 Z" id="Path"></path>
            <path d="M16.2329033,34 C16.5021386,34.0101771 16.7686941,34.0601177 17.0247945,34.148365 C19.2074349,35.3328794 21.0355483,37.0106072 22.7534656,38.8286804 C22.8974317,38.9487063 22.9864937,39.1274579 22.9985877,39.3206515 C23.0106817,39.5138452 22.9446762,39.7034067 22.8169233,39.8423744 C22.5201541,40.1254709 22.1568874,39.9895365 21.8627781,39.7313011 C21.5869082,39.4885706 21.3147114,39.2412955 21.0461879,38.989476 C20.4408699,38.4232829 19.8754505,37.8013527 19.2264342,37.2993176 C18.4330231,36.6858081 17.559435,36.1885847 16.7428447,35.6059512 C16.4446118,35.4096917 16.1963677,35.1394686 16.0197311,34.8188146 C15.9361341,34.6459894 16.1394267,34.3211902 16.2329033,34 Z" id="Path"></path>
            <path d="M31,23.1858748 L30.4252976,24 C28.483789,22.5174971 26.5947429,20.9680092 24.2434707,20.0250667 C23.9767865,19.9183324 23.9541323,19.5966573 24.0562751,19.3438073 C24.1515105,19.0874099 24.4469453,18.9450355 24.728351,19.0199239 C25.8945167,19.3513894 26.9919986,19.8625336 27.9746646,20.5318707 C29.1109539,21.2823234 30.2607562,22.039769 31,23.1858748 Z" id="Path"></path>
            <path d="M31,25 C31.4650593,25.0391154 31.8626076,25.4286128 32,25.9797485 C31.7591148,26.0396015 31.5091468,25.9652945 31.3165263,25.7765748 C31.1239058,25.5878552 31.0081421,25.3038371 31,25 L31,25 Z" id="Path"></path>
            <path d="M32.965,24.0070775 C32.941,24.3383469 32.918,24.6687306 32.894,25 L32.035,24.4685517 C32.194432,24.1484856 32.573579,23.9603495 32.965,24.0070775 L32.965,24.0070775 Z" id="Path"></path>
            <path d="M30,25 C30.5020051,25.0266073 30.9189792,25.4435815 31,26 C30.5128749,25.9345118 30.1137483,25.5353852 30,25 Z" id="Path"></path>
            <path d="M33,24.8567673 C32.8065347,24.9897484 32.5903968,24.9789043 32.4016136,24.826745 C32.2128303,24.6745857 32.0677671,24.3943017 32,24.0507673 C32.3838673,24.1287673 32.7957666,24.1017673 33,24.8567673 Z" id="Path"></path>
            <path d="M30,24 L31,24.9859648 C30.7543804,25.0349466 30.5030209,24.9543872 30.3111242,24.7651838 C30.1192275,24.5759805 30.0057034,24.2967774 30,24 Z" id="Path"></path>
            <path d="M32,25 C31.525752,24.9828415 31.1178751,24.57511 31,24.0003563 C31.4831187,23.985991 31.9047572,24.4074792 32,25 Z" id="Path"></path>
            <path d="M31,24 C30.4994374,23.9468587 30.0915888,23.53901 30,23 C30.5027571,23.0477443 30.9131559,23.4581431 31,24 L31,24 Z" id="Path"></path>
            <path d="M32,17.5047827 C33.1546974,17.1251587 33.8767682,16.2154935 34.7851301,15.5350354 C35.9117298,14.6891184 37.0379447,13.8417689 38.1984156,13.0373958 C38.4464065,12.958675 38.72057,13.0060565 38.921641,13.1623852 C39.0376862,13.3764563 39.0240878,13.6315545 38.8858454,13.83389 C37.1853611,15.2266804 35.4791032,16.6158895 33.7101068,17.9309644 C33.3610755,18.1852187 33.179748,18.5903892 33.2316772,19 C32.6582308,18.6385557 32.2260908,18.1139514 32,17.5047827 L32,17.5047827 Z" id="Path"></path>
            <path d="M31,6.60345216 C30.9771121,6.85163712 30.9379617,7.09632958 30.8830465,7.3344195 C30.772235,7.70331555 30.6783139,8.18859166 30.2660336,7.92458134 C30.0396879,7.76506776 29.9397749,7.3870274 30.0372449,7.05891485 C30.0697826,6.63413063 30.2297987,6.24896137 30.4771641,6 L31,6.60345216 Z" id="Path"></path>
            <path d="M31.993049,6 C32.059197,6.44435859 31.6475245,6.85954522 31.001513,7 C30.9722181,6.56189207 31.3706863,6.16002246 31.993049,6 L31.993049,6 Z" id="Path"></path>
            <path d="M32.9931679,5 C33.05948,5.4621751 32.6367173,5.88854361 32.0016251,6 C31.9708736,5.5447951 32.3793034,5.13288168 32.9931679,5 L32.9931679,5 Z" id="Path"></path>
            <path d="M32.991847,5 C33.0654018,5.47303514 32.6337564,5.90834734 32.0002705,6 C31.9880065,5.54006477 32.3938612,5.13076238 32.991847,5 L32.991847,5 Z" id="Path"></path>
            <path d="M32.9882684,4 C33.0780197,4.4713625 32.6435961,4.91111292 32.0003817,5 C31.985825,4.54381373 32.388879,4.13581757 32.9882684,4 L32.9882684,4 Z" id="Path"></path>
            <path d="M31.0730733,5 C31.0168991,4.77010619 31.0794069,4.53122629 31.2454499,4.3412458 C31.4114928,4.15126531 31.6659181,4.02752149 31.9470733,4 L31.0730733,5 Z" id="Path"></path>
            <path d="M33.9859819,4 C34.084447,4.46248601 33.6544668,4.89938731 33.0018232,5 C32.9693797,4.54939491 33.3727526,4.13952924 33.9859819,4 Z" id="Path"></path>
            <path d="M31.0304036,5 C30.9551748,4.52672581 31.3696,4.08956845 31.9784036,4 C31.6630702,4.33435897 31.3470702,4.66769231 31.0304036,5 Z" id="Path"></path>
            <path d="M33.9808686,3 C34.0971556,3.45269898 33.6722771,3.88882248 33.0066527,4 C32.9425627,3.55519896 33.3470747,3.13998089 33.9808686,3 Z" id="Path"></path>
            <path d="M32.0297318,5 C31.9564775,4.53471954 32.3659503,4.10324143 32.9787318,4 L32.0297318,5 Z" id="Path"></path>
            <path d="M34.9102415,2 C35.0369053,2.45229991 34.6604665,2.89778963 34.0652415,3 L34.9102415,2 Z" id="Path"></path>
        </g>
        <g id="yasai3" transform="translate(6.000000, 257.000000)" fill="#604838" fill-rule="nonzero">
            <path d="M27.7781188,46.9662362 C27.901751,45.5329081 28.4258751,45.0808983 29.2216082,45.8312628 C30.6412303,47.1726807 32.3019114,47.1236619 34.0108042,47.0817131 C35.1468838,47.0548471 36.2901235,47.039293 37.4157016,46.901192 C41.6678852,46.3808388 43.9013795,43.0932808 42.9944252,38.9780596 C42.3562158,36.0911359 40.8182122,34.1515946 37.9135717,33.227779 C35.5178282,32.5000656 33.2583305,31.3913863 31.2240678,29.9454058 C30.2328891,29.194901 29.2890163,28.3853722 28.3977118,27.5213326 C27.7771641,26.9420625 27.5680873,25.9187954 26.3623154,26.043699 C24.6825406,26.2152647 22.913025,25.9786548 21.5487748,27.3016907 C20.9378311,27.829026 20.5908226,28.5936803 20.5988595,29.3948871 C20.688933,31.1837064 20.8721572,32.9667649 21.1478056,34.736992 C21.7628284,38.4301517 23.7200501,41.7753429 26.6530181,44.1462421 C26.8459498,44.2690506 26.9752003,44.4686876 27.0070983,44.6931451 C27.0389964,44.9176025 26.9703834,45.1446547 26.819134,45.3151515 C26.5929531,45.5774071 26.2155504,45.6550023 25.9021555,45.5036853 C25.6936146,45.4190084 25.4912202,45.3202664 25.2964055,45.2081586 C24.989473,45.0667583 24.6758578,44.932428 24.3689253,44.7952696 C24.0126488,44.2273758 23.6262578,43.6784499 23.2113653,43.1507836 C20.4236742,39.9386392 19.3043016,36.1279 19.0503544,31.9999527 C19.017895,31.4734721 19.1653944,30.8923167 18.6474758,30.4761284 C17.7920747,30.5755799 17.2407419,31.159092 16.709935,31.7289354 C14.0587644,34.5757956 10.6476615,34.4730447 7.22892119,33.9875702 C5.85226726,33.7496997 4.67538429,32.8728014 4.06603742,31.6308978 C3.97725137,31.4649881 3.97486465,31.0907485 4.07797103,31.018163 C4.35096884,30.8349914 4.66636579,30.7228067 4.99494956,30.6919996 C5.22245359,30.7134424 5.43270801,30.8210468 5.58160579,30.9922396 C7.52535205,33.0053091 9.95503487,32.4397078 12.3088199,32.2290213 C13.2873759,32.1413531 13.9451564,31.5041089 14.5089001,30.7754258 C15.6836528,29.2506588 17.1350598,27.9546536 18.7892471,26.9533745 C23.7837012,23.9476746 29.1199338,23.130852 34.7540294,24.9907378 C34.979097,25.0378636 35.170249,25.1834902 35.2735117,25.3864985 C35.3767744,25.5895068 35.3809415,25.8278658 35.2848363,26.0342723 C35.1308522,26.4781597 34.6422843,26.7154691 34.1921951,26.5649949 C32.9749669,26.2982196 31.766331,25.9923235 30.5462388,25.7396883 C30.3241819,25.7087801 30.1003345,25.7828057 29.9419208,25.9395341 C29.7618939,26.232054 29.841268,26.6122026 30.123789,26.8105602 C31.9371196,28.5175278 34.0623909,29.8687657 36.3865471,30.7923938 C37.2190357,31.1468373 38.0868477,31.4192686 38.9288832,31.7539161 C43.3534292,33.42979 45.838547,38.0805405 44.7419829,42.6327871 C44.0259663,45.5211247 42.2010788,47.6539132 39.1222077,48.3387622 C37.5822947,48.6814223 35.9745989,48.7233711 34.3993625,48.9170896 C32.0093772,49.2565427 29.5889119,48.5433877 27.7781188,46.9662362 Z" id="Path"></path>
            <path d="M24.1990885,0.0378511078 C30.8581905,-0.307080339 36.323993,1.7000835 40.6628706,6.28033568 C42.4902046,8.24832791 43.6483456,10.6927923 43.9859284,13.2942455 C44.0225183,13.4531479 43.9870088,13.6193036 43.888056,13.7522083 C43.7891032,13.885113 43.6357984,13.9725562 43.4655132,13.9932215 C43.1400811,14.0288482 42.8151476,13.9227756 42.5819617,13.7047914 C42.2526965,13.1330666 42.0010741,12.5241884 41.8330833,11.8926483 C41.1210935,9.34586824 39.5218057,7.10164089 37.294601,5.52394704 C34.1740337,3.20511463 30.6422326,1.72878981 26.5832827,1.69962784 C23.2530102,1.67593374 19.9333192,1.77800064 16.7492631,2.8774981 C16.5384504,2.96420929 16.3143866,3.018507 16.0855173,3.0383446 C15.6435011,3.04745772 15.1346293,3.06568395 15.0129426,2.52482051 C14.9341637,2.07806416 15.2221736,1.64652808 15.6819791,1.52237773 C16.1985465,1.29865073 16.7430105,1.13324767 17.2725642,0.936860017 C19.5711448,0.0847836561 22.0250804,0.342229188 24.1990885,0.0378511078 Z" id="Path"></path>
            <path d="M12.5920032,3.05034575 C12.7492646,3.19605951 12.8802355,3.36903629 12.9789062,3.56133898 C13.0236055,3.76265452 12.9967569,3.97370817 12.9031877,4.15655146 C12.8071639,4.35756132 12.653263,4.52353422 12.462266,4.63205904 C8.74190303,6.42999817 6.04789483,9.50967864 3.95594091,12.8969013 C1.18067385,17.3908029 0.791000688,22.3971171 3.00207271,27.405797 C3.13550345,27.7081346 3.3866672,27.9541684 3.55010831,28.2456238 C4.05797618,29.1488516 4.05058901,29.7880663 3.56118907,29.940418 C2.73290274,30.1978072 2.39447806,29.5694748 1.99880282,29.0461798 C1.00764714,27.6842447 0.392103828,26.0742329 0.216648298,24.3847861 C-0.226501242,21.2523001 0.0120478387,18.0581387 0.915197467,15.0312443 C2.04035565,11.3785891 7.94639727,4.7423011 11.333876,3.25379676 C11.708694,3.01316832 12.1630935,2.93968764 12.5920032,3.05034575 Z" id="Path"></path>
            <path d="M43.9988777,18.6662597 C43.496198,21.4001494 42.3454741,24.3904566 38.8285918,25.847332 C38.4135043,25.9795317 37.9752635,26.0266197 37.540944,25.9856867 C37.3533769,25.9806137 37.0251346,25.7924513 37.0096603,25.6564024 C36.976489,25.3422971 37.0290962,25.0251742 37.1620585,24.737727 C37.238961,24.5721625 37.5043684,24.4670129 37.706003,24.3849224 C40.7605325,23.1457251 41.9801873,20.7448091 42.1494665,17.6590372 C42.1832286,17.0396692 42.0144183,16.2939371 42.8809781,16.0306019 C43.5004183,15.8424395 43.9683981,16.5379026 43.9984088,17.6788681 C44.0016912,17.7895519 43.9988777,17.8993133 43.9988777,18.6662597 Z" id="Path"></path>
        </g>
        <g id="yasai01" transform="translate(0.000000, 132.000000)" fill="#604838" fill-rule="nonzero">
            <path d="M45.3366143,24.002208 C45.7238759,23.9960946 46.2258817,23.9700324 46.1936099,24.4848413 C46.1222208,25.6283603 45.9693372,26.7693054 45.7981988,27.9038153 C45.6018918,29.4237067 45.2219226,30.9149315 44.6664039,32.3456502 C43.4094335,35.3949271 42.1746296,38.4532133 40.8756081,41.4835067 C40.2252496,43.0450405 39.3614339,44.5113726 38.308207,45.8416851 C37.7520888,46.5315289 37.9577808,46.8548932 38.8832318,47.0450507 C39.9597474,47.2327205 41.0665434,47.1553586 42.1055223,46.8198218 C43.6730915,46.375423 45.1586996,45.6867743 46.5062226,44.7798919 C50.068834,42.393753 52.6740485,39.2167391 54.6696846,35.503037 C54.8144187,35.2340494 54.9324227,34.9499393 55.0934557,34.6902826 C55.2870866,34.3762492 55.6961887,34.5200739 55.9198095,34.993698 C55.9665544,35.1397015 55.9935186,35.291169 56,35.4441557 C55.471264,36.2849029 54.9069964,37.1063447 54.4199856,37.9702583 C52.6450365,41.1183142 50.0877407,43.5289065 47.1562223,45.602299 C45.3685306,46.8209915 43.3485119,47.6682755 41.2188627,48.0926866 C39.9309084,48.4186238 38.5668754,48.2720511 37.3801482,47.6801961 C36.7410576,47.2759989 35.9235623,47.2701164 35.2785693,47.6650736 C34.6618193,47.9791069 34.0007363,48.2075534 33.359212,48.4742887 C30.466811,49.677976 28.0500116,48.6908301 25.9318079,46.7689845 C24.4975056,45.4674834 24.5506399,45.3629129 22.8813076,46.0932979 C21.3576874,46.7606188 19.8855717,46.666988 18.382814,46.0534002 C17.2263641,45.6061037 16.161007,44.9568365 15.2377802,44.1367026 C14.8680734,43.7291209 14.2744062,43.6030902 13.7676204,43.8245998 C13.0364522,44.0990572 12.3030021,44.3693319 11.5131579,44.1463553 C11.3078534,44.0648653 11.1402405,43.9114534 11.042446,43.7155247 C10.8863026,43.4140397 11.1976114,43.2972425 11.3830928,43.280833 C12.3847752,43.1810187 13.3623806,42.915964 14.2751678,42.4967148 C14.5943001,42.3548206 15.0249167,42.4587476 15.4050068,42.450382 C16.2692865,43.7313475 17.5430606,44.6899349 19.0233604,45.1733989 C20.2542526,45.6100211 21.4310324,45.6650413 22.6188955,45.0617497 C23.0962197,44.8094524 23.5966511,44.6022845 24.1135037,44.4430139 C25.2964772,44.100666 25.5298773,44.2580045 26.0074347,45.1524848 C26.8331365,46.6988418 28.3776193,47.2882979 29.9191683,47.8208032 C30.6665874,48.0634847 31.475743,48.0456531 32.2114442,47.7702876 C33.5935901,47.2818627 34.9692164,46.7676974 36.3145267,46.1895028 C36.7155776,45.9588499 37.0657274,45.6511994 37.3442906,45.2847263 C38.4035823,44.061056 39.247803,42.6709413 39.8419325,41.1720473 C40.9143994,38.716731 41.9304722,36.2376048 42.9752311,33.7716706 C44.0299585,31.3857833 44.6950487,28.8500177 44.9457669,26.2586794 C45.0067247,25.503841 45.2019854,24.7554376 45.3366143,24.002208 Z" id="Path"></path>
            <path d="M37.953833,4.93199158 C37.2734591,2.84519584 35.9236283,1.52763905 33.6744453,1.20215502 C33.0993865,1.11926976 32.4440571,1.24678554 32,0.706118632 C32.028143,0.602064501 32.0316595,0.492956886 32.0102746,0.387329182 C32.068335,0.162993182 32.2698921,0.00459384363 32.5031363,0 C34.7571355,0.0599324166 36.6842727,0.788047521 38.0186916,2.70429091 C38.1927183,2.95390305 38.3757354,3.19809576 38.5680638,3.43368117 C38.8115409,3.73005256 39.2101533,3.85276378 39.5797948,3.74513846 C40.6312323,3.55539003 41.6924195,3.42342289 42.7585116,3.34983954 C43.8864745,3.29086349 44.8632075,3.64790768 45.4556047,4.72063418 C45.674904,5.11752704 46.0014449,5.45608144 46.21946,5.85393067 C46.8982284,7.09465921 47.6842384,8.12817461 49.3060261,8.17854334 C49.9160829,8.19767071 50.4022018,8.67457973 50.8764407,9.0654156 C53.1565464,10.8938973 54.7564387,13.4259294 55.4223268,16.2598559 C55.633278,17.1413087 55.7803338,18.0380635 55.9566081,18.9281236 C55.8647785,19.4732536 55.8040939,20.0120077 56.3097989,20.4162328 C56.345118,20.6787027 56.3805441,20.9411727 56.4160772,21.2036427 C56.391996,22.3264191 56.0384842,23.4842624 56.7785793,24.5247912 C57.0659564,26.3381393 57.0736433,28.1843549 56.8013762,30 L56.3281006,29.9968121 C56.3381612,28.731218 56.3481147,27.4657301 56.3579613,26.2003485 C56.3611721,25.7463924 56.325853,25.3055066 55.940554,24.9812977 C55.9099441,24.4074767 55.8793343,23.8336557 55.8487244,23.2598347 C55.8946392,22.4392706 56.1698069,21.5845961 55.4859012,20.873058 C55.1526175,19.5478503 54.7763088,18.2315687 54.4979303,16.8948845 C54.1900448,15.4816382 53.6436728,14.1302594 52.881922,12.8979024 C51.9541898,11.4066551 50.7091545,10.1349318 49.2341036,9.17189127 C47.2013303,8.87605466 45.188464,8.33570654 43.1094548,8.94873866 C40.9851729,9.5757975 38.8361677,10.1212463 37.0185196,11.4713196 C36.9294665,11.5432119 36.8127678,11.571943 36.7002014,11.5496891 C36.5876349,11.5274353 36.4909216,11.4565136 36.436397,11.3562366 C36.285795,11.1805352 36.2768834,10.925002 36.4148845,10.739379 C36.6897682,10.3745826 37.0546909,10.0862665 37.4744568,9.9022379 C40.0812535,8.57928339 42.9159754,7.75634378 45.8299869,7.47656898 C45.4857864,6.42870805 44.8211456,5.61260706 44.1539362,4.80192549 C43.8822631,4.52510272 43.499407,4.38457707 43.1117024,4.41937815 C42.0394944,4.35756031 40.9644269,4.4743633 39.931059,4.76494591 C39.279733,4.99154369 38.5774021,5.03197095 37.9040652,4.88162285 L37.953833,4.93199158 Z" id="Path"></path>
            <path d="M19.9320351,6.00083062 C20.9778329,5.97666744 21.7470003,6.48177736 22.3771778,7.24341428 C23.1790686,8.21192781 23.9769111,9.18375136 24.797019,10.1790761 L26.4527531,8.81038046 C26.7717795,8.88394646 27.0369509,9.10047607 27.1686186,9.394931 C27.0957749,9.52553854 27.0474401,9.66792491 27.0259178,9.81530426 C25.9608908,10.7990439 25.9598787,10.8000369 26.7189255,11.7596134 C28.1924884,13.6228268 29.029464,15.8028098 29.9177174,17.9566435 C29.9849023,18.0982525 30.0117165,18.2550796 29.9953089,18.4104481 C29.9541517,18.6189797 29.8910665,18.917875 29.7446548,18.9853995 C29.5255726,19.0315419 29.2975091,18.9667731 29.1374173,18.8129472 C28.9077674,18.5068258 28.7059306,18.1815273 28.5342281,17.8407926 C28.1408732,16.1261993 27.2860178,14.5969674 26.3512095,13.1435351 C25.2247841,11.3965036 23.2893834,10.9771233 21.3506092,10.7470765 C20.595948,10.6580368 19.9468787,11.1095243 19.3868708,11.5441307 C18.1936492,12.4669659 17.054067,13.4566636 15.892894,14.418888 C15.2627165,14.6174896 14.8217947,15.3999797 14,15.0120446 L14.0293498,15.05342 C14.0229137,14.6541146 14.1920525,14.2714306 14.4935491,14.0031488 C16.3864431,12.5513715 18.0711897,10.8235381 20.276811,9.78021799 C20.9552302,9.80007815 21.633312,9.82523434 22.3120685,9.83648843 C22.5482164,9.84012946 22.8100032,9.74777974 22.8015693,9.50548586 C22.7948223,9.31913141 22.5991569,9.13410097 22.4719744,8.96065562 C22.433516,8.90901922 22.3370327,8.89875814 22.2675378,8.86962992 C21.4284011,7.61461523 20.2193647,6.64033326 18.8015614,6.07663021 L19.9320351,6.00083062 Z" id="Path"></path>
            <path d="M20.7202102,6.09932139 L19.5806164,6.17400235 C18.2808469,5.7967513 16.9783567,5.42623116 15.6816479,5.04000557 C14.2913754,4.62119919 12.7815865,4.73947229 11.4837528,5.36885823 C9.87621472,6.08521855 8.48326444,7.09421286 7.01311696,8 L6,7.97596106 C5.99736691,7.66900958 6.16500181,7.38303901 6.44212977,7.22177948 C8.55025936,5.53328456 10.8331879,4.15088542 13.6071858,3.65888852 C13.9233883,3.62031716 14.2136941,3.47404909 14.4233676,3.24766244 C15.4435949,2.12584538 16.8076387,1.46397332 18.1550188,0.777421281 C18.5029163,0.600174186 18.8181665,0.365554162 19.14804,0.157216709 C19.2278989,0.149406142 19.3082449,0.146942651 19.3884736,0.149844769 C19.9495986,0.204653545 20.8147513,-0.395037801 20.9868296,0.480300021 C21.1228599,1.18127542 20.1706478,0.984156138 19.7203875,1.21749409 C18.7341678,1.73032474 17.7357054,2.2264884 16.7617285,2.7585502 C16.3083328,2.95876396 15.9401369,3.29765292 15.7170158,3.72010768 C16.5641445,4.37941558 17.6938761,4.33197875 18.622623,4.76307702 C19.3884736,5.11949432 20.3655112,5.17109791 20.7202102,6.09932139 Z" id="Path"></path>
            <path d="M0.419627296,26 C0.727889542,26.3216511 0.944152277,26.4474189 1.00069364,26.622865 C1.29873372,27.5466294 1.50509373,28.5008925 1.83699474,29.4111368 C3.57252715,34.1727053 5.96195885,38.5447081 9.75661917,42.0589745 C10.0156872,42.299191 10.1009784,42.5356344 9.84829924,42.8085505 C9.63227222,43.0400367 9.27006793,43.0648902 9.02349808,42.865146 C8.66128454,42.5962522 8.32988116,42.2893534 8.03514224,41.949871 C4.335479,37.8624242 1.64292588,32.9905393 0.166628646,27.7126429 C0.0621708693,27.3501172 -0.0809394787,26.9948232 0.0567403427,26.6238082 C0.160193042,26.4064674 0.281561261,26.1978336 0.419627296,26 Z" id="Path"></path>
            <path d="M6.97737748,9 L8,9.0232537 C5.58985138,12.298305 3.8181982,15.867593 2.28786883,19.5227648 C1.65864188,21.0249539 1.48528694,22.6821676 1.0942943,24.2665198 C1.04936507,24.4764996 0.96134565,24.6770361 0.834776806,24.8577839 C0.724601713,24.9580418 0.571217482,25.0095114 0.415292173,24.9985463 C0.286906533,24.9895549 0.078537325,24.883518 0.0610301922,24.7951539 C-0.00213418692,24.5120465 -0.0163773219,24.2218117 0.0188071072,23.934767 C0.798389432,18.8620496 3.19858301,14.3539321 6.01723139,9.99680865 C6.30131606,9.63761793 6.62283235,9.30382474 6.97737748,9 Z" id="Path"></path>
            <path d="M31.9862964,0.570055797 C32.0075388,0.672765041 32.0040456,0.778858048 31.9760902,0.880037198 C31.3958759,1.31419183 30.7453896,1.65150966 30.0512692,1.87817731 C29.0373494,2.28611283 27.9781397,2.6816491 27.3029374,3.61717297 C27.0847,3.66825493 26.9401875,3.86981349 26.9664525,4.08648481 L26.9686851,4.08276503 C26.6233823,4.24787678 26.4403301,4.62217856 26.5266301,4.9866708 L26.5212081,5 C26.0746879,4.79634222 26.0612923,4.37538748 25.9828323,3.98698078 C25.9572681,3.84281348 26.0220073,3.69762225 26.1477259,3.61717297 C26.3486211,3.57420065 26.4892497,3.3978766 26.4819781,3.19807812 L26.5097262,3.16429014 C26.7403392,3.11098866 26.909174,2.91908996 26.9275415,2.68939864 C26.3534441,1.90824551 25.4329746,1.75232486 24.5839484,1.48636082 C24.009851,1.30626162 23.4076866,1.20985741 22.8230641,1.0582765 C22.4683994,0.965282083 21.9580907,0.912895226 22.0027427,0.461562306 C22.0636608,-0.165530068 22.666782,0.0802851829 23.0654607,0.0176689399 C23.1397745,0.00588964662 23.2163208,0.00557966522 23.2919103,0 C24.6933458,0.52882827 26.2386246,0.689088655 27.506423,1.5616863 C27.9057397,1.8366398 28.233932,1.5582765 28.5350142,1.37228766 C29.5683543,0.754888024 30.777356,0.473862119 31.9862964,0.570055797 Z" id="Path"></path>
            <path d="M13.2726752,27.9745967 C13.4840464,29.5474097 13.524011,31.1316039 13.3921306,32.7097947 C13.4172162,33.6885279 12.9091326,34.7149581 13.8165954,35.6124178 L13.986222,37.2190589 C13.876323,37.7779315 13.7528858,38.3386869 14.4242251,38.7598026 C14.4773163,38.9876193 14.529744,39.2156452 14.581508,39.4438802 C14.4660344,39.8744098 14.4951019,40.2713632 15,40.5575461 L14.9378832,41 L14.0893518,40.9927827 C13.8475881,40.7989318 13.7449127,40.5226181 13.815799,40.2566147 C13.9756036,39.8763544 13.8118943,39.458066 13.4080579,39.2148084 C13.3584176,38.9597959 13.3085118,38.7046789 13.2583405,38.4494573 C13.2890008,37.7826385 13.5768882,37.0806744 12.827903,36.5221156 C12.6102342,36.0128322 12.5600913,35.4683519 12.6821674,34.9396369 C12.7044658,33.7700105 12.7268968,32.6011164 12.7494606,31.4329544 C12.7570261,30.9879901 12.7148186,30.5543226 12.2465535,30.2314254 C12.103207,27.5327704 11.7782884,24.8341154 12.2346079,22.1354605 C13.1026504,21.4262791 12.6841583,20.5645923 12.6897329,19.753113 L12.7932609,19 L13.3268283,19.449985 L13.4020852,21.4294171 C13.3548339,21.8193622 13.3075827,22.209412 13.2603315,22.5995664 C13.1130032,22.7878446 12.843034,22.9726711 12.8382558,23.1622046 C12.8037464,24.5799398 12.8053392,25.9979888 12.843034,27.4163517 C12.8478122,27.6046299 13.123356,27.788515 13.2726752,27.9745967 Z" id="Path"></path>
            <path d="M56.3306919,31 L57,31.0035276 L56.9545924,32.9008448 C56.7275544,33.1777126 56.5173171,33.4630129 56.2734783,33.7289887 C56.1091002,33.9489741 55.7694054,34.0511932 55.4561413,33.9749372 C55.3012682,33.9469693 55.1675312,33.8718302 55.0852187,33.766537 C55.0029062,33.6612439 54.9789826,33.5347055 55.0188661,33.41558 C55.2395471,32.6074634 55.5097223,31.8098874 55.7612805,31.0080952 C55.9504788,31.0024735 56.1402826,30.9997798 56.3306919,31 Z" id="Path"></path>
            <path d="M13.4590141,19 L13,18.6264328 L13.0369952,18.2432268 C13.440859,18.0152831 13.4501078,17.6977249 13.3839961,17.3627127 C13.3532017,17.3211084 13.347629,17.2713961 13.3687186,17.2264279 C13.3898083,17.1814597 13.4354901,17.1456499 13.4939539,17.1282563 C13.7391301,17.0176604 13.8825498,16.8121857 13.8656183,16.5957798 C13.8400485,16.55301 13.8416538,16.5036884 13.8699747,16.4619331 C13.8982957,16.4201777 13.9502104,16.3905914 14.0108586,16.3816429 L14.4243138,16.0286558 L14.4585686,16.0098993 L14.7007499,16.0153699 L14.9425887,16.001563 L14.9388206,16 L14.9816391,16.4832407 C15.0371994,16.5976458 14.9625319,16.7248617 14.8134481,16.7697985 L14.4681599,17.1824418 L14.2766757,17.5237061 C14.0675882,17.6258626 13.9615754,17.8146701 14.0091459,18.0001737 C13.9634728,18.3313651 13.9184849,18.6625564 13.874182,18.9937478 C13.7364778,18.9932268 13.5977459,18.9950504 13.4590141,19 Z" id="Path"></path>
            <path d="M12.1403509,30 C12.9396026,30.3422421 13.011644,30.8034524 12.9987309,31.2759931 C12.9633898,32.5169955 12.9251037,33.7583311 12.8838724,35 C11.6584891,33.3687683 12.028211,31.6798854 12.1403509,30 Z" id="Path"></path>
            <path d="M56.8511142,25 C55.5032698,24.0600883 56.1494165,23.0130543 56.1909336,22 C56.956056,22.9524176 57.1841612,23.9889758 56.8511142,25 Z" id="Path"></path>
            <path d="M12.8397568,20 C12.8304527,21.0218651 13.5289202,22.1069547 12.0801485,23 C11.8513682,21.9774107 12.1147504,20.937208 12.8397568,20 Z" id="Path"></path>
            <path d="M13.1029568,37 C14.4199152,37.5796158 13.9137159,38.308043 13.8598053,39 C12.9209211,38.3894497 12.9013173,37.7040052 13.1029568,37 Z" id="Path"></path>
            <path d="M55.8924816,21 C54.8055715,20.4554413 54.935918,19.7326478 55.1338515,19 C55.8926282,19.5511726 56.1752838,20.2963464 55.8924816,21 Z" id="Path"></path>
            <path d="M14,40.8187181 L14.9821391,40.8261326 C15.0425146,41.0069812 14.9503383,41.173001 14.6977751,41.1807378 C14.3728534,41.1884747 14.0442447,41.1159418 14,40.8187181 Z" id="Path"></path>
            <path d="M13.1782935,17 C13.2407992,17.3804734 13.2320549,17.739645 12.8502197,18 C12.7058126,17.6370583 12.8391746,17.2305583 13.1782935,17 L13.1782935,17 Z" id="Path"></path>
            <path d="M13.8256682,39 C14.1541287,39.233496 14.2872817,39.6349991 14.1573045,40 C13.8558458,39.7496992 13.7281795,39.3647406 13.8256682,39 Z" id="Path"></path>
            <path d="M15.1783735,40 C14.7677144,39.7430262 14.7440724,39.3865878 14.8379929,39 C14.9658069,39.0589305 15.0892274,39.1248072 15.2075213,39.1972387 L15.1783735,40 Z" id="Path"></path>
            <path d="M16,15.9657401 L15.5003539,16 L15,15.9864253 L15.9759377,15.081448 L15.9136589,15 C15.9424393,15.3219134 15.9712196,15.6438268 16,15.9657401 Z" id="Path"></path>
            <path d="M15.1956796,15 L14.8047762,16 C14.7960319,15.3815498 14.9126228,15.0228782 15.1956796,15 Z" id="Path"></path>
            <path d="M14.1786662,16 C14.1946017,16.4066945 14.0585868,16.7927015 13.8263025,17 C13.7878455,16.5866002 13.9301144,16.1828444 14.1786662,16 Z" id="Path"></path>
            <path d="M33.8610873,10.8483886 C33.7556393,10.7575326 33.7127446,10.6184381 33.7499861,10.488121 C33.680632,9.86131923 33.2857179,9.5794816 32.6477278,9.55588886 L31.8541962,9.3837256 C31.4448052,8.92047891 30.8980528,9.01580634 30.3651038,9.05406485 L29.4412808,8.9156966 C29.0961938,8.49038959 28.5996053,8.5624431 28.126247,8.5547914 C28.0814698,8.50569299 27.9939356,8.45117462 28.0003323,8.40909027 C28.0264538,8.30405675 28.0649639,8.20213773 28.1151369,8.105254 L29.2056117,8.04148983 C29.6272489,7.95247649 30.0685497,8.00770761 30.4512914,8.19739323 C30.7408278,8.56180546 31.1424754,8.55670432 31.5602831,8.49899775 C32.0004283,8.41205079 32.4587253,8.46985738 32.8594934,8.66287167 C33.009949,8.86327334 33.2628412,8.97125464 33.5210504,8.94534694 C33.5776534,8.91838985 33.6444189,8.9185239 33.7009007,8.94570802 C33.7573825,8.97289214 33.7968512,9.02388759 33.80722,9.08307754 L34.2364745,9.47427072 L34.2681215,9.51858682 C34.2301642,9.85877962 34.3954101,10.1906803 34.6967027,10.3794031 C34.7388987,10.6191564 34.7812069,10.8591222 34.8236274,11.0993006 C34.8115073,11.7949677 34.5307243,12.5339944 35.1939646,13.1190306 C35.3818266,13.6061889 35.5104346,14.0837825 36.3029563,13.833827 C37.0442241,13.6355526 37.799662,13.4882985 38.56336,13.3932166 C38.9490507,13.3132644 39.350431,13.4348965 39.6154544,13.7120374 C39.7814755,13.9144765 40.0515195,14.0141708 40.3184218,13.9715576 C40.7268785,13.8615141 41.1651469,13.915353 41.5304346,14.1204469 L42.1300442,14.4306596 C42.2758378,14.3923742 42.4294291,14.459899 42.492638,14.59007 L42.9791264,14.9216437 L43,14.9334401 C42.7629842,15.1179311 42.526305,15.3026346 42.2899625,15.4875507 C42.229662,15.5086303 42.1628858,15.5054707 42.1051045,15.478804 C42.0473232,15.4521373 42.0035511,15.4042776 41.9839293,15.3463131 C41.8725098,15.138296 41.6460982,15.0081683 41.3998065,15.0105947 L41.1957844,15.0176088 L41.0217259,14.9168614 C40.6692322,14.4242832 40.1335899,14.4880474 39.6144444,14.5023943 C37.4860154,14.298349 35.6841564,15.008363 34.0654461,16.2587784 C33.5065735,16.6904618 32.9184107,17.0877126 32.3376546,17.4954844 C31.7622852,17.8981552 31.8387093,18.8240109 30.9849137,19 C30.4869052,18.2861597 30.6878749,17.3257735 31.4357151,16.8457275 C32.3403479,16.1666391 33.3113048,15.5662995 34.2529714,14.9328025 C34.9094783,14.3270428 34.9101516,14.3203476 34.3405056,13.5937549 C34.1587657,13.247891 34.1166247,12.8510903 34.2219977,12.4778819 C34.250278,11.8982656 34.4263565,11.2988824 33.8610873,10.8483886 Z" id="Path"></path>
            <path d="M26.8785735,31.1682664 C26.9462024,31.5903229 26.9131504,32.0293576 26.7838825,32.4260598 C26.4789625,32.7387836 26.5000608,33.1723922 26.5269359,33.6086288 L26.4174259,34.7810145 C25.9545202,35.3828106 26.168768,36.130457 26.159977,36.8298151 C26.342075,38.1746588 25.7673988,39.3821931 25.7405237,40.6932021 C25.7208701,40.8062565 25.6641582,40.9022623 25.585477,40.9556756 C25.5067959,41.0090889 25.4141252,41.0144925 25.3321218,40.9704488 C25.2336633,40.9234746 25.0995386,40.8209853 25.0791939,40.7122546 C25.0083722,40.4219443 24.9846753,40.1154936 25.0096199,39.8125168 C25.1206369,39.0609285 25.2838972,38.3228084 25.4263104,37.5787754 C26.001489,36.8212743 25.6802429,35.8850739 25.7234441,35.0217986 C25.7401888,34.77762 25.7569334,34.5336605 25.7736781,34.2899199 C26.2237741,33.8517124 26.0914077,33.2298782 26.0768399,32.6451636 L26.1408881,31.9359507 C26.7148108,31.2178686 26.4016023,30.308276 26.4508315,29.4768643 C26.3897645,29.3585631 26.4120665,29.1981409 26.5010654,29.1155238 C27.0137028,28.5570885 26.7939293,27.8077997 26.8100041,27.1192818 C26.7786121,27.0647675 26.7657043,26.9957914 26.7742982,26.9284782 C26.7828922,26.861165 26.8122346,26.8014153 26.8554659,26.7631971 C27.2872265,26.3607952 27.1819864,25.7750951 27.1644046,25.2192877 C27.1349017,25.1667676 27.1235465,25.1004991 27.1330895,25.036535 C27.1426325,24.9725709 27.1722032,24.9167463 27.2146385,24.882584 C27.6690044,24.4302514 27.524833,23.7923212 27.5198097,23.1974233 L27.475855,23.0896781 L27.5394009,23 C27.8985735,23.2818456 27.9357466,23.7519167 27.9598589,24.2295432 C28.0419199,24.6187276 27.9969973,25.0349859 27.8357811,25.379263 C27.6188167,25.6508916 27.5279512,26.052392 27.5969187,26.4347058 C27.5589084,26.7099815 27.5210655,26.9851478 27.4833901,27.2602046 C27.1164312,27.6872433 27.2163967,28.2456787 27.2339786,28.7804626 C27.1978101,29.0572713 27.1618091,29.3342991 27.1259756,29.6115458 C26.7504769,30.0500818 26.8607404,30.6216567 26.8785735,31.1682664 Z" id="Path"></path>
            <path d="M42,14.613412 C42.2302608,14.4091767 42.4604125,14.204706 42.6904551,14 C43.3573385,14.1895295 43.7161526,14.764118 43.975769,15.3584712 C44.8574771,17.4109859 45.5260198,19.5622869 45.9692167,21.77318 C46.0127562,22.0200829 46.0100848,22.2738768 45.9613595,22.5196509 C45.8588879,23.0981218 45.4404898,23.0091806 45.0571219,22.9717688 C44.760511,20.9300031 44.0811869,19.0078846 43.4673399,17.0652955 C43.1595932,16.1372492 42.6574693,15.2982144 42,14.613412 L42,14.613412 Z" id="Path"></path>
            <path d="M28.7204524,25 C28.6780973,24.5589604 28.6171061,24.1248973 28.0114292,23.8646414 C27.9377314,23.348983 28.2363344,22.8970235 28.4514979,22.4244377 C28.7564541,21.7540817 28.9944894,21.068256 29.2613261,20.3891034 C29.7725513,20.0912349 30.3163898,19.8849715 31,20.0706085 L28.7204524,25 Z" id="Path"></path>
            <path d="M13.1870524,27 C13.0649558,26.8269017 12.8414899,26.6558468 12.8372796,26.4807052 C12.8061887,25.1618892 12.8048933,23.8427812 12.8333933,22.5233814 C12.8372796,22.3482398 13.0568592,22.1730983 13.1766887,22 C13.1803592,23.666764 13.1838137,25.3334306 13.1870524,27 Z" id="Path"></path>
            <path d="M13.9186274,35 C12.3845904,34.0724324 13.2455089,33.0115676 13.2010831,32 C13.8991813,32.9619719 14.1442856,33.9867348 13.9186274,35 L13.9186274,35 Z" id="Path"></path>
            <path d="M26.8916928,30 C26.7603221,31.0142933 27.5820459,32.1239647 26.0811355,33 C25.8448263,31.9729776 26.1275935,30.9264114 26.8916928,30 L26.8916928,30 Z" id="Path"></path>
            <path d="M25.8638742,35 C25.7486217,36.0128469 26.6056443,37.1112539 25.0711785,38 C24.8562288,36.9771455 25.1302916,35.9399399 25.8638742,35 L25.8638742,35 Z" id="Path"></path>
            <path d="M27.905533,27 C27.8599916,27.6911305 28.4826282,28.4418299 27.0302838,29 C26.8978095,28.3082169 27.2018316,27.6135073 27.905533,27 L27.905533,27 Z" id="Path"></path>
            <path d="M26.8443739,37 C26.8557092,36.3173 26.5794535,35.5874619 27.1763342,35 C27.2734424,35.6845767 27.1576506,36.382201 26.8443739,37 L26.8443739,37 Z" id="Path"></path>
            <path d="M13,19.0076805 C13.2987445,19.0016824 13.597489,18.9994726 13.8954958,19.000104 C14.1688646,19.6842428 13.9023349,20.3878622 13.1379388,21 L13,19.0076805 Z" id="Path"></path>
            <path d="M40,15.0207392 C40.737799,14.9933754 41.4990431,14.8565564 42,15.9100626 C41.2693391,16.1788041 40.4951782,15.8345644 40,15.0207392 L40,15.0207392 Z" id="Path"></path>
            <path d="M28.9240834,24 C28.938968,24.7060429 29.3661553,25.4631579 28.0198455,26 C27.9655168,25.2892788 27.9550976,24.5840156 28.9240834,24 Z" id="Path"></path>
            <path d="M28.9296906,26 C28.9828303,26.7208511 29.2856532,27.4795745 28.0343247,28 C27.888916,27.2911132 28.2088936,26.5763718 28.9296906,26 Z" id="Path"></path>
            <path d="M28.8431264,29 C28.8204559,28.2960242 28.6915582,27.5617978 29.164723,27 C29.2452851,27.6967463 29.1308068,28.4086838 28.8431264,29 Z" id="Path"></path>
            <path d="M27.851778,32 C27.8287836,31.2981864 27.6859598,30.5660059 28.1707836,30 C28.2282158,30.6937421 28.116613,31.393434 27.851778,32 L27.851778,32 Z" id="Path"></path>
            <path d="M26.9191156,33 C26.9593899,33.7110046 27.3253314,34.467146 26.0809916,35 C25.8390242,34.2949131 26.1452303,33.5642191 26.9191156,33 L26.9191156,33 Z" id="Path"></path>
            <path d="M14.9418382,39 C13.7372741,38.4533605 13.9591487,37.7254582 14.1545414,37 C14.8510808,37.5862267 15.132323,38.3006768 14.9418382,39 L14.9418382,39 Z" id="Path"></path>
            <path d="M28.8519072,27 C28.7632666,26.6377814 28.8802759,26.2574741 29.1595777,26 C29.223864,26.361196 29.1101988,26.7306342 28.8519072,27 L28.8519072,27 Z" id="Path"></path>
            <path d="M27.8272969,34 C27.7926435,33.6313889 27.765439,33.2647222 28.1586094,33 C28.2559245,33.3600192 28.1308031,33.7376729 27.8272969,34 Z" id="Path"></path>
            <path d="M41,14.8298264 C41.4216437,14.827373 41.8092533,14.9589486 42,15.1692803 C41.5731869,15.1827808 41.175612,15.0478224 41,14.8298264 L41,14.8298264 Z" id="Path"></path>
            <path d="M15.8047102,15.0005003 C16.1263068,14.9832489 16.1314886,15.4156107 16.1952898,15.7638722 C16.071026,15.807536 15.9523881,15.8874791 15.8448693,16 C15.831483,15.6675522 15.8180966,15.3343857 15.8047102,15.0005003 Z" id="Path"></path>
            <path d="M14.8361411,17 L15.1625957,16 C15.1783292,16.4372023 15.045816,16.8431185 14.8361411,17 L14.8361411,17 Z" id="Path"></path>
            <path d="M13.8792257,18 C13.8340262,17.610888 13.9340064,17.2145969 14.1315155,17 C14.0475268,17.3335156 13.9634302,17.6668489 13.8792257,18 Z" id="Path"></path>
            <path d="M36.9188992,5.00063069 C36.9386455,5.20909577 37.060934,5.54282278 36.9615096,5.60591089 C36.1803177,6.10116786 35.3617117,6.5507088 34.5365237,6.99171608 C34.4637741,7.03042232 34.2334004,6.925885 34.1461009,6.83567204 C34.047475,6.72482978 33.9958958,6.58718838 34.0002553,6.44647626 C34.0086745,6.30346661 34.072491,6.16730277 34.18109,6.06063298 C34.9515427,5.38860738 35.7840057,4.83056706 36.9732881,5.04756581 L36.9188992,5.00063069 Z" id="Path"></path>
            <path d="M55.92816,30.9923843 C55.6182807,30.9923843 55.308894,30.9949229 55,31 C55.0133017,29.3332276 55.026357,27.6665609 55.039166,26 C55.9215091,26.3227137 56.004275,26.7615663 55.9998411,27.213429 C55.9757011,28.4731865 55.9518073,29.7328383 55.92816,30.9923843 Z" id="Path"></path>
            <path d="M55.0565299,21 C56.4702314,21.8943502 55.9026239,22.9686123 55.8075796,24 C55.1333489,23.0555966 54.8746632,22.0222998 55.0565299,21 L55.0565299,21 Z" id="Path"></path>
            <path d="M34.9160294,13 C33.533777,12.4209945 34.1195486,11.6888713 34.143429,11 C34.8826091,11.6104391 35.154119,12.313286 34.9160294,13 Z" id="Path"></path>
            <path d="M25.391321,4 C25.4800266,4.58174564 25.495532,5.21224092 26,5.51727435 C25.9466324,5.86177177 25.7529946,6.08230583 25.5189705,5.9708781 C25.3083987,5.85096769 25.1409096,5.63282782 25.0502011,5.36034695 C24.9167698,4.85967538 25.0556899,4.30567795 25.391321,4 Z" id="Path"></path>
            <path d="M28,9 C27.9006323,9.3408175 28.1123156,9.78439839 27.6386631,10 C27.5214708,9.74374949 27.2848134,9.55527387 27,9.49136442 C27.1731406,9.03080023 27.7058115,9.23747841 28,9 Z" id="Path"></path>
            <path d="M26.0454214,5 C25.8605274,4.59675859 26.2527084,4.18266477 26.992504,4 C27.0575249,4.39450104 26.6960207,4.77620394 26.0454214,5 L26.0454214,5 Z" id="Path"></path>
            <path d="M28,8.18100987 C28.0105036,8.06044408 28.0199773,7.93977083 28.0284214,7.81899013 L29,8.11556908 L28,8.18100987 Z" id="Path"></path>
            <path d="M32,9.14285406 C31.6232544,9.20120274 31.2610808,9.20732774 31,8.83789353 C31.3584845,8.79136552 31.7193934,8.90142848 32,9.14285406 L32,9.14285406 Z" id="Path"></path>
            <path d="M34.959516,10 C34.293329,9.78076293 33.9279544,9.39519791 34.0118818,9 C34.743817,9.18937293 35.1315836,9.59856728 34.959516,10 L34.959516,10 Z" id="Path"></path>
            <path d="M26.2121307,3 C26.1934798,3.48367117 26.0220402,3.88776071 25.7878693,4 C25.8027076,3.51318417 25.9758264,3.10513663 26.2121307,3 L26.2121307,3 Z" id="Path"></path>
            <path d="M26.1709304,3 C26.1783141,3.47673809 26.0355159,3.89746399 25.8315213,4 C25.806428,3.51112508 25.9573737,3.06639405 26.1709304,3 L26.1709304,3 Z" id="Path"></path>
            <path d="M26.8305835,4 C26.8039132,3.53832122 26.9506552,3.10884439 27.1722596,3 C27.1796329,3.45093561 27.0405639,3.85795571 26.8305835,4 Z" id="Path"></path>
            <path d="M34,9.14644154 C33.6096947,9.17263752 33.2274266,9.0634547 33,8.86082312 C33.3952131,8.81211485 33.7959577,8.92657488 34,9.14644154 L34,9.14644154 Z" id="Path"></path>
            <path d="M35.2055828,9.19946582 L34.7926566,8.80391977 C34.9033565,8.78877771 35.0149256,8.82494322 35.0954389,8.9020677 C35.1759522,8.97919218 35.2165379,9.0887773 35.2055828,9.19946582 L35.2055828,9.19946582 Z" id="Path"></path>
            <path d="M41,14.1262963 C40.6203204,14.1693836 40.2361718,14.06858 40,13.8638884 L41,14.1262963 Z" id="Path"></path>
            <path d="M42,15.161758 L41,14.8480936 C41.4216156,14.7999477 41.8427761,14.9320508 42,15.161758 L42,15.161758 Z" id="Path"></path>
            <path d="M43,15.1698062 L42,14.8345431 C42.4728208,14.8025057 42.9150859,14.9507809 43,15.1698062 L43,15.1698062 Z" id="Path"></path>
            <path d="M29,9.8093251 C29.4180922,8.88508631 29.4789794,8.81114721 30.0437808,9.34381683 C30.5700203,9.84013306 31.1252537,9.84228962 31.7364453,9.8395169 C32.2921362,9.86005334 32.8071336,9.53109417 33.0507393,9 C33.600174,9.02279789 33.9402725,9.29514025 34,9.90082474 C33.3827196,9.90082474 33.2374601,10.6534632 32.6796173,10.8022656 C31.2693534,11.1784308 29.9968107,11.1047998 29,9.8093251 Z" id="Path"></path>
            <path d="M34.8184099,11 C35.3621769,11.5566483 35.1927962,12.2981904 35.1665633,13 C34.8490092,12.4095155 34.7248174,11.696084 34.8184099,11 L34.8184099,11 Z" id="Path"></path>
            <path d="M34.1736206,14 C35.3034898,15.0866667 35.3021542,15.0952381 34,16 C34.0578735,15.3339683 34.115747,14.6673016 34.1736206,14 Z" id="Path"></path>
            <path d="M32,9.16398784 C31.2971982,9.27345736 30.5625994,9.15149946 30,8.83194837 C30.7155133,8.79326415 31.4500226,8.696876 32,9.16398784 Z" id="Path"></path>
        </g>
        <g id="yasai6" transform="translate(94.000000, 59.502080) rotate(-56.000000) translate(-94.000000, -59.502080) translate(60.000000, 3.502080)" fill="#604838" fill-rule="nonzero">
            <path d="M11.3606705,64.3906945 C12.3394484,63.5004619 12.7435699,63.5088603 12.8810982,64.5116318 C13.0998739,66.1073318 13.8399874,67.4792139 14.5123948,68.8909885 C15.0680089,70.1465524 15.0680089,70.1465524 16.1885468,70.6240027 C15.184379,67.6215671 14.1243535,64.7409087 13.7896309,61.6796842 C14.5678292,62.1415974 14.6088761,62.9743008 14.828075,63.7133619 C15.2740897,65.2191988 15.6875208,66.7367935 16.1699276,68.228773 C16.2317095,68.4206769 16.625675,68.5076006 16.8656089,68.6428152 C16.9649114,68.3908625 17.0644959,68.1389099 17.1643626,67.8869573 C17.1016493,67.4961738 17.0760061,67.100415 17.0877699,66.7048795 C17.5016242,63.249769 17.9002445,59.7963383 18.0546993,56.3147728 C18.0450861,55.1157418 18.2902045,53.9281581 18.7740779,52.8294281 C19.306418,52.9524649 19.4841468,53.3858235 19.6572208,53.8233812 C19.3014811,57.8655413 18.9454592,61.9075614 18.5891553,65.9494415 C18.0855903,67.0290585 18.0813586,68.1233728 18.4093106,69.5964559 C19.0406711,68.5567313 19.520962,67.8558831 19.4557948,66.9299572 C19.957326,65.8378498 20.283581,64.6745993 20.4227242,63.4824053 C20.6829427,61.5026745 21.0788127,59.5428419 21.607583,57.6165281 C22.6321679,53.4482118 23.4403469,49.2304285 24.0289265,44.9798438 C24.3611101,42.6102293 24.7753875,40.2490132 25.2484847,37.9029143 C25.4406011,36.9492735 25.5294655,35.9179474 26.2353028,35.1259763 L26.9703384,35 C27.0854389,35.3787688 27.2003984,35.7576776 27.3152169,36.1367263 C26.6381548,37.0559335 26.548444,38.1716637 26.3419401,39.2273453 C25.9613747,41.1788584 25.6424502,43.1415694 25.3851666,45.1154783 C24.8286059,49.2556143 24.0567121,53.3644271 23.0725762,57.425464 C22.5002221,59.5381889 22.0593,61.6838335 21.752305,63.8502562 C21.50687,66.0548417 20.45827,68.0238515 19.7604728,70.0949022 C19.6202784,70.3175182 19.4991124,70.5513913 19.3982445,70.7940707 C19.381318,70.8432015 19.6174434,71.0594608 19.730005,71.0540018 C19.9386248,71.0447636 19.996175,70.85118 19.9106959,70.6252625 C20.9952649,70.3237591 21.5271818,69.4494835 21.9575395,68.5462333 C23.9091711,64.4566222 26.5776423,60.8003695 28.9795203,56.9828672 C29.4026842,56.3109935 29.9680311,55.7092467 30.0535101,54.8685647 C30.2868664,54.6832337 30.545435,54.5315433 30.8215525,54.4179894 C31.3039593,54.2941127 31.6894616,54.6321492 31.5832474,55.0083984 C31.2806853,56.0892752 30.6065853,56.9702696 30.0150022,57.8957756 C28.2901864,60.5941883 26.5669222,63.2937208 24.8452095,65.9943731 C24.7031293,66.2555288 24.5802334,66.5265223 24.4774802,66.8052406 C23.9471235,67.140972 23.6219305,67.7183953 23.6116869,68.3425716 L23.4187242,68.7813891 C23.575718,68.8002855 23.7970327,68.8922483 23.8770107,68.8233812 C24.0596114,68.6332253 24.2205386,68.4236797 24.3568785,68.1985387 C24.5925807,68.0498866 24.8422474,67.909633 24.7356101,67.5606786 C26.3609824,66.3630637 27.3740367,64.6535651 28.5682051,63.0897791 C29.7530638,61.5360712 30.605739,59.7194927 32.1985277,58.4811455 L33,58.9010666 C31.034451,62.2445759 28.7354279,65.3837062 26.1375519,68.271185 C24.7808886,69.7379693 23.4386129,71.2173511 22.1356914,72.6408835 C22.2397897,73.3648274 22.7640898,73.3967414 23.2117971,73.574368 C26.3999135,74.8547073 28.8542638,76.8841858 30.3082548,80.0831444 C31.2145207,82.1936132 31.9185279,84.3840698 32.4109559,86.6255144 C32.6322493,87.3959597 32.6475625,88.2103087 32.4553881,88.9884102 C31.6644949,91.4352902 30.9997045,93.9434786 29.2693875,95.9985723 C27.3922327,98.228773 25.4376389,100.362392 22.8842683,101.838414 C21.6033513,102.578735 21.0968242,103.947678 20.1011197,104.907197 L19.4904942,105 C19.2148354,104.699047 19.1637297,104.256989 19.3635451,103.901906 C19.9900584,102.525231 21.022991,101.369744 22.325692,100.588309 C23.9951666,99.4746904 25.5288089,98.1726292 26.8958615,96.7082389 C28.8792305,94.7308306 29.8893226,92.2570757 30.8651384,89.7404888 C31.2357549,88.696716 31.2882985,87.5677269 31.0162079,86.494499 C30.5222759,84.141114 29.7109617,81.864526 28.604174,79.7262115 C27.4028118,77.4090871 25.3712022,75.9217267 22.9955604,74.9391114 C21.2440852,74.2147476 19.3487344,73.8947678 17.627727,73.0221718 C16.9764778,72.6921139 16.0539807,72.8542034 15.2550473,72.8542034 C12.3119428,72.8470648 9.44712355,73.0981775 6.84847438,74.7413286 C5.81247634,75.3526075 4.91931344,76.1755152 4.22824385,77.1554548 C2.13950711,80.2485933 1.09894722,83.6151004 1.45313535,87.3595364 C1.49637475,87.7461368 1.51517181,88.1350451 1.50941615,88.5239775 C1.51138319,88.6304041 1.45975009,88.7307982 1.37174642,88.7916589 C1.28374275,88.8525197 1.17095454,88.8658346 1.0710184,88.8271605 C0.889057949,88.7851684 0.600460207,88.7540942 0.556451167,88.6423952 C0.299267373,88.110573 0.126139605,87.5426239 0.0431534233,86.9585118 C-0.278708212,82.6067833 1.21024587,78.3142269 4.16307662,75.0810448 C6.01187946,73.0419081 8.67146422,72.1478962 11.4173744,71.6826237 C12.1951496,71.5503485 13.025397,71.7913832 13.9588965,71.244646 C13.5886281,70.0688671 12.9483812,68.9741329 12.4511637,67.8143109 C12.0281398,66.692624 11.6641511,65.5498771 11.3606705,64.3906945 Z M21.09894,71.9559923 C20.9296745,71.6641471 20.6757762,71.685983 20.4172231,71.7834047 C20.1821231,71.8144803 20.008999,72.0172762 20.016755,72.2525093 C20.024511,72.4877423 20.2106235,72.6788745 20.4472677,72.6946334 C20.6346764,72.6885866 20.8111662,72.605687 20.9346807,72.4656889 C21.0581952,72.3256908 21.1176726,72.1411323 21.09894,71.9559923 L21.09894,71.9559923 Z" id="Shape"></path>
            <path d="M11.9638258,16.3007794 L11.8041302,16.5053286 L11.5464996,16.5632842 C11.2353472,16.6026268 10.9844942,16.828679 10.9222749,17.1257945 L10.4043669,17.4705451 L9.87101869,18.0415783 C9.16738728,19.0511139 8.53036926,20.1113606 7.74821346,21.0599575 C5.16396719,24.1968049 5.17455475,27.569736 6.69872185,31.0786072 C7.11063634,32.0106468 7.61283828,32.9029848 8.19862579,33.7437129 C8.93181413,34.8090734 9.03901315,36.0240104 9.30767242,37.2057082 C9.45060444,37.834697 9.16915188,38.3989119 8.91902084,38.9588654 C8.71423742,39.4488164 8.17463496,39.7257978 7.639691,39.6155536 C7.23077295,39.5477747 6.83351174,39.4257376 6.45917837,39.2529049 C5.82304263,38.9861386 5.29101788,38.3805877 4.49606879,39.0598615 C3.75153881,39.6453575 3.37643577,40.5631698 3.50613219,41.4820651 C3.56698593,42.0983086 3.88449494,42.6641996 4.38578173,43.0498495 C5.11852893,43.6204566 5.87686272,44.1608074 6.64049028,44.6930615 C7.40411785,45.2253155 8.23832913,45.6800114 8.95651844,46.2663858 C9.93337746,47.0519209 10.5532679,48.1755064 10.6836137,49.3968409 C11.0643246,52.3095364 11.5544403,55.2090214 12,58.1140463 L11.6135542,58.8687476 C11.4131663,58.9013775 11.2149052,58.9452018 11.0197687,59 C10.9259511,58.5991404 10.8321336,58.1979967 10.7383161,57.7965688 C11.018452,57.3694298 11.0824043,56.8424419 10.9121285,56.3642982 C10.5918549,55.3108698 10.261876,54.2604244 9.93586748,53.2108313 C9.69214609,52.6559423 9.52155648,52.0736736 9.42810588,51.4777029 C9.35575757,48.7895855 8.15406982,46.89367 5.60555656,45.7098415 C4.67814421,45.2398934 3.8483128,44.6088927 3.15762509,43.8484437 C1.43714704,42.0505414 1.68154315,39.5443875 3.5775982,37.9412331 C4.4687176,37.1865317 5.37218915,36.9611015 6.43579751,37.5547203 C6.75662749,37.7090573 7.08575034,37.8467554 7.42176378,37.9672279 C8.02084306,36.7216084 7.61807474,35.6779813 7.00267297,34.6006889 C6.19757747,33.1944131 5.29057673,31.8371438 4.82648881,30.2540182 C3.62877139,26.1579204 4.08888898,22.4615458 7.41999919,19.3898985 C7.75753788,19.2630967 7.97997548,18.9492479 7.98025743,18.5994011 L7.95952346,18.6279527 C8.25956198,18.5005112 8.45517444,18.2158234 8.46022669,17.8992462 L8.4686085,17.8890187 L8.95960647,17.2625868 C8.95850222,17.1808524 8.99420755,17.1026856 9.0574528,17.0483797 C9.12069805,16.9940737 9.2052451,16.968985 9.28914419,16.979627 C9.63384469,16.90261 9.90784888,16.650498 10.0042455,16.3216604 C10.0497831,16.1482521 10.2238216,16.0362954 10.4070138,16.0625648 C10.9491849,16.0024784 11.5010614,15.8844365 11.9638258,16.3007794 Z" id="Path"></path>
            <path d="M29.0209962,20.4514085 C28.990915,20.0645791 28.9931603,19.6759541 29.0277091,19.28949 C29.4237688,16.9515439 29.9188435,14.6277069 30.244418,12.2806315 C30.6702661,9.20320734 32.1370297,6.74574969 34.2767592,4.52067573 C36.3564924,2.35701748 38.8918621,1.09633589 41.6806429,0.221577241 C44.4077491,-0.633262807 48.0394155,1.08388677 49.1608855,3.6799447 C50.1539717,5.97929844 50.5517096,8.22636585 48.7216116,10.3364929 L47.791039,9.7584384 C48.0764114,9.12946217 48.3096129,8.47858051 48.4883391,7.81222489 C48.8823256,5.92962874 48.1976516,3.98526856 46.7064899,2.75206977 C45.1684019,1.46565999 43.2183112,0.791747254 41.1322847,1.88063089 C40.6951086,2.10927985 40.1652109,2.16322607 39.7246784,2.38772532 C35.5291303,4.52441047 32.4021884,7.51095602 31.6604155,12.3781497 C31.4665811,13.6487906 31.3033743,14.925656 31.0575152,16.1863376 C30.7399122,17.8138535 30.6614555,19.5061048 29.8126961,21 L29.0209962,20.4514085 Z" id="Path"></path>
            <path d="M19.6796285,36.7147147 C20.139584,37.8228228 20.4771661,38.9274989 19.595233,40 L18.5765791,39.5062205 L18.578689,39.5152295 C18.8703198,39.2860183 18.9985029,38.9014921 18.9040337,38.5392535 C18.2858366,37.2586873 18.0313841,37.0746461 17.2519916,37.5701416 C16.5709198,38.003003 15.9493469,38.5182325 15.1142533,38.6186186 C14.6024583,38.6294386 14.153026,38.2746787 14.0365226,37.7679108 C13.840725,36.5045045 14.4551243,35.5800086 15.3303058,34.8451308 C15.9729292,34.3553236 16.6584246,33.9265259 17.3781629,33.5641356 C18.4114699,32.9239372 19.2712782,32.0316823 19.8796458,30.968254 C20.7058779,29.6812527 20.8995656,28.2265122 20.0978082,26.9056199 C18.578689,24.4032604 18.1765444,21.5649936 17.4861891,18.8078078 C17.0688533,17.1389961 16.8701019,15.3985414 15.6324417,14.0429 C15.2788245,13.6567997 15.8434305,13.3470613 15.9818391,13 C17.0431127,13.3071643 17.6060307,14.1291291 17.99636,15.0900901 C18.4216376,16.2267943 18.7278571,17.4059118 18.9099414,18.6078936 C19.3783365,21.1964822 19.932393,23.7490347 21.248119,26.0939511 C22.4545529,28.2436722 22.1730939,30.4054054 20.6624142,32.3397683 C20.0467489,33.1278421 19.2956289,33.8069498 18.6061176,34.5358215 C17.581978,34.988846 16.4755529,35.3234663 15.9383754,36.4697555 C15.6872988,36.5362505 15.5944637,36.6971257 15.7109295,36.9240669 C15.7890899,36.9855828 15.8929191,37.0017974 15.9856369,36.966967 C16.2008455,36.7769198 16.3894695,36.5559846 16.5877989,36.3466323 L18.2094587,35.7794938 L19.6796285,36.7147147 Z" id="Path"></path>
            <path d="M29.1174534,21 L29.9379284,21.5542916 C30.2170726,22.7544209 29.497472,23.6560853 28.9191828,24.5803228 C26.942564,27.7405376 25.695981,31.2268063 24.0950328,34.5517202 C23.8826673,35.003888 23.7253838,35.478142 23.6263141,35.9650385 C23.0110665,38.8756967 22.4310381,41.7930432 21.8170949,44.7037014 C21.1648889,47.7995414 20.8344379,50.9564121 19.9074359,54 C19.729601,53.5644254 19.5469834,53.133031 19,53.0105518 C19.3517564,48.8052924 20.40833,44.7158239 21.2005428,40.5824635 C21.4014223,39.5340748 21.9462316,38.5341761 21.6875233,37.4193226 C22.8701901,33.1041244 24.9102902,29.1283568 26.9486512,25.1517531 C27.3995429,24.2714076 27.8682616,23.3994224 28.328719,22.523675 C28.6296033,22.4124823 28.8478749,22.2557256 28.7026504,21.8966483 L29.1174534,21 Z" id="Path"></path>
            <path d="M19.3951101,105.634495 L20.0057414,105.539388 C19.8847154,106.66045 20.6764626,107.414854 21.0708551,108.332361 C21.5308386,109.403504 22.6141485,110.63947 21.5405715,111.655527 C20.6290677,112.51924 19.4721266,111.547509 18.5132281,111.040126 C16.0165373,109.717659 13.3967046,108.619405 11.0735126,106.966429 C7.81258056,104.64641 5.11023014,101.823742 3.37566478,98.1291844 C3.13699806,97.2624587 3.2063976,96.2395159 2.21491514,95.7549413 C1.55663568,94.2483145 1.14619907,92.6419455 1,91 L2.14932411,91.2883348 C2.97450158,93.0346966 3.09764344,95.0160297 4.02692023,96.746899 C6.46772182,101.464031 10.3065399,105.280226 14.9992416,107.65456 C16.3419534,108.334083 17.6960908,108.988646 19.044727,109.65698 C19.1716774,109.801147 19.2732377,110.016753 19.430233,110.072698 C19.7023742,110.141224 19.9810601,110.179321 20.2613348,110.186311 C20.2837858,109.900072 20.2571532,109.612043 20.1826256,109.335078 C20.0679471,109.090209 19.7878099,108.925384 19.5804576,108.725702 C18.7387766,107.743212 19.3913015,106.667336 19.3951101,105.634495 Z" id="Path"></path>
            <path d="M26.8667097,34.8732965 L26.1434887,35 C26.2080249,34.3204471 25.7271267,33.5762755 26.2375866,32.9647201 C27.9738165,30.8821376 30.0656196,29.4520779 32.8993799,29.8659759 C34.5477574,30.1067125 36.2415184,30.2883208 37.7312619,31.175245 C38.3278011,31.5350699 39.0067089,31.730458 39.7006546,31.7420318 C39.9971199,31.7649846 40.2877604,31.6497752 40.4903321,31.4290049 C40.6929037,31.2082346 40.785368,30.9059218 40.7415598,30.6076135 C40.5442042,27.5147821 40.6299747,27.3779423 43.2772049,26.5480347 C43.3713027,26.5184705 43.4678987,26.4960863 43.5624129,26.4660998 C46.802959,25.4381124 47.0223818,25.0411082 46.1546832,21.7780719 C46.1288688,21.6813549 46.113047,21.5821038 46.0926453,21.4824305 C45.9913305,21.0524834 45.8902933,20.6225363 45.7895337,20.1925893 L45.8011918,20.1718944 L46.3861806,20 L46.3861806,20 C46.4110187,20.4758684 46.7150079,20.8901194 47.1572831,21.050794 C47.68982,21.9274367 47.9808342,22.9329111 48,23.9624395 C47.6871913,24.2786534 47.5858784,24.7513563 47.7410228,25.1707681 C47.4541493,26.2393006 46.6797158,26.804398 45.7179194,27.1608571 C44.9792931,27.4341142 44.2319231,27.682453 43.4878841,27.9405057 C42.0064678,28.4544994 42.0064678,28.454077 42.2192288,30.2802962 C42.4007627,31.8404381 41.7612305,32.7505913 40.2773161,33.0631265 C39.3063694,33.291847 38.2857974,33.1288987 37.4310649,32.6086834 C36.216953,31.8628224 34.855449,31.6829035 33.5122649,31.3910632 C30.7834278,30.7997804 28.7399227,31.7411871 27.3180462,34.1460187 C27.0449508,34.2832949 26.8706538,34.5641549 26.8667097,34.8732965 Z" id="Path"></path>
            <path d="M43.0270277,35.2217763 C43.7323779,35.2053564 44.1945604,35.477582 43.9194615,36.2972835 C43.6943632,36.9823682 43.2241557,37.5472382 42.6094669,37.8710069 C41.9904945,38.1963813 41.3207598,38.3800256 40.6907342,37.8710069 C39.7786505,37.1334051 38.9685007,36.1754302 37.6102001,36.6122875 C35.9207164,37.1554424 34.3442198,37.8096481 33.270843,39.4516439 C31.5105377,42.1401959 31.1531548,45.0931957 31.5866812,48.2276792 C31.7123588,49.1350979 31.8986236,50.0347388 32.0574605,50.9378364 C32.2248833,51.7441352 32.1365653,52.5861688 31.8061053,53.3342861 C31.6476778,53.6765126 31.4503599,54.1155304 30.9894055,53.9720718 C30.5550604,53.8372553 30.5051169,53.4077438 30.5345918,52.9743433 C30.5355838,52.7704008 30.5227238,52.5666457 30.4961107,52.3646443 C31.0692333,51.3440143 30.5779853,50.3618416 30.3610175,49.3917678 C29.7538144,46.6687832 29.9151957,43.8177305 30.8252468,41.190431 C31.8777456,38.0516264 34.025318,36.0976514 37.0260243,35.1694917 C38.2624219,34.7861291 39.5982217,35.0617723 40.6068127,35.9083898 C41.7993172,36.797228 41.8443482,36.7337087 43.0270277,35.2217763 Z" id="Path"></path>
            <path d="M66.2825988,29.4061449 C65.9928005,28.9931588 65.6929368,28.5879242 65.4148813,28.1658946 C64.4228204,26.611775 62.7615562,25.6445243 60.9534128,25.5682592 C58.6161535,25.3593977 56.4072275,25.5923752 54.3090204,26.6879297 C52.8994513,27.4230364 51.3837766,27.8833931 49.9821759,28.6861107 C48.4413379,29.5689278 47.4352218,30.9181306 46.2814804,32.1566583 C45.7044001,32.7754916 45.691399,33.6311781 45.5169329,34.4222684 C45.3491769,35.1857975 44.9998253,35.182783 44.0100654,34.470931 L44,34.4954776 C44.2119316,33.5805059 44.4240031,32.6656777 44.6362143,31.7509931 C44.7985211,31.6341577 44.9481243,31.4997426 45.082445,31.350065 C48.008947,27.3097774 52.3118862,25.6897004 56.7687415,24.356862 C58.848076,23.7354449 60.9475413,24.0162238 62.9929053,24.5101707 C64.47752,24.8595339 65.7232342,25.8904669 66.3710901,27.3059016 C66.3647804,27.8306827 66.6682688,28.3072352 67.1389928,28.5117005 C67.6587532,29.4110179 67.9544882,30.4280828 68,31.4727981 C67.8221787,31.526772 67.6446371,31.5817506 67.467375,31.6377342 C67.1616398,30.8419069 67.261874,29.820423 66.2825988,29.4061449 Z" id="Path"></path>
            <path d="M47.8041972,11 C48.2066357,11.7033332 48.5626225,12.4323165 48.8698701,13.1822656 C49.2384584,14.2559143 48.8069299,15.1275255 47.7921265,15.7293214 C47.1102758,16.1839875 46.3031288,16.4128979 45.4844618,16.3837852 C44.4692273,16.3177344 43.4483886,16.3371611 42.4305675,16.3108271 C39.4215073,16.2335521 39.3008,16.2948541 37.2073908,19.0525816 C37.7048773,19.7299257 38.2954808,19.1609394 38.8205575,19.1333103 C39.4292175,19.0724832 40.0297613,18.947459 40.6121985,18.7603177 C41.8840039,18.3635442 43.245694,18.3597831 44.5196657,18.7495251 C44.8783412,18.9142331 45.2171957,19.1191645 45.5297271,19.3603868 C45.6398006,19.7307892 45.7498742,20.1014793 45.8599477,20.4724573 L45.8483081,20.4931791 L45.2391674,20.6658608 C44.1956443,19.9949612 42.9263212,19.7730732 41.7175323,20.0502504 C40.4173424,20.3122949 39.110255,20.5393714 37.8066163,20.7841478 C37.4146784,20.893147 37.0134672,20.9654089 36.6081654,21 C35.9823487,20.941933 35.4289782,20.5691385 35.1394164,20.0105336 C34.8354927,19.5537904 35.0773383,19.0253842 35.3980748,18.6001554 C37.345342,16.0168365 39.6594731,14.2546192 43.1733484,14.8404421 C44.1852291,14.9588235 45.2086801,14.9347016 46.2138787,14.7687791 C47.2485126,14.6431532 47.515793,14.0819375 47.1803992,13.0488689 C47.0549498,12.6629252 46.9075145,12.2843205 46.7699944,11.9022621 C47.0009274,11.6870562 47.0650562,11.3463624 46.9282072,11.0617337 L46.9394157,11.0358315 L47.8041972,11 Z" id="Path"></path>
            <path d="M32.7871505,59 L32,58.563699 C32.2551797,57.2460699 33.0685132,56.437604 34.1195711,55.7369046 C35.6676892,54.7059252 37.4028283,54.3603748 39.1408766,54.0222415 C39.9360022,53.9249885 40.7365878,54.1489859 41.3801412,54.6487698 C42.0451047,55.0937969 42.6764044,55.6042691 43.3712912,55.9895229 C44.7523363,56.8563513 46.4684466,56.8861034 47.8760033,56.0676208 C48.9433715,55.5403034 50.0478457,55.1000824 51.179625,54.7508643 C51.4627706,54.6281817 51.7883957,54.7508074 51.9326961,55.0344599 C52.0038032,55.1702949 52.0193117,55.3306225 51.9756666,55.4786906 C51.9320214,55.6267587 51.8329656,55.7498694 51.7012057,55.8198018 C51.1946998,56.1236323 50.6667184,56.3861846 50.1219174,56.6051436 C49.4902021,56.8704147 48.7678855,56.9568023 48.3917656,57.672336 C46.1084472,58.4633497 43.9261201,58.3507841 41.9719587,56.7482504 C39.6666134,54.857758 37.4597658,55.2796611 35.2691267,56.946331 C34.6382426,57.1208515 34.0356195,57.334639 33.7708809,58.0540994 C33.2426505,58.1391781 33.1341783,58.7068057 32.7871505,59 Z" id="Path"></path>
            <path d="M53.9770204,55 C53.29601,54.7937658 52.7602516,54.507658 53.2570951,53.7321666 C53.3638847,53.5631222 53.5779166,53.457892 53.6883262,53.2922284 C55.0422021,51.263695 54.5648161,49.356451 52.4036827,48.2082166 C51.9416816,47.9626795 51.3851083,47.8561815 50.9556871,47.5742999 C49.6334862,46.6973818 49.6769261,45.0238417 51.1253741,44.4131686 C51.9996027,44.0747896 52.7562908,43.5167075 53.3113949,42.8009072 C53.8833531,42.0735934 54.8141428,41.5981559 55.7865623,42.4716931 C55.8284938,42.7125815 55.8702745,42.9533289 55.9119044,43.1939355 C54.5516936,44.0894485 53.5530292,45.48322 51.7896421,45.6615619 C51.6710874,46.6758286 52.5104724,46.606943 52.9987184,46.873188 C55.4707183,48.2213175 56.4413278,50.2604162 55.8150697,52.6299968 C55.5394981,53.6776498 54.7213806,54.2984655 53.9770204,55 Z" id="Path"></path>
            <path d="M56.1135538,44 C56.0758392,43.7605832 56.0379879,43.5213065 56,43.2821698 C57.5913933,42.3308032 59.4521182,42.0069605 61.0012874,40.9186643 C62.5078228,39.8606102 63.0210697,38.014161 64.3447711,36.8363985 C64.6362396,36.5772404 64.8776952,36.2617983 65.1544057,35.9820587 C66.6560218,34.4548318 67.3430839,32.7255708 66.4621194,30.5880412 C66.4116916,30.3963465 66.3868689,30.1985302 66.3883299,30 C67.3455436,30.4053284 67.2492073,31.4007981 67.5464149,32.1736522 L67.9903817,33.5227866 C68.1063952,34.885362 67.1483616,35.699379 66.4412124,36.6205034 C65.7188953,37.5613693 64.7879179,38.3556449 64.1742354,39.3590951 C62.2938333,42.4341304 59.5509141,43.8214875 56.1135538,44 Z" id="Path"></path>
            <path d="M11.4507683,17 C11.0188256,16.6374151 10.5055085,16.7402155 10,16.7925435 L13.0905885,14.3735786 C13.4637606,14.2707782 13.8443304,14.1850493 14.2080499,14.0599816 C14.4708888,13.9315882 14.7991601,14.0159066 14.9478184,14.2499954 C15.0411114,14.4511429 15.0086438,14.8693959 14.8557583,14.9673718 C13.7461056,15.6769546 12.5916557,16.3293849 11.4507683,17 Z" id="Path"></path>
            <path d="M10.2064484,53 C10.4482318,54.1462689 10.6929598,55.2916086 10.93049,56.4383422 C11.0567746,56.9596799 11.0093445,57.5342744 10.8015824,58 C10.5341702,56.7299817 10.266976,55.4587244 10,54.186228 C10.0687071,53.7915931 10.1375232,53.3961837 10.2064484,53 Z" id="Path"></path>
            <path d="M3,96 C3.85563252,96.4081929 3.79438571,97.2688055 4,98 C3.40748271,97.49594 3.04651386,96.7740023 3,96 L3,96 Z" id="Path"></path>
            <path d="M47.7058729,10.9733251 L47.0442927,11 C46.9784311,10.6395782 46.9422072,10.2847395 47.2642706,10 L47.9946762,10.432072 C48.0267427,10.6514201 47.911885,10.8666777 47.7058729,10.9733251 L47.7058729,10.9733251 Z" id="Path"></path>
            <path d="M3,92 L2.03066718,91.6849938 C1.98313901,91.5423479 1.99122582,91.3781665 2.05234867,91.2448079 C2.11347152,91.1114493 2.21999779,91.0255665 2.33795568,91.0145479 C2.90792052,90.9012397 2.9493206,91.4706016 3,92 Z" id="Path"></path>
            <path d="M19.931531,71.5529185 C20.0851171,71.7884451 19.9822144,71.9907003 19.6036248,71.9998937 C19.3993554,72.0055849 18.9708504,71.7810028 19.0015676,71.7289068 C19.1846161,71.4759053 19.4045001,71.2320848 19.6589158,71 C19.9301756,71.1385761 20.036424,71.354069 19.931531,71.5529185 L19.931531,71.5529185 Z" id="Path"></path>
            <path d="M47.8481709,25 C47.691763,24.6528992 47.793901,24.2616953 48.1092573,24 C48.3328445,24.3410331 48.2216171,24.7670504 47.8481709,25 L47.8481709,25 Z" id="Path"></path>
            <path d="M48,21 C47.4264379,20.8470922 47.0322112,20.4528655 47,20 C47.5723985,20.1540756 47.9659521,20.5476292 48,21 L48,21 Z" id="Path"></path>
            <path d="M46.3528328,20 C46.2349148,19.6666667 46.1173039,19.3333333 46,19 C46.5110041,19.07431 46.9113566,19.411408 47,19.8420031 L46.3528328,20 Z" id="Path"></path>
            <path d="M8,19 C7.99949675,19.4425654 7.60247207,19.8395923 7,20 C6.9982752,19.556962 7.3960821,19.1591529 8,19 L8,19 Z" id="Path"></path>
            <path d="M8.23995653,18 C8.2351493,18.4344372 8.04902381,18.8251127 7.76353678,19 C7.73086247,18.5510374 7.93030576,18.1324081 8.23995653,18 Z" id="Path"></path>
            <path d="M8.23646953,18 L7.76928434,19 C7.74815559,18.7666647 7.78572844,18.5293522 7.87356906,18.3413312 C7.96140969,18.1533102 8.09215948,18.0303316 8.23646953,18 L8.23646953,18 Z" id="Path"></path>
            <path d="M10,17 C9.8651987,17.4997786 9.48203033,17.882947 9,18 C9.08082512,17.4682891 9.49021493,17.0588993 10,17 L10,17 Z" id="Path"></path>
            <path d="M37.7484812,47.3697478 C39.7190986,46.2867972 40.326401,44.7528277 40.0563965,42.7665769 C40.0481944,42.3749859 40.1016182,41.9845704 40.2146607,41.6099992 C40.2581728,41.5185 40.3441677,41.4552699 40.4435414,41.4417085 C40.6159289,41.4391842 40.8942412,41.4341354 40.944919,41.5300611 C41.2120158,42.0349332 41.4217885,42.5734633 41.6797466,43.1650051 C42.5105297,42.4384101 43.3114046,41.7147601 44.14468,41.0293964 C44.2381431,40.9524034 44.537225,41.0399145 44.6813658,41.139206 C44.9202159,41.3041309 45.1449428,41.5498353 44.8815845,41.8636974 C44.2443739,42.6235298 43.5897169,43.3690575 42.9433677,44.1208962 C42.172401,45.0178855 41.4026805,45.916137 40.5851899,46.869083 C41.41805,47.7563956 42.4710675,47.4930207 43.3375742,47.7854257 C43.7375963,47.9208997 44.1168487,48.0875075 44.0960791,48.5490447 C44.0744788,49.0425571 43.6441332,49.1633057 43.2470189,49.1170257 C42.4596004,49.0727125 41.6794484,48.9402176 40.9208263,48.7219634 C39.4623866,48.2002623 38.4804011,48.77792 37.5868939,49.8705473 C36.7702341,50.868511 35.8987427,51.8222984 35.0189435,52.7647263 C34.9333264,52.889777 34.8001425,52.9730468 34.6514001,52.994523 C34.5026578,53.0159992 34.3518061,52.97374 34.2350996,52.8779017 C33.9993151,52.6878236 33.9316285,52.3540784 34.0743431,52.0852526 C34.3094307,51.5367765 34.6432776,51.0374215 35.058821,50.6127092 C36.326596,49.5932884 36.4483057,48.3117548 36.1475622,46.8594063 C36.0861991,46.568208 36.0773332,46.2681705 36.1213926,45.9737766 C36.1798358,45.7952465 36.3040987,45.6464767 36.4682445,45.5585193 C36.5930749,45.4778799 36.7477291,45.4603072 36.8870981,45.5109269 C37.026467,45.5615466 37.1348525,45.6746569 37.180641,45.8172662 C37.3829367,46.268706 37.5245852,46.7495966 37.7484812,47.3697478 Z" id="Path"></path>
            <path d="M48.8239585,38.7923651 C49.5668385,39.4318601 50.5324658,38.6644661 50.9670758,39.6087871 C51.1832146,40.0777501 50.3139945,40.5842301 48.9821752,40.7598781 C48.3392012,40.8451441 47.6962271,40.9325418 47.0509206,40.9900963 C46.672917,41.0480218 46.300741,40.8482418 46.1105613,40.4853216 C45.9130938,40.1225738 45.9860138,39.6561343 46.2823839,39.3862428 C47.5193509,38.1848449 48.5557287,36.6926898 50.1829895,36.0485052 C50.3076349,35.9841346 50.4519138,35.9838187 50.5767926,36.047643 C50.7016713,36.1114673 50.7942427,36.232835 50.8294623,36.3789109 C50.8749447,36.5549852 50.8877731,36.8478739 50.7933095,36.9425192 C50.185322,37.5534501 49.5435141,38.124306 48.8239585,38.7923651 Z" id="Path"></path>
            <path d="M11.4118675,31.1734311 C11.5630194,28.8877541 11.7007836,26.5927771 11.8800066,24.3011819 C11.9345432,23.9067319 12.066527,23.526335 12.268683,23.1809592 C12.4078429,23.0425714 12.6063098,22.9778154 12.8024652,23.0067962 C12.966573,23.0334279 13.2239632,23.218159 13.230873,23.3449767 C13.2740592,24.1397007 13.2399421,24.9382293 13.2740592,25.7337988 C13.287447,26.0461929 13.4519867,26.1590607 13.859665,26.1768151 C14.9073638,26.2220468 15.3016544,26.7479173 14.752757,27.1879746 C12.7040005,28.8315316 12.8862466,31.0394271 12.9130221,33.2494363 C12.9472832,36.0633794 12.9567841,38.8777452 12.941525,41.6925337 C12.9345137,42.59353 12.8707651,43.4932463 12.7506417,44.3865637 C12.6590868,45.0794108 11.9840855,45.2463874 11.5414262,44.5696038 C10.9743906,43.7030164 9.86104863,43.8112342 9.30092276,43.0723099 C9.18698977,42.9123896 9.14760282,42.7127095 9.19252523,42.5227667 C9.27121505,42.3437756 9.4310724,42.2112411 9.62438789,42.1647182 C9.92530677,42.1544 10.2261578,42.1870099 10.5174799,42.2615223 C11.1311567,42.3773491 11.4973763,42.2052998 11.4904665,41.5314753 C11.4822611,40.7282968 11.4904665,39.9251182 11.4788062,39.1194033 C11.4047765,38.3183104 11.390343,37.5130094 11.4356199,36.7098677 C11.7007836,34.7695574 11.2792856,33.146714 9.58249722,31.9529371 C9.35776826,31.7487681 9.18818236,31.4933085 9.08887819,31.2093628 C8.92779571,30.9497338 8.99091979,30.613168 9.2357115,30.4264751 C9.41476362,30.3371131 9.62269768,30.3208485 9.8139756,30.3812435 C10.3836025,30.5554064 10.649198,31.3120851 11.4118675,31.1734311 Z" id="Path"></path>
            <path d="M14.2494692,52.4965413 C14.297666,52.8218515 14.3455689,53.1468843 14.3931779,53.4716398 C13.8359763,54.2204356 14.2353629,54.9176476 14.5254251,55.6202677 C14.6059489,56.1083716 14.6863258,56.5964755 14.7665558,57.0845794 C14.1604228,58.0617578 14.7828663,58.914969 15.0751326,59.802292 C15.6808248,62.0740552 16.2710882,64.3495623 16.9019074,66.6150855 C17.078237,67.2528099 17.1443606,68.0003577 18,68.2512042 C17.8959655,68.5008028 17.7922249,68.7504014 17.6887782,69 C17.438831,68.8660488 17.0275422,68.7799372 16.9640636,68.5898263 C16.4615242,67.1101227 16.0308391,65.6083712 15.5662106,64.1166036 C15.3378637,63.3844478 15.2951038,62.5578604 14.4844284,62.101927 L13.9338392,60.9629254 L14.1031157,60.9724934 C14.708367,59.8135239 13.9779216,58.8184576 13.6622916,57.7726395 C13.6076295,57.44206 13.5528203,57.1113419 13.4978643,56.7804851 C14.1313284,55.8598823 13.5639879,55.033295 13.2717216,54.1838278 C13.2285208,53.841323 13.1851731,53.4990956 13.1416785,53.1571456 C13.6556793,52.5098532 13.3122774,51.8750408 13.1112616,51.2377324 C12.9734399,51.085929 12.9625421,50.8651646 13.0848122,50.7019275 C13.3939896,50.3038055 13.4386842,49.7751372 13.2003081,49.3357912 C13.0676832,49.1902672 13.0623328,48.9766363 13.1875242,48.8253621 C13.4175039,48.5646224 13.4922968,48.2118754 13.3863358,47.8877034 C13.3400646,47.8160507 13.3311749,47.7283291 13.3622166,47.6496992 C13.3932583,47.5710693 13.4608015,47.510219 13.5454733,47.4846017 C13.6477444,47.2904694 13.7506034,47.0956439 13.8540501,46.900125 L13.9029816,46.8002855 L14.2895842,46.1683851 L14.3605569,46.0797776 C14.8069162,45.9150784 15.3139946,46.0098736 15.6601061,46.3227202 L15.6098522,46.3763839 L15.1796079,46.9687646 L15.0945289,47.1089558 L14.7489228,47.7387762 L14.7070446,47.8336237 L14.4143374,48.6493951 C14.5295253,48.8053428 14.5218023,49.0143238 14.395382,49.1623202 C14.095359,49.5455041 14.0465711,50.0545135 14.2688655,50.4822807 C14.4026278,50.6445729 14.4120228,50.8692306 14.2922292,51.0409655 C13.89681,51.5160349 14.0414003,52.0056641 14.2494692,52.4965413 Z" id="Path"></path>
            <path d="M15.2453707,46 C14.9136887,45.6676173 14.4277504,45.5669026 14,45.7418866 L18.9802154,39 L20,39.5091552 C18.597057,41.8189165 17.2857847,44.2024877 15.2453707,46 Z" id="Path"></path>
            <path d="M11,58.7899197 L11.2537394,58 C11.4872029,59.3083556 11.7206664,60.6167113 11.9541298,61.9250669 C12.0294406,62.3452275 12.0410269,62.7341659 11.7597701,63 C11.5064168,61.5964912 11.2531601,60.1931311 11,58.7899197 Z" id="Path"></path>
            <path d="M11.6781262,59 C12.1185828,60.3042855 12.5592074,61.6085709 13,62.9128564 C12.7995548,63.0144667 12.5510385,63.0280665 12.3359994,62.9491933 C12.1209602,62.8703201 11.967159,62.7091561 11.9250641,62.5185857 C11.4936787,61.412472 10.96503,60.3212835 11.0018187,59.1268631 C11.2240957,59.0738931 11.449908,59.0315348 11.6781262,59 Z" id="Path"></path>
            <path d="M13.1022041,58 C13.5233497,58.9804992 14.4966248,59.9134165 13.6895759,61 C13.05889,60.0591488 12.8547791,59.0166529 13.1022041,58 L13.1022041,58 Z" id="Path"></path>
            <path d="M13.213541,54 C13.6607212,54.980455 14.5287769,55.9363986 13.5595492,57 C12.9603749,56.0586836 12.8380852,54.9983935 13.213541,54 L13.213541,54 Z" id="Path"></path>
            <path d="M12.9573987,51 C13.1488061,51.6640659 13.4757937,52.325531 12.9863616,53 C12.6910861,52.3704833 12.6804838,51.638353 12.9573987,51 Z" id="Path"></path>
            <path d="M13.0414364,49 C13.2684184,49.3215975 13.2258601,49.7085781 12.9314611,50 C12.7421798,49.673479 12.7831852,49.3006194 13.0414364,49 L13.0414364,49 Z" id="Path"></path>
            <path d="M13.1110151,48 C13.2119113,48.3457249 13.1406934,48.7219248 12.9217065,49 C12.7690636,48.6590411 12.8460004,48.2526315 13.1110151,48 L13.1110151,48 Z" id="Path"></path>
            <path d="M13.1561009,46 C13.0587181,46.3321471 12.9607758,46.6654804 12.8622737,47 C12.7940402,46.588152 12.9211105,46.1556859 13.1561009,46 L13.1561009,46 Z" id="Path"></path>
            <path d="M14.1923611,46 L13.8242376,47 C13.7531723,46.5651321 13.9167018,46.1209076 14.1923611,46 Z" id="Path"></path>
            <path d="M19.1465694,38 C19.2405406,38.3711552 19.1130332,38.7651467 18.8229398,39 L19.1465694,38 Z" id="Path"></path>
            <path d="M9,19 L10,18 C9.97165964,18.5051068 9.55398229,18.9227841 9,19 L9,19 Z" id="Path"></path>
            <path d="M10,18 C10.0996745,17.4718043 10.5015377,17.0699411 11,17 C10.9474922,17.5548421 10.519987,17.9823472 10,18 L10,18 Z" id="Path"></path>
            <path d="M20.9968416,72.242332 C21.0142043,72.4322755 20.9594521,72.6216629 20.8456516,72.765297 C20.7318511,72.9089312 20.5692111,72.9939269 20.3965455,73 C20.1786992,72.9838443 20.0073706,72.7879001 20.0002307,72.5467447 C19.9930908,72.3055893 20.1524627,72.0976877 20.3688874,72.0658298 C20.6053441,71.9676773 20.8425799,71.9452917 20.9968416,72.242332 Z" id="Path"></path>
            <path d="M24.2057762,68.22213 L25,68 C24.8549102,68.3463321 24.6834357,68.6685808 24.4887184,68.9608415 C24.4034296,69.0673864 24.1674188,68.9259723 24,68.8962688 L24.2057762,68.22213 Z" id="Path"></path>
            <path d="M14.8494773,60 C14.4105965,59.0209705 13.4730781,58.0786775 14.3847019,57 C14.9926056,57.9411877 15.1552639,58.9911031 14.8494773,60 Z" id="Path"></path>
            <path d="M14.7180906,55 C14.2116149,54.3459826 13.5163619,53.6977735 14.4878743,53 C15.079217,53.6259226 15.1618436,54.3437401 14.7180906,55 L14.7180906,55 Z" id="Path"></path>
            <path d="M14.0071655,52 C13.8090421,51.6628571 13.671363,51.3265714 14.0491408,51 C14.2496788,51.3215994 14.2343528,51.6867189 14.0071655,52 Z" id="Path"></path>
            <path d="M13.9571326,50 C13.7454637,49.6759242 13.7919196,49.2902996 14.0776018,49 C14.2404289,49.3299096 14.1961599,49.6973812 13.9571326,50 L13.9571326,50 Z" id="Path"></path>
            <path d="M13.8616914,49 L14.1383086,48 C14.045963,48.3338422 13.9537572,48.6671756 13.8616914,49 Z" id="Path"></path>
            <path d="M13.8354568,48 L14.1645432,47 L13.8354568,48 Z" id="Path"></path>
            <path d="M14.7951605,47 L15.2048395,46 L14.7951605,47 Z" id="Path"></path>
            <path d="M16.2992955,36.1942077 L17,36 C16.7863261,36.3279356 16.5826754,36.6719991 16.3503221,36.9717107 C16.2502179,37.0262701 16.1381171,37.000871 16.0537301,36.9045108 C15.927986,36.5503673 16.0282168,36.2983676 16.2992955,36.1942077 Z" id="Path"></path>
            <path d="M47,22 C46.5072134,21.8220767 46.1441503,21.5066129 46,21.1311046 L46.660439,21 C46.7744045,21.3338796 46.8875915,21.6672129 47,22 Z" id="Path"></path>
            <path d="M46.9601449,12 C46.8447622,11.8547849 46.7943885,11.6499229 46.8251295,11.4509126 C46.8558704,11.2519024 46.9638758,11.0836689 47.1146141,11 C47.2474768,11.338785 47.1848958,11.7439208 46.9601449,12 L46.9601449,12 Z" id="Path"></path>
            <path d="M34.9569715,24.7670387 C36.0283983,24.5033572 37.0925828,24.2118597 38.17679,24 C38.4736963,24.0021903 38.750528,24.1344662 38.9176295,24.3539886 C39.0155561,24.5130555 39.0267641,24.7034473 38.9480552,24.870833 C38.8693463,25.0382188 38.7093663,25.1642119 38.5137676,25.2128585 C37.9599486,25.4376737 37.3703444,25.5939011 36.8322879,25.8415788 C36.3819905,26.049247 36.4113855,26.3655123 36.7381387,26.7004488 C36.9367265,26.8943873 37.0902268,27.1217031 37.1897142,27.3691785 C37.2235382,27.5441619 37.166111,27.7233776 37.0337928,27.8557699 C36.8796514,27.9624936 36.6860206,28.0130074 36.4919022,27.9971367 C36.2869722,27.9928225 36.0896349,27.9269182 35.931693,27.8100448 C34.7465203,26.729408 33.4075564,26.4222877 31.8197999,27.0456734 C31.5394823,27.1557947 31.2561825,26.9778478 31.0798125,26.720263 C31,26.6042152 30.978876,26.4633348 31.021756,26.3325846 C31.0646361,26.2018343 31.1674739,26.0934706 31.3047482,26.0343863 C31.7131943,25.7741351 32.1591668,25.5645621 32.6305057,25.4113817 C33.397332,25.1758974 34.1914233,25.0147164 34.9735861,24.8222899 L34.9569715,24.7670387 Z" id="Path"></path>
            <path d="M38.9947587,8.33171338 C38.9817084,8.53058558 39.0382593,8.78756979 38.9449306,8.92058171 C37.358342,11.1852281 35.4969081,13.2208702 34.1816056,15.7140904 C33.9252546,16.0118869 33.5173871,16.0857927 33.1862309,15.8944529 C33.052587,15.7693765 32.9841039,15.5806822 33.0031325,15.3899546 C33.2240875,14.8296766 33.4789277,14.2859619 33.7659764,13.762388 C34.8803848,11.7392292 36.3617809,10.0272926 37.8111446,8.2955548 C38.0757883,7.97996818 38.5068989,7.90824267 38.8460654,8.12337108 C38.910921,8.16082104 38.9457215,8.26025714 38.9947587,8.33171338 Z" id="Path"></path>
        </g>
    </g>
</svg>