<?xml version="1.0" encoding="UTF-8"?>
<svg width="182px" height="400px" viewBox="0 0 182 400" version="1.1" xmlns="http://www.w3.org/2000/svg" xmlns:xlink="http://www.w3.org/1999/xlink">
    <!-- Generator: Sketch 61.2 (89653) - https://sketch.com -->
    <title>Artboard</title>
    <desc>Created with Sketch.</desc>
    <g id="Artboard" stroke="none" stroke-width="1" fill="none" fill-rule="evenodd">
        <g id="yasai4" transform="translate(72.000000, 235.000000)" fill="#604838" fill-rule="nonzero">
            <path d="M24.041023,7 C24.1718001,7.58369625 24.312715,8.20713351 23.6593362,8.56529947 C22.5165758,9.22239738 21.2310542,9.60443611 19.908364,9.6800351 C19.2154479,9.71033763 18.4860358,9.51660016 17.6273673,10.046646 C19.0218166,11.5140832 20.7862942,12.0928118 22.6293395,12.4624033 C23.3458171,12.524928 24.0660082,12.5358862 24.784121,12.4951897 C25.6458309,12.5379113 25.9965974,13.0197712 25.8577101,13.9308341 C25.8070213,14.278568 25.6787786,14.6173602 25.6275829,14.9660877 C25.4790647,15.9769999 24.8190963,17.2576543 25.8982611,17.8870527 C26.9039272,18.4737295 27.8964142,17.5149774 28.7713031,16.9049527 C28.8743596,16.8443564 28.9821579,16.7918662 29.093684,16.7479757 L30,17.6734447 C29.3151941,18.9526088 28.0864973,19.4001921 26.7614917,19.6445994 C25.0299618,19.9640178 23.8762843,19.2079449 23.669474,17.5338544 C23.5986545,16.4686411 23.5908692,15.4003013 23.6461571,14.3342054 C20.8466139,13.8662549 18.0982664,13.0922985 15.9414574,11.0168237 C15.5481122,10.6382905 15.0751855,10.7783776 14.5982038,10.9174711 C10.3061955,12.2126931 6.54533591,14.8113384 3.85876469,18.3381133 C3.17434542,19.3123514 2.68766607,20.406588 2.42528503,21.5611101 C2.05829801,22.803017 1.80789527,24.0806908 1.50680371,25.3424682 C0.426185968,27.8396796 0.417050938,30.6581221 1.4814593,33.1620109 C1.57100954,33.5537911 1.66089771,33.9457369 1.7511238,34.3378484 C1.52594625,34.9500298 1.74511509,35.634231 2.28690456,36.0104486 C2.45671209,36.5136693 2.29146656,36.9319435 1.77393376,37 C1.44578631,36.9638472 1.15193855,36.7841577 0.97457116,36.5111854 C0.844612481,36.2063036 0.772633433,35.8807028 0.762185029,35.5504463 C0.985719432,34.9269604 0.746412745,34.2344515 0.182304993,33.8723816 C0.030019873,33.7390061 -0.0132557561,33.5226888 0.0763653712,33.3428325 C0.269099835,30.816308 0.252147843,28.2786163 0.0256765569,25.7547813 C-0.16896849,23.5680317 0.794118982,21.5874385 1.19303995,19.5040155 C1.3264235,18.9257301 1.59971173,18.3873458 1.98986811,17.9342452 C4.60895915,14.8046398 7.44803963,11.9676276 11.3875743,10.3561292 C13.1525588,9.63433293 15.1015437,9.31739829 16.6835416,8.15348313 C16.9703833,7.93924988 17.3336974,7.84835323 17.6902214,7.90162441 C19.962601,8.57225414 21.9349028,7.35121127 24.041023,7 Z" id="Path"></path>
            <path d="M45.0241531,15.4520496 C45.0346087,14.9854848 45.1760078,14.3913555 44.628833,14.2020176 C42.5835247,13.4943859 40.720442,12.5858653 39.4866849,10.6553216 C38.9709337,9.97398338 38.1521367,9.59718971 37.3039605,9.6508764 C36.596467,9.62978305 35.8864842,9.69657865 35.1794886,9.66945863 C34.1662942,9.63078749 33.6116512,9.04168039 33.7854128,8.06937744 C34.0761772,6.43162955 34.4650247,4.81196167 34.8145394,3.18476045 C34.9474745,2.5635111 34.9046565,2.00604402 34.2867822,1.64946597 C33.6992788,0.835865366 32.8150365,0.998585488 32,0.937816553 C32.0634641,0.453490087 32.4495073,0.077195119 32.9315414,0.0297980971 C33.7582264,-0.0643376931 34.594846,0.0655078972 35.3552417,0.405962823 C36.3044218,0.715767708 36.8394826,1.7285815 36.5651003,2.69609787 C36.3161582,4.09780114 35.9920356,5.48544217 35.7306464,6.73346533 C36.1125236,7.71028828 36.9255685,7.77859055 37.5519068,7.9106751 C39.1949071,8.18995353 40.648885,9.14558472 41.5658494,10.5488504 C42.3764048,11.7501669 43.7784468,12.2624339 45.2347581,12.4964696 C46.0811613,12.632572 46.9663994,13.0408789 47.0311243,13.9619552 C47.1177562,15.1999339 47.9372736,15.856841 48.6402861,16.6162016 C52.6173852,20.9117115 54.3096936,26.1428621 54.9340404,31.853133 C55.1565039,34.1149112 54.814178,36.3968847 53.938272,38.4910091 C53.827753,38.8427436 53.47419,39.0557811 53.1147715,38.987205 C52.7542245,38.9325235 52.5017224,38.5991435 52.5441962,38.2338711 C52.5603285,37.879139 52.615263,37.5272904 52.7080001,37.1847281 C54.1926908,30.7226299 52.5914952,24.9475723 48.8742917,19.6430972 C48.2638856,18.7712388 47.643024,17.9069137 47.0266434,17.0395753 C46.930957,16.591249 46.6005607,16.2312116 46.1648058,16.100419 C45.7711753,15.9092368 45.3901682,15.6926649 45.0241531,15.4520496 Z" id="Path"></path>
            <path d="M34.0361113,52.9631994 C30.1095045,52.9512309 26.2085458,52.3149804 22.4727702,51.0772062 C21.1169118,50.6048054 19.6748951,50.3969697 18.2767134,50.0457634 C16.1722004,49.5370004 14.1658194,48.6709816 12.3408649,47.4836594 C12.0242053,47.2735589 11.9102984,46.8547609 12.0753364,46.5073988 C12.2264912,46.1711484 12.4451617,45.8715143 12.8814952,46.0566582 C13.5438891,46.3392736 14.2019163,46.6315157 14.8555767,46.9333847 C16.4701312,47.7461367 18.1859268,48.3284794 19.9550353,48.6641457 C20.9084221,48.7928062 21.8463301,49.0216181 22.7539181,49.3469609 C25.7130249,50.4882524 28.8076672,50.8296599 31.9159135,51.1494072 C34.9314514,51.4588401 37.9147431,51.4825633 40.7977687,50.3397246 C41.3302271,50.0498444 41.9421008,49.9505455 42.5360487,50.057625 C42.7464355,50.1370887 42.9111003,50.3086601 42.9849784,50.5253843 C43.0316484,50.7550523 42.9681596,50.9937133 42.8141735,51.1674575 C41.0713588,52.3654783 39.0524347,52.6981186 37.0345184,52.9405077 C36.0364629,53.0113548 35.0350811,53.0189332 34.0361113,52.9631994 Z" id="Path"></path>
            <path d="M45.9732968,15.1071154 C46.3443596,15.3631043 46.7306292,15.5933681 47.1296891,15.7964663 C47.5697282,15.9354183 47.9033728,16.3179163 48,16.794211 C47.0894668,16.474079 46.2337365,16.2329129 45.2975615,16.894519 C44.595207,17.3654995 43.8190772,17.6992542 43.0058937,17.879992 C40.9646099,18.3676598 40.0289377,18.9508335 38.9836597,20.6304594 C38.0293847,22.1516199 36.7432753,22.4151953 35.3143767,21.3731656 C34.1656112,20.4637427 33.18385,19.3383391 32.4178654,18.0528633 C32.0969024,17.512675 31.4698994,17.2748031 30.8989693,17.4766257 L30,16.4831494 C30.1461336,16.1442027 30.3449966,15.8337828 30.5882517,15.5649042 C31.6440882,14.7555038 32.3525041,14.8045907 33.0121505,15.7852617 C33.9825145,17.229057 34.8447809,18.7592879 36.2420044,19.8151899 C36.4843062,19.9944438 36.7903256,20.0468947 37.0734837,19.957703 C37.3566417,19.8685114 37.5861395,19.6473787 37.6970476,19.3568676 C37.78252,19.1231713 37.8428536,18.8766696 37.9343594,18.6483088 C38.3330633,17.6478963 37.4617469,16.0872529 38.7292534,15.6155917 C39.5020251,15.3280065 40.5468004,15.9789415 41.4789531,16.038166 C43.0275622,16.1427006 44.5754301,15.8220435 45.9732968,15.1071154 Z" id="Path"></path>
            <path d="M31.8006989,1 C32.5850684,1.0591165 33.4360398,0.903875603 34,1.68008011 C32.7297719,1.57386265 31.8481348,1.97374014 31.5822063,3.36898577 C31.390546,4.37348572 31.0920352,5.35972204 30.8117322,6.34547773 C30.3804967,7.86424321 29.9358449,8.14636831 28.3560855,7.9406621 C27.4629489,7.82435158 26.5607084,7.7416846 25.6829046,7.55087767 C24.5573799,7.3067217 25.1165486,6.58338561 25.3153961,5.98164689 C26.4599836,5.75786182 27.642918,5.83653566 28.7480307,6.20994233 C29.5443789,5.21361295 29.6426048,3.95678646 29.9890307,2.79752623 C30.2640631,1.87521264 30.763338,1.15812463 31.8006989,1 Z" id="Path"></path>
            <path d="M11,44.6434095 C10.7914163,44.7608036 10.5897149,44.9603251 10.3726608,44.9757844 C10.0105417,45.0332398 9.6378228,44.9878787 9.3048607,44.8458297 C6.85134644,43.228149 4.7423541,41.2150184 3.08176185,38.9055945 C2.9905357,38.7536934 2.97486349,38.5734388 3.03869947,38.4103108 C3.10253546,38.2471828 3.23978309,38.1167607 3.41581335,38.0519513 C3.6496976,37.9910301 3.89641613,37.9835641 4.13420936,38.0302117 C4.26024586,38.0486327 4.37594216,38.1049072 4.46296686,38.1901188 C6.53292147,40.1863007 8.40382163,42.3646124 10.875591,43.9955683 C11.0127056,44.087841 10.9618832,44.420699 11,44.6434095 Z" id="Path"></path>
            <path d="M54,41.7458128 C53.9190426,42.0492481 53.8159843,42.3478106 53.6914603,42.6396597 C52.6975178,44.6343947 51.0268484,46.1741149 49.2477293,47.6291148 C48.9569238,47.8503217 48.5908025,47.9807074 48.2066111,47.9998852 C47.8435806,48.0041827 47.4921533,47.887701 47.2229713,47.6738548 C46.9670298,47.4458715 46.8851502,46.9670589 47.2278516,46.7776281 C49.6874933,45.4206753 51.1596995,43.3507392 52.576054,41.2279718 C52.7897001,40.9081289 53.2647103,40.9680994 53.5889752,41.1442034 C53.7700864,41.2422505 53.8394943,41.4987913 54,41.7458128 Z" id="Path"></path>
            <path d="M1.9689707,33 C0.666331206,30.4382824 0.677514928,27.5548862 2,25 C1.98924317,27.66565 1.97890007,30.3323167 1.9689707,33 Z" id="Path"></path>
            <path d="M0.749423373,26 C1.0585615,28.6608518 1.08170133,31.3363126 0.818614685,34 C-0.24878027,31.3971495 -0.272858361,28.6132056 0.749423373,26 L0.749423373,26 Z" id="Path"></path>
            <path d="M44.9975,48.4563992 C45.0127596,48.6181036 44.9522702,48.7774497 44.8357102,48.882599 C44.7191502,48.9877483 44.5614163,49.0252623 44.4138227,48.9829371 C44.1816342,48.9760995 43.9975199,48.7725435 44.0001878,48.5256238 C43.9914158,48.0783535 44.2913517,47.992271 44.6000596,48.0005206 C44.7123479,47.9959803 44.8209052,48.0437799 44.89729,48.131396 C44.9736747,48.2190121 45.0102744,48.3377129 44.9975,48.4563992 L44.9975,48.4563992 Z" id="Path"></path>
            <path d="M1.0632396,34 C1.86038705,34.4315327 2.19855421,35.2568988 1.88267505,36 C1.17190296,35.5162228 0.854367415,34.7412123 1.0632396,34 L1.0632396,34 Z" id="Path"></path>
            <path d="M2.90275021,36 C2.11825037,35.5501405 1.80089845,34.7320116 2.12695084,34 C2.86654765,34.4755623 3.17380478,35.2676669 2.90275021,36 L2.90275021,36 Z" id="Path"></path>
        </g>
        <g id="yasai15" transform="translate(39.653727, 39.495674) rotate(-40.000000) translate(-39.653727, -39.495674) translate(15.153727, 8.495674)" fill="#604838" fill-rule="nonzero">
            <path d="M40.0646851,1 C42.4893178,2.26125885 42.6671242,2.62743077 41.873057,4.77767368 C41.7068686,5.22826858 41.4563232,5.647332 41.2921554,6.09996119 C40.7142846,7.69077477 40.6915536,7.85606071 42.1281485,8.69825613 C43.3158741,9.3030315 44.2142808,10.3606305 44.6234997,11.6357687 C45.2532261,13.7298349 46.5713348,15.5461492 48.3614752,16.7865871 C49.5505555,17.6684511 48.9706641,20.1635059 47.5133588,20.5535807 C46.5631459,20.7271375 45.5998088,20.8176613 44.6341075,20.8241411 C43.980972,21.3988276 44.3815416,22.1372743 44.4502395,22.8167267 C44.8386859,26.8181721 44.8038318,30.7748632 43.3546086,34.6013598 C42.4044556,35.4862752 42.6565164,36.6015739 42.7716865,37.6904268 C42.8565036,37.8841614 42.7952254,38.1112262 42.6246931,38.2351075 L41.9912578,38.9669428 L41.9473113,38.9898286 L41.229519,39 L41.2163856,38.9918628 C41.1827101,38.6701062 41.1490347,38.3480105 41.1153592,38.0255758 C41.0653284,37.8236626 41.1512191,37.6124148 41.3275146,37.5037808 C41.9776192,37.063866 42.0119682,36.4484937 41.8144617,35.7675156 C41.7969303,35.0446191 41.8609872,34.3220561 42.0054015,33.6137127 C42.9484826,30.6762002 42.8232099,27.6700304 42.8757436,24.6425006 C42.9323184,21.4069648 42.2059388,18.7522183 38.9134896,17.0551132 C38.03355,17.6196282 37.4486074,18.7115325 36.5843268,19.4860879 C36.1488119,19.9017566 35.691878,20.2940688 35.2154196,20.661398 C33.1994385,22.1128629 31.542101,21.4522277 31.0349487,18.9358128 C30.8833621,17.8613473 30.7872578,16.7796856 30.7470235,15.6951913 C30.6773154,14.9623389 30.2363353,14.74111 29.4968223,14.9323331 C28.6612898,15.0949542 27.9713358,15.6861812 27.6783478,16.4905981 C26.7302153,18.8808871 24.9001228,20.7015752 23.4998974,22.7999438 C23.1972027,23.1603597 22.8155918,23.445166 22.3850714,23.6319678 C22.1670717,23.6857651 21.9367207,23.6287823 21.7683055,23.4793961 C21.6208504,23.3119851 21.565244,23.0819511 21.6197967,22.865041 C22.5361059,21.4562963 23.5125257,20.0872201 24.4268142,18.6774582 C24.9981183,17.7971199 25.9422097,17.1008846 25.8916965,15.8635287 C24.2838619,15.2105221 22.2042343,15.9540545 21,14.173035 L21.9865224,13.3455881 C25.1269269,14.2422008 28.131451,14.1852407 30.944025,12.2328323 C31.6870739,11.7166316 32.3114168,12.1346779 32.3649608,13.1055421 C32.4508332,14.6724528 32.4437613,16.2449578 32.5165003,17.8128856 C32.5437774,18.3962178 32.5165003,19.0883845 33.1575126,19.3894592 C33.9707748,19.7698711 34.5284403,19.1743332 35.0113464,18.6693211 C35.8407728,17.8047485 36.6176655,16.8806729 37.3809197,15.9530374 C38.5826283,14.4929268 39.1700966,14.4537668 40.5248601,15.8299629 C40.9466452,16.2581807 41.3285249,16.7265756 41.7503099,17.1553019 C42.9944496,18.4170693 44.5856148,18.9098757 46.2828577,19.0980474 C46.7879895,19.1529731 47.1885591,18.8534242 47.4284967,18.199909 C45.9636144,17.071896 44.429024,15.8604773 43.7839706,13.993509 C43.087899,11.9790549 42.1574462,10.273304 40.0525619,9.43721142 C39.1231193,9.06798806 38.9862286,8.18408972 39.1695915,7.29408852 C39.3160883,6.70946811 39.5017277,6.13550361 39.7252365,5.57613191 C40.7415617,2.68439085 40.7430771,2.68591657 37.5870135,1.952047 C37.3546529,1.89813836 37.1288589,1.81574968 36.9000342,1.74861816 C37.7830046,0.75486824 39.0094647,1.25276034 40.0646851,1 Z" id="Path"></path>
            <path d="M1.8703243,47.8608488 C3.06467073,52.0008878 5.76790713,55.0174709 9.17222847,57.4756349 C13.9342955,60.9142139 19.1160943,61.0389292 24.415847,59.0536653 C28.620314,57.4797073 31.7958764,54.4417444 34.7304249,51.1696221 C37.050333,48.6747233 38.8800624,45.768029 40.1246428,42.6004084 C40.3288918,42.0552243 40.385571,41.3787075 40.9927013,41.0732822 C41.2129638,40.9960134 41.4500709,40.9794813 41.6789782,41.0254323 C41.7565928,41.033577 41.832165,41.2046151 41.8806741,41.3140591 C42.0768404,41.8926857 42.0296858,42.5258335 41.7499547,43.0692361 C40.4060128,46.592125 38.3686441,49.8113627 35.7577977,52.5374181 C33.0264771,55.4603375 30.1235872,58.1506247 26.4435296,59.9989563 C19.9387074,63.2680243 11.3428854,62.876062 5.11226763,56.2386628 C3.71009778,54.7446244 2.23235578,53.2724748 1.35510603,51.3574586 C1.06556935,50.8221419 0.94877066,50.2108025 1.02064818,49.606863 C1.67833018,49.206247 1.73807303,48.5154769 1.8703243,47.8608488 Z" id="Path"></path>
            <path d="M40,0.675842529 C38.9148294,0.933095444 37.6505327,0.427850719 36.7418845,1.42907906 C36.100884,1.76968192 36.1243162,2.40200959 36.0175696,2.99111876 C35.7801234,4.30516665 35.557778,5.6243596 35.2364966,6.91937077 C35.1646619,7.2199528 34.9738355,7.47951769 34.7067409,7.63995222 C34.4396464,7.80038675 34.1185945,7.8482896 33.8154647,7.77293594 C32.9713852,7.63299036 32.1538622,7.29650355 31.3082206,7.21058107 C30.2013064,7.01178001 29.0672318,7.37441347 28.288072,8.17630851 C26.8833573,9.71986229 25.0709426,10.8459063 23.0543627,11.4279854 C22.2212183,11.6898688 21.4948205,12.1750478 21.3630795,13.162899 L20.3461226,14 C19.4702795,12.9118202 20.5674266,11.7742478 20.2841575,10.6608572 C20.2638496,10.5816233 20.6403267,10.3356895 20.8621514,10.2760068 C23.4136563,9.58965603 25.7199042,8.6167255 27.4991883,6.48512785 C28.3375399,5.48029797 29.8304306,5.15461578 31.2629184,5.33572183 C31.984109,5.42678936 32.7016547,5.54666922 33.3546316,5.64442533 C34.061763,4.87266658 34.0440587,3.97485391 34.2705698,3.16039118 C34.462193,2.46940985 34.1679889,1.49184877 34.8855345,1.13581074 C35.8431299,0.661436366 36.7163695,-0.15456988 37.9483818,0.0255071601 C38.6747796,0.133038878 39.4522075,0.0311667242 40,0.675842529 Z" id="Path"></path>
            <path d="M21,24.5878818 C20.9133729,24.8298376 20.8906848,25.2585482 20.6648355,25.4489143 C20.1896354,25.8235322 19.6683691,26.1356172 19.1137972,26.3775293 C16.9011958,27.4093237 14.694782,28.4540155 12.4507267,29.4125525 C8.43751835,31.1284267 4.89250906,33.3963108 2.61699983,37.2810168 C2.39813875,37.557009 2.1266394,37.7867334 1.81827701,37.9568421 C1.70738164,38.014386 1.5754449,38.014386 1.46454953,37.9568421 C1.28149815,37.8314791 0.986553372,37.6375018 1.00047559,37.4992413 C1.02578456,37.021461 1.14456311,36.5532941 1.35007796,36.1212799 C2.82358539,33.5644359 4.95742862,31.4512583 7.52793342,30.0032549 C11.5267039,27.6342549 15.9183903,26.0746976 20.0904151,24.0596031 C20.4750808,23.8738801 20.7519783,24.1421466 21,24.5878818 Z" id="Path"></path>
            <path d="M2,47.2603955 C1.85515472,47.9126204 1.79140043,48.6008546 1.07052954,49 C-0.585963547,45.9371803 0.11868915,42.714601 0.331762703,39.5325955 C0.37104006,39.3566111 0.487187166,39.2025363 0.653748326,39.1054657 C0.820309485,39.0083952 1.02310191,38.9765946 1.21593406,39.0173074 C1.60388753,39.0850898 1.87247647,39.4079635 1.83781803,39.7648809 C1.9082833,42.2632167 1.94966766,44.7620597 2,47.2603955 Z" id="Path"></path>
            <path d="M42.1549778,38 C42.0042411,36.942542 41.6743393,35.8594007 42.9179171,35 C43.0878264,36.0599276 43.0640259,37.0926902 42.1549778,38 Z" id="Path"></path>
            <path d="M41.8291803,36 C42.1474543,36.7844171 42.0921023,37.493263 41.0444844,38 C40.8820044,37.2826144 41.1693356,36.550277 41.8291803,36 L41.8291803,36 Z" id="Path"></path>
            <path d="M40.8293792,38 C40.8862528,38.3329825 40.9431264,38.6663158 41,39 C39.4217577,38.7636842 39.9839532,38.3905263 40.8293792,38 Z" id="Path"></path>
            <path d="M42,39 L42.9884504,38 C43.066486,38.6469771 42.7504026,38.990271 42,39 Z" id="Path"></path>
            <path d="M41,39.1331403 L42,39.1131403 C41.6748768,40.0641403 41.3434201,40.2151403 41,39.1331403 Z" id="Path"></path>
        </g>
        <g id="yasai02" transform="translate(127.000000, 98.000000)" fill="#604838" fill-rule="nonzero">
            <path d="M50.6141841,31.8212642 C51.2796358,31.5843679 51.9823486,31.466394 52.6895317,31.4728475 C53.7621211,31.4353516 53.8259911,31.237761 53.7966109,29.9595308 C53.7871013,29.2850337 53.8185251,28.6105799 53.8907127,27.9398092 C53.9011314,27.6524564 54.0074383,27.3766078 54.1930304,27.1553449 C54.6256429,26.7622702 55.3793084,26.5886937 55.3776052,25.9070271 C55.3776052,25.1908138 54.8832517,24.6056254 54.4072077,24.0840535 C53.6245878,23.2271253 52.7891689,23.115059 51.7046571,23.7078309 C50.7866329,24.2079163 50.4042648,23.8969954 50.454935,22.9111488 C50.4796314,22.4249663 50.8172905,21.865056 50.3838264,21.4892547 C49.576936,20.7903147 49.6369738,20.2253487 50.3561494,19.5023946 C50.6580414,19.1986358 50.4068196,18.7550049 50.0619219,18.4862142 C49.7549203,18.2469147 49.5300981,18.444084 49.3031468,18.6420959 C49.1654365,18.7889797 49.0023574,18.9103894 48.8215674,19.0006239 C48.3276397,19.1796773 47.7038432,18.6934948 47.8520215,18.2157383 C48.0845081,17.4649782 48.2267252,16.5663411 48.737259,16.0506675 C49.4147063,15.3668944 49.7676943,14.9009344 49.0408542,14.0878216 C48.7806744,13.7570995 48.7865076,13.2922299 49.0549056,12.968001 C49.277173,12.6389641 49.6058904,12.3823912 49.8583896,12.0702065 C50.2440563,11.5783326 50.2780738,10.9004575 49.9435495,10.3732021 C49.6029098,9.71133673 49.0523508,9.73492964 48.4225931,9.99108124 C48.1338116,10.1238559 47.7906173,10.0067567 47.6459344,9.72608229 C47.4448938,9.36118776 47.5541374,8.90503126 47.8992852,8.66819304 C49.0297834,7.73543047 49.9005438,7.77461156 50.7670461,8.81480613 C51.4981442,9.69195683 51.9861107,10.6432567 51.791946,11.8456525 C51.6642061,12.6284316 50.6422868,13.1070306 50.9999586,14.0035612 C51.3513123,14.7359655 51.3682124,15.5823201 51.0463707,16.3278842 C50.9044044,16.7126682 51.0199888,17.1442225 51.3359145,17.4089451 C51.6663351,17.7999133 52.017194,18.2296413 51.9554531,18.7423658 C51.7297792,20.6091548 52.4038201,21.637553 54.3501505,22.1599674 C55.7714699,22.541667 56.4455108,23.9644038 56.8751427,25.3492233 C57.0896699,25.9278456 57.0253785,26.5717258 56.7005648,27.0976265 C56.0477835,28.1061578 55.6983759,29.2775914 55.6931227,30.4752044 C55.6505428,31.5137138 55.2119691,32.2682656 54.3403571,32.6411179 C53.3686822,33.0561003 52.8015171,33.5431254 53.1809046,34.6401957 C53.5338925,35.6601678 52.569882,36.5739718 52.8764578,37.5189521 C53.2243361,38.5907443 52.8836964,39.4426169 52.5098443,40.395602 C52.3097184,40.9057987 52.5281537,41.5680854 52.5179345,42.1612785 C52.4915349,43.7099846 52.0806382,44.2429316 50.4242774,44.542056 C49.6646508,44.6789791 49.1353817,44.819694 48.8637215,45.6500802 C48.3842711,47.1166323 47.1290136,47.5118136 45.725152,47.529087 C44.5435579,47.5434112 43.4339239,47.3298111 42.2335946,47.9988387 C40.9072286,48.7394875 39.7311698,47.8930919 38.8369905,46.7846464 C38.6984014,46.5665516 38.4580365,46.4322741 38.1977094,46.4275183 C37.9373823,46.4227625 37.6921715,46.5481692 37.54554,46.7610535 C35.7667239,48.6884544 33.8083335,50.4457461 31.6963297,52.0096335 C30.8955756,52.6352463 30.3358828,53.5136521 30.1106517,54.4982642 C29.6754844,56.1463975 29.2249884,57.7911604 28.7455379,59.4274973 C28.5915408,59.9010786 28.3841477,60.3560004 28.1272768,60.7836683 C28.0022625,60.925346 27.8199657,61.0045673 27.6299427,61 C27.3125274,61.0018155 27.045656,60.7645881 27.0138106,60.4521037 C26.977884,60.0580016 27.0121851,59.6607187 27.1151509,59.2783564 C27.6290911,57.4452715 28.2648101,55.6404139 28.6757068,53.7862639 C28.8357606,52.9000058 29.29243,52.0927677 29.9722668,51.4943811 C32.2532757,49.5096276 34.6952369,47.7026634 36.6999019,45.4107807 C37.0770846,45.0768131 37.5233246,44.8282298 38.0075327,44.6823496 C38.4875988,44.4703347 39.0502987,44.5762074 39.4182071,44.9477698 C39.847839,45.3661227 40.1765563,45.8851667 40.6006528,46.3106817 C40.9514801,46.7029055 41.5493988,46.7592487 41.9687472,46.4396001 C42.1454345,46.3411914 42.3113825,46.2249983 42.4639522,46.0928686 C42.9907197,45.4386353 43.9296364,45.2793317 44.6466014,45.7225441 C45.0111539,45.8902845 45.4091508,45.9748024 45.8111636,45.9698484 C46.6542853,46.0418794 47.4000922,45.4318132 47.4871112,44.5989318 C47.6148511,43.3708365 48.2603634,43.0906707 49.3031468,43.1138423 C49.6072473,43.1271672 49.9119323,43.110372 50.212655,43.0637074 C50.4582309,43.0065223 50.6685038,42.8504443 50.7926959,42.6331639 C50.9168879,42.4158835 50.9437094,42.1571527 50.8666833,41.9194512 C50.8092233,41.6238812 50.6890587,41.3437304 50.5141211,41.0974911 C49.7289465,40.2763735 49.9248144,39.7430052 50.9007472,39.2766239 C51.4542868,39.011625 51.5011248,38.4955301 51.1592077,38.0156671 C50.7265952,37.408571 50.3122921,36.7323813 50.9859072,36.1484568 C52.0738254,35.2064256 51.7651206,34.3692986 50.8739219,33.6572982 C50.0789538,33.0219749 50.5332821,32.4174065 50.680183,31.7723932 L50.6141841,31.8212642 Z" id="Path"></path>
            <path d="M10.2855794,28.3469088 C10.4984821,28.8075381 10.3467177,29.3537688 9.92624454,29.6402278 C9.53787543,29.9600757 8.99810695,30.0263204 8.54324756,29.8099602 C7.66371781,29.3775978 6.71192716,29.1094109 5.73512757,29.0187139 C4.96127272,28.9281899 4.58382365,29.1490516 4.65965047,29.904256 C4.75822534,30.8870276 4.33148884,31.3358755 3.37986222,31.4813006 C1.69482172,31.7377851 1.69861306,31.7629306 1.91893211,33.6446553 C1.81530212,34.1370888 1.81403834,34.6739461 1.32621911,35 C0.724792106,34.6365921 0.295947695,34.0473971 0.136580524,33.3655398 C-0.229073264,31.8987165 0.112989957,30.7034651 1.48461292,30.1121258 C2.45614206,29.6900623 3.21048234,28.8891388 3.57069305,27.8972227 C3.83121267,27.4605293 4.30682461,27.1960433 4.81720176,27.2040439 C4.89622289,27.260242 4.98197888,27.3064189 5.07248539,27.3415062 C5.48489906,27.4458602 5.89562768,27.975593 6.28571455,27.3834155 C6.03650972,27.1213296 5.75497935,26.8916599 5.44782817,26.6998758 C5.26759547,26.6339031 5.07607569,26.6038563 4.88418212,26.6114473 C4.08968553,25.9036004 4.10274459,24.9937508 4.43848891,24.1388024 C4.71117648,23.6177012 4.69735332,22.9941181 4.40183928,22.4854831 C3.87917587,21.5863737 4.00661151,20.4533424 4.71609933,19.6913943 C5.43645414,18.8611724 5.49248174,17.9395883 5.53966287,16.9325093 C5.56777501,16.3535273 5.38028967,15.7845649 5.01308772,15.3345102 C3.54541745,13.2289902 3.99237444,10.6725268 6.10836404,9.40058146 C6.73267154,9.02339833 7.16488443,8.79247844 7.38141213,8.02302487 C7.73484938,6.7657478 8.27027099,5.55415179 10.0307171,5.77333709 C10.5560284,5.8387155 10.7889853,5.23186976 11.0931351,4.83540839 C11.8750023,3.77391868 13.0875206,3.10936901 14.4071885,3.01906211 C15.3465986,2.93901547 16.2274535,3.08653598 16.7978397,3.93603619 C17.2667022,4.63466315 17.7591553,5.21426789 18.7326874,5.00304534 C19.5415069,4.82786473 19.7934204,5.86511832 20.4762831,5.86469923 C21.0816339,5.86469923 21.285945,5.01226537 21.9755479,5.00681717 C22.4751888,4.98064344 22.9731876,4.92944931 23.4676512,4.85342936 C23.4957352,5.30437274 23.522415,5.75545582 23.5476906,6.20667859 C22.4001781,6.79676063 22.294863,6.90027644 22.8854697,7.49454941 C23.8404664,8.45594728 23.5957143,9.7383699 23.9954902,10.8380682 C24.0439351,10.9717587 23.6913403,11.3669628 23.4533284,11.4591631 C23.0838073,11.6491523 22.6305687,11.5487352 22.3770088,11.2206996 C22.0328392,10.7710135 22.1735401,10.2769036 22.1853354,9.78656552 C22.2030283,9.04938206 21.8062013,8.62735605 21.0837402,8.73129096 C19.9353851,8.89599426 19.0920223,8.67303712 18.7979827,7.41324549 C18.73353,7.13538726 18.6547543,6.8093334 18.2924706,6.75862323 C17.1024108,6.59098628 16.4119654,5.71089233 15.6035672,4.96951795 C15.0039589,4.38464097 14.0510327,4.36300751 13.4252311,4.92006505 C12.7846191,5.40012492 12.2919554,6.04908071 12.003057,6.79340789 C11.5817968,7.94088277 10.8492255,8.02302487 9.85968544,7.62237258 C9.63280293,7.59113687 9.4021972,7.599219 9.17808656,7.64626084 C8.99062581,8.49031285 8.7762044,9.35615767 8.61233422,10.2316416 C8.50744044,10.7911299 8.28964896,11.1762758 7.64933357,11.0643781 C7.03260875,10.9562523 6.3855532,10.8573465 6.10710026,11.5605835 C5.77683232,12.3987682 5.45835967,13.4636819 6.28824211,14.0499921 C7.27946718,14.7502954 7.5983611,15.4677815 7.26388056,16.5750235 C7.05030168,17.2807751 7.43449091,17.6898092 8.03647163,17.9848502 C8.31457749,18.0937869 8.56316301,18.2660258 8.76230282,18.4877611 C9.13078932,18.9855015 9.11870992,19.6670503 8.73281461,20.1515577 C8.6056845,20.3727567 8.38158051,20.5217813 8.12752249,20.5540649 C7.87346447,20.5863485 7.61890331,20.4981486 7.43996729,20.3158419 C6.96941973,19.9478788 6.49929343,19.9034551 6.13827351,20.3577512 C5.77725358,20.8120473 5.4221313,21.3413609 5.92427337,21.9649704 C6.49550209,22.6740746 7.23017975,23.5772187 6.73393532,24.3709796 C6.09024985,25.4036232 6.28192321,25.679805 7.33507352,25.8445083 C8.05121573,25.9568251 8.16495596,26.6244392 8.47247585,27.1185491 C8.90342496,27.8071178 9.39629931,28.4370137 10.3344456,28.4210882 L10.2855794,28.3469088 Z" id="Path"></path>
            <path d="M18.0970443,56.1604349 C17.9438717,57.5645371 17.7689963,59.1054955 17.6095633,60.6480879 C17.5194127,61.5227411 17.7765088,61.9500588 18.5649091,62.1825098 C19.0389427,62.3244644 19.5239889,62.4284366 20.0152484,62.4933978 C21.3975548,62.6015188 22.767307,62.829693 24.1083353,63.1752269 C24.7731594,63.3832467 25.4873904,63.3852441 26.153418,63.1809463 C26.3343127,63.0948794 26.5476246,63.1054209 26.7187435,63.2088835 C26.8898624,63.3123462 26.9949794,63.4943346 26.9973277,63.6911947 C27.0259573,64.084494 26.8227544,64.459295 26.4739534,64.6565405 C25.8625154,65.1010163 25.1525796,65.0287073 24.4706071,64.9090093 C22.4280286,64.5503239 20.3850327,64.1879617 18.3541404,63.7720827 C16.738525,63.441177 15.9396907,62.464801 16.0035473,60.8981055 C16.049474,59.735778 16.1584202,58.5766573 16.3299259,57.4256385 C16.6365771,55.7035369 16.749383,53.9537141 16.6663211,52.2075417 C16.6308452,51.7271157 16.6346014,51.2270804 17.2088941,51.0228177 C17.6262579,50.8745229 18.1074784,51.468519 18.1659093,52.2398152 C18.2076457,52.819513 18.212654,53.4037045 18.2009678,53.9854449 C18.1880296,54.6648228 18.1375285,55.3425667 18.0970443,56.1604349 Z" id="Path"></path>
            <path d="M26.6997249,17.1763498 C26.5878578,17.1595281 26.2141653,17.0826287 25.8368643,17.0497863 C24.7943746,16.9584683 23.9651944,17.2296187 23.6143565,18.3542719 C23.5708898,18.5945432 23.4070273,18.7957223 23.1803605,18.8871025 C22.9536936,18.9784828 22.6959398,18.9472773 22.4976897,18.8044536 C22.2553013,18.6489974 22.0849282,18.4034586 22.0242756,18.1221771 C21.9636231,17.8408957 22.0176925,17.5470666 22.1745179,17.305717 C23.0718609,16.1077691 24.1748952,15.2666823 25.7831359,15.4124706 C25.9745703,15.4103856 26.1643527,15.4480277 26.340467,15.5230135 C27.105494,15.968389 27.7438184,15.7753395 28.4547162,15.3179485 C28.8028204,15.0442691 29.2550132,14.9400031 29.6879857,15.0335831 C30.1209582,15.127163 30.4895547,15.4088291 30.6932622,15.8017737 C31.1952611,16.6428605 31.8303779,16.8927834 32.7710243,16.9796957 C33.44211,17.0246784 34.0631206,17.3501657 34.4815165,17.8762079 C34.8999123,18.4022501 35.0769247,19.0801037 34.9690737,19.7432667 C34.8843499,20.4033011 34.7141214,21.0495399 34.4626643,21.6657508 C34.3049175,21.8870637 34.0450474,22.0127034 33.7734182,21.9989814 C33.5080848,21.910296 33.2888681,21.7199884 33.1639627,21.4698977 C32.8540225,20.8975582 33.3018921,20.3732808 33.3548185,19.818564 C33.4426282,18.8941695 33.2028556,18.4568044 32.3744773,18.413949 C31.3027177,18.3598791 30.289498,18.3710936 29.6832501,17.2300192 C29.4948001,16.8751607 29.0437228,17.0726158 28.6592045,17.1499157 C28.0080586,17.2156575 27.3524107,17.2245025 26.6997249,17.1763498 L26.6997249,17.1763498 Z" id="Path"></path>
            <path d="M7.91821416,40.1641971 C8.45018942,39.9064487 8.95379268,39.9136084 9.1985013,40.4660968 C9.38956909,40.8972684 9.38557927,41.396457 9.56334767,41.8339929 C9.77879766,42.3634112 10.2957003,42.4648399 10.8547176,42.3315904 C11.1545053,42.2561229 11.441559,42.1446708 11.7080946,42.0002565 C12.1376647,41.7735334 12.3783835,41.181269 12.9994646,41.3431572 C13.7231344,41.5032268 14.3538209,41.9005347 14.7673957,42.4568848 C15.3636514,43.3411049 15.8034176,44.3096501 16.3854872,45.2014276 C17.0207543,46.1755414 17.8040879,47.0864115 17.9973722,48.2327553 C18.031064,48.4296464 17.7336012,48.7188178 17.5163779,48.8918433 C17.2118221,49.1344768 16.9015032,48.9216753 16.718415,48.715238 C16.48557,48.4088106 16.2769955,48.0880903 16.0942307,47.7554435 C15.3033608,46.5331275 14.5147075,45.3096183 13.7163013,44.0912799 C13.3581046,43.5439624 12.8713472,43.2897938 12.1443144,43.5423713 C11.6616107,43.7269972 11.1594837,43.8677131 10.645474,43.9624057 C9.7557454,44.0968485 8.74986883,43.9102992 8.43423017,43.2010934 C7.9510193,42.1144135 6.88263563,41.8324018 6,41.2691739 C6.3519903,40.4983153 7.48642756,40.8212963 7.91821416,40.1641971 Z" id="Path"></path>
            <path d="M21.5759688,42.6759924 C22.4769818,41.4249773 22.344975,40.2273113 22.4074346,39.0751367 C22.4712232,37.8956673 22.4716661,36.7128894 22.5615902,35.5354878 C22.6104527,35.2384196 22.8790485,35.0159862 23.2008045,35.0061326 C23.3594943,34.9831418 23.5210721,35.0254435 23.6438182,35.1221155 C23.7665644,35.2187876 23.8384466,35.3603534 23.8409047,35.5102607 C24.1205592,38.2607212 24.0312734,41.0330189 23.5751191,43.7628246 C23.5395848,44.3792787 23.0372317,44.8839463 22.381299,44.9621449 C21.7519471,45.0956186 21.097528,44.8696913 20.7126088,44.3860576 C20.1132333,43.6896167 19.7187079,42.859316 19.567959,41.9770781 C19.3216644,40.5168024 19.1741534,39.0408114 19.0062655,37.5710237 C18.9806423,37.3748974 19.0341781,37.1768918 19.1564344,37.0156144 C19.33785,36.7892173 19.5926102,36.623453 19.8829149,36.5429168 C20.2099752,36.4913427 20.5211109,36.6935713 20.5828168,36.9978314 C20.6505921,37.3828545 20.6838153,37.774081 20.7157096,38.1636533 C20.8514693,39.6894769 21.1394713,41.2001411 21.5759688,42.6759924 Z" id="Path"></path>
            <path d="M24.0771873,6 C24.0514582,5.51978425 24.0257291,5.03941974 24,4.55890646 C24.184437,1.78606218 24.3977176,1.50266348 26.7381172,1.08626822 C27.8663849,0.938069367 28.9779482,0.663813374 30.0555453,0.267759225 C32.1513831,-0.599396165 33.7686597,0.705576743 33.9990028,3.2302798 C34.0046318,3.54262191 33.9864223,3.85493284 33.9445655,4.16393347 L33.9990028,4.09252592 C32.6656941,4.90924973 32.4958821,4.82846994 32.3203826,3.47395805 C32.3307245,3.16334305 32.3183619,2.85231718 32.2834139,2.54387476 C32.087602,1.88335496 31.0016988,1.36163357 30.6381061,1.86014751 C29.6704214,3.18743527 28.4203937,2.73488995 27.2325221,2.81299195 C26.3741182,2.86967169 25.5417144,2.82593457 25.5307456,4.30808745 C25.5258707,5.00520362 24.870185,5.74739581 24.0771873,6 Z" id="Path"></path>
            <path d="M45.9054526,8.66085412 C45.3235314,8.90264994 45.1103053,8.36505722 44.7665326,8.10230576 C44.3756841,7.55222026 44.009758,7.54496638 43.6723149,8.15509785 L43.6371069,8.17121757 L43.0832729,8.64916732 L43.0172084,8.72976593 C42.8529043,8.91406808 42.6883365,9.0982359 42.523505,9.28226939 L42.5017472,9.31209088 C42.2285577,9.4186395 42.041398,9.6776278 42.0226808,9.97501443 L42.0119997,10 C41.4700336,9.60143988 41.3501681,9.01226405 41.3086306,8.38802783 L41.320894,8.49522398 C41.3053644,8.09361811 41.0353005,7.74895018 40.6543153,7.64450566 C40.4682492,7.68268872 40.2813802,7.58279841 40.206501,7.40512779 C40.0488771,7.16130668 39.7688639,7.03001389 39.4845388,7.06661364 C39.100811,6.90541642 39.0572954,6.51612514 38.8911452,6.1941337 C38.4180128,5.28296643 38.3954638,5.29344425 37.259313,5.63598833 C35.4142546,6.19050676 34.9086833,5.85481356 34.0526142,3.50818507 L34,3.57266395 C34.5051757,3.11043093 35.0613833,2.7823946 35.7315224,3.17450683 C36.2430276,3.47393066 36.5654381,4.17715352 37.3657282,3.7088756 C37.8608875,3.42997567 38.4639963,3.43902204 38.9508802,3.73265219 C39.4932375,4.08904671 39.9160636,4.60539174 40.1629854,5.21284564 C40.2446768,5.47774429 40.362959,5.72945181 40.5142744,5.96039773 C40.7916745,6.19304441 41.0921011,6.39563334 41.4106943,6.5648873 L41.9574075,6.95498457 L41.9732314,6.96667136 C42.3253115,7.60299738 42.6928199,7.5614891 43.0721962,6.99205993 L43.1908749,6.86149018 L43.3554427,6.91952118 L45.5434826,6.90944635 C45.6539598,6.88454111 45.7695709,6.91172403 45.8581579,6.983434 C45.9467449,7.05514396 45.9988574,7.16373102 46,7.27899097 L45.9054526,8.66085412 Z" id="Path"></path>
            <path d="M28.2334654,33.0279096 C28.752323,33.1475798 29.1947532,33.1826774 29.3862465,32.5010225 C29.6010926,31.7360637 30.062205,31.2768347 30.9406964,31.6324623 C31.4527605,31.8396651 31.9223648,31.6227365 32.4004611,31.4963005 C33.3061267,31.257383 33.4840329,30.8823037 33.1142088,30.0162807 C32.883676,29.5812004 32.6987098,29.1236492 32.5622326,28.6508567 C32.415322,27.8960465 33.0955266,27.1484251 33.9515143,27.0084575 C34.4550864,26.9259993 35.0524945,27.4634579 34.8058036,27.8820921 C34.3896985,28.5878501 34.6359648,29.1033199 34.8397714,29.7815918 C35.3229628,31.3990421 34.7030511,32.5559947 33.1188794,33.0511671 C31.9958201,33.4021432 30.8587492,33.4385094 30.0193207,34.5755875 C29.4045042,35.4073586 28.351928,34.8326881 27.5443444,34.4064424 C27.1517456,34.267493 26.9266919,33.8569137 27.0216654,33.4528867 C27.0709748,33.2598163 27.1980373,33.0955374 27.3728955,32.9987819 C27.5477538,32.9020263 27.7549336,32.8813564 27.9455886,32.9416456 C28.0434463,32.9636933 28.1396391,32.9925181 28.2334654,33.0279096 Z" id="Path"></path>
            <path d="M8,39.922555 C7.59623357,40.5630513 6.53541395,40.2482311 6.20792372,41 C5.56413597,40.6793642 5.54465237,39.7849181 4.65089423,39.6286711 C4.21437878,39.5511292 3.94616842,39.0536978 3.886474,38.571387 C3.84501954,38.2224484 3.88398673,37.7482795 3.495973,37.6269264 C1.74203482,37.0775419 1.57953334,35.5391102 1,34.2538529 C1.48045718,33.9522148 1.48170082,33.4555588 1.58367879,33 C2.02268151,33.5924203 2.60221485,34.1352137 2.86876703,34.7892798 C3.22900628,35.6810119 3.59090371,35.7992634 4.59990525,35.5356208 C5.84353903,35.2111079 6.55489755,36.160221 6.1863674,37.391199 C6.06200403,37.801008 5.59854317,38.0576718 5.80747365,38.6318697 C6.11133483,39.473975 6.46991591,39.7604924 8,39.922555 Z" id="Path"></path>
            <path d="M41.4677363,40.9994687 C41.1902671,41.0203797 40.9264254,40.4190817 41.0187889,40.0665819 C41.1306854,39.5624362 41.5073533,39.1887482 41.9651366,39.1277205 C42.7165367,38.9817703 42.5170466,38.5422124 42.21043,38.1099094 C41.6426213,37.3084632 41.9269042,36.9324919 42.656349,36.5373166 C43.36346,36.153237 43.3252276,36.0606311 42.6942029,35.4388488 C42.5617142,35.3086885 42.3732018,35.2233375 42.2903017,35.0645845 C42.1965836,34.8997532 42.1725947,34.6965289 42.2248144,34.5098028 C42.3637383,34.2878901 42.6090316,33.990015 42.7983012,34.0002571 C43.2428901,34.020872 43.6794386,34.140683 44.0826843,34.3527569 C44.9415895,34.8260284 45.1865043,35.5818118 44.8628533,36.6179734 C44.7178729,37.0818562 44.3771877,37.5043439 44.341605,37.9665197 C44.2886096,38.6565828 44.5123262,39.3816399 43.9498171,39.9415426 C43.1995261,40.4912201 42.3529299,40.852061 41.4677363,40.9994687 L41.4677363,40.9994687 Z" id="Path"></path>
            <path d="M37.6831736,15.162465 C37.1994273,14.8704793 37.1114735,14.4142772 36.998013,13.9240852 C36.73679,12.7901322 36.6826984,12.7598279 35.5322618,13.3069428 C34.9763934,13.5710814 34.5339855,13.5886906 34.1843689,13.1251172 C33.8719528,12.7045464 33.9654427,12.1301387 34.397657,11.8146623 C35.8361424,10.5332832 37.4562526,10.7716221 38.4118714,12.4723469 C38.6610727,12.9891346 39.0704164,13.4247944 39.5873748,13.7234218 C41.2870832,14.6853776 41.3249034,14.982687 40.3789596,16.9819497 C39.7263419,16.9725308 38.9541069,17.2198792 38.9765352,16.1383444 C38.994126,15.2079214 38.9242026,15.2066929 37.6831736,15.162465 Z" id="Path"></path>
            <path d="M28.4968415,47.9653212 C28.3279124,47.8715542 28.0450071,47.7992197 28.0266895,47.6878475 C27.9859837,47.4398434 27.9729579,47.0406639 28.128454,46.9335017 C29.4770371,46.0042518 30.4311811,44.7332307 31.5233177,43.5823846 C32.1672834,42.9038178 32.7949668,42.211473 33.4507373,41.542857 C33.6488662,41.3448915 33.8832676,41.1820637 34.1427359,41.0621577 C34.2933473,40.9921195 34.6023043,40.9706871 34.6743536,41.0537378 C34.8637673,41.2496546 34.9783506,41.499326 35,41.7633051 C34.9611161,42.0317323 34.8338667,42.28199 34.6360902,42.478996 C33.1833002,44.0627011 31.7256255,45.6429618 30.2398638,47.1975801 C29.7876224,47.6652669 29.2816493,48.1325709 28.4968415,47.9653212 Z" id="Path"></path>
            <path d="M29,37.3038764 C28.5933999,39.7518546 28.2146491,42.0979426 27.8050499,44.43837 C27.720004,44.8402135 27.578447,45.2275124 27.3847394,45.5883362 C27.2552148,45.8707143 26.9602449,46.0348844 26.6563725,45.99372 C26.2870477,45.9606275 26.1422312,45.6941453 26.0462581,45.4098106 C25.991972,45.2097638 25.9853628,44.9994516 26.0269778,44.7962921 C26.4447177,42.2490362 26.8650282,39.7017804 27.3084751,37.1597496 C27.3711011,36.8569624 27.5032244,36.5734931 27.6940811,36.3324358 C27.8693176,36.1042713 28.1263882,35.8656566 28.461437,36.0899022 C28.622963,36.1978884 28.8217643,36.3315649 28.8796052,36.498334 C28.9481918,36.7616525 28.988558,37.0317368 29,37.3038764 Z" id="Path"></path>
            <path d="M20.3714216,29.0617914 C19.8203955,29.9749853 20.5679273,30.3705643 20.8981378,30.9060279 C21.0541172,31.1548199 21.0289239,31.4796561 20.8365525,31.7000915 C20.6844005,31.9623324 20.3671949,32.0700673 20.092262,31.9528802 C19.1283714,31.4647365 18.2503761,30.8375384 18.313582,29.5794063 C18.375707,29.1262048 18.1918248,28.674335 17.8338651,28.4005561 C16.9968006,27.6857937 16.7588415,26.4701446 17.2621755,25.4799961 C17.3959523,25.2257295 17.6365632,25.0487373 17.9144932,25.0001542 C18.1336882,24.9926826 18.5339925,25.258339 18.5587076,25.4451287 C18.6782317,26.3508509 18.8123417,27.0747646 19.8957564,27.387326 C20.6805635,27.6123037 20.4897302,28.4736116 20.3714216,29.0617914 Z" id="Path"></path>
            <path d="M10.1422248,27.9476864 C9.87132993,26.971299 9.95497615,26.0585695 10.6767963,25.3260548 C10.8982635,25.1349601 11.1705678,25.0213699 11.4559375,25.0010406 C11.60827,24.9913771 11.7574981,25.049355 11.8675628,25.1609648 C11.9776275,25.2725747 12.0385165,25.4276634 12.0355166,25.5887559 C11.8253396,26.6920109 12.3437763,27.180653 13.1615561,27.7656785 C14.2820757,28.5667824 14.2336713,29.7287642 13.2889361,30.6908062 C12.6579803,31.3327652 11.2860974,30.8916425 11.5145323,30.1299886 C12.0049454,28.4928137 10.5494163,28.6057841 10.092122,27.8678898 L10.1422248,27.9476864 Z" id="Path"></path>
            <path d="M30.9760513,26.2281262 C30.6793581,26.9320253 30.8881422,27.7240146 30.8264837,28.4818381 C30.7520935,29.3932748 30.1563788,30.0620459 29.4782389,29.9954269 C29.3351491,29.9847911 29.2021112,29.8928442 29.1121488,29.7424099 C29.0221863,29.5919756 28.9837345,29.3971591 29.006338,29.206319 C29.3442519,27.8917739 29.4291149,26.4830418 29.2529718,25.1121787 C29.1858191,24.7050698 29.1678099,24.3378897 29.4806808,24.1193105 C29.7418429,23.9318141 30.0601748,23.9675482 30.2947557,24.2106939 C30.8133474,24.6236588 31.0854704,25.4294615 30.9760513,26.2281262 L30.9760513,26.2281262 Z" id="Path"></path>
            <path d="M50.5571517,31.9484562 C50.0464391,32.0551943 49.5230528,31.8353515 49.2385191,31.3945786 C48.7537786,30.8092505 49.204297,30.2121285 49.17484,29.6237427 C49.1393184,28.9099919 48.1525099,28.9610989 48.0420462,28.301076 C47.8799238,27.4739596 48.1941929,26.625354 48.8542789,26.1078429 C48.9762819,26.0137381 49.1333127,25.9788597 49.2832355,26.0125668 C49.4331583,26.0462738 49.5606215,26.1451147 49.6314231,26.2825677 C50.4978046,28.0935903 51.695577,29.8692311 50.4900072,32 L50.5571517,31.9484562 Z" id="Path"></path>
            <path d="M12.1469781,16.040216 C12.7389143,15.9781996 13.5110768,15.8905676 13.6499668,16.6118458 C13.8713718,17.6182786 14.3002133,18.5568691 14.9041108,19.3567471 C15.0793768,19.612902 14.9838899,20.183633 14.8598809,20.5489907 C14.7858889,20.7673964 14.2811724,21.0581546 14.1984998,20.9898466 C13.1572378,20.1220659 11.7522163,19.4969582 12.0374369,17.6193881 C12.0740884,17.0935966 12.1106022,16.5672059 12.1469781,16.040216 Z" id="Path"></path>
            <path d="M37.6998091,24 C37.5441968,23.9253654 37.3822329,23.8582849 37.2349569,23.7736788 C37.000617,23.6410698 36.9315284,23.3968621 37.07339,23.202588 C38.0789158,21.7074784 40.4365223,21.5860083 41.9045184,22.9530002 C42.0072685,23.067704 42.0285368,23.213744 41.9612852,23.3427923 C41.8096425,23.4938746 41.5476421,23.6842382 41.3471721,23.6751732 C40.9789242,23.6502385 40.625546,23.5527673 40.3217979,23.3923473 C39.6513151,23.0373041 39.1007173,23.1098236 38.6291166,23.5808979 C38.4043869,23.808678 38.0702209,23.9593813 37.6998091,24 L37.6998091,24 Z" id="Path"></path>
            <path d="M10.8857919,16.3748522 C10.8587267,16.9170302 10.8318634,17.4587462 10.8052021,18 C10.469209,17.6002977 10.1356397,17.1964367 9.79691989,16.8022795 C8.76864172,15.6054831 8.72713491,13.663346 9.72087457,12.3662776 C9.96946256,11.9326266 10.3983539,11.8762953 10.6918915,12.2387425 C11.0284905,12.6486106 11.113322,13.3671505 10.825804,13.6559527 C9.79752583,14.6873232 10.6422045,15.4895002 10.8857919,16.3748522 Z" id="Path"></path>
            <path d="M33.9985699,38.7409761 C33.9716318,38.9503746 34.0099344,39.2117835 33.9068119,39.3601263 C33.0797272,40.5522959 32.5178147,41.9832612 31.300969,42.8285438 C30.9626273,43.0938507 30.4933357,43.0467225 30.2066076,42.7186435 C30.0905229,42.6168369 30.0170894,42.4694281 30.0026256,42.3091743 C29.9881618,42.1489205 30.0338659,41.9890971 30.1295814,41.8652201 C30.9971703,40.8287476 31.7647605,39.7004613 32.4205849,38.4976577 C32.5620101,38.2602188 32.9079967,38.1462481 33.1782198,38.0191617 C33.4484428,37.8920754 34.0326635,38.4271044 33.9985699,38.7409761 Z" id="Path"></path>
            <path d="M46.3700478,24.9842343 C46.2263014,24.9291448 45.9804912,24.914877 45.9099815,24.7947897 C45.3743411,23.8547006 44.5726337,23.6783348 43.5913406,23.8166532 C43.4160402,23.8416218 43.0907604,23.5590402 43.0229776,23.3537425 C42.9621899,23.0945101 43.0235383,22.8212627 43.1889287,22.6145915 C43.9372669,21.8694956 44.8461024,21.8667213 45.7436408,22.2614636 C46.6031265,22.6674721 47.1043108,23.593884 46.9816516,24.5498593 C46.9673141,24.6949629 46.8914422,24.8264735 46.7739052,24.9099509 C46.6563682,24.9934284 46.5088738,25.0205577 46.3700478,24.9842343 Z" id="Path"></path>
            <path d="M34.3626479,25.8482587 C34.7335332,25.175654 34.4343524,24.7636945 34.111064,24.2926963 C33.9953814,24.0488698 33.9683156,23.7418435 34.0381233,23.4652787 C34.1617517,23.0590045 34.476386,22.9890326 34.7709308,23.0012777 C35.2152941,23.0104673 35.6164951,23.3796835 35.80261,23.9507087 C36.1716409,24.9010143 35.9834166,25.7520474 35.5661707,26.5213008 C35.3563258,26.9686979 34.9447146,27.1269262 34.6037233,26.8912771 C34.2705447,26.672615 34.3113421,26.2567196 34.3626479,25.8482587 Z" id="Path"></path>
            <path d="M19.0620212,23 C18.8959047,22.9335273 18.5928083,22.8988459 18.4406924,22.7359155 C18.1541986,22.4604217 17.9954746,22.0866942 18.0000983,21.6985039 C18.0047219,21.3103136 18.1723066,20.9401288 18.4652883,20.6709262 C18.7412543,20.4585233 19.0505361,20.2889394 19.3817672,20.1684069 C19.9005502,19.9617635 20.5093919,19.8645833 20.8473009,20.3627673 C21.2578622,20.9686083 20.7716214,21.2800185 20.204025,21.4425877 C19.6122113,21.6116596 19.7628135,22.1026184 19.6947019,22.4902554 C19.6398343,22.8005819 19.4052278,22.8789763 19.0620212,23 Z" id="Path"></path>
            <path d="M40.8026101,9 C40.8733221,9.61597418 41.0773767,10.1969769 42,10.5896108 C41.915363,10.7647062 41.6930329,10.9050423 41.4026744,10.9666463 C41.1123158,11.0282503 40.7894529,11.0035853 40.5352514,10.9003797 C40.1873162,10.7439839 39.9882871,10.498291 40.000534,10.2402938 C40.2020145,9.81305614 40.4705344,9.39782924 40.8026101,9 Z" id="Path"></path>
            <path d="M5.09122203,26.0010952 C5.35256612,25.9938662 5.61340114,26.0224796 5.85886403,26.0853048 C6.27718001,26.2679391 6.66060244,26.4866515 7,26.7362335 C6.46873207,27.3017552 5.90992542,26.7972955 5.34767642,26.6963237 C5.2244136,26.6629104 5.10762062,26.6189365 5,26.5654196 L5.09122203,26.0010952 Z" id="Path"></path>
            <path d="M46,6.97664571 L44,7 C44.6638944,5.76315673 45.3306816,5.58192743 46,6.97664571 Z" id="Path"></path>
            <path d="M43,7.05461401 C42.6547876,8.27952828 42.3203744,8.36881785 42,7 L43,7.05461401 Z" id="Path"></path>
            <path d="M44,9 C44.3083876,7.6801158 44.6428055,7.6923208 45,8.88579602 L44,9 Z" id="Path"></path>
            <path d="M46,9 L46.1646929,7 C47.3133202,8.17313869 47.295021,8.39620438 46,9 Z" id="Path"></path>
            <path d="M42,7 L41,6.04022898 C41.5947902,5.85581017 41.8502171,6.32776369 42,7 Z" id="Path"></path>
            <path d="M40,7.08661474 C40.3939567,6.99501095 40.782035,7.32177287 41,7.92861474 L40,7.08661474 Z" id="Path"></path>
            <path d="M40,8 C40.5713441,8.1224233 40.9765759,8.52765504 41,9 C40.6672594,8.66903521 40.3339261,8.33570188 40,8 Z" id="Path"></path>
            <path d="M43,9 L44,8 L43,9 Z" id="Path"></path>
            <path d="M42,10 C42.3333333,9.6669098 42.6666667,9.33357646 43,9 C42.9533404,9.50078746 42.5433494,9.91077853 42,10 Z" id="Path"></path>
            <path d="M42,11 C42.0390673,10.5514013 42.4297162,10.1607254 42.9999306,10 C43.0061145,10.4600367 42.5984916,10.8676878 42,11 Z" id="Path"></path>
        </g>
        <g id="yasai21" transform="translate(21.153727, 358.995674) rotate(-96.000000) translate(-21.153727, -358.995674) translate(4.153727, 336.495674)" fill="#604838" fill-rule="nonzero">
            <path d="M20.5664489,43.6882758 C21.503839,43.4414908 22.4795285,43.6179421 23.4388936,43.3437022 C24.4503841,43.0936355 25.4191803,42.6994342 26.3144776,42.1736327 C27.9092338,41.1686007 28.6880902,41.2284461 30.1503686,42.3732201 C30.4410663,42.6008793 30.6805936,42.8905432 30.959362,43.133935 C31.5115621,43.6163997 32.0267185,43.5966569 32.489449,43.0503365 C32.7901924,42.6946576 32.9603416,42.2862284 32.5986961,41.8611412 C32.363857,41.5746553 32.1122911,41.3018073 31.8452679,41.0439743 C30.8111878,40.0815127 30.6347601,38.9037311 30.9075638,37.5997807 C31.0576216,36.8813278 31.1929247,36.1600986 31.3348204,35.4404117 C31.4035707,35.0282807 31.3662132,34.6547099 30.946491,34.4224235 C30.2991706,33.8196511 29.6160625,33.2501946 29.0142617,32.6054687 C28.4047014,31.962636 27.7040294,31.4094972 26.9338583,30.9631144 C24.1995421,29.3429707 22.1031283,27.0935252 20.3514079,24.5093775 C19.4852795,23.2313395 18.6404982,21.9455895 17.6811331,20.7258545 C15.7388385,18.312483 13.4941792,16.1497852 11.0004231,14.289084 C10.1214236,13.6153609 9.29202481,12.8759313 8.46011459,12.1442137 C8.12766443,11.8517734 7.82723496,11.5078168 8.00617414,11.0006736 L8.59322022,10.9429876 C10.014374,12.1269387 11.3959729,13.3614808 12.8651577,14.4843527 C15.9723184,16.9141465 18.6219048,19.8604245 20.6935899,23.189386 C21.7731705,24.8648739 23.0411483,26.4156962 24.4736016,27.812595 C25.0285552,28.4098437 25.6597602,28.9340827 26.3515212,29.3722764 C28.1230191,30.3736067 29.5849836,31.7111815 31.0124159,33.1172392 C32.0455542,34.1352274 32.4753222,35.2954255 32.2053438,36.7011747 C32.1359656,37.0608639 31.9827686,37.405746 31.9256336,37.7660521 C31.7561123,38.8330889 31.8986358,39.8171442 32.8084002,40.5615095 C32.8628094,40.6120168 32.9139736,40.6657961 32.9615973,40.7225368 C33.4638827,41.2543585 34.1469909,41.740525 33.900871,42.5888485 C33.5837626,43.6672538 32.7600256,44.531066 31.6854784,44.9120211 C31.3922099,45.0005583 31.0741747,44.8949783 30.8956346,44.649812 C30.3208317,44.0760368 29.7852699,43.4590742 29.1671449,42.9365069 C28.5427413,42.4080785 27.8081489,42.3102899 27.1187621,42.8510576 C26.0372789,43.6999981 24.7614739,44.081281 23.4574154,44.4243122 C22.7356076,44.6170126 21.9836047,44.6760118 21.2398253,44.5982956 C20.631746,44.5347485 20.5827731,44.1167563 20.6176192,43.6466308 L20.5664489,43.6882758 Z" id="Path"></path>
            <path d="M0.161254258,7.2498007 C0.161254258,6.17530727 0.154975751,5.10051328 0.164678898,4.02601984 C0.167369692,3.66008497 0.34493346,3.32020292 0.63699384,3.12194257 C0.749627966,3.05792259 0.883252075,3.04913399 1.00257417,3.09789796 C1.1090234,3.14809108 1.25257289,3.30227713 1.24486745,3.39845557 C1.19406862,4.03503657 1.08362398,4.6665081 1.03539363,5.3030891 C0.833054484,7.96633002 1.17808697,10.588094 1.51341631,13.2215797 C1.97488656,16.8445011 3.32961709,20.0968349 4.97772512,23.2499847 C5.69861186,24.6286424 6.43319715,25.9997862 7.1323945,27.3901657 C7.18032494,27.5902318 7.13741956,27.802396 7.01624212,27.9645313 C6.87697342,28.1448659 6.64523945,28.0613108 6.49740915,27.9086276 C6.29099449,27.7232881 6.11215841,27.5063746 5.96687533,27.2651337 C4.36642687,24.1092789 2.54223526,21.0631276 1.50599626,17.626552 C0.532184865,14.2659827 0.0781348529,10.762289 0.161254258,7.2498007 L0.161254258,7.2498007 Z" id="Path"></path>
            <path d="M21.436555,43.7902704 C20.8649269,44.0036374 20.4485984,43.745551 20.0228579,43.4246237 C18.3712972,42.231477 16.8760163,40.8615943 15.567798,39.3431769 C13.5209803,36.8700687 11.487967,34.3864383 9.4687582,31.8922858 C9.07407754,31.4032955 8.59908031,30.9321345 8.48707633,30.2908645 C8.4958369,30.1578316 8.56828619,30.0355032 8.68441666,29.9576613 C8.78606733,29.8886823 9.00474175,29.8369482 9.07909732,29.8904361 C9.31206244,30.0595326 9.51989859,30.2566954 9.69715845,30.4767568 C11.7628003,33.0239101 13.8230041,35.5747657 15.8777697,38.1293235 C17.3265559,39.8986894 19.0236408,41.4789422 20.9235957,42.8277808 C21.2752944,43.0832366 21.6809559,43.3167711 21.3844748,43.8303132 L21.436555,43.7902704 Z" id="Path"></path>
            <path d="M10.1914065,11.1743314 L9.58423647,11.2260406 C8.90993836,10.6823357 8.39156651,10.0137956 8.06923349,9.27215329 C7.23932616,7.57238747 6.3590919,5.89004238 5.56912142,4.17755666 C5.22414614,3.30336919 4.68389876,2.494255 3.97814102,1.7947875 C3.33590444,1.21409639 3.07972412,1.18920963 1.99363648,1.63302354 C1.6689466,1.76602946 1.38776516,1.79257534 1.23483623,1.51854444 C1.15845836,1.33194923 1.18369171,1.12607304 1.30367048,0.956933187 C1.93259478,0.192633084 2.80406241,0.0325282512 3.71838911,0.454220601 C4.74422205,0.939112107 5.54286968,1.70988421 5.98017881,2.63706612 C7.41076242,5.47277435 8.79101909,8.32811547 10.1914065,11.1743314 Z" id="Path"></path>
            <path d="M25.141149,37.0009111 C25.153936,37.0765704 25.1934335,37.1618884 25.1738268,37.2262793 C25.130067,37.3656856 25.0885804,37.546302 24.9911154,37.6177759 C23.1409844,38.989302 22.368652,41.0246983 22.1606508,43.4235812 C22.1512737,43.531114 22.0009559,43.6637592 21.8915564,43.7114085 C21.7988918,43.7548811 21.6945756,43.7535798 21.6027782,43.7078062 C21.5109808,43.6620327 21.4396696,43.5757595 21.4053678,43.4689767 C21.3390754,43.3355228 21.2838092,43.1954135 21.2402739,43.0504359 C21.1892552,42.9076642 21.1697476,42.752946 21.183443,42.5996996 C21.6309866,40.4780196 22.2939194,38.4838335 23.9255354,37.1329125 C24.2123581,36.9402984 24.5278397,36.8087102 24.8564261,36.7446354 C24.928033,36.7243522 25.0462414,36.91012 25.141149,37.0009111 Z" id="Path"></path>
            <path d="M30.3459859,35.3633298 C30.678483,35.5304021 30.7069969,35.7998089 30.6526965,36.097469 C30.0504329,36.1372905 29.4771792,36.332616 28.8392112,36.0798942 C28.2872809,35.8614321 27.7088203,36.1969115 27.1417652,36.2912373 C26.9743752,36.3050176 26.8103435,36.2430273 26.7043865,36.1259447 C26.6616141,36.028819 26.6647786,35.9202517 26.7131507,35.8252647 C26.7615228,35.7302777 26.8509291,35.6570661 26.9607638,35.6225032 C27.8521561,35.2047417 28.9095437,35.183277 29.8210818,35.5644394 C30.0744838,35.6643269 30.2584606,35.6142719 30.3459859,35.3633298 Z" id="Path"></path>
        </g>
    </g>
</svg>