<?xml version="1.0" encoding="UTF-8"?>
<svg width="182px" height="550px" viewBox="0 0 182 550" version="1.1" xmlns="http://www.w3.org/2000/svg" xmlns:xlink="http://www.w3.org/1999/xlink">
    <!-- Generator: Sketch 61.2 (89653) - https://sketch.com -->
    <title>Artboard</title>
    <desc>Created with Sketch.</desc>
    <g id="Artboard" stroke="none" stroke-width="1" fill="none" fill-rule="evenodd">
        <g id="yasai4" transform="translate(133.000000, 268.000000)" fill="#604838" fill-rule="nonzero">
            <path d="M20.0341858,6 C20.1431668,6.48641354 20.2605959,7.00594459 19.7161135,7.30441622 C18.7638131,7.85199782 17.6925452,8.17036343 16.5903033,8.23336259 C16.0128732,8.25861469 15.4050299,8.0971668 14.6894728,8.53887169 C15.8515138,9.76173602 17.3219119,10.2440099 18.8577829,10.5520028 C19.4548476,10.6041067 20.0550068,10.6132385 20.6534342,10.5793247 C21.3715257,10.6149261 21.6638312,11.016476 21.5480917,11.7756951 C21.5058511,12.0654733 21.3989822,12.3478002 21.3563191,12.6384064 C21.2325539,13.4808332 20.6825802,14.5480452 21.5818843,15.0725439 C22.4199394,15.5614413 23.2470118,14.7624812 23.976086,14.2541273 C24.0619664,14.2036303 24.1517983,14.1598885 24.2447367,14.1233131 L25,14.8945373 C24.4293284,15.9605074 23.4054144,16.3334934 22.301243,16.5371661 C20.8583015,16.8033482 19.8969036,16.1732874 19.7245617,14.778212 C19.6655455,13.8905343 19.6590577,13.0002511 19.7051309,12.1118379 C17.3721783,11.7218791 15.0818887,11.0769154 13.2845478,9.34735308 C12.9567601,9.03190873 12.5626546,9.14864798 12.1651698,9.26455929 C8.58849624,10.3439109 5.45444659,12.5094487 3.21563724,15.4484277 C2.64528785,16.2602928 2.23972173,17.1721567 2.02107085,18.1342584 C1.71524834,19.1691808 1.50657939,20.233909 1.25566976,21.2853902 C0.355154973,23.3663997 0.347542448,25.7151018 1.23454942,27.8016757 C1.30917462,28.1281593 1.38408142,28.4547808 1.45926983,28.7815403 C1.27162187,29.2916915 1.45426258,29.8618592 1.9057538,30.1753738 C2.04726008,30.5947244 1.90955546,30.9432863 1.47827813,31 C1.20482192,30.9698727 0.959948789,30.8201314 0.812142634,30.5926545 C0.703843734,30.3385863 0.643861194,30.0672523 0.63515419,29.7920385 C0.82143286,29.272467 0.622010621,28.6953762 0.151920828,28.3936514 C0.0250165609,28.2825051 -0.0110464634,28.1022407 0.0636378094,27.9523605 C0.224249862,25.8469233 0.210123203,23.7321803 0.0213971308,21.6289845 C-0.140807075,19.8066931 0.661765818,18.1561988 0.994199958,16.4200129 C1.10535292,15.9381084 1.33309311,15.4894549 1.65822343,15.111871 C3.84079929,12.5038665 6.20669969,10.1396897 9.48964523,8.79677435 C10.9604657,8.19527744 12.5846198,7.93116524 13.9029513,6.96123595 C14.1419861,6.78270823 14.4447478,6.70696102 14.7418512,6.75135368 C16.6355008,7.31021179 18.2790856,6.29267606 20.0341858,6 Z" id="Path"></path>
            <path d="M37.759083,12.6786048 C37.7677202,12.2957824 37.8845282,11.8082917 37.4325142,11.6529375 C35.7429117,11.0723167 34.2038434,10.3268638 33.1846527,8.74282797 C32.7585974,8.18378123 32.0821998,7.8746172 31.3815326,7.91866781 C30.7970815,7.90136045 30.2105739,7.9561671 29.626534,7.93391478 C28.7895474,7.90218461 28.331364,7.41881468 28.4749062,6.62102764 C28.7151029,5.2772345 29.0363248,3.94827624 29.3250543,2.61313678 C29.4348703,2.10339372 29.3994988,1.64598484 28.8890809,1.35340798 C28.4037521,0.685838249 27.673291,0.819352195 27,0.769490505 C27.0524269,0.372094431 27.3713321,0.0633395848 27.7695342,0.0244497207 C28.4524479,-0.052789902 29.1435685,0.0537500695 29.7717214,0.333097701 C30.5558267,0.587296581 30.9978334,1.41832328 30.7711698,2.21218287 C30.565522,3.36229837 30.2977685,4.50087563 30.0818383,5.52489463 C30.3973021,6.32639038 31.0689479,6.38243328 31.5863578,6.49081034 C32.9436189,6.71996187 34.1447311,7.50406952 34.9022234,8.655467 C35.5718127,9.64116255 36.7300213,10.0614842 37.933061,10.2535135 C38.6322637,10.3651872 39.3635473,10.7002084 39.4170158,11.4559632 C39.4885812,12.4717406 40.1655738,13.0107414 40.7463233,13.6338064 C44.031753,17.1583274 45.4297469,21.4505535 45.9455117,26.135904 C46.1292859,27.991722 45.8464949,29.8641105 45.1229204,31.5823664 C45.031622,31.8709691 44.7395483,32.0457691 44.4426373,31.9895015 C44.1447942,31.9446346 43.9362055,31.6710921 43.9712925,31.3713814 C43.9846192,31.0803192 44.0299999,30.7916229 44.1066088,30.5105461 C45.3330924,25.2083117 44.0103656,20.4698029 40.9396323,16.1174131 C40.4353838,15.4020421 39.9224981,14.6928522 39.4133141,13.98119 C39.3342688,13.6133325 39.0613327,13.3179172 38.7013613,13.2106002 C38.3761883,13.0537328 38.0614433,12.8760327 37.759083,12.6786048 Z" id="Path"></path>
            <path d="M28.4818998,43.9684567 C25.1886167,43.9581979 21.9168449,43.4128403 18.7836137,42.3518911 C17.6464421,41.9469761 16.4370088,41.7688312 15.2643402,41.4677972 C13.4992648,41.0317147 11.8164937,40.2894128 10.2858867,39.2717081 C10.0203012,39.0916219 9.92476637,38.7326522 10.0631853,38.4349132 C10.1899603,38.1466986 10.3733615,37.8898694 10.7393186,38.0485642 C11.2948747,38.2908059 11.8467685,38.5412992 12.3949998,38.800044 C13.7491423,39.4966886 15.1881967,39.9958395 16.6719651,40.2835535 C17.4715799,40.3938339 18.2582124,40.5899584 19.0194152,40.8688236 C21.5012467,41.8470735 24.0967532,42.1397085 26.7036694,42.4137776 C29.2328302,42.6790058 31.7349458,42.6993399 34.1529673,41.7197639 C34.5995453,41.4712952 35.1127297,41.3861818 35.6108795,41.4779643 C35.787333,41.546076 35.925439,41.6931372 35.9874012,41.8789008 C36.0265438,42.0757592 35.9732951,42.2803257 35.8441455,42.4292493 C34.38243,43.4561243 32.6891388,43.7412445 30.9966928,43.9490066 C30.159614,44.0097327 29.3197455,44.0162284 28.4818998,43.9684567 Z" id="Path"></path>
            <path d="M38.3110807,12.0918132 C38.6202997,12.3112322 38.942191,12.5086012 39.2747409,12.6826854 C39.6414402,12.8017871 39.9194773,13.1296426 40,13.5378951 C39.2412223,13.2634963 38.5281137,13.0567825 37.7479679,13.6238735 C37.1626725,14.027571 36.5158976,14.3136465 35.8382447,14.4685646 C34.1371749,14.8865655 33.3574481,15.3864287 32.4863831,16.8261081 C31.6911539,18.1299599 30.6193961,18.3558816 29.4286472,17.4627134 C28.4713426,16.683208 27.6532083,15.7185764 27.0148879,14.61674 C26.7474187,14.1537214 26.2249162,13.9498312 25.7491411,14.122822 L25,13.2712709 C25.121778,12.9807451 25.2874972,12.7146709 25.4902098,12.4842036 C26.3700735,11.7904318 26.9604201,11.8325063 27.5101254,12.6730814 C28.318762,13.9106203 29.0373174,15.2222468 30.2016703,16.1273056 C30.4035885,16.2809518 30.6586047,16.3259097 30.8945697,16.2494597 C31.1305348,16.1730098 31.3217829,15.9834674 31.4142063,15.734458 C31.4854334,15.5341468 31.5357113,15.3228597 31.6119661,15.1271218 C31.9442194,14.2696254 31.2181224,12.931931 32.2743778,12.52765 C32.9183542,12.2811484 33.7890003,12.8390927 34.5657943,12.8898565 C35.8563018,12.9794576 37.1461917,12.7046087 38.3110807,12.0918132 Z" id="Path"></path>
            <path d="M27.0450657,1 C27.742283,1.05067129 28.498702,0.91760766 29,1.58292581 C27.8709083,1.49188227 27.087231,1.83463441 26.85085,3.03055923 C26.6804854,3.89155919 26.4151424,4.7369046 26.1659842,5.58183805 C25.7826637,6.88363703 25.3874177,7.12545855 23.9831872,6.94913894 C23.1892879,6.84944421 22.3872964,6.7785868 21.6070263,6.615038 C20.6065599,6.40576146 21.1035988,5.7857591 21.2803521,5.26998305 C22.2977632,5.07816727 23.3492605,5.14560199 24.3315829,5.46566485 C25.0394479,4.61166824 25.1267598,3.53438839 25.4346939,2.54073677 C25.6791672,1.75018226 26.1229671,1.1355354 27.0450657,1 Z" id="Path"></path>
            <path d="M9,36.694351 C8.8174893,36.7949745 8.64100052,36.965993 8.45107821,36.9792438 C8.13422398,37.0284913 7.80809495,36.9896103 7.51675311,36.867854 C5.36992814,35.4812706 3.52455984,33.7557301 2.07154162,31.7762238 C1.99171874,31.6460229 1.97800555,31.491519 2.03386204,31.351695 C2.08971853,31.211871 2.2098102,31.1000806 2.36383668,31.0445297 C2.5684854,30.9923115 2.78436412,30.985912 2.99243319,31.0258958 C3.10271512,31.0416852 3.20394939,31.0899205 3.280096,31.162959 C5.09130629,32.873972 6.72834393,34.7410963 8.89114209,36.1390585 C9.0111174,36.2181494 8.96664779,36.5034563 9,36.694351 Z" id="Path"></path>
            <path d="M45,34.6392681 C44.9306079,34.8993555 44.8422722,35.1552662 44.7355374,35.4054226 C43.8835867,37.1151954 42.4515844,38.4349556 40.9266251,39.6820984 C40.6773632,39.8717043 40.363545,39.9834635 40.0342381,39.9999016 C39.7230691,40.0035851 39.4218457,39.9037437 39.1911183,39.720447 C38.9717398,39.5250327 38.9015573,39.1146219 39.1953013,38.9522527 C41.3035657,37.7891502 42.5654567,36.0149193 43.7794748,34.1954044 C43.9626001,33.9212533 44.3697517,33.9726566 44.647693,34.1236029 C44.8029312,34.2076433 44.8624237,34.4275354 45,34.6392681 Z" id="Path"></path>
            <path d="M1.9689707,28 C0.666331206,25.7584971 0.677514928,23.2355255 2,21 C1.98924317,23.3324438 1.97890007,25.6657771 1.9689707,28 Z" id="Path"></path>
            <path d="M0.749423373,21 C1.0585615,23.3282454 1.08170133,25.6692735 0.818614685,28 C-0.24878027,25.7225058 -0.272858361,23.2865549 0.749423373,21 L0.749423373,21 Z" id="Path"></path>
            <path d="M37.9975,40.4563992 C38.0127596,40.6181036 37.9522702,40.7774497 37.8357102,40.882599 C37.7191502,40.9877483 37.5614163,41.0252623 37.4138227,40.9829371 C37.1816342,40.9760995 36.9975199,40.7725435 37.0001878,40.5256238 C36.9914158,40.0783535 37.2913517,39.992271 37.6000596,40.0005206 C37.7123479,39.9959803 37.8209052,40.0437799 37.89729,40.131396 C37.9736747,40.2190121 38.0102744,40.3377129 37.9975,40.4563992 L37.9975,40.4563992 Z" id="Path"></path>
            <path d="M1.0632396,28 C1.86038705,28.4315327 2.19855421,29.2568988 1.88267505,30 C1.17190296,29.5162228 0.854367415,28.7412123 1.0632396,28 L1.0632396,28 Z" id="Path"></path>
            <path d="M2.90275021,30 C2.11825037,29.5501405 1.80089845,28.7320116 2.12695084,28 C2.86654765,28.4755623 3.17380478,29.2676669 2.90275021,30 L2.90275021,30 Z" id="Path"></path>
        </g>
        <g id="yasai15" transform="translate(52.500000, 56.000000) rotate(-40.000000) translate(-52.500000, -56.000000) translate(28.000000, 25.000000)" fill="#604838" fill-rule="nonzero">
            <path d="M40.0646851,1 C42.4893178,2.26125885 42.6671242,2.62743077 41.873057,4.77767368 C41.7068686,5.22826858 41.4563232,5.647332 41.2921554,6.09996119 C40.7142846,7.69077477 40.6915536,7.85606071 42.1281485,8.69825613 C43.3158741,9.3030315 44.2142808,10.3606305 44.6234997,11.6357687 C45.2532261,13.7298349 46.5713348,15.5461492 48.3614752,16.7865871 C49.5505555,17.6684511 48.9706641,20.1635059 47.5133588,20.5535807 C46.5631459,20.7271375 45.5998088,20.8176613 44.6341075,20.8241411 C43.980972,21.3988276 44.3815416,22.1372743 44.4502395,22.8167267 C44.8386859,26.8181721 44.8038318,30.7748632 43.3546086,34.6013598 C42.4044556,35.4862752 42.6565164,36.6015739 42.7716865,37.6904268 C42.8565036,37.8841614 42.7952254,38.1112262 42.6246931,38.2351075 L41.9912578,38.9669428 L41.9473113,38.9898286 L41.229519,39 L41.2163856,38.9918628 C41.1827101,38.6701062 41.1490347,38.3480105 41.1153592,38.0255758 C41.0653284,37.8236626 41.1512191,37.6124148 41.3275146,37.5037808 C41.9776192,37.063866 42.0119682,36.4484937 41.8144617,35.7675156 C41.7969303,35.0446191 41.8609872,34.3220561 42.0054015,33.6137127 C42.9484826,30.6762002 42.8232099,27.6700304 42.8757436,24.6425006 C42.9323184,21.4069648 42.2059388,18.7522183 38.9134896,17.0551132 C38.03355,17.6196282 37.4486074,18.7115325 36.5843268,19.4860879 C36.1488119,19.9017566 35.691878,20.2940688 35.2154196,20.661398 C33.1994385,22.1128629 31.542101,21.4522277 31.0349487,18.9358128 C30.8833621,17.8613473 30.7872578,16.7796856 30.7470235,15.6951913 C30.6773154,14.9623389 30.2363353,14.74111 29.4968223,14.9323331 C28.6612898,15.0949542 27.9713358,15.6861812 27.6783478,16.4905981 C26.7302153,18.8808871 24.9001228,20.7015752 23.4998974,22.7999438 C23.1972027,23.1603597 22.8155918,23.445166 22.3850714,23.6319678 C22.1670717,23.6857651 21.9367207,23.6287823 21.7683055,23.4793961 C21.6208504,23.3119851 21.565244,23.0819511 21.6197967,22.865041 C22.5361059,21.4562963 23.5125257,20.0872201 24.4268142,18.6774582 C24.9981183,17.7971199 25.9422097,17.1008846 25.8916965,15.8635287 C24.2838619,15.2105221 22.2042343,15.9540545 21,14.173035 L21.9865224,13.3455881 C25.1269269,14.2422008 28.131451,14.1852407 30.944025,12.2328323 C31.6870739,11.7166316 32.3114168,12.1346779 32.3649608,13.1055421 C32.4508332,14.6724528 32.4437613,16.2449578 32.5165003,17.8128856 C32.5437774,18.3962178 32.5165003,19.0883845 33.1575126,19.3894592 C33.9707748,19.7698711 34.5284403,19.1743332 35.0113464,18.6693211 C35.8407728,17.8047485 36.6176655,16.8806729 37.3809197,15.9530374 C38.5826283,14.4929268 39.1700966,14.4537668 40.5248601,15.8299629 C40.9466452,16.2581807 41.3285249,16.7265756 41.7503099,17.1553019 C42.9944496,18.4170693 44.5856148,18.9098757 46.2828577,19.0980474 C46.7879895,19.1529731 47.1885591,18.8534242 47.4284967,18.199909 C45.9636144,17.071896 44.429024,15.8604773 43.7839706,13.993509 C43.087899,11.9790549 42.1574462,10.273304 40.0525619,9.43721142 C39.1231193,9.06798806 38.9862286,8.18408972 39.1695915,7.29408852 C39.3160883,6.70946811 39.5017277,6.13550361 39.7252365,5.57613191 C40.7415617,2.68439085 40.7430771,2.68591657 37.5870135,1.952047 C37.3546529,1.89813836 37.1288589,1.81574968 36.9000342,1.74861816 C37.7830046,0.75486824 39.0094647,1.25276034 40.0646851,1 Z" id="Path"></path>
            <path d="M1.8703243,47.8608488 C3.06467073,52.0008878 5.76790713,55.0174709 9.17222847,57.4756349 C13.9342955,60.9142139 19.1160943,61.0389292 24.415847,59.0536653 C28.620314,57.4797073 31.7958764,54.4417444 34.7304249,51.1696221 C37.050333,48.6747233 38.8800624,45.768029 40.1246428,42.6004084 C40.3288918,42.0552243 40.385571,41.3787075 40.9927013,41.0732822 C41.2129638,40.9960134 41.4500709,40.9794813 41.6789782,41.0254323 C41.7565928,41.033577 41.832165,41.2046151 41.8806741,41.3140591 C42.0768404,41.8926857 42.0296858,42.5258335 41.7499547,43.0692361 C40.4060128,46.592125 38.3686441,49.8113627 35.7577977,52.5374181 C33.0264771,55.4603375 30.1235872,58.1506247 26.4435296,59.9989563 C19.9387074,63.2680243 11.3428854,62.876062 5.11226763,56.2386628 C3.71009778,54.7446244 2.23235578,53.2724748 1.35510603,51.3574586 C1.06556935,50.8221419 0.94877066,50.2108025 1.02064818,49.606863 C1.67833018,49.206247 1.73807303,48.5154769 1.8703243,47.8608488 Z" id="Path"></path>
            <path d="M40,0.675842529 C38.9148294,0.933095444 37.6505327,0.427850719 36.7418845,1.42907906 C36.100884,1.76968192 36.1243162,2.40200959 36.0175696,2.99111876 C35.7801234,4.30516665 35.557778,5.6243596 35.2364966,6.91937077 C35.1646619,7.2199528 34.9738355,7.47951769 34.7067409,7.63995222 C34.4396464,7.80038675 34.1185945,7.8482896 33.8154647,7.77293594 C32.9713852,7.63299036 32.1538622,7.29650355 31.3082206,7.21058107 C30.2013064,7.01178001 29.0672318,7.37441347 28.288072,8.17630851 C26.8833573,9.71986229 25.0709426,10.8459063 23.0543627,11.4279854 C22.2212183,11.6898688 21.4948205,12.1750478 21.3630795,13.162899 L20.3461226,14 C19.4702795,12.9118202 20.5674266,11.7742478 20.2841575,10.6608572 C20.2638496,10.5816233 20.6403267,10.3356895 20.8621514,10.2760068 C23.4136563,9.58965603 25.7199042,8.6167255 27.4991883,6.48512785 C28.3375399,5.48029797 29.8304306,5.15461578 31.2629184,5.33572183 C31.984109,5.42678936 32.7016547,5.54666922 33.3546316,5.64442533 C34.061763,4.87266658 34.0440587,3.97485391 34.2705698,3.16039118 C34.462193,2.46940985 34.1679889,1.49184877 34.8855345,1.13581074 C35.8431299,0.661436366 36.7163695,-0.15456988 37.9483818,0.0255071601 C38.6747796,0.133038878 39.4522075,0.0311667242 40,0.675842529 Z" id="Path"></path>
            <path d="M21,24.5878818 C20.9133729,24.8298376 20.8906848,25.2585482 20.6648355,25.4489143 C20.1896354,25.8235322 19.6683691,26.1356172 19.1137972,26.3775293 C16.9011958,27.4093237 14.694782,28.4540155 12.4507267,29.4125525 C8.43751835,31.1284267 4.89250906,33.3963108 2.61699983,37.2810168 C2.39813875,37.557009 2.1266394,37.7867334 1.81827701,37.9568421 C1.70738164,38.014386 1.5754449,38.014386 1.46454953,37.9568421 C1.28149815,37.8314791 0.986553372,37.6375018 1.00047559,37.4992413 C1.02578456,37.021461 1.14456311,36.5532941 1.35007796,36.1212799 C2.82358539,33.5644359 4.95742862,31.4512583 7.52793342,30.0032549 C11.5267039,27.6342549 15.9183903,26.0746976 20.0904151,24.0596031 C20.4750808,23.8738801 20.7519783,24.1421466 21,24.5878818 Z" id="Path"></path>
            <path d="M2,47.2603955 C1.85515472,47.9126204 1.79140043,48.6008546 1.07052954,49 C-0.585963547,45.9371803 0.11868915,42.714601 0.331762703,39.5325955 C0.37104006,39.3566111 0.487187166,39.2025363 0.653748326,39.1054657 C0.820309485,39.0083952 1.02310191,38.9765946 1.21593406,39.0173074 C1.60388753,39.0850898 1.87247647,39.4079635 1.83781803,39.7648809 C1.9082833,42.2632167 1.94966766,44.7620597 2,47.2603955 Z" id="Path"></path>
            <path d="M42.1549778,38 C42.0042411,36.942542 41.6743393,35.8594007 42.9179171,35 C43.0878264,36.0599276 43.0640259,37.0926902 42.1549778,38 Z" id="Path"></path>
            <path d="M41.8291803,36 C42.1474543,36.7844171 42.0921023,37.493263 41.0444844,38 C40.8820044,37.2826144 41.1693356,36.550277 41.8291803,36 L41.8291803,36 Z" id="Path"></path>
            <path d="M40.8293792,38 C40.8862528,38.3329825 40.9431264,38.6663158 41,39 C39.4217577,38.7636842 39.9839532,38.3905263 40.8293792,38 Z" id="Path"></path>
            <path d="M42,39 L42.9884504,38 C43.066486,38.6469771 42.7504026,38.990271 42,39 Z" id="Path"></path>
            <path d="M41,39.1331403 L42,39.1131403 C41.6748768,40.0641403 41.3434201,40.2151403 41,39.1331403 Z" id="Path"></path>
        </g>
        <g id="yasai02" transform="translate(91.000000, 148.000000)" fill="#604838" fill-rule="nonzero">
            <path d="M50.6141841,31.8212642 C51.2796358,31.5843679 51.9823486,31.466394 52.6895317,31.4728475 C53.7621211,31.4353516 53.8259911,31.237761 53.7966109,29.9595308 C53.7871013,29.2850337 53.8185251,28.6105799 53.8907127,27.9398092 C53.9011314,27.6524564 54.0074383,27.3766078 54.1930304,27.1553449 C54.6256429,26.7622702 55.3793084,26.5886937 55.3776052,25.9070271 C55.3776052,25.1908138 54.8832517,24.6056254 54.4072077,24.0840535 C53.6245878,23.2271253 52.7891689,23.115059 51.7046571,23.7078309 C50.7866329,24.2079163 50.4042648,23.8969954 50.454935,22.9111488 C50.4796314,22.4249663 50.8172905,21.865056 50.3838264,21.4892547 C49.576936,20.7903147 49.6369738,20.2253487 50.3561494,19.5023946 C50.6580414,19.1986358 50.4068196,18.7550049 50.0619219,18.4862142 C49.7549203,18.2469147 49.5300981,18.444084 49.3031468,18.6420959 C49.1654365,18.7889797 49.0023574,18.9103894 48.8215674,19.0006239 C48.3276397,19.1796773 47.7038432,18.6934948 47.8520215,18.2157383 C48.0845081,17.4649782 48.2267252,16.5663411 48.737259,16.0506675 C49.4147063,15.3668944 49.7676943,14.9009344 49.0408542,14.0878216 C48.7806744,13.7570995 48.7865076,13.2922299 49.0549056,12.968001 C49.277173,12.6389641 49.6058904,12.3823912 49.8583896,12.0702065 C50.2440563,11.5783326 50.2780738,10.9004575 49.9435495,10.3732021 C49.6029098,9.71133673 49.0523508,9.73492964 48.4225931,9.99108124 C48.1338116,10.1238559 47.7906173,10.0067567 47.6459344,9.72608229 C47.4448938,9.36118776 47.5541374,8.90503126 47.8992852,8.66819304 C49.0297834,7.73543047 49.9005438,7.77461156 50.7670461,8.81480613 C51.4981442,9.69195683 51.9861107,10.6432567 51.791946,11.8456525 C51.6642061,12.6284316 50.6422868,13.1070306 50.9999586,14.0035612 C51.3513123,14.7359655 51.3682124,15.5823201 51.0463707,16.3278842 C50.9044044,16.7126682 51.0199888,17.1442225 51.3359145,17.4089451 C51.6663351,17.7999133 52.017194,18.2296413 51.9554531,18.7423658 C51.7297792,20.6091548 52.4038201,21.637553 54.3501505,22.1599674 C55.7714699,22.541667 56.4455108,23.9644038 56.8751427,25.3492233 C57.0896699,25.9278456 57.0253785,26.5717258 56.7005648,27.0976265 C56.0477835,28.1061578 55.6983759,29.2775914 55.6931227,30.4752044 C55.6505428,31.5137138 55.2119691,32.2682656 54.3403571,32.6411179 C53.3686822,33.0561003 52.8015171,33.5431254 53.1809046,34.6401957 C53.5338925,35.6601678 52.569882,36.5739718 52.8764578,37.5189521 C53.2243361,38.5907443 52.8836964,39.4426169 52.5098443,40.395602 C52.3097184,40.9057987 52.5281537,41.5680854 52.5179345,42.1612785 C52.4915349,43.7099846 52.0806382,44.2429316 50.4242774,44.542056 C49.6646508,44.6789791 49.1353817,44.819694 48.8637215,45.6500802 C48.3842711,47.1166323 47.1290136,47.5118136 45.725152,47.529087 C44.5435579,47.5434112 43.4339239,47.3298111 42.2335946,47.9988387 C40.9072286,48.7394875 39.7311698,47.8930919 38.8369905,46.7846464 C38.6984014,46.5665516 38.4580365,46.4322741 38.1977094,46.4275183 C37.9373823,46.4227625 37.6921715,46.5481692 37.54554,46.7610535 C35.7667239,48.6884544 33.8083335,50.4457461 31.6963297,52.0096335 C30.8955756,52.6352463 30.3358828,53.5136521 30.1106517,54.4982642 C29.6754844,56.1463975 29.2249884,57.7911604 28.7455379,59.4274973 C28.5915408,59.9010786 28.3841477,60.3560004 28.1272768,60.7836683 C28.0022625,60.925346 27.8199657,61.0045673 27.6299427,61 C27.3125274,61.0018155 27.045656,60.7645881 27.0138106,60.4521037 C26.977884,60.0580016 27.0121851,59.6607187 27.1151509,59.2783564 C27.6290911,57.4452715 28.2648101,55.6404139 28.6757068,53.7862639 C28.8357606,52.9000058 29.29243,52.0927677 29.9722668,51.4943811 C32.2532757,49.5096276 34.6952369,47.7026634 36.6999019,45.4107807 C37.0770846,45.0768131 37.5233246,44.8282298 38.0075327,44.6823496 C38.4875988,44.4703347 39.0502987,44.5762074 39.4182071,44.9477698 C39.847839,45.3661227 40.1765563,45.8851667 40.6006528,46.3106817 C40.9514801,46.7029055 41.5493988,46.7592487 41.9687472,46.4396001 C42.1454345,46.3411914 42.3113825,46.2249983 42.4639522,46.0928686 C42.9907197,45.4386353 43.9296364,45.2793317 44.6466014,45.7225441 C45.0111539,45.8902845 45.4091508,45.9748024 45.8111636,45.9698484 C46.6542853,46.0418794 47.4000922,45.4318132 47.4871112,44.5989318 C47.6148511,43.3708365 48.2603634,43.0906707 49.3031468,43.1138423 C49.6072473,43.1271672 49.9119323,43.110372 50.212655,43.0637074 C50.4582309,43.0065223 50.6685038,42.8504443 50.7926959,42.6331639 C50.9168879,42.4158835 50.9437094,42.1571527 50.8666833,41.9194512 C50.8092233,41.6238812 50.6890587,41.3437304 50.5141211,41.0974911 C49.7289465,40.2763735 49.9248144,39.7430052 50.9007472,39.2766239 C51.4542868,39.011625 51.5011248,38.4955301 51.1592077,38.0156671 C50.7265952,37.408571 50.3122921,36.7323813 50.9859072,36.1484568 C52.0738254,35.2064256 51.7651206,34.3692986 50.8739219,33.6572982 C50.0789538,33.0219749 50.5332821,32.4174065 50.680183,31.7723932 L50.6141841,31.8212642 Z" id="Path"></path>
            <path d="M10.2855794,28.3469088 C10.4984821,28.8075381 10.3467177,29.3537688 9.92624454,29.6402278 C9.53787543,29.9600757 8.99810695,30.0263204 8.54324756,29.8099602 C7.66371781,29.3775978 6.71192716,29.1094109 5.73512757,29.0187139 C4.96127272,28.9281899 4.58382365,29.1490516 4.65965047,29.904256 C4.75822534,30.8870276 4.33148884,31.3358755 3.37986222,31.4813006 C1.69482172,31.7377851 1.69861306,31.7629306 1.91893211,33.6446553 C1.81530212,34.1370888 1.81403834,34.6739461 1.32621911,35 C0.724792106,34.6365921 0.295947695,34.0473971 0.136580524,33.3655398 C-0.229073264,31.8987165 0.112989957,30.7034651 1.48461292,30.1121258 C2.45614206,29.6900623 3.21048234,28.8891388 3.57069305,27.8972227 C3.83121267,27.4605293 4.30682461,27.1960433 4.81720176,27.2040439 C4.89622289,27.260242 4.98197888,27.3064189 5.07248539,27.3415062 C5.48489906,27.4458602 5.89562768,27.975593 6.28571455,27.3834155 C6.03650972,27.1213296 5.75497935,26.8916599 5.44782817,26.6998758 C5.26759547,26.6339031 5.07607569,26.6038563 4.88418212,26.6114473 C4.08968553,25.9036004 4.10274459,24.9937508 4.43848891,24.1388024 C4.71117648,23.6177012 4.69735332,22.9941181 4.40183928,22.4854831 C3.87917587,21.5863737 4.00661151,20.4533424 4.71609933,19.6913943 C5.43645414,18.8611724 5.49248174,17.9395883 5.53966287,16.9325093 C5.56777501,16.3535273 5.38028967,15.7845649 5.01308772,15.3345102 C3.54541745,13.2289902 3.99237444,10.6725268 6.10836404,9.40058146 C6.73267154,9.02339833 7.16488443,8.79247844 7.38141213,8.02302487 C7.73484938,6.7657478 8.27027099,5.55415179 10.0307171,5.77333709 C10.5560284,5.8387155 10.7889853,5.23186976 11.0931351,4.83540839 C11.8750023,3.77391868 13.0875206,3.10936901 14.4071885,3.01906211 C15.3465986,2.93901547 16.2274535,3.08653598 16.7978397,3.93603619 C17.2667022,4.63466315 17.7591553,5.21426789 18.7326874,5.00304534 C19.5415069,4.82786473 19.7934204,5.86511832 20.4762831,5.86469923 C21.0816339,5.86469923 21.285945,5.01226537 21.9755479,5.00681717 C22.4751888,4.98064344 22.9731876,4.92944931 23.4676512,4.85342936 C23.4957352,5.30437274 23.522415,5.75545582 23.5476906,6.20667859 C22.4001781,6.79676063 22.294863,6.90027644 22.8854697,7.49454941 C23.8404664,8.45594728 23.5957143,9.7383699 23.9954902,10.8380682 C24.0439351,10.9717587 23.6913403,11.3669628 23.4533284,11.4591631 C23.0838073,11.6491523 22.6305687,11.5487352 22.3770088,11.2206996 C22.0328392,10.7710135 22.1735401,10.2769036 22.1853354,9.78656552 C22.2030283,9.04938206 21.8062013,8.62735605 21.0837402,8.73129096 C19.9353851,8.89599426 19.0920223,8.67303712 18.7979827,7.41324549 C18.73353,7.13538726 18.6547543,6.8093334 18.2924706,6.75862323 C17.1024108,6.59098628 16.4119654,5.71089233 15.6035672,4.96951795 C15.0039589,4.38464097 14.0510327,4.36300751 13.4252311,4.92006505 C12.7846191,5.40012492 12.2919554,6.04908071 12.003057,6.79340789 C11.5817968,7.94088277 10.8492255,8.02302487 9.85968544,7.62237258 C9.63280293,7.59113687 9.4021972,7.599219 9.17808656,7.64626084 C8.99062581,8.49031285 8.7762044,9.35615767 8.61233422,10.2316416 C8.50744044,10.7911299 8.28964896,11.1762758 7.64933357,11.0643781 C7.03260875,10.9562523 6.3855532,10.8573465 6.10710026,11.5605835 C5.77683232,12.3987682 5.45835967,13.4636819 6.28824211,14.0499921 C7.27946718,14.7502954 7.5983611,15.4677815 7.26388056,16.5750235 C7.05030168,17.2807751 7.43449091,17.6898092 8.03647163,17.9848502 C8.31457749,18.0937869 8.56316301,18.2660258 8.76230282,18.4877611 C9.13078932,18.9855015 9.11870992,19.6670503 8.73281461,20.1515577 C8.6056845,20.3727567 8.38158051,20.5217813 8.12752249,20.5540649 C7.87346447,20.5863485 7.61890331,20.4981486 7.43996729,20.3158419 C6.96941973,19.9478788 6.49929343,19.9034551 6.13827351,20.3577512 C5.77725358,20.8120473 5.4221313,21.3413609 5.92427337,21.9649704 C6.49550209,22.6740746 7.23017975,23.5772187 6.73393532,24.3709796 C6.09024985,25.4036232 6.28192321,25.679805 7.33507352,25.8445083 C8.05121573,25.9568251 8.16495596,26.6244392 8.47247585,27.1185491 C8.90342496,27.8071178 9.39629931,28.4370137 10.3344456,28.4210882 L10.2855794,28.3469088 Z" id="Path"></path>
            <path d="M18.0970443,56.1604349 C17.9438717,57.5645371 17.7689963,59.1054955 17.6095633,60.6480879 C17.5194127,61.5227411 17.7765088,61.9500588 18.5649091,62.1825098 C19.0389427,62.3244644 19.5239889,62.4284366 20.0152484,62.4933978 C21.3975548,62.6015188 22.767307,62.829693 24.1083353,63.1752269 C24.7731594,63.3832467 25.4873904,63.3852441 26.153418,63.1809463 C26.3343127,63.0948794 26.5476246,63.1054209 26.7187435,63.2088835 C26.8898624,63.3123462 26.9949794,63.4943346 26.9973277,63.6911947 C27.0259573,64.084494 26.8227544,64.459295 26.4739534,64.6565405 C25.8625154,65.1010163 25.1525796,65.0287073 24.4706071,64.9090093 C22.4280286,64.5503239 20.3850327,64.1879617 18.3541404,63.7720827 C16.738525,63.441177 15.9396907,62.464801 16.0035473,60.8981055 C16.049474,59.735778 16.1584202,58.5766573 16.3299259,57.4256385 C16.6365771,55.7035369 16.749383,53.9537141 16.6663211,52.2075417 C16.6308452,51.7271157 16.6346014,51.2270804 17.2088941,51.0228177 C17.6262579,50.8745229 18.1074784,51.468519 18.1659093,52.2398152 C18.2076457,52.819513 18.212654,53.4037045 18.2009678,53.9854449 C18.1880296,54.6648228 18.1375285,55.3425667 18.0970443,56.1604349 Z" id="Path"></path>
            <path d="M26.6997249,17.1763498 C26.5878578,17.1595281 26.2141653,17.0826287 25.8368643,17.0497863 C24.7943746,16.9584683 23.9651944,17.2296187 23.6143565,18.3542719 C23.5708898,18.5945432 23.4070273,18.7957223 23.1803605,18.8871025 C22.9536936,18.9784828 22.6959398,18.9472773 22.4976897,18.8044536 C22.2553013,18.6489974 22.0849282,18.4034586 22.0242756,18.1221771 C21.9636231,17.8408957 22.0176925,17.5470666 22.1745179,17.305717 C23.0718609,16.1077691 24.1748952,15.2666823 25.7831359,15.4124706 C25.9745703,15.4103856 26.1643527,15.4480277 26.340467,15.5230135 C27.105494,15.968389 27.7438184,15.7753395 28.4547162,15.3179485 C28.8028204,15.0442691 29.2550132,14.9400031 29.6879857,15.0335831 C30.1209582,15.127163 30.4895547,15.4088291 30.6932622,15.8017737 C31.1952611,16.6428605 31.8303779,16.8927834 32.7710243,16.9796957 C33.44211,17.0246784 34.0631206,17.3501657 34.4815165,17.8762079 C34.8999123,18.4022501 35.0769247,19.0801037 34.9690737,19.7432667 C34.8843499,20.4033011 34.7141214,21.0495399 34.4626643,21.6657508 C34.3049175,21.8870637 34.0450474,22.0127034 33.7734182,21.9989814 C33.5080848,21.910296 33.2888681,21.7199884 33.1639627,21.4698977 C32.8540225,20.8975582 33.3018921,20.3732808 33.3548185,19.818564 C33.4426282,18.8941695 33.2028556,18.4568044 32.3744773,18.413949 C31.3027177,18.3598791 30.289498,18.3710936 29.6832501,17.2300192 C29.4948001,16.8751607 29.0437228,17.0726158 28.6592045,17.1499157 C28.0080586,17.2156575 27.3524107,17.2245025 26.6997249,17.1763498 L26.6997249,17.1763498 Z" id="Path"></path>
            <path d="M7.91821416,40.1641971 C8.45018942,39.9064487 8.95379268,39.9136084 9.1985013,40.4660968 C9.38956909,40.8972684 9.38557927,41.396457 9.56334767,41.8339929 C9.77879766,42.3634112 10.2957003,42.4648399 10.8547176,42.3315904 C11.1545053,42.2561229 11.441559,42.1446708 11.7080946,42.0002565 C12.1376647,41.7735334 12.3783835,41.181269 12.9994646,41.3431572 C13.7231344,41.5032268 14.3538209,41.9005347 14.7673957,42.4568848 C15.3636514,43.3411049 15.8034176,44.3096501 16.3854872,45.2014276 C17.0207543,46.1755414 17.8040879,47.0864115 17.9973722,48.2327553 C18.031064,48.4296464 17.7336012,48.7188178 17.5163779,48.8918433 C17.2118221,49.1344768 16.9015032,48.9216753 16.718415,48.715238 C16.48557,48.4088106 16.2769955,48.0880903 16.0942307,47.7554435 C15.3033608,46.5331275 14.5147075,45.3096183 13.7163013,44.0912799 C13.3581046,43.5439624 12.8713472,43.2897938 12.1443144,43.5423713 C11.6616107,43.7269972 11.1594837,43.8677131 10.645474,43.9624057 C9.7557454,44.0968485 8.74986883,43.9102992 8.43423017,43.2010934 C7.9510193,42.1144135 6.88263563,41.8324018 6,41.2691739 C6.3519903,40.4983153 7.48642756,40.8212963 7.91821416,40.1641971 Z" id="Path"></path>
            <path d="M21.5759688,42.6759924 C22.4769818,41.4249773 22.344975,40.2273113 22.4074346,39.0751367 C22.4712232,37.8956673 22.4716661,36.7128894 22.5615902,35.5354878 C22.6104527,35.2384196 22.8790485,35.0159862 23.2008045,35.0061326 C23.3594943,34.9831418 23.5210721,35.0254435 23.6438182,35.1221155 C23.7665644,35.2187876 23.8384466,35.3603534 23.8409047,35.5102607 C24.1205592,38.2607212 24.0312734,41.0330189 23.5751191,43.7628246 C23.5395848,44.3792787 23.0372317,44.8839463 22.381299,44.9621449 C21.7519471,45.0956186 21.097528,44.8696913 20.7126088,44.3860576 C20.1132333,43.6896167 19.7187079,42.859316 19.567959,41.9770781 C19.3216644,40.5168024 19.1741534,39.0408114 19.0062655,37.5710237 C18.9806423,37.3748974 19.0341781,37.1768918 19.1564344,37.0156144 C19.33785,36.7892173 19.5926102,36.623453 19.8829149,36.5429168 C20.2099752,36.4913427 20.5211109,36.6935713 20.5828168,36.9978314 C20.6505921,37.3828545 20.6838153,37.774081 20.7157096,38.1636533 C20.8514693,39.6894769 21.1394713,41.2001411 21.5759688,42.6759924 Z" id="Path"></path>
            <path d="M24.0771873,6 C24.0514582,5.51978425 24.0257291,5.03941974 24,4.55890646 C24.184437,1.78606218 24.3977176,1.50266348 26.7381172,1.08626822 C27.8663849,0.938069367 28.9779482,0.663813374 30.0555453,0.267759225 C32.1513831,-0.599396165 33.7686597,0.705576743 33.9990028,3.2302798 C34.0046318,3.54262191 33.9864223,3.85493284 33.9445655,4.16393347 L33.9990028,4.09252592 C32.6656941,4.90924973 32.4958821,4.82846994 32.3203826,3.47395805 C32.3307245,3.16334305 32.3183619,2.85231718 32.2834139,2.54387476 C32.087602,1.88335496 31.0016988,1.36163357 30.6381061,1.86014751 C29.6704214,3.18743527 28.4203937,2.73488995 27.2325221,2.81299195 C26.3741182,2.86967169 25.5417144,2.82593457 25.5307456,4.30808745 C25.5258707,5.00520362 24.870185,5.74739581 24.0771873,6 Z" id="Path"></path>
            <path d="M45.9054526,8.66085412 C45.3235314,8.90264994 45.1103053,8.36505722 44.7665326,8.10230576 C44.3756841,7.55222026 44.009758,7.54496638 43.6723149,8.15509785 L43.6371069,8.17121757 L43.0832729,8.64916732 L43.0172084,8.72976593 C42.8529043,8.91406808 42.6883365,9.0982359 42.523505,9.28226939 L42.5017472,9.31209088 C42.2285577,9.4186395 42.041398,9.6776278 42.0226808,9.97501443 L42.0119997,10 C41.4700336,9.60143988 41.3501681,9.01226405 41.3086306,8.38802783 L41.320894,8.49522398 C41.3053644,8.09361811 41.0353005,7.74895018 40.6543153,7.64450566 C40.4682492,7.68268872 40.2813802,7.58279841 40.206501,7.40512779 C40.0488771,7.16130668 39.7688639,7.03001389 39.4845388,7.06661364 C39.100811,6.90541642 39.0572954,6.51612514 38.8911452,6.1941337 C38.4180128,5.28296643 38.3954638,5.29344425 37.259313,5.63598833 C35.4142546,6.19050676 34.9086833,5.85481356 34.0526142,3.50818507 L34,3.57266395 C34.5051757,3.11043093 35.0613833,2.7823946 35.7315224,3.17450683 C36.2430276,3.47393066 36.5654381,4.17715352 37.3657282,3.7088756 C37.8608875,3.42997567 38.4639963,3.43902204 38.9508802,3.73265219 C39.4932375,4.08904671 39.9160636,4.60539174 40.1629854,5.21284564 C40.2446768,5.47774429 40.362959,5.72945181 40.5142744,5.96039773 C40.7916745,6.19304441 41.0921011,6.39563334 41.4106943,6.5648873 L41.9574075,6.95498457 L41.9732314,6.96667136 C42.3253115,7.60299738 42.6928199,7.5614891 43.0721962,6.99205993 L43.1908749,6.86149018 L43.3554427,6.91952118 L45.5434826,6.90944635 C45.6539598,6.88454111 45.7695709,6.91172403 45.8581579,6.983434 C45.9467449,7.05514396 45.9988574,7.16373102 46,7.27899097 L45.9054526,8.66085412 Z" id="Path"></path>
            <path d="M28.2334654,33.0279096 C28.752323,33.1475798 29.1947532,33.1826774 29.3862465,32.5010225 C29.6010926,31.7360637 30.062205,31.2768347 30.9406964,31.6324623 C31.4527605,31.8396651 31.9223648,31.6227365 32.4004611,31.4963005 C33.3061267,31.257383 33.4840329,30.8823037 33.1142088,30.0162807 C32.883676,29.5812004 32.6987098,29.1236492 32.5622326,28.6508567 C32.415322,27.8960465 33.0955266,27.1484251 33.9515143,27.0084575 C34.4550864,26.9259993 35.0524945,27.4634579 34.8058036,27.8820921 C34.3896985,28.5878501 34.6359648,29.1033199 34.8397714,29.7815918 C35.3229628,31.3990421 34.7030511,32.5559947 33.1188794,33.0511671 C31.9958201,33.4021432 30.8587492,33.4385094 30.0193207,34.5755875 C29.4045042,35.4073586 28.351928,34.8326881 27.5443444,34.4064424 C27.1517456,34.267493 26.9266919,33.8569137 27.0216654,33.4528867 C27.0709748,33.2598163 27.1980373,33.0955374 27.3728955,32.9987819 C27.5477538,32.9020263 27.7549336,32.8813564 27.9455886,32.9416456 C28.0434463,32.9636933 28.1396391,32.9925181 28.2334654,33.0279096 Z" id="Path"></path>
            <path d="M8,39.922555 C7.59623357,40.5630513 6.53541395,40.2482311 6.20792372,41 C5.56413597,40.6793642 5.54465237,39.7849181 4.65089423,39.6286711 C4.21437878,39.5511292 3.94616842,39.0536978 3.886474,38.571387 C3.84501954,38.2224484 3.88398673,37.7482795 3.495973,37.6269264 C1.74203482,37.0775419 1.57953334,35.5391102 1,34.2538529 C1.48045718,33.9522148 1.48170082,33.4555588 1.58367879,33 C2.02268151,33.5924203 2.60221485,34.1352137 2.86876703,34.7892798 C3.22900628,35.6810119 3.59090371,35.7992634 4.59990525,35.5356208 C5.84353903,35.2111079 6.55489755,36.160221 6.1863674,37.391199 C6.06200403,37.801008 5.59854317,38.0576718 5.80747365,38.6318697 C6.11133483,39.473975 6.46991591,39.7604924 8,39.922555 Z" id="Path"></path>
            <path d="M41.4677363,40.9994687 C41.1902671,41.0203797 40.9264254,40.4190817 41.0187889,40.0665819 C41.1306854,39.5624362 41.5073533,39.1887482 41.9651366,39.1277205 C42.7165367,38.9817703 42.5170466,38.5422124 42.21043,38.1099094 C41.6426213,37.3084632 41.9269042,36.9324919 42.656349,36.5373166 C43.36346,36.153237 43.3252276,36.0606311 42.6942029,35.4388488 C42.5617142,35.3086885 42.3732018,35.2233375 42.2903017,35.0645845 C42.1965836,34.8997532 42.1725947,34.6965289 42.2248144,34.5098028 C42.3637383,34.2878901 42.6090316,33.990015 42.7983012,34.0002571 C43.2428901,34.020872 43.6794386,34.140683 44.0826843,34.3527569 C44.9415895,34.8260284 45.1865043,35.5818118 44.8628533,36.6179734 C44.7178729,37.0818562 44.3771877,37.5043439 44.341605,37.9665197 C44.2886096,38.6565828 44.5123262,39.3816399 43.9498171,39.9415426 C43.1995261,40.4912201 42.3529299,40.852061 41.4677363,40.9994687 L41.4677363,40.9994687 Z" id="Path"></path>
            <path d="M37.6831736,15.162465 C37.1994273,14.8704793 37.1114735,14.4142772 36.998013,13.9240852 C36.73679,12.7901322 36.6826984,12.7598279 35.5322618,13.3069428 C34.9763934,13.5710814 34.5339855,13.5886906 34.1843689,13.1251172 C33.8719528,12.7045464 33.9654427,12.1301387 34.397657,11.8146623 C35.8361424,10.5332832 37.4562526,10.7716221 38.4118714,12.4723469 C38.6610727,12.9891346 39.0704164,13.4247944 39.5873748,13.7234218 C41.2870832,14.6853776 41.3249034,14.982687 40.3789596,16.9819497 C39.7263419,16.9725308 38.9541069,17.2198792 38.9765352,16.1383444 C38.994126,15.2079214 38.9242026,15.2066929 37.6831736,15.162465 Z" id="Path"></path>
            <path d="M28.4968415,47.9653212 C28.3279124,47.8715542 28.0450071,47.7992197 28.0266895,47.6878475 C27.9859837,47.4398434 27.9729579,47.0406639 28.128454,46.9335017 C29.4770371,46.0042518 30.4311811,44.7332307 31.5233177,43.5823846 C32.1672834,42.9038178 32.7949668,42.211473 33.4507373,41.542857 C33.6488662,41.3448915 33.8832676,41.1820637 34.1427359,41.0621577 C34.2933473,40.9921195 34.6023043,40.9706871 34.6743536,41.0537378 C34.8637673,41.2496546 34.9783506,41.499326 35,41.7633051 C34.9611161,42.0317323 34.8338667,42.28199 34.6360902,42.478996 C33.1833002,44.0627011 31.7256255,45.6429618 30.2398638,47.1975801 C29.7876224,47.6652669 29.2816493,48.1325709 28.4968415,47.9653212 Z" id="Path"></path>
            <path d="M29,37.3038764 C28.5933999,39.7518546 28.2146491,42.0979426 27.8050499,44.43837 C27.720004,44.8402135 27.578447,45.2275124 27.3847394,45.5883362 C27.2552148,45.8707143 26.9602449,46.0348844 26.6563725,45.99372 C26.2870477,45.9606275 26.1422312,45.6941453 26.0462581,45.4098106 C25.991972,45.2097638 25.9853628,44.9994516 26.0269778,44.7962921 C26.4447177,42.2490362 26.8650282,39.7017804 27.3084751,37.1597496 C27.3711011,36.8569624 27.5032244,36.5734931 27.6940811,36.3324358 C27.8693176,36.1042713 28.1263882,35.8656566 28.461437,36.0899022 C28.622963,36.1978884 28.8217643,36.3315649 28.8796052,36.498334 C28.9481918,36.7616525 28.988558,37.0317368 29,37.3038764 Z" id="Path"></path>
            <path d="M20.3714216,29.0617914 C19.8203955,29.9749853 20.5679273,30.3705643 20.8981378,30.9060279 C21.0541172,31.1548199 21.0289239,31.4796561 20.8365525,31.7000915 C20.6844005,31.9623324 20.3671949,32.0700673 20.092262,31.9528802 C19.1283714,31.4647365 18.2503761,30.8375384 18.313582,29.5794063 C18.375707,29.1262048 18.1918248,28.674335 17.8338651,28.4005561 C16.9968006,27.6857937 16.7588415,26.4701446 17.2621755,25.4799961 C17.3959523,25.2257295 17.6365632,25.0487373 17.9144932,25.0001542 C18.1336882,24.9926826 18.5339925,25.258339 18.5587076,25.4451287 C18.6782317,26.3508509 18.8123417,27.0747646 19.8957564,27.387326 C20.6805635,27.6123037 20.4897302,28.4736116 20.3714216,29.0617914 Z" id="Path"></path>
            <path d="M10.1422248,27.9476864 C9.87132993,26.971299 9.95497615,26.0585695 10.6767963,25.3260548 C10.8982635,25.1349601 11.1705678,25.0213699 11.4559375,25.0010406 C11.60827,24.9913771 11.7574981,25.049355 11.8675628,25.1609648 C11.9776275,25.2725747 12.0385165,25.4276634 12.0355166,25.5887559 C11.8253396,26.6920109 12.3437763,27.180653 13.1615561,27.7656785 C14.2820757,28.5667824 14.2336713,29.7287642 13.2889361,30.6908062 C12.6579803,31.3327652 11.2860974,30.8916425 11.5145323,30.1299886 C12.0049454,28.4928137 10.5494163,28.6057841 10.092122,27.8678898 L10.1422248,27.9476864 Z" id="Path"></path>
            <path d="M30.9760513,26.2281262 C30.6793581,26.9320253 30.8881422,27.7240146 30.8264837,28.4818381 C30.7520935,29.3932748 30.1563788,30.0620459 29.4782389,29.9954269 C29.3351491,29.9847911 29.2021112,29.8928442 29.1121488,29.7424099 C29.0221863,29.5919756 28.9837345,29.3971591 29.006338,29.206319 C29.3442519,27.8917739 29.4291149,26.4830418 29.2529718,25.1121787 C29.1858191,24.7050698 29.1678099,24.3378897 29.4806808,24.1193105 C29.7418429,23.9318141 30.0601748,23.9675482 30.2947557,24.2106939 C30.8133474,24.6236588 31.0854704,25.4294615 30.9760513,26.2281262 L30.9760513,26.2281262 Z" id="Path"></path>
            <path d="M50.5571517,31.9484562 C50.0464391,32.0551943 49.5230528,31.8353515 49.2385191,31.3945786 C48.7537786,30.8092505 49.204297,30.2121285 49.17484,29.6237427 C49.1393184,28.9099919 48.1525099,28.9610989 48.0420462,28.301076 C47.8799238,27.4739596 48.1941929,26.625354 48.8542789,26.1078429 C48.9762819,26.0137381 49.1333127,25.9788597 49.2832355,26.0125668 C49.4331583,26.0462738 49.5606215,26.1451147 49.6314231,26.2825677 C50.4978046,28.0935903 51.695577,29.8692311 50.4900072,32 L50.5571517,31.9484562 Z" id="Path"></path>
            <path d="M12.1469781,16.040216 C12.7389143,15.9781996 13.5110768,15.8905676 13.6499668,16.6118458 C13.8713718,17.6182786 14.3002133,18.5568691 14.9041108,19.3567471 C15.0793768,19.612902 14.9838899,20.183633 14.8598809,20.5489907 C14.7858889,20.7673964 14.2811724,21.0581546 14.1984998,20.9898466 C13.1572378,20.1220659 11.7522163,19.4969582 12.0374369,17.6193881 C12.0740884,17.0935966 12.1106022,16.5672059 12.1469781,16.040216 Z" id="Path"></path>
            <path d="M37.6998091,24 C37.5441968,23.9253654 37.3822329,23.8582849 37.2349569,23.7736788 C37.000617,23.6410698 36.9315284,23.3968621 37.07339,23.202588 C38.0789158,21.7074784 40.4365223,21.5860083 41.9045184,22.9530002 C42.0072685,23.067704 42.0285368,23.213744 41.9612852,23.3427923 C41.8096425,23.4938746 41.5476421,23.6842382 41.3471721,23.6751732 C40.9789242,23.6502385 40.625546,23.5527673 40.3217979,23.3923473 C39.6513151,23.0373041 39.1007173,23.1098236 38.6291166,23.5808979 C38.4043869,23.808678 38.0702209,23.9593813 37.6998091,24 L37.6998091,24 Z" id="Path"></path>
            <path d="M10.8857919,16.3748522 C10.8587267,16.9170302 10.8318634,17.4587462 10.8052021,18 C10.469209,17.6002977 10.1356397,17.1964367 9.79691989,16.8022795 C8.76864172,15.6054831 8.72713491,13.663346 9.72087457,12.3662776 C9.96946256,11.9326266 10.3983539,11.8762953 10.6918915,12.2387425 C11.0284905,12.6486106 11.113322,13.3671505 10.825804,13.6559527 C9.79752583,14.6873232 10.6422045,15.4895002 10.8857919,16.3748522 Z" id="Path"></path>
            <path d="M33.9985699,38.7409761 C33.9716318,38.9503746 34.0099344,39.2117835 33.9068119,39.3601263 C33.0797272,40.5522959 32.5178147,41.9832612 31.300969,42.8285438 C30.9626273,43.0938507 30.4933357,43.0467225 30.2066076,42.7186435 C30.0905229,42.6168369 30.0170894,42.4694281 30.0026256,42.3091743 C29.9881618,42.1489205 30.0338659,41.9890971 30.1295814,41.8652201 C30.9971703,40.8287476 31.7647605,39.7004613 32.4205849,38.4976577 C32.5620101,38.2602188 32.9079967,38.1462481 33.1782198,38.0191617 C33.4484428,37.8920754 34.0326635,38.4271044 33.9985699,38.7409761 Z" id="Path"></path>
            <path d="M46.3700478,24.9842343 C46.2263014,24.9291448 45.9804912,24.914877 45.9099815,24.7947897 C45.3743411,23.8547006 44.5726337,23.6783348 43.5913406,23.8166532 C43.4160402,23.8416218 43.0907604,23.5590402 43.0229776,23.3537425 C42.9621899,23.0945101 43.0235383,22.8212627 43.1889287,22.6145915 C43.9372669,21.8694956 44.8461024,21.8667213 45.7436408,22.2614636 C46.6031265,22.6674721 47.1043108,23.593884 46.9816516,24.5498593 C46.9673141,24.6949629 46.8914422,24.8264735 46.7739052,24.9099509 C46.6563682,24.9934284 46.5088738,25.0205577 46.3700478,24.9842343 Z" id="Path"></path>
            <path d="M34.3626479,25.8482587 C34.7335332,25.175654 34.4343524,24.7636945 34.111064,24.2926963 C33.9953814,24.0488698 33.9683156,23.7418435 34.0381233,23.4652787 C34.1617517,23.0590045 34.476386,22.9890326 34.7709308,23.0012777 C35.2152941,23.0104673 35.6164951,23.3796835 35.80261,23.9507087 C36.1716409,24.9010143 35.9834166,25.7520474 35.5661707,26.5213008 C35.3563258,26.9686979 34.9447146,27.1269262 34.6037233,26.8912771 C34.2705447,26.672615 34.3113421,26.2567196 34.3626479,25.8482587 Z" id="Path"></path>
            <path d="M19.0620212,23 C18.8959047,22.9335273 18.5928083,22.8988459 18.4406924,22.7359155 C18.1541986,22.4604217 17.9954746,22.0866942 18.0000983,21.6985039 C18.0047219,21.3103136 18.1723066,20.9401288 18.4652883,20.6709262 C18.7412543,20.4585233 19.0505361,20.2889394 19.3817672,20.1684069 C19.9005502,19.9617635 20.5093919,19.8645833 20.8473009,20.3627673 C21.2578622,20.9686083 20.7716214,21.2800185 20.204025,21.4425877 C19.6122113,21.6116596 19.7628135,22.1026184 19.6947019,22.4902554 C19.6398343,22.8005819 19.4052278,22.8789763 19.0620212,23 Z" id="Path"></path>
            <path d="M40.8026101,9 C40.8733221,9.61597418 41.0773767,10.1969769 42,10.5896108 C41.915363,10.7647062 41.6930329,10.9050423 41.4026744,10.9666463 C41.1123158,11.0282503 40.7894529,11.0035853 40.5352514,10.9003797 C40.1873162,10.7439839 39.9882871,10.498291 40.000534,10.2402938 C40.2020145,9.81305614 40.4705344,9.39782924 40.8026101,9 Z" id="Path"></path>
            <path d="M5.09122203,26.0010952 C5.35256612,25.9938662 5.61340114,26.0224796 5.85886403,26.0853048 C6.27718001,26.2679391 6.66060244,26.4866515 7,26.7362335 C6.46873207,27.3017552 5.90992542,26.7972955 5.34767642,26.6963237 C5.2244136,26.6629104 5.10762062,26.6189365 5,26.5654196 L5.09122203,26.0010952 Z" id="Path"></path>
            <path d="M46,6.97664571 L44,7 C44.6638944,5.76315673 45.3306816,5.58192743 46,6.97664571 Z" id="Path"></path>
            <path d="M43,7.05461401 C42.6547876,8.27952828 42.3203744,8.36881785 42,7 L43,7.05461401 Z" id="Path"></path>
            <path d="M44,9 C44.3083876,7.6801158 44.6428055,7.6923208 45,8.88579602 L44,9 Z" id="Path"></path>
            <path d="M46,9 L46.1646929,7 C47.3133202,8.17313869 47.295021,8.39620438 46,9 Z" id="Path"></path>
            <path d="M42,7 L41,6.04022898 C41.5947902,5.85581017 41.8502171,6.32776369 42,7 Z" id="Path"></path>
            <path d="M40,7.08661474 C40.3939567,6.99501095 40.782035,7.32177287 41,7.92861474 L40,7.08661474 Z" id="Path"></path>
            <path d="M40,8 C40.5713441,8.1224233 40.9765759,8.52765504 41,9 C40.6672594,8.66903521 40.3339261,8.33570188 40,8 Z" id="Path"></path>
            <path d="M43,9 L44,8 L43,9 Z" id="Path"></path>
            <path d="M42,10 C42.3333333,9.6669098 42.6666667,9.33357646 43,9 C42.9533404,9.50078746 42.5433494,9.91077853 42,10 Z" id="Path"></path>
            <path d="M42,11 C42.0390673,10.5514013 42.4297162,10.1607254 42.9999306,10 C43.0061145,10.4600367 42.5984916,10.8676878 42,11 Z" id="Path"></path>
        </g>
        <g id="yasai21" transform="translate(66.500000, 519.000000) rotate(-96.000000) translate(-66.500000, -519.000000) translate(48.000000, 496.000000)" fill="#604838" fill-rule="nonzero">
            <path d="M22.6610917,44.1025773 C23.6345354,43.8485338 24.6477513,44.0301749 25.6440151,43.7478691 C26.6944091,43.4904475 27.7004666,43.0846521 28.6301985,42.5433858 C30.2862915,41.508794 31.0951038,41.5703996 32.6136237,42.7488434 C32.9155021,42.9831985 33.164242,43.2813819 33.4537323,43.5319322 C34.0271708,44.0285871 34.562141,44.0082636 35.0426688,43.445875 C35.3549792,43.079735 35.5316726,42.6592931 35.1561177,42.2217034 C34.9122463,41.9267914 34.6510048,41.6459185 34.3737115,41.3805021 C33.2998591,40.3897328 33.1166457,39.1773106 33.3999419,37.8350088 C33.5557711,37.0954249 33.6962782,36.352983 33.8436314,35.6121289 C33.9150259,35.1878764 33.8762316,34.8033182 33.4403662,34.5641999 C32.7681489,33.9436988 32.0587674,33.3574937 31.4338205,32.6938053 C30.8008156,32.0320657 30.0731945,31.4626581 29.2734016,31.0031464 C26.4339193,29.3353514 24.2568742,27.0197457 22.43778,24.3595936 C21.5383389,23.0439663 20.6610661,21.7204002 19.6648022,20.4647906 C17.647804,17.9804375 15.3168116,15.754131 12.7271419,13.8387034 C11.8143347,13.1451649 10.953036,12.3839873 10.0891292,11.6307486 C9.7438925,11.3297071 9.43190805,10.9756341 9.61772951,10.4535749 L10.2273543,10.3941923 C11.7031679,11.6129655 13.1379051,12.8838177 14.6635971,14.0397152 C17.8902639,16.5409736 20.6417575,19.5739068 22.7931228,23.000779 C23.9142257,24.7255459 25.2309719,26.3219806 26.7185195,27.7599647 C27.2948175,28.3747794 27.9502996,28.9144372 28.6686668,29.365519 C30.5082992,30.3963002 32.0264931,31.7732155 33.5088267,33.2206278 C34.5817012,34.2685569 35.0279986,35.4628784 34.7476365,36.9099732 C34.6755899,37.2802415 34.5165006,37.6352671 34.4571682,38.0061705 C34.2811268,39.1045907 34.429132,40.1175888 35.3738874,40.8838472 C35.4303892,40.93584 35.4835212,40.991201 35.5329766,41.0496106 C36.0545807,41.5970741 36.7639623,42.0975396 36.5083763,42.9708139 C36.1790714,44.080937 35.3236521,44.9701554 34.2077762,45.362315 C33.9032282,45.4534563 33.5729608,45.344771 33.3875538,45.0923939 C32.7906431,44.501743 32.2344828,43.8666344 31.5925837,43.3286975 C30.9441646,42.7847271 30.1813187,42.6840624 29.4654171,43.240735 C28.3423383,44.1146443 27.0174639,44.5071414 25.6632493,44.8602617 C24.9136797,45.0586298 24.1327536,45.1193643 23.3603672,45.0393623 C22.7289003,44.9739462 22.6780439,44.5436601 22.7142301,44.0597074 L22.6610917,44.1025773 Z" id="Path"></path>
            <path d="M0.777610448,6.76379974 C0.777610448,5.64632657 0.770435012,4.52854082 0.781524323,3.41106765 C0.784599516,3.03049538 0.987529536,2.67701805 1.32131283,2.47082729 C1.45003754,2.40424651 1.60275081,2.39510636 1.73911892,2.44582089 C1.86077518,2.49802174 2.02483174,2.65837523 2.01602553,2.7584008 C1.95796972,3.42044505 1.83174728,4.07717543 1.77662688,4.73921968 C1.54538214,7.50899024 1.93970498,10.2356248 2.32293851,12.9744499 C2.85033308,16.7422881 4.39859654,20.1247153 6.28214858,23.4039911 C7.10601913,24.8377952 7.94554518,26.2637847 8.74462786,27.7097793 C8.79940551,27.9178481 8.75037079,28.1384988 8.61188229,28.3071196 C8.45271807,28.4946675 8.18787923,28.4077703 8.01893032,28.2489797 C7.78302786,28.0562266 7.57864377,27.8306366 7.41260596,27.5797461 C5.58352201,24.2976571 3.4987316,21.1296597 2.31445845,17.555621 C1.20153114,14.060629 0.682616842,10.4167876 0.777610448,6.76379974 L0.777610448,6.76379974 Z" id="Path"></path>
            <path d="M22.9965288,44.1864718 C22.4249007,44.3998388 22.0085722,44.1417525 21.5828316,43.8208252 C19.931271,42.6276785 18.43599,41.2577957 17.1277717,39.7393783 C15.080954,37.2662702 13.0479408,34.7826398 11.0287319,32.2884872 C10.6340513,31.7994969 10.159054,31.3283359 10.0470501,30.6870659 C10.0558106,30.5540331 10.1282599,30.4317046 10.2443904,30.3538627 C10.3460411,30.2848838 10.5647155,30.2331496 10.6390711,30.2866375 C10.8720362,30.455734 11.0798723,30.6528968 11.2571322,30.8729582 C13.322774,33.4201115 15.3829778,35.9709671 17.4377435,38.5255249 C18.8865296,40.2948908 20.5836145,41.8751437 22.4835694,43.2239823 C22.8352681,43.479438 23.2409296,43.7129726 22.9444485,44.2265147 L22.9965288,44.1864718 Z" id="Path"></path>
            <path d="M11.7513803,11.5705329 L11.1442102,11.622242 C10.4699121,11.0785371 9.95154024,10.409997 9.62920722,9.66835473 C8.79929989,7.96858891 7.91906563,6.28624382 7.12909515,4.5737581 C6.78411987,3.69957062 6.24387249,2.89045644 5.53811475,2.19098893 C4.89587816,1.61029782 4.63969785,1.58541106 3.5536102,2.02922498 C3.22892033,2.16223089 2.94773889,2.18877677 2.79480996,1.91474588 C2.71843209,1.72815066 2.74366544,1.52227448 2.86364421,1.35313462 C3.49256851,0.588834519 4.36403614,0.428729686 5.27836284,0.850422036 C6.30419578,1.33531354 7.10284341,2.10608565 7.54015254,3.03326755 C8.97073615,5.86897578 10.3509928,8.7243169 11.7513803,11.5705329 Z" id="Path"></path>
            <path d="M26.0993333,37.8762004 C26.1121203,37.9626682 26.1516178,38.0601744 26.1320111,38.133764 C26.0882513,38.2930855 26.0467647,38.4995043 25.9492997,38.5811887 C24.0991687,40.1486472 23.3268364,42.4748143 23.1188352,45.2163947 C23.1094581,45.3392893 22.9591402,45.4908839 22.8497407,45.5453402 C22.7570761,45.5950232 22.6527599,45.593536 22.5609625,45.5412234 C22.4691652,45.4889107 22.397854,45.3903128 22.3635521,45.2682754 C22.2972597,45.1157566 22.2419935,44.9556317 22.1984582,44.789943 C22.1474395,44.6267754 22.1279319,44.4499545 22.1416273,44.2748158 C22.5891709,41.8500386 23.2521037,39.5709688 24.8837197,38.0270591 C25.1705424,37.8069287 25.486024,37.6565422 25.8146104,37.5833138 C25.8862173,37.5601331 26.0044257,37.7724391 26.0993333,37.8762004 Z" id="Path"></path>
            <path d="M32.7959531,36.8585816 C33.1284502,37.0256539 33.1569641,37.2950607 33.1026637,37.5927208 C32.5004001,37.6325423 31.9271463,37.8278678 31.2891784,37.5751459 C30.7372481,37.3566839 30.1587874,37.6921633 29.5917324,37.7864891 C29.4243424,37.8002694 29.2603107,37.7382791 29.1543536,37.6211965 C29.1115813,37.5240708 29.1147458,37.4155035 29.1631179,37.3205165 C29.2114899,37.2255295 29.3008962,37.1523179 29.410731,37.117755 C30.3021233,36.6999935 31.3595108,36.6785288 32.271049,37.0596912 C32.524451,37.1595786 32.7084277,37.1095237 32.7959531,36.8585816 Z" id="Path"></path>
        </g>
        <g id="cheese" transform="translate(133.000000, 427.000000) rotate(30.000000) translate(-133.000000, -427.000000) translate(107.000000, 404.000000)" fill="#604838" fill-rule="nonzero">
            <path d="M10.2625085,37.6880039 L11.1764767,37.8366402 C11.4534606,38.123572 11.8787438,38.2379633 12.2745293,38.1319907 C15.1240997,38.1710718 17.8208325,38.9914544 20.4937906,39.7535357 C24.2722734,40.8308284 28.121401,41.5394134 31.986152,42.2201291 C33.9577558,42.5680149 35.9259633,42.9328785 37.8958689,43.2897337 C38.7205121,43.9790985 39.7190505,43.6741379 40.6564538,43.7186647 C40.7052285,43.8052738 40.745584,43.8958722 40.7770256,43.9893493 C40.7878941,44.0319541 40.7355897,44.0883334 40.711815,44.1383059 L38.2840761,44.2142258 L36.8976701,44.0691132 C36.4561396,43.588608 35.9018489,43.6526753 35.3353312,43.7753643 C34.6988479,43.6869514 34.0603268,43.6100705 33.426221,43.5078831 C30.7258653,43.0735064 28.0260757,42.6349653 25.3268522,42.1922598 C21.3157168,40.9041855 17.2013312,39.9780918 13.080832,39.073781 C12.6155268,38.5154339 11.9678354,38.6909785 11.3629385,38.6938615 L10.6496968,38.6073706 C10.3375687,38.1947767 9.88143363,38.2136766 9.42156256,38.2434679 L8.70492448,38.1518516 C8.2973578,37.6332263 7.71997168,37.7376561 7.15854858,37.7812219 L6.95476524,37.8167793 L6.77849265,37.7145919 C7.06412897,37.2866219 7.53486848,37.2597136 7.99711702,37.2142258 L9.236799,37.3824026 C9.48965107,37.6594004 9.88682817,37.7777359 10.2625085,37.6880039 Z" id="Path"></path>
            <path d="M49.8971376,23.8398701 C49.6665201,23.5150952 49.5607808,23.11875 49.5991611,22.7229586 C49.501849,17.8707689 47.9321036,13.4361694 45.7949279,9.14076653 C44.5392658,6.61653305 42.60913,4.6203791 40.8407337,2.49170455 C40.5248933,2.13591768 40.1140154,1.87662697 39.6558746,1.74398133 C39.2347479,1.60044518 39.5182954,1.21256376 39.5105775,0.929497109 C40.1272841,0.718486247 40.8110633,0.887197975 41.2571625,1.36043938 C44.3520239,4.51289388 46.8797904,8.04521849 48.4233621,12.1960838 C49.1119293,14.048034 49.5877521,15.9784283 50.1595448,17.8737732 C50.4101015,18.5450952 50.4844769,19.2688773 50.3756448,19.9767447 C49.9514982,20.3145554 49.9770006,20.7882247 49.9692828,21.2605588 C49.9558604,22.1211081 49.9223045,22.9813236 49.8971376,23.8398701 Z" id="Path"></path>
            <path d="M46.4789108,44.4210136 C45.4379079,45.0976387 44.3545906,45.4393344 43.1730903,44.8117646 C42.9767246,44.7075643 42.7634992,44.5637815 42.851434,44.2572703 C42.8863427,44.0168265 43.0802294,43.8337557 43.3172241,43.817464 C43.9221893,43.7670555 44.5264932,44.2911016 45.1268302,43.840131 C45.8177467,43.3201446 45.8564248,42.4601541 46.1185763,41.7256776 C46.4208129,40.9032573 46.6715709,40.0619763 46.8693282,39.2069407 C47.3187729,37.2632865 47.8806502,35.3486735 48.5519908,33.4732197 C49.1255523,31.7341734 49.5784728,29.9558705 49.9073771,28.1515634 L50.5024248,28.142429 C50.9374708,28.6160666 50.8614369,29.189168 50.7216007,29.7257317 C50.3602745,31.1128131 49.961262,32.491775 49.560266,33.8690454 C48.5363432,37.3874958 47.5092248,40.9048186 46.4789108,44.4210136 Z" id="Path"></path>
            <path d="M21.0391005,6.80045095 C21.3611255,6.8452062 21.7166521,6.87457683 21.8311727,7.24835305 C21.9511629,7.63996144 21.6551187,7.88751389 21.3812948,8.03087053 C19.9321821,8.78891249 18.4796509,9.542409 17.0055829,10.2459055 C13.6697265,11.7993503 10.4215946,13.542759 7.27646091,15.4679335 C6.38303489,16.0478818 5.41431186,16.4964462 4.39874661,16.800451 L4.24593855,16.6116398 C4.24593855,16.4918262 4.18611436,16.4350663 4.06646599,16.44136 C4.00307752,16.3745624 3.93346532,16.3142531 3.85861967,16.2612901 C3.9042,16.12143 3.94886873,15.9806374 3.99262585,15.8389125 C4.60796034,15.8476538 5.07082862,15.4542971 5.54053394,15.1581433 C9.9750445,12.3501013 14.7021808,10.1182831 19.3708603,7.77352788 C19.944147,7.48541599 20.6008456,7.33366774 21.0391005,6.80045095 Z" id="Path"></path>
            <path d="M4.26853166,22.7246681 C5.23592757,22.7482981 5.70494779,23.3722011 5.79701719,24.2962406 C5.84320981,24.9835751 5.50846708,25.6369282 4.93870351,25.971503 C4.53825488,26.2333904 4.12293439,26.4689606 3.6950994,26.6768767 C2.62195712,27.2369433 1.92343056,28.029078 2.07354372,29.4084362 C2.11184612,29.6545973 2.06188507,29.9070109 1.93343811,30.1162786 C1.75924206,30.2538149 1.52964367,30.2848607 1.32831529,30.198102 C0.745542655,29.7360822 0.955367491,28.9792163 0.801251316,28.3528445 C1.08479839,27.7670317 1.23791381,27.0126345 1.67958008,26.6317327 C2.53188923,25.8970861 3.13968072,25.3557118 1.96012489,24.3646618 C1.58784426,24.0514759 1.7076012,23.4180504 1.76531137,22.9362801 C1.89307435,21.8694025 2.08588636,20.8116947 2.25234517,19.7501073 C2.67466352,19.4245774 2.65931862,18.9590308 2.61428467,18.4839616 L2.58092619,18.3386546 L2.69200993,18.2466034 C3.11799771,18.5068863 3.16169732,18.9586781 3.21206862,19.4072957 L3.1049879,20.2756107 C2.32906967,22.1935217 2.52922055,22.6139244 4.26853166,22.7246681 Z M4.66883342,24.5678094 C4.68355435,24.3065805 4.58141405,24.0532005 4.39298504,23.8835108 C4.20455603,23.7138211 3.95170341,23.6475124 3.71011072,23.7044321 C3.37652592,23.790135 3.38219687,24.1770324 3.72178619,24.7212282 C3.8552201,24.9328403 4.01367288,25.1666717 4.27320185,25.0160744 C4.42910952,24.8923403 4.5632474,24.7406131 4.66950059,24.5678094 L4.66883342,24.5678094 Z" id="Shape"></path>
            <path d="M36.2838412,1.26736953 C36.5239459,1.22329756 36.7680857,1.20723938 37.0116632,1.21949737 C37.2348162,1.25495823 37.5386476,1.34148271 37.6258489,1.5074395 C37.6516152,1.7406049 37.5587527,1.97094217 37.3803806,2.11630235 C36.8781492,2.39138561 36.357232,2.62841526 35.8217428,2.82551942 C34.4484937,3.36204213 33.0563624,3.84076365 31.7019954,4.41593869 C30.2882354,5.01522711 28.8181722,5.51983505 28.1033961,7.17904837 C27.794415,7.89464839 26.9570763,8.1900373 26.2251345,8.2024486 C25.1017651,8.25337495 23.9767104,8.15529411 22.8774965,7.91060578 C22.3045083,7.76415245 22.884706,7.25599843 23.0440029,6.92975858 C23.8525034,6.95103509 24.663407,6.9389784 25.4691609,7.00068028 C26.4668264,7.07833955 27.2588478,6.84819861 27.532811,5.72728104 C27.7123634,4.99288677 28.2053598,4.6240939 28.8452939,4.36877575 C30.9655906,3.52267979 33.082683,2.66795503 35.1965712,1.80460145 C35.568035,1.652829 35.9213034,1.44680144 36.2838412,1.26736953 Z" id="Path"></path>
            <path d="M8.5201624,36.2999906 C8.07678336,36.3507023 7.62525995,36.3807008 7.35128363,36.8578193 C5.42693182,36.6684276 3.55104051,36.0910336 1.81800437,35.1546919 C0.547483958,34.4693697 0.24549103,33.6979805 0.756305389,32.2976948 C1.03131561,31.5100899 1.22717729,30.6919646 1.340419,29.8578193 C1.72743906,29.8699615 2.0994735,29.8835323 2.21577499,30.4263617 C2.36628279,31.1281116 2.12455814,31.7187958 1.89781911,32.3548348 C1.49320723,33.4879912 1.6173273,33.7286932 2.66566952,34.2811651 C3.63913385,34.7622654 4.65409794,35.1352978 5.69537203,35.3946797 C6.64435304,35.6582377 7.6692395,35.6628803 8.5201624,36.2999906 Z" id="Path"></path>
            <path d="M50.1544602,26.7234476 L49.5582929,26.732175 C49.564917,25.6486877 49.5714306,24.5652005 49.5778339,23.4817132 C49.9968071,23.1510427 49.9613683,22.6894616 49.9709732,22.2327291 C49.9881958,21.3991033 50.0239658,20.5658007 50.051787,19.732175 C50.4840083,22.0568887 50.8847653,24.3822488 50.1544602,26.7234476 Z" id="Path"></path>
            <path d="M51.109638,20.680382 C51.0638417,21.4849367 51.0049607,22.2891794 50.9766107,23.0937341 C50.9608,23.534539 51.0191358,23.9800233 50.3294656,24.2991623 C50.1647421,24.1913754 50.1276782,24.0378919 50.2351471,23.9085836 C50.2760366,23.1052768 50.3289204,22.3022819 50.3523637,21.4989751 C50.3649032,21.0575463 50.3234685,20.6148696 51.0125935,20.2991623 C51.1844743,20.4011762 51.2235176,20.5545501 51.109638,20.680382 L51.109638,20.680382 Z" id="Path"></path>
            <path d="M4.00648676,18.7334637 C3.95423725,18.2371137 3.9089082,17.7372517 3.46703651,17.4492751 C3.44214201,17.2676038 3.44214201,17.0826981 3.46703651,16.9010269 C3.72418438,16.8616861 3.93458905,16.6506383 3.99922027,16.3672165 L3.98434127,16.3843858 C4.26355455,16.3702499 4.48010528,16.1042404 4.46877382,15.7893121 L4.46185335,15.8006283 C4.60417321,15.7511544 4.75280215,15.7287361 4.9016489,15.7342922 C4.97714905,15.7931739 5.04737804,15.8602174 5.11133899,15.9344711 L5.14040494,16.0975798 L5.29369324,16.1252849 L5.44836563,16.3359995 L4.00648676,18.7334637 Z" id="Path"></path>
            <path d="M6.88618781,36.7767828 C7.61098464,36.6770664 8.35730575,36.4380404 8.88618781,37.6251051 C8.17753621,37.8318619 7.44973109,37.5231552 6.88618781,36.7767828 L6.88618781,36.7767828 Z" id="Path"></path>
            <path d="M11.8502894,37.350999 C12.5545203,37.344399 13.3085733,36.9425324 13.8502894,38.2207322 C13.1298466,38.3534655 12.4236386,38.3776655 11.8502894,37.350999 Z" id="Path"></path>
            <path d="M2.73063135,17.9834637 C2.83865803,18.3586726 2.87546712,18.7263606 1.86241695,18.9834637 C1.61798975,18.6200758 1.94893526,18.2388964 2.73063135,17.9834637 L2.73063135,17.9834637 Z" id="Path"></path>
            <path d="M9.68522591,37.7038949 C10.0596728,37.6304723 10.4319073,37.5838923 10.6852259,38.6007566 C10.3197843,38.8281005 9.93947035,38.4870115 9.68522591,37.7038949 L9.68522591,37.7038949 Z" id="Path"></path>
            <path d="M22.0754184,22.5456415 L21.5357099,22.4711471 C21.0731026,21.9268188 20.4696711,22.0664523 19.8792659,22.1409467 C19.713682,22.1497269 19.5476282,22.1434636 19.3832129,22.1222365 C19.0258716,22.0449703 18.765699,21.8433158 18.7892871,21.451441 C18.806538,21.1659371 19.0603735,21.0741185 19.3015349,21.0252641 C19.4620744,20.993041 19.640569,21.0398165 19.7968838,20.9985847 C19.9465094,20.9594319 20.1580977,20.8780078 20.1936558,20.7685185 C20.2271015,20.6645729 20.1007119,20.4487126 19.9841799,20.3731788 C19.3669165,19.9501551 18.660424,19.6700196 17.9175856,19.5537411 C16.957517,19.4241556 16.1924899,19.5080051 15.6450361,20.5467679 C15.1401815,21.5023743 14.7508028,21.5470709 13.7974233,21.110153 C12.6394968,20.5800305 11.3875702,20.4435153 10.184932,20.1074246 C8.65792894,19.6805547 7.13855381,19.2286224 5.62680666,18.7516277 C5.17616941,18.6099152 4.93641631,18.0361356 5.16595966,17.7967143 C5.38945108,17.5383875 5.76683133,17.4705961 6.0686424,17.6345592 C7.9831466,18.5007724 10.0275611,18.9435806 12.0652864,19.4016341 C12.6356242,19.5301801 13.2196923,19.604328 13.8009439,19.6788223 C14.2234164,19.732874 14.6810948,19.7200541 14.9275371,19.3250608 C15.6394031,18.1969048 16.7962734,18.2949601 17.8359076,18.41623 C18.7394195,18.582941 19.6151827,18.8717551 20.4383378,19.274474 C21.0682256,19.5509311 21.4933498,20.1450612 21.5455676,20.8218772 C21.5764393,21.154528 21.7695566,21.4516972 22.0634483,21.6187934 C22.0662648,21.7636242 22.070959,21.9083396 22.0775308,22.0529394 C22.0742449,22.2167115 22.0735407,22.3809455 22.0754184,22.5456415 Z" id="Path"></path>
            <path d="M36.6167577,8.97739392 C35.1413535,9.02365532 34.3002973,7.78920631 34.9115723,6.44519081 C35.0207437,6.24044928 35.2009153,6.093405 35.4106432,6.03788177 C35.7899245,5.96101132 35.8562987,6.27092793 35.9122427,6.62919293 C36.1018834,7.83338073 36.1903823,7.90155543 37.1167769,7.66642228 C37.4796292,7.57415071 37.8361791,7.45408881 38.1838215,7.30711379 C38.3505619,7.22088421 38.4717903,7.0547707 38.5123184,6.85698988 C38.5528466,6.65920906 38.5081351,6.45191445 38.391162,6.29527604 C38.2106873,6.0486645 37.9303352,5.87335813 37.8020117,5.60448547 C37.7629388,5.4900848 37.77172,5.36254068 37.8260096,5.25592467 C37.8802991,5.14930866 37.9745659,5.07448276 38.0836281,5.05143561 C38.4395133,4.90603419 38.8389123,4.98170175 39.1301283,5.24969877 C39.5293782,5.62572788 39.7430573,6.18774511 39.7061039,6.7646258 C39.6691505,7.34150648 39.3859381,7.86497554 38.9427002,8.17564554 C38.2280789,8.62203943 37.4350892,8.89538159 36.6167577,8.97739392 Z" id="Path"></path>
            <path d="M20.8054836,22.9994602 C20.8038573,22.8376972 20.8050189,22.6759341 20.8089685,22.5141711 L22.4758074,22.4558955 L23.3097496,22.6143642 C23.46138,22.8437193 23.7354208,22.9660754 24.0119617,22.9278937 L24.8134941,23.1245312 C24.9765006,23.3500106 25.2592921,23.4614276 25.5366157,23.4094341 C26.1871432,23.4238408 26.835136,23.4938565 27.4731877,23.6186809 C28.2809929,23.8432635 29.0121299,23.9669713 29.8310869,23.6067532 C30.5310332,23.361312 31.2970395,23.364932 31.9945274,23.616977 C32.4050182,23.6970021 32.725229,24.0118892 32.8047721,24.4137508 C32.7570286,24.8192944 32.6974365,25.2193852 32.2903974,25.4558955 C31.8049475,24.9290297 31.2818605,24.229041 30.4921769,24.6039132 C29.1027379,25.2602804 27.8059979,24.8591671 26.4726661,24.5497272 C26.2370853,24.4952003 26.001853,24.4386287 25.7666207,24.3830794 C25.5346016,24.0677537 25.1236775,23.930932 24.7430986,24.0422865 L24.497063,24.0548959 L24.2803008,23.9366407 C24.065601,23.6039262 23.6557724,23.4448561 23.2661881,23.5430249 L22.7782988,23.4329488 C22.4646557,23.0110472 22.0272978,23.0171814 21.5679849,23.0965862 L20.8054836,22.9994602 Z" id="Path"></path>
            <path d="M31.7909218,36.912536 C31.7555475,37.129355 31.7607686,37.3508372 31.8063204,37.5657577 C31.9323093,37.8873062 32.2462316,38.1491535 32.5832518,37.9616708 C33.0129175,37.7123429 33.4022911,37.3995901 33.7381498,37.0340331 C34.0811195,36.6709382 33.8126932,36.2753742 33.6727056,35.889935 C33.6144369,35.7795173 33.6078579,35.6491064 33.6547195,35.5334104 C33.7015811,35.4177145 33.7971292,35.3284711 33.9159341,35.2894319 C34.1475213,35.2317577 34.3926558,35.2703106 34.5952241,35.3962656 C35.3207101,36.0114321 35.445649,36.6765243 34.9843898,37.364659 C34.7504819,37.7093373 34.48067,38.028356 34.1794608,38.3163866 C32.671794,39.7694645 31.3415615,39.5425302 30.4106437,37.6879531 C30.0382766,36.9470998 30.3476492,36.2848007 31.2264216,35.9395114 C31.3813682,35.8799214 31.5555248,35.8977341 31.6951269,35.9874504 C31.834729,36.0771666 31.9229888,36.2279977 31.9326593,36.3933801 C31.9064117,36.5714675 31.8588253,36.7457668 31.7909218,36.912536 Z" id="Path"></path>
            <path d="M42.520831,12.0263597 C42.3581454,12.0283076 42.2017329,11.9601942 42.0876757,11.8377323 C41.8920031,11.5167144 41.5334246,11.3503209 41.1770372,11.4151626 L41.1337566,11.3654269 C41.1503973,11.2284537 41.1488702,11.0897009 41.1292191,10.9531728 L41.1540008,10.9200156 L42.277901,10.8201757 C42.3977137,10.7558046 42.5442922,10.8006076 42.6129769,10.9225945 C42.7376626,11.1823952 42.9894172,11.3468946 43.2653277,11.3488483 C43.500322,11.3910942 43.6673757,11.6134888 43.6527592,11.8646264 C43.6313036,12.1267149 43.7682213,12.3747552 43.9948158,12.4842971 C44.167494,12.8093443 44.1907412,13.1996429 44.0579916,13.544958 C43.8230907,13.6853565 43.6825968,13.95291 43.6942946,14.2375744 C42.7396775,15.128397 41.6454454,14.7349319 40.6405668,14.4855163 C39.736192,14.2811418 38.9362698,13.7287635 38.3966057,12.9359714 C37.9840435,12.3133534 38.0685105,11.635842 38.6999191,11.0968538 C38.9030562,10.9610221 39.1432736,10.9004859 39.3826362,10.924805 C39.5094106,10.936673 39.6223741,11.0140799 39.6842422,11.1314768 C39.7461103,11.2488738 39.7488415,11.3910017 39.6915342,11.51095 C39.3013105,12.3951411 39.7459841,12.7635541 40.4245127,13.1094939 C41.0948211,13.4631031 41.8505895,13.5950939 42.5930818,13.4882224 C43.0552072,13.4226449 42.9557316,12.9934438 43.0304256,12.6806612 C43.0285569,12.3627931 42.8159311,12.0897891 42.520831,12.0263597 L42.520831,12.0263597 Z" id="Path"></path>
            <path d="M22.7857758,29.5381375 C22.6430569,29.3596086 22.5010225,29.1527763 22.3312656,28.9756988 C22.2036186,28.8714257 22.1257692,28.7128377 22.1184491,28.5421682 C22.1111291,28.3714987 22.1750816,28.2060742 22.2932757,28.0899486 C22.6850198,27.7575202 23.253793,27.8090623 23.5866447,28.2071536 C24.4621245,29.645908 24.1116588,30.8480754 22.6221795,31.514656 C21.2162097,32.1438616 20.2993175,31.9551725 19.3759225,30.825215 C19.0885872,30.5081293 18.9873979,30.0500528 19.1120464,29.6306678 C19.1876841,29.3817433 19.4029604,29.150962 19.6408253,29.3356596 C19.9526165,29.5780525 20.1634436,29.9634138 20.468732,30.2195955 C21.1370592,30.7611465 22.0855383,30.668164 22.6488752,30.0058688 C22.7358071,29.9053556 22.7358071,29.7199322 22.7857758,29.5381375 Z" id="Path"></path>
            <path d="M42.6602694,22.7805465 C41.4674832,22.6378446 40.3325699,22.5576926 39.3736305,21.9526239 C38.8413349,21.6166143 38.3521076,21.1888228 38.4392533,20.4979443 C38.4630706,20.1913064 38.6827645,19.9284651 38.9954382,19.8325258 C39.1410279,19.765793 39.3126286,19.7711589 39.4531154,19.8468374 C39.5936022,19.9225158 39.6845311,20.0585713 39.6956322,20.2097115 C39.6764535,21.2994639 40.6343835,21.3277529 41.3349141,21.5119452 C42.0596704,21.702424 42.8894054,21.9519952 43.4819291,21.1237583 C43.5682986,20.992491 43.723164,20.9143361 43.8880328,20.9188126 C44.0529017,20.923289 44.2026465,21.0097146 44.2807089,21.1454464 C44.4054607,21.3234431 44.4540957,21.5387195 44.4169792,21.7486293 C44.189189,22.5504633 43.6558841,22.829895 42.6602694,22.7805465 Z" id="Path"></path>
            <path d="M27.9247838,15.2767457 C26.7460465,15.304051 26.0613316,14.7403485 25.9411195,13.6184044 C25.8846095,13.2442411 26.1677111,12.8986024 26.5737974,12.8459681 C26.7256906,12.8018222 26.8915124,12.8313341 27.0146235,12.9244234 C27.1377345,13.0175127 27.2014774,13.1615841 27.1840797,13.3074275 C27.1577318,13.6997135 27.1821036,14.1353846 27.5651356,14.225492 C28.2575842,14.4033 29.0005463,14.2342121 29.5234401,13.779809 C29.8392851,13.5067561 29.5171825,13.2585813 29.3567899,13.0465102 C29.2094796,12.8750048 29.2137496,12.6316346 29.3669997,12.4646042 C29.6179631,12.1439187 29.940395,12.3001656 30.1785138,12.4582329 C31.1336236,13.0926258 31.1836845,13.9609341 30.3250737,14.5834947 C29.6489218,15.0737764 29.0356754,15.2515642 27.9247838,15.2767457 Z" id="Path"></path>
            <path d="M18.4079206,11.1975653 C18.7376193,11.274834 19.0970598,11.3366489 19.1957155,11.6971242 C19.3389839,12.2238952 18.9904246,12.4113558 18.5065764,12.4362161 C17.9766646,12.4627563 17.7049987,12.6878433 17.8453655,13.1753081 C17.9582327,13.6403265 18.1370257,14.0894702 18.3770907,14.5110487 C18.4622026,14.697655 18.6425393,14.8323917 18.8574552,14.8699483 C19.0723712,14.9075048 19.2933137,14.8428916 19.4459819,14.6978374 C19.8322625,14.4092556 20.2403054,14.3702853 20.4887582,14.8402806 C20.6868787,15.2181943 20.5227086,15.6734805 20.119162,15.8652667 C19.488699,16.3297641 18.5882983,16.3047716 17.9889966,15.8061393 C17.0517353,14.9589948 16.5389656,13.7878252 16.5744478,12.5752998 C16.5657429,11.8530054 17.3959742,11.2731542 18.4079206,11.1975653 Z" id="Path"></path>
            <path d="M44.79322,35.7933326 C44.2553398,35.806091 43.7222493,35.6990194 43.2409585,35.4815595 C42.6438064,35.2471329 42.3040345,34.6717192 42.4209101,34.0927836 C42.4705067,33.8056512 42.51291,33.4165339 43.0130411,33.4134538 C43.2841084,33.387225 43.5336883,33.5493187 43.5926782,33.7899086 C43.6432651,34.1126022 43.8470555,34.3992962 44.1507352,34.5749879 C44.9794914,34.9685543 45.8752599,34.5534273 46.1255147,33.6567805 C46.1682966,33.5038029 46.1255147,33.3326871 46.15656,33.1749183 C46.1654118,33.0545489 46.2327952,32.9439072 46.3405762,32.8727686 C46.4483573,32.80163 46.5854628,32.7773031 46.7149955,32.8063348 C46.9899737,32.8159048 47.2260858,32.9860671 47.2976615,33.2262531 C47.7341877,34.7905939 46.7191601,35.8299513 44.79322,35.7933326 Z" id="Path"></path>
            <path d="M46.2461401,29.2022554 C45.8093944,29.1095381 45.3676287,29.0336785 44.9368443,28.9187091 C44.6396457,28.8719202 44.3934106,28.6468603 44.3027472,28.3391419 C44.2312113,28.0714419 44.6773696,27.742717 45.1232142,27.7703636 C45.271979,27.7776401 45.4202795,27.7933961 45.56749,27.8175651 C46.4334513,27.9740045 46.9982087,27.6429195 47.2592521,26.7049579 C47.3398869,26.4153429 47.5557498,26.1115674 47.9256658,26.2477775 C48.4251624,26.4315263 48.3128384,26.8812893 48.1917293,27.2390094 C48.0438232,27.6877653 47.8399032,28.112865 47.5855564,28.5026614 C47.3085136,29.0016097 46.7824092,29.2764007 46.2461401,29.2022554 Z" id="Path"></path>
            <path d="M10.8254784,32.341592 C10.4159975,30.3965796 10.0655662,30.1112575 8.39460281,30.3973102 C8.155241,30.4382271 7.93169604,30.5719376 7.69338869,30.6300249 C7.44367761,30.6809214 7.19359946,30.5440374 7.09269951,30.3012287 C7.02959377,30.187306 7.01606867,30.0508675 7.05549964,29.9259639 C7.09493061,29.8010604 7.18359798,29.6994745 7.29937314,29.6465588 C9.34712925,28.2948409 11.6156184,29.2984001 12.0026043,31.7336843 C12.0845004,32.2498944 12.0324805,32.7737764 11.4718607,33.040832 L10.9513103,32.5114701 L10.8254784,32.341592 Z" id="Path"></path>
            <path d="M38.3617036,26.2361645 L39.1542306,26.3472285 C39.5626213,26.7917671 40.1181769,26.696529 40.6599665,26.6524426 L41.4829753,26.7372242 C41.4814458,26.9751782 41.4796977,27.2131321 41.4777311,27.451086 L40.9959219,27.4414775 C40.5865479,27.0088082 40.0382031,27.1006551 39.5019855,27.147285 L38.6498059,27.0342428 C38.3698976,26.7033116 37.9759285,26.6990725 37.5622936,26.7516371 L36.7730442,26.6298341 C36.4954303,26.2991855 36.1037554,26.2929682 35.6914316,26.3472285 L34.9011989,26.2452079 C34.5498386,25.8173429 34.0319757,25.8823422 33.530173,25.9009942 L33.4829753,25.8843205 C33.7124083,25.5418025 34.1122772,25.4982812 34.509524,25.451086 L35.4075902,25.560737 C35.6884817,25.8851683 36.0788455,25.8843205 36.4872362,25.830908 L37.2810743,25.9566675 C37.559016,26.2861857 37.9503631,26.2901421 38.3617036,26.2361645 Z" id="Path"></path>
            <path d="M5.46631483,22.2645526 C3.28664926,22.1741148 3.03582468,21.8307968 4.00735187,20.2645526 C4.06055652,20.3951252 4.07701657,20.5315046 4.05584462,20.6663383 C3.60185214,21.5928936 4.32548104,22.0128245 5.46631483,22.2645526 Z" id="Path"></path>
            <path d="M34.8848991,26.6998142 C34.4734938,26.7563765 34.0597124,26.8085357 33.8217627,27.2190352 C33.2749195,27.1242004 33.0834735,26.6859277 32.8848991,26.254429 C33.2813689,26.0197126 33.3394137,25.6220835 33.3859174,25.2190352 C33.6404999,25.9597634 34.2297735,26.3628117 34.8848991,26.6998142 Z" id="Path"></path>
            <path d="M41.1038102,43.5590123 C40.0851094,43.4644311 38.9999716,44.1244133 38.1038102,42.6278046 C39.1324765,42.6118092 40.1592974,42.6159819 41.1038102,43.5590123 Z" id="Path"></path>
            <path d="M39.5368229,43.4089364 L41.5368229,43.2405052 C41.520635,43.7294365 41.3701901,44.1205044 41.1781212,44.1729177 C40.6056533,44.3093683 40.0359835,44.3200285 39.5368229,43.4089364 Z" id="Path"></path>
            <path d="M10.0945689,32.8398701 C9.92964437,32.825535 9.79791105,32.6443713 9.78654949,32.4162724 C9.77454321,32.3053552 9.79613641,32.1924975 9.84623432,32.1043275 C9.89633222,32.0161576 9.97049768,31.9604845 10.0512318,31.9504439 C10.2632573,31.8859694 10.4834376,31.874364 10.7001229,31.8398701 L10.7833021,31.989451 L10.0945689,32.8398701 Z" id="Path"></path>
            <path d="M9.85028942,34.6985566 L11.182421,33.8219209 L11.8502894,34.3037715 C11.3374458,34.8587304 10.649298,34.9285156 9.85028942,34.6985566 Z" id="Path"></path>
            <path d="M22.8406705,23.7290395 L20.8572577,23.8578193 C20.8497934,23.5430243 20.8442644,23.2284803 20.8406705,22.9141873 C21.5568223,22.7839013 22.2534841,22.8140252 22.8406705,23.7290395 Z" id="Path"></path>
            <path d="M19.4746451,22.6620427 C20.1875037,22.4879777 20.9160903,22.1617069 21.4746451,23.433596 C20.78123,23.6220766 20.0748961,23.3495895 19.4746451,22.6620427 L19.4746451,22.6620427 Z" id="Path"></path>
            <path d="M34.5679118,26.8060479 C34.9339171,26.7587472 35.3116364,26.5910447 35.5679118,27.6789607 C35.2065059,27.943133 34.8255174,27.6105633 34.5679118,26.8060479 Z" id="Path"></path>
            <path d="M40.9650261,27.1408428 C40.2453918,27.2612389 39.5074728,27.5213252 38.9650261,26.3073317 C39.6674487,26.1144838 40.3846481,26.4133806 40.9650261,27.1408428 L40.9650261,27.1408428 Z" id="Path"></path>
            <path d="M39.9650261,28.0956213 C40.6828848,27.9681234 41.4169787,27.7169911 41.9650261,28.9000173 C41.2637772,29.1402543 40.5375207,28.8481554 39.9650261,28.0956213 L39.9650261,28.0956213 Z" id="Path"></path>
            <path d="M36.155902,44.0084544 C36.1001516,43.7324646 36.0273091,43.468611 35.9387467,43.2218648 C36.6653482,42.9261133 37.3758802,42.7653619 37.9387467,43.9382232 L36.155902,44.0084544 Z" id="Path"></path>
            <path d="M42.4422675,11.2745626 L41.4422675,11.366949 C41.7329507,10.7795626 42.0826401,10.9626308 42.4422675,11.2745626 Z" id="Path"></path>
            <path d="M40.5762421,11.480928 C40.9676019,11.420927 41.361368,11.5748985 41.5762421,11.8719507 C41.1634402,11.9019507 40.7747856,11.8835416 40.5762421,11.480928 Z" id="Path"></path>
            <path d="M21.1576578,23.8790463 C21.5371568,23.7996144 21.8988038,23.7934781 22.1576578,24.2155235 C21.7978107,24.3070309 21.4230757,24.1809411 21.1576578,23.8790463 L21.1576578,23.8790463 Z" id="Path"></path>
            <path d="M24.505734,23.4057593 C24.8899737,23.1802197 25.2941196,23.5462592 25.505734,24.3114705 C25.1250198,24.4454823 24.7423317,24.0988774 24.505734,23.4057593 L24.505734,23.4057593 Z" id="Path"></path>
            <path d="M24.755734,24.1109273 C25.1275666,23.9995347 25.5290471,24.1364031 25.755734,24.4518363 C25.3853417,24.5278378 25.0028494,24.3974427 24.755734,24.1109273 Z" id="Path"></path>
            <path d="M37.0499626,25.998001 C36.6716991,26.0624328 36.3101326,26.0634556 36.0499626,25.6720919 C36.4111333,25.5759799 36.7907286,25.6996934 37.0499626,25.998001 Z" id="Path"></path>
            <path d="M39.7820134,26.7323182 C39.4017104,26.7974318 39.0398922,26.7926591 38.7820134,26.3955 C39.1444227,26.3130043 39.5195267,26.4393461 39.7820134,26.7323182 Z" id="Path"></path>
            <path d="M35.6839372,27.0340549 C36.0654524,26.9696231 36.4275736,26.9771231 36.6839372,27.374964 C36.3209798,27.4548567 35.9464221,27.3271666 35.6839372,27.0340549 L35.6839372,27.0340549 Z" id="Path"></path>
            <path d="M38.415988,27.7639851 C38.7963376,27.7002351 39.1586041,27.7053487 39.415988,28.1048942 C39.0529912,28.1937449 38.6751262,28.0649273 38.415988,27.7639851 Z" id="Path"></path>
            <path d="M41.3980388,29.5957133 C41.4011377,29.263209 41.4042366,28.9307047 41.4073354,28.5982004 C41.8750711,28.6207096 42.4439075,28.5705575 42.3951003,29.065365 C42.3544276,29.4653969 41.9628079,29.620197 41.3980388,29.5957133 Z" id="Path"></path>
            <path d="M10.8012513,36.5264532 C10.435355,36.6235919 10.0477868,36.4979405 9.80125132,36.2022487 C10.1659687,36.132996 10.5402568,36.2543419 10.8012513,36.5264532 Z" id="Path"></path>
            <path d="M12.1672767,36.8833313 C11.8068335,36.9961095 11.4195268,36.8743719 11.1672767,36.5690131 C11.526694,36.4994769 11.8952035,36.6153062 12.1672767,36.8833313 L12.1672767,36.8833313 Z" id="Path"></path>
            <path d="M40.7428869,11.734068 C40.7621576,11.8604036 40.7636552,11.9887978 40.7473365,12.1155452 C40.5553164,12.0899771 40.4800144,11.9897498 40.5587392,11.8336134 C40.5844104,11.782818 40.6805916,11.7664543 40.7428869,11.734068 Z" id="Path"></path>
            <path d="M42.9422675,12.2425807 C42.5193193,12.2407728 42.1334004,12.0885541 41.9422675,11.8481488 C42.3849793,11.796944 42.8167942,11.9672655 42.9422675,12.2425807 L42.9422675,12.2425807 Z" id="Path"></path>
            <path d="M42.1922675,11.9738447 C42.7714801,12.0710189 43.1886654,12.4882042 43.1922675,12.9738447 L42.1922675,11.9738447 Z" id="Path"></path>
            <path d="M44.6559949,13.0898701 C44.433786,12.9130958 44.2995184,12.5128181 44.3205587,12.0898701 C44.5586231,12.2348024 44.7008021,12.6586653 44.6559949,13.0898701 Z" id="Path"></path>
            <path d="M25.255734,23.5678114 C24.8619201,23.6060061 24.4716665,23.4836084 24.255734,23.2541751 C24.6537304,23.1928992 25.0624515,23.321089 25.255734,23.5678114 Z" id="Path"></path>
            <path d="M25.755734,24.4187082 C25.372225,24.4707194 24.9811545,24.3592644 24.755734,24.1337082 C25.1411037,24.0659015 25.5444522,24.1808558 25.755734,24.4187082 Z" id="Path"></path>
            <path d="M4.28855691,16.883987 L4.13692604,16.8597825 L4.10817436,16.7172825 C4.2283153,16.711828 4.28821463,16.7670552 4.28855691,16.883987 Z" id="Path"></path>
        </g>
    </g>
</svg>