<?xml version="1.0" encoding="UTF-8"?>
<svg width="18px" height="15px" viewBox="0 0 18 15" version="1.1" xmlns="http://www.w3.org/2000/svg" xmlns:xlink="http://www.w3.org/1999/xlink">
    <!-- Generator: Sketch 61.2 (89653) - https://sketch.com -->
    <title>dot_left</title>
    <desc>Created with Sketch.</desc>
    <g id="Page-1" stroke="none" stroke-width="1" fill="none" fill-rule="evenodd">
        <g id="Artboard" transform="translate(-763.000000, -4214.000000)" fill="#604838" fill-rule="nonzero">
            <g id="dot_left" transform="translate(770.996479, 4221.886207) rotate(-30.000000) translate(-770.996479, -4221.886207) translate(765.496479, 4211.386207)">
                <path d="M0.753516332,4.15840461 C0.750855835,3.12326712 1.19433389,2.13694904 1.97099192,1.45067606 C2.57494811,0.823804467 3.48876484,0.603933533 4.31268527,0.88724765 C4.90627308,1.09820749 5.46746924,1.39075027 5.98005293,1.75642033 C6.67574047,2.29247219 6.92160436,3.22923595 6.57854261,4.03672044 C6.23694836,4.81125658 5.72401477,5.49855747 5.07821916,6.04706573 C4.2644233,6.76506736 3.11404651,6.96297175 2.10626698,6.55834378 C1.16681743,6.15176609 0.613775772,5.17060497 0.753516332,4.15840461 Z M4.49202722,3.24526201 L4.59450833,3.09392371 L4.42643931,3.07858537 L4.49202722,3.24526201 Z" id="Shape"></path>
                <path d="M5.81924473,11.7653718 C5.71587215,11.7547611 5.61249957,11.7518673 5.50912698,11.7325751 C4.5797585,11.4919492 3.88843728,10.7645139 3.74352324,9.87473755 C3.65425369,9.07848784 4.09187601,8.31137753 4.84960989,7.93587282 C5.42253824,7.66891942 6.10648108,7.71824097 6.62865207,8.06416586 C6.78709886,8.19175857 6.93628405,8.32903553 7.07522163,8.47508943 C7.6347521,8.94931078 7.86080789,9.67692645 7.65985569,10.3568766 C7.45890348,11.0368267 6.86512134,11.553465 6.12419386,11.6930261 C6.02392245,11.7238936 5.92054987,11.7412566 5.81924473,11.7653718 Z" id="Path"></path>
                <path d="M8.43936629,13.7653718 C8.65787092,13.8003998 8.86825305,13.8680454 9.06173194,13.9654854 C9.51026544,14.2902644 9.75852395,14.7873956 9.72980696,15.3032882 C9.70108996,15.8191809 9.39885395,16.2917399 8.91647605,16.5749661 C8.53199714,16.8118846 8.02942644,16.8290291 7.62593326,16.6189911 C7.09605239,16.3979253 6.75033073,15.928514 6.73205081,15.4053024 C6.8078781,14.5703656 7.5145732,13.8915625 8.43936629,13.7653718 Z" id="Path"></path>
                <path d="M9.73205081,19.7979304 C9.78065204,19.3126672 9.9750789,18.9155819 10.2370869,18.7664761 C10.4391014,18.7362813 10.7353893,19.3317227 10.7320224,19.7677356 C10.7014251,20.2605573 10.4981281,20.6626815 10.2276596,20.7653718 C9.95249225,20.7046808 9.74253491,20.2948386 9.73205081,19.7979304 L9.73205081,19.7979304 Z" id="Path"></path>
            </g>
        </g>
    </g>
</svg>