<?xml version="1.0" encoding="UTF-8"?>
<svg width="15px" height="15px" viewBox="0 0 15 15" version="1.1" xmlns="http://www.w3.org/2000/svg" xmlns:xlink="http://www.w3.org/1999/xlink">
    <!-- Generator: Sketch 61.2 (89653) - https://sketch.com -->
    <title>dit_right</title>
    <desc>Created with Sketch.</desc>
    <g id="Page-1" stroke="none" stroke-width="1" fill="none" fill-rule="evenodd">
        <g id="Artboard" transform="translate(-987.000000, -4211.000000)" fill="#604838" fill-rule="nonzero">
            <g id="dit_right" transform="translate(994.839284, 4219.232795) rotate(-332.000000) translate(-994.839284, -4219.232795) translate(990.339284, 4209.232795)">
                <path d="M5.72479207,6.05834974 C5.63305975,6.0489413 5.39157636,6.03326056 5.15322911,5.99484275 C4.07411267,5.78859475 3.36000653,4.75478126 3.54908945,3.6725252 C3.68837163,2.87141288 4.08762983,2.13847512 4.68515904,1.58698683 C6.03291861,0.330175547 7.10704928,0.505015794 8.1145368,1.90452181 C8.86575783,2.82896576 8.79107012,4.17300509 7.94204866,5.00852422 C7.43359789,5.71758188 6.59550627,6.11440108 5.72479207,6.05834974 Z M4.53462394,3.5431591 C4.5063986,3.61137032 4.4491639,3.68193365 4.45622024,3.74622468 C4.48130942,3.98143577 4.57382578,4.02298973 4.67418252,3.85520582 C4.70212514,3.78469651 4.70212514,3.70618477 4.67418252,3.63567547 C4.66477407,3.59333747 4.58637038,3.57295251 4.53462394,3.5431591 Z" id="Shape"></path>
                <path d="M4.29941284,10.6128206 C3.72413139,10.6612767 3.16482379,10.4081789 2.82150313,9.94403703 C2.45609963,9.38278862 2.47196929,8.65496244 2.86148901,8.11017452 C3.16667216,7.61660412 3.69340673,7.30290442 4.27275558,7.26968688 C4.59228356,7.25343446 4.90836407,7.34209118 5.17283004,7.52214679 C5.68246109,7.88570203 5.94917632,8.50134012 5.86584761,9.12178556 C5.78251891,9.74223101 5.36281897,10.2656804 4.77532329,10.4818864 C4.62035705,10.5379171 4.46123143,10.5816963 4.29941284,10.6128206 Z" id="Path"></path>
                <path d="M3.87524883,13.8265882 C3.91323279,14.4168865 3.49520996,14.9389053 2.91088334,15.030869 C2.62626802,15.036732 2.35162891,14.9259789 2.1507033,14.724313 C1.94977768,14.522647 1.84003544,14.2476024 1.84694516,13.9630106 C1.88388506,13.3746727 2.36243976,12.9110622 2.95165327,12.8928001 C3.45715568,12.9127967 3.86080122,13.3208967 3.87524883,13.8265882 Z" id="Path"></path>
                <path d="M1.50353696,18.3473454 C1.49911458,18.6619619 1.2807672,18.9330361 0.974311998,19.0043684 C0.745547375,19.022278 0.520247068,18.9401737 0.356643392,18.7792767 C0.193039716,18.6183798 0.107188666,18.3944804 0.121279761,18.1654488 C0.195572531,17.8571725 0.463251195,17.634107 0.779870826,17.6166229 C1.18014338,17.6217586 1.5022855,17.9470419 1.50353696,18.3473454 Z" id="Path"></path>
            </g>
        </g>
    </g>
</svg>