<?xml version="1.0" encoding="UTF-8"?>
<svg width="35px" height="35px" viewBox="0 0 35 35" version="1.1" xmlns="http://www.w3.org/2000/svg" xmlns:xlink="http://www.w3.org/1999/xlink">
    <!-- Generator: Sketch 61.2 (89653) - https://sketch.com -->
    <title>白抜きの電話アイコン 2</title>
    <desc>Created with Sketch.</desc>
    <g id="Page-1" stroke="none" stroke-width="1" fill="none" fill-rule="evenodd">
        <g id="Artboard" transform="translate(-506.000000, -8160.000000)" fill="#4B4B4B" fill-rule="nonzero">
            <g id="白抜きの電話アイコン-2" transform="translate(506.000000, 8160.000000)">
                <path d="M17.5,0 C7.83521484,0 0,7.83514648 0,17.5 C0,27.1647852 7.83521484,35 17.5,35 C27.1647852,35 35,27.1647852 35,17.5 C35,7.83514648 27.1648535,0 17.5,0 Z M25.6817969,24.8955957 C25.470293,25.1418262 23.4819922,27.7586914 20.3171582,26.6563965 C17.1512988,25.5541016 14.7122363,23.5530176 12.9215625,21.4274512 C11.1303418,19.3018848 9.57195313,16.5590332 9.02186523,13.252627 C8.47287109,9.94628906 11.3883301,8.43117187 11.6670313,8.26396484 C11.9458008,8.09675781 13.1688184,7.8068457 13.7178125,8.62339844 C14.2652344,9.44001953 15.2431152,11.9281641 15.3295898,12.5284961 C15.4166113,13.1287598 14.7880469,13.7931445 14.0654883,13.9303418 C13.3423828,14.0676074 13.3786816,14.4420117 13.3786816,14.4420117 C13.3786816,14.4420117 13.780293,15.9026465 16.1461426,18.7102344 C18.5125391,21.5177539 19.8834863,22.1612891 19.8834863,22.1612891 C19.8834863,22.1612891 20.2455859,22.2601367 20.5040527,21.5711426 C20.7614941,20.8822168 21.5230176,20.3754004 22.099834,20.5628418 C22.6766504,20.7502832 24.9629297,22.1355859 25.6753711,22.813916 C26.3867188,23.4932031 25.8938477,24.6494336 25.6817969,24.8955957 Z" id="Shape"></path>
            </g>
        </g>
    </g>
</svg>