<?xml version="1.0" encoding="UTF-8"?>
<svg width="370px" height="19px" viewBox="0 0 370 19" version="1.1" xmlns="http://www.w3.org/2000/svg" xmlns:xlink="http://www.w3.org/1999/xlink">
    <!-- Generator: Sketch 61.2 (89653) - https://sketch.com -->
    <title>Group 11</title>
    <desc>Created with Sketch.</desc>
    <g id="Page-1" stroke="none" stroke-width="1" fill="none" fill-rule="evenodd">
        <g id="Artboard" transform="translate(-459.000000, -3781.000000)" fill="#604838">
            <g id="Group-11" transform="translate(459.000000, 3781.000000)">
                <g id="Group-2" transform="translate(0.000000, 7.000000)">
                    <circle id="Oval" cx="2.5" cy="2.5" r="2.5"></circle>
                    <circle id="Oval" cx="32.5" cy="2.5" r="2.5"></circle>
                    <circle id="Oval" cx="62.5" cy="2.5" r="2.5"></circle>
                    <circle id="Oval" cx="92.5" cy="2.5" r="2.5"></circle>
                    <circle id="Oval" cx="122.5" cy="2.5" r="2.5"></circle>
                </g>
                <g id="Group-2" transform="translate(245.000000, 7.000000)">
                    <circle id="Oval" cx="2.5" cy="2.5" r="2.5"></circle>
                    <circle id="Oval" cx="32.5" cy="2.5" r="2.5"></circle>
                    <circle id="Oval" cx="62.5" cy="2.5" r="2.5"></circle>
                    <circle id="Oval" cx="92.5" cy="2.5" r="2.5"></circle>
                    <circle id="Oval" cx="122.5" cy="2.5" r="2.5"></circle>
                </g>
                <g id="cutlery_icon_s" transform="translate(175.000000, 0.000000)" fill-rule="nonzero">
                    <path d="M19.5859459,1.60902857 L19.7135135,1.63182857 L19.7308108,1.61011429 L19.6940541,1.55148571 C19.7027027,1.55148571 19.7059459,1.55148571 19.7145946,1.55148571 L19.6432432,1.47982857 C19.5843305,1.50070162 19.521777,1.50920102 19.4594595,1.5048 L19.1881081,1.77731429 C19.3848649,1.76754286 19.6162162,1.70022857 19.5859459,1.60902857 Z" id="パス_6"></path>
                    <polygon id="パス_7" points="18.3891892 1.08571429 18.3675676 1.064 18.3675676 1.10742857"></polygon>
                    <path d="M18.4232432,0.554257143 L18.3854054,0.516257143 L18.3335135,0.569457143 C18.3616216,0.562942857 18.3918919,0.5586 18.4232432,0.554257143 Z" id="パス_11"></path>
                    <path d="M17.6667299,17.0984052 C17.2382245,16.3994896 16.6851735,15.7899189 16.0366074,15.3016906 L15.1044224,14.5168619 C14.9446535,14.6020084 14.6995946,14.4033332 14.8569609,14.3070807 L13.809454,13.4222974 C13.6388738,13.4346375 13.3854059,13.2594085 13.3469653,13.3667671 C13.1667749,13.3371509 13.3950161,13.2828546 13.3469653,13.1705599 C13.4205178,13.196762 13.4966574,13.2145569 13.5740052,13.2236223 C12.5733478,12.3758592 11.4729851,11.4367797 10.4627176,10.5606345 C10.3894402,10.5544645 10.335383,10.5371884 10.3245716,10.4977001 L10.3786287,10.4878281 L10.1119469,10.2570687 L10.4398935,9.86588839 L10.3197665,9.84491026 C10.1071419,9.88316449 9.60981636,9.7671678 9.59900493,9.91031265 C9.23862413,9.77457185 9.90292608,9.64500108 9.8392588,9.45372995 L10.0218517,9.48704814 L10.0819152,9.38956157 L10.3221691,9.38956157 C10.3882389,9.24518271 10.0915254,9.29701102 10.0819152,9.19458841 L10.1768155,9.08599577 L10.3233704,8.99714724 C10.4381534,8.95125693 10.5606096,8.92903342 10.6837512,8.93174486 L10.8038781,8.99714724 L10.924005,9.06131562 C10.9017178,9.08971317 10.8944263,9.1275427 10.9044978,9.16252189 C10.9145692,9.19750107 10.9407196,9.22516979 10.9744583,9.23654466 C11.3192226,8.8379603 11.6159362,8.50477833 11.8309634,8.28389102 C12.9048982,7.18068849 13.2808955,8.23823275 14.8341368,7.10788206 C15.1579558,6.84158847 15.4611843,6.54989962 15.7410951,6.2354389 C15.7032689,6.22630436 15.6668765,6.21176605 15.6329809,6.19224865 L15.8107688,6.16139846 L15.8107688,6.16139846 L15.7519066,6.06514589 L15.9020652,6.06514589 C16.1759546,5.76898414 16.4726682,5.43580217 16.7765893,5.09028012 L16.4786745,5.09028012 C16.4882847,4.98785752 16.4198123,4.84347866 16.5988014,4.82990458 L16.7285385,4.94713528 L16.9471696,4.89777498 C17.1477815,4.66701562 17.3471923,4.43625625 17.5478042,4.20549689 C17.3504313,4.19728089 17.1545891,4.16623468 16.9639873,4.11294634 C17.0060318,4.24375111 16.9399619,4.31779155 16.7237335,4.3091535 L16.7321423,4.29557942 L16.5759773,4.45600037 L16.66367,4.47204247 L16.8450617,4.50412666 L16.8450617,4.63493143 L16.66367,4.66824963 L16.6036065,4.7657362 C16.5158558,4.73187887 16.4233826,4.71271354 16.3297171,4.70897187 L15.7927497,5.26057313 C15.6437923,5.41359004 15.4443816,5.45554629 15.3470788,5.35559169 C15.249776,5.2556371 15.2906191,5.05079189 15.4395765,4.89777498 L16.4918885,3.81678459 C16.4918885,3.80691253 16.4822783,3.79827448 16.4822783,3.78716841 L16.5147126,3.78716841 L17.0504787,3.23680116 C16.9387607,3.20841899 16.8222375,3.18250483 16.7105195,3.15288866 L15.2281531,4.67565367 C15.0791957,4.82867058 14.879785,4.87062682 14.7812809,4.77067223 C14.6827768,4.67071764 14.7248213,4.46587243 14.8737787,4.31285552 L16.3441323,2.80366459 C16.3441323,2.76294235 16.3080943,2.72222011 16.2396219,2.67409383 L16.0486201,2.67409383 L14.6635565,4.09690425 C14.5145991,4.24992115 14.3151884,4.2918774 14.2178856,4.19192281 C14.1205828,4.09196822 14.1614259,3.885889 14.3103833,3.7341061 L17.7556238,0.194973154 L17.5658233,0 C17.5658233,0 16.8654832,0.586153469 15.9873553,1.34753597 L15.999368,1.36974811 L15.9609274,1.36974811 C15.5609047,1.71650416 15.129649,2.0953444 14.7068022,2.48035468 C14.8061562,2.54574362 14.9165872,2.59137099 15.0323462,2.61486147 C15.017931,2.99987175 14.6815756,2.77775044 14.3812582,2.77281441 C13.7297585,3.32868863 13.1235077,3.93825484 12.5685428,4.5954432 C12.131614,5.21581617 11.9130309,5.97037526 11.9486878,6.73521186 C12.1060541,6.75742399 12.2862445,6.88699476 12.2514077,6.98201332 C11.976317,7.02273556 12.0111538,6.89810082 11.9354738,6.82899641 C11.9247991,6.90069675 11.9095502,6.9715992 11.8898256,7.04124567 C11.8967086,7.06457927 11.8967086,7.08948449 11.8898256,7.11281809 L11.869404,7.11281809 C11.816597,7.26377458 11.7425321,7.40596318 11.6495717,7.53484859 C11.7700938,7.50335233 11.8975348,7.51600736 12.0099525,7.5706348 C11.976317,7.65084528 11.7540821,7.63110116 11.5774956,7.63603719 C11.5197419,7.70912808 11.4583975,7.77914607 11.3937013,7.84581843 C11.0080939,8.24193478 10.2885335,8.89719265 9.42121707,9.66351119 L9.16774924,9.43892186 C9.10577379,9.43894241 9.0445922,9.42460104 8.9887601,9.39696561 C9.01018292,9.3752637 9.03494033,9.35733613 9.06203753,9.3439033 C8.70886434,9.02923143 8.38812543,8.73923972 8.11303474,8.48009818 L8.02414081,8.48009818 C8.0138922,8.46970784 8.00886418,8.45505334 8.01050579,8.44035802 C8.0121474,8.4256627 8.02027627,8.41255915 8.0325497,8.40482374 C7.78268567,8.17283037 7.570061,7.96921916 7.41629852,7.81003222 C7.26967202,7.6635652 7.14787167,7.49298527 7.05591771,7.30532323 L7.05591771,7.30532323 L7.05591771,7.30532323 C6.59823409,6.35513761 7.16883703,5.33091155 6.23665202,3.97967355 C6.07566976,3.75014582 5.90073712,3.53129095 5.71289858,3.32441567 C5.63678479,3.3198667 5.56043294,3.32193072 5.4846574,3.33058571 C5.50147517,3.28492744 5.56874626,3.26641733 5.65764019,3.26024729 C5.6023818,3.19978094 5.53751325,3.13684656 5.48105359,3.07638021 C5.42339267,3.08625226 5.38014697,3.10352837 5.36092666,3.13561256 C5.19755403,3.11586844 5.26002003,2.97148959 5.24079972,2.87400301 C5.25641623,2.87400301 5.26242257,2.87400301 5.27563654,2.87400301 C4.46707654,2.0977984 3.53816775,1.46554148 2.52713226,1.00324794 C2.36736343,0.930441506 2.2196073,0.879847207 2.08026006,0.826784893 C1.93610774,0.84159298 1.77754018,0.850231032 1.73549576,0.919335441 C1.55890916,0.89218728 1.77273511,0.837890959 1.73549576,0.730532323 C1.2606607,0.555322394 0.732676407,0.626566349 0.317997921,0.921803455 L0.289167456,0.948951616 L0.26273953,0.978567791 C0.102970707,1.1661369 -0.277831678,1.80905471 0.342023308,3.24667321 C0.403288045,3.38981806 0.471760398,3.52555886 0.539031481,3.66253367 C0.704806652,3.67734176 0.779285352,3.73904213 0.766071389,3.85380481 C0.714295702,3.8345494 0.66132093,3.81888347 0.607503834,3.80691253 C0.672372379,3.93031326 0.740844732,4.05371399 0.809317085,4.17711472 L1.00752653,4.17711472 L1.14807504,4.2746013 L1.3691086,4.2412831 C1.5456952,4.39553401 1.62377771,4.36468383 1.48923554,4.56829503 C1.32464501,4.50802743 1.15102174,4.47795352 0.976293525,4.47944651 C1.10482935,4.69169577 1.23817024,4.89283896 1.37391368,5.0865781 C1.49404062,5.0865781 1.59374597,5.09768417 1.61416755,5.1544485 L1.55410408,5.25316909 L1.73549576,5.21985089 C1.97574963,5.34325162 1.73549576,5.39754794 1.73549576,5.55796889 C2.17353231,6.12225216 2.68250519,6.62434819 3.24909514,7.05111773 C4.8107453,8.18146842 5.90630295,7.15600835 6.98023775,8.26044488 C7.19286242,8.47886418 7.48597214,8.80711012 7.82112629,9.19952444 L8.020537,9.19952444 L8.020537,9.32292517 L7.93404561,9.32292517 C8.15748171,9.58330071 8.40254066,9.87082441 8.65480722,10.1793262 C8.78214177,10.2101764 8.86623063,10.2632387 8.86142555,10.3656613 C8.7968607,10.3569235 8.73494441,10.3337566 8.68003388,10.2977909 C7.87518341,10.9999411 6.99825679,11.7563876 6.1393492,12.4832179 C6.23908155,12.4605209 6.3411624,12.4505735 6.44327035,12.4536017 C6.39041449,12.5350462 6.2883066,12.5868745 6.08288954,12.5844065 C6.07412624,12.5669909 6.07412624,12.5462917 6.08288954,12.5288761 L5.85584963,12.7213813 C5.92867433,12.7034704 6.00428303,12.7009514 6.07808446,12.7139772 C6.1982114,12.7534655 6.23785329,12.7522315 5.83783059,12.7793796 L5.78737728,12.7793796 L5.01976616,13.4309355 L5.23359211,13.4309355 L5.23359211,13.5617403 L4.99333824,13.5617403 L4.99333824,13.4556156 L3.9482339,14.3379309 C4.05763836,14.3479261 4.16539149,14.371971 4.26897282,14.4095033 C4.19329285,14.5501801 4.02031006,14.4637996 3.84732728,14.4230774 L2.76618486,15.3313067 C0.797304392,16.9861105 0.631529221,17.910382 1.32466164,18.6199362 L1.32466164,18.6199362 C1.96854201,19.2813641 2.79261279,19.1764735 4.20770808,17.5253717 C4.18703941,17.5103309 4.16774017,17.4933969 4.15004715,17.4747774 C4.18968923,17.4408099 4.24021903,17.4232143 4.29179694,17.4254171 C4.36867817,17.3328666 4.44676068,17.239082 4.53205081,17.1366594 L5.25281242,16.2346001 L5.24320226,16.2346001 L5.24320226,16.0383929 C5.30951692,16.010174 5.37956303,15.9922892 5.45102186,15.9853306 C6.27869644,14.9499985 7.33701474,13.6308447 8.37611273,12.3548811 C8.30884165,12.3116909 8.314848,12.2314804 8.4517927,12.2623306 L8.90106744,11.7131973 C8.9261636,11.6393632 8.97712509,11.5777746 9.04401849,11.5404363 L9.41761326,11.0863216 L9.75396868,11.496012 L9.83565499,11.5404363 C9.87409561,11.6280508 10.1383749,11.5947326 10.3161627,11.6058387 L10.3161627,11.7366435 L10.0759089,11.7366435 L10.0759089,11.8674482 L10.0566886,11.8674482 C11.650773,13.8171798 13.3806009,15.9865646 14.2719427,17.1070432 C15.8828449,19.1295812 16.7825957,19.3011082 17.4733255,18.587852 L17.4733255,18.587852 C17.552885,18.5069094 17.623396,18.417093 17.6835477,18.3200724 L17.3231669,18.3200724 C17.3039466,18.1633535 17.6198804,18.0991851 17.7544226,18.1781616 C17.8767546,17.8757563 17.8640239,17.5334847 17.7195858,17.24155 C17.6354969,17.24155 17.546603,17.227976 17.4432938,17.2119339 C17.480156,17.1225007 17.5751637,17.0742269 17.6667299,17.0984052 Z M14.4353153,6.65006535 C14.2420673,6.58388486 14.0371405,6.56157062 13.8346807,6.58466297 C13.5740052,6.54394073 14.6359273,6.33169147 14.4365166,6.65006535 L14.4353153,6.65006535 Z M14.1950615,6.12684626 C14.3043837,6.04837723 14.4341029,6.00539196 14.567455,6.00344553 C14.447328,5.99233946 14.3440189,5.94421318 14.4389192,5.8640027 C14.6335248,5.84425859 14.6443362,5.92570307 14.7993,5.92940509 C14.8185203,5.9812334 14.7296263,6.00467954 14.629921,6.00591354 C14.6890329,6.01371787 14.7463582,6.03209411 14.7993,6.06020986 C14.9074142,6.12067622 14.1325955,6.17127052 14.1926589,6.12684626 L14.1950615,6.12684626 Z M14.0749345,4.89283896 L14.2551249,4.92615715 L14.3163897,4.82743657 L14.4977813,4.86075477 L14.5578448,4.76326819 C14.6599527,4.75092812 14.6707641,4.78918234 14.6779718,4.82867058 L14.6179083,4.92739116 L14.7993,4.89407296 C14.5218067,5.07917406 15.0599754,5.32597552 14.5590461,5.41605805 L14.0785383,5.41605805 C13.9379898,5.40495199 13.9764305,5.29265732 13.9584114,5.21985089 L14.1398031,5.25316909 L14.0797396,5.1544485 C14.1458094,5.00883564 13.8490959,5.06189796 13.8394857,4.95824134 C13.9716254,4.96441138 14.0461041,4.93973123 14.072532,4.88790293 L14.0749345,4.89283896 Z M12.8736652,7.04494769 L12.9937921,7.07826589 L13.1139191,7.11158409 C13.3421602,7.13996625 13.8430896,7.02273556 13.7145537,7.23498482 C13.5740052,7.22511276 13.4995265,7.25102691 13.4742999,7.3003872 L13.2929082,7.26706901 L13.3541729,7.36578959 L13.17158,7.25102691 L12.9913896,7.36578959 L12.7511357,7.36578959 L12.8124004,7.24238886 L12.6310088,7.16588041 C12.6526316,7.10171203 12.8628538,7.12762618 12.8652563,7.04124567 L12.8736652,7.04494769 Z M12.6334113,5.41482404 C12.6742545,5.54562882 12.6081847,5.61843525 12.3931574,5.6097972 C12.3703333,5.55550088 12.4400069,5.55056485 12.5132844,5.54562882 C12.5132844,5.48269445 12.3655282,5.49503452 12.2730305,5.48022643 C12.2778356,5.40001596 12.4796488,5.42099408 12.6213986,5.41112202 L12.6334113,5.41482404 Z M0.427313432,1.69799405 C0.239915413,1.46600068 0.83814755,1.65850581 0.787694237,1.50055288 C0.67117111,1.3179198 1.08440777,1.72761022 0.415300738,1.69429203 L0.427313432,1.69799405 Z M0.907821172,3.45768846 C0.804512008,3.46879453 0.787694237,3.43177431 0.787694237,3.39228608 L0.787694237,3.26888535 C0.941802444,3.32430582 1.1053614,3.346568 1.26820198,3.33428773 C1.60575867,3.20965299 1.0243443,3.42190225 0.898211018,3.45398644 L0.907821172,3.45768846 Z M5.86065471,4.10307428 C5.78857855,4.10924432 5.7080935,4.01052373 5.74052777,3.97226951 C5.9159131,3.74768018 5.95675626,4.09443623 5.85344709,4.1067763 L5.86065471,4.10307428 Z M5.5002739,3.71189397 C5.61514789,3.75733203 5.73759534,3.77913467 5.86065471,3.77606235 C5.67904253,3.89086402 5.47282409,3.95822865 5.26002003,3.97226951 C5.31167462,3.87848495 5.42819774,3.81061455 5.49186502,3.71559599 L5.5002739,3.71189397 Z M2.71933535,2.21134109 C3.01124381,2.18542693 2.98241334,2.33474182 3.31997003,2.27674347 C3.33798907,2.39027215 2.52472972,2.41125027 2.71332901,2.21504311 L2.71933535,2.21134109 Z M1.75111226,2.08300433 C1.71747672,1.97811371 2.40340152,1.99045378 2.11149306,2.14717271 C2.15473876,2.12496058 1.74390464,2.08053631 1.74390464,2.08547234 L1.75111226,2.08300433 Z M2.65807062,3.35279784 L2.59680588,3.45151843 C2.49469799,3.43917835 2.48388656,3.47619857 2.47667895,3.51692081 L2.294086,3.48360262 L2.1138956,3.45028442 L2.1138956,3.38488203 L2.32892282,3.36143589 L2.23522381,3.25531126 C2.23522381,3.13191053 1.90487473,3.17263278 1.99496994,2.99493572 L2.17516034,2.96161753 L2.11509687,2.86413095 C2.45745864,2.91842727 2.4274269,2.77281441 2.71573155,2.79996257 C2.89472068,2.97889363 2.64846046,3.13067653 2.83585848,3.38611604 L2.65807062,3.35279784 Z M2.83826102,2.47418464 C3.35841065,2.44333446 2.99322477,2.64941368 3.19864183,2.6691578 C3.06049585,2.86289694 2.80222294,2.58894732 2.83345594,2.47665266 L2.83826102,2.47418464 Z M3.19864183,3.25654527 C3.67914957,3.28862946 3.16981136,3.6156414 2.95838796,3.45151843 C2.99562731,3.36883994 3.16500628,3.35156383 3.19383675,3.25407726 L3.19864183,3.25654527 Z M3.07851489,5.14704446 L3.07851489,4.9508373 C3.27312053,4.93232719 3.28633449,5.01253766 3.4388957,5.01623969 L3.4388957,5.14704446 L3.07851489,5.14704446 Z M3.31876876,6.58096095 C3.33798907,6.50445249 3.53860105,6.52666462 3.67914957,6.51555856 C3.5446074,6.60934311 3.54821121,6.6747455 3.7992765,6.71176572 C3.6190861,6.93018501 3.45691474,6.60440708 3.31396368,6.58589697 L3.31876876,6.58096095 Z M3.7992765,5.79983432 L3.7992765,5.60239315 C4.15485223,5.51107661 4.15485223,5.8973209 3.79447142,5.80230234 L3.7992765,5.79983432 Z M4.03953037,4.75586414 C4.21972078,4.81139447 4.21251316,4.96687939 4.27978424,5.08164207 C4.03472529,5.0359838 3.79447142,4.88790293 4.04193291,4.75833216 L4.03953037,4.75586414 Z M5.48946248,7.36455558 L5.24920861,7.36455558 L5.24920861,7.23375081 L5.48946248,7.23375081 L5.48946248,7.36455558 Z M5.48946248,6.51679257 C5.54111706,6.43658209 5.64322496,6.38228577 5.84984329,6.3872218 C5.80179251,6.46249624 5.69968462,6.5229626 5.49186502,6.51926058 L5.48946248,6.51679257 Z M5.48946248,5.99604148 C5.68270232,6.06226056 5.88763738,6.08457569 6.09009716,6.06144387 C5.98798926,6.20458872 5.41978886,6.26258706 5.49186502,5.99727549 L5.48946248,5.99604148 Z M8.50584982,9.38709355 C8.34728227,9.36364741 8.31604926,9.27233087 8.14546902,9.25628878 C8.1658906,9.17978033 8.36650258,9.20199246 8.50584982,9.1921204 L8.50584982,9.38709355 Z M2.82504706,17.0169607 C2.87790291,16.9367502 2.9800108,16.8824539 3.18542786,16.8861559 C3.1409809,16.9676004 3.04007427,17.0218967 2.83345594,17.0181947 L2.82504706,17.0169607 Z M4.15485223,15.9729905 C4.38549595,16.0013727 4.67500186,15.9976707 4.63535997,16.1679637 C4.55607619,16.0667751 4.0539456,16.1852398 4.16205985,15.9754585 L4.15485223,15.9729905 Z M5.12187406,14.3416329 L4.88162019,14.3416329 L4.88162019,14.2120621 L5.12187406,14.2120621 L5.12187406,14.3416329 Z M4.88162019,14.0812573 C4.90444431,14.028195 5.00174712,14.0158549 5.00174712,13.9492186 L5.24200099,13.9492186 C5.30566827,14.0923634 5.07742709,14.0775553 4.88642527,14.0837253 L4.88162019,14.0812573 Z M6.57300744,12.84725 C6.5117427,12.9435026 6.39521957,13.011373 6.33275356,13.1076256 C5.92792579,13.0743074 6.10210985,12.7645715 6.57781251,12.844782 L6.57300744,12.84725 Z M5.61199195,13.3692351 C5.7080935,13.3803412 5.73211889,13.4346375 5.85224582,13.4334035 C5.82942171,13.4864658 5.73211889,13.4988059 5.73211889,13.5642083 C5.63481607,13.5506342 5.61199195,13.4988059 5.49186502,13.4988059 C5.51348787,13.4445096 5.61199195,13.4321695 5.61199195,13.3729371 L5.61199195,13.3692351 Z M5.49186502,14.2157641 C5.58916784,14.2281042 5.61199195,14.2811665 5.73211889,14.2811665 C5.66845161,14.4329494 5.16031468,14.3181867 5.49186502,14.2145301 L5.49186502,14.2157641 Z M5.61199195,14.5415421 C5.59157037,14.4008652 6.04084511,14.5119259 6.21262663,14.4761397 C6.23665202,14.6155825 5.78737728,14.5045218 5.61199195,14.540308 L5.61199195,14.5415421 Z M6.09249969,13.3075348 C6.10571366,13.184134 6.49132112,13.2618765 6.4528805,13.1113276 C6.82167019,13.184134 6.437264,13.3914472 6.0961035,13.3013647 L6.09249969,13.3075348 Z M6.69313437,13.3729371 C6.88293493,13.3235768 6.87332477,13.1656239 7.17364211,13.17673 C7.21929035,13.342087 7.01507456,13.3840432 6.70034199,13.3729371 L6.69313437,13.3729371 Z M6.93338824,12.5905765 C7.10637103,12.6041506 6.97543267,12.7855497 7.17364211,12.7855497 C7.04630756,12.9891609 6.83848796,12.7164453 6.94179713,12.5844065 L6.93338824,12.5905765 Z M7.53402292,12.003189 L7.29376905,12.003189 L7.29376905,11.8736183 L7.53402292,11.8736183 L7.53402292,12.003189 Z M7.77427679,11.7415795 L7.77427679,11.6761771 L7.65414985,11.6761771 C7.56382455,11.624897 7.51547023,11.5200889 7.53402292,11.4158016 C7.85821469,11.3233765 8.20504484,11.3701386 8.4950384,11.5453723 C8.5106549,11.7341754 7.9424545,11.6255828 7.78749075,11.7366435 L7.77427679,11.7415795 Z M8.98275375,10.5026362 C8.93590425,10.3792354 9.53413639,10.4076176 9.34313456,10.5680385 L9.10288069,10.5680385 C9.13891877,10.5063382 9.07044642,10.5014021 8.99476645,10.4977001 L8.98275375,10.5026362 Z M12.0051474,13.0459252 C11.8970332,13.2927267 11.4693813,12.6954671 12.0051474,12.7843157 C12.1336833,12.9015464 11.6555781,13.0027349 12.0171601,13.0409892 L12.0051474,13.0459252 Z M11.8850205,12.1327598 C11.9997694,12.1787755 12.1222501,12.2010034 12.2454013,12.1981622 L12.2454013,12.2635646 L12.3655282,12.2635646 C12.3415029,12.3968374 11.806938,12.2722026 11.8970332,12.1265898 L11.8850205,12.1327598 Z M13.2148257,13.1113276 C12.6934748,13.1964741 13.064667,12.8015918 12.614191,12.8509521 C12.9241185,12.6078526 13.1571648,12.8583561 13.2268384,13.1051576 L13.2148257,13.1113276 Z M13.2148257,13.5691443 C12.8352246,13.5790164 12.7991865,13.4013193 12.7343179,13.2421324 C12.9489111,13.2278052 13.1479538,13.3574673 13.2268384,13.5629743 L13.2148257,13.5691443 Z M12.7343179,14.3502709 C12.8364258,14.1589998 13.1223279,14.3897592 13.3349526,14.3502709 C13.3709907,14.5217979 13.0814848,14.5193299 12.8544449,14.5464781 C12.8736652,14.4477575 12.8832753,14.360143 12.7427268,14.3441009 L12.7343179,14.3502709 Z M13.4550796,15.1338656 L13.2148257,15.1338656 L13.2148257,15.0030608 L13.4550796,15.0030608 L13.4550796,15.1338656 Z M13.4550796,14.8080876 C13.2905057,14.7871095 13.3553742,14.6439647 13.3349526,14.5464781 C13.5752065,14.703197 13.9103606,14.4378854 14.1758412,14.6118805 C14.2455148,14.8315338 13.5379671,14.6427307 13.4682935,14.8019176 L13.4550796,14.8080876 Z M14.9050117,15.3942411 L14.5446309,15.3942411 L14.5446309,15.2634363 L14.9050117,15.2634363 L14.9050117,15.3942411 Z M15.2653925,16.045797 C15.299028,15.8952481 15.5897352,15.8964821 15.7459002,15.9803946 C15.7278812,16.0643071 15.4611994,16.0285209 15.281009,16.0396269 L15.2653925,16.045797 Z M16.7153246,17.3501427 C16.7285385,17.1835517 17.1670018,17.1958918 17.3159592,17.2859743 C17.3556011,17.4204811 16.9063264,17.3081864 16.7309411,17.3439726 L16.7153246,17.3501427 Z M17.5562131,17.8067254 C17.3604062,17.8252355 17.3471923,17.746259 17.1958323,17.741323 C17.2198577,17.6882607 17.3159592,17.6759206 17.3159592,17.6117522 C17.488942,17.6339644 17.5838423,17.6919627 17.5766347,17.8005553 L17.5562131,17.8067254 Z" id="パス_14"></path>
                    <path d="M18.5902703,1.27191429 L17.9783784,1.88642857 C17.9960763,1.88179406 18.0141782,1.87888534 18.0324324,1.87774286 L18.0324324,1.93528571 L18.1405405,1.93528571 C18.1491892,1.96785714 18.1967568,1.98088571 18.2583784,1.98522857 L18.7783784,1.463 L18.5902703,1.27191429 Z" id="パス_31"></path>
                    <path d="M17.6010811,3.76245932 C17.7545946,3.76245932 17.9091892,3.75268789 17.9254054,3.81891646 L17.8702703,3.9057736 L17.9459459,3.89274503 L18.0745946,3.74400218 C17.8940541,3.7081736 17.6821622,3.64411646 17.6010811,3.76245932 Z" id="パス_43"></path>
                    <path d="M17.9966426,0.581601903 L16.7567568,2.17142857 C16.8333054,2.16497111 16.8967601,2.14818172 16.909854,2.09910502 L17.0609367,2.1339753 L17.1112976,2.03065594 C17.1394472,2.03023608 17.1661859,2.04642636 17.1838174,2.07456667 L18.3783784,0.542857143 C18.2522059,0.569478829 18.1245102,0.582439475 17.9966426,0.581601903 L17.9966426,0.581601903 Z" id="パス_44"></path>
                    <path d="M17.3697297,2.7284 L17.4237838,2.61982857 L17.2854054,2.56337143 L17.1318919,2.71754286 L17.1502703,2.72514286 C17.0962162,2.83371429 17.2421622,2.84565714 17.3664865,2.8652 L17.4627027,2.76857143 C17.4402525,2.74053885 17.4054337,2.72549448 17.3697297,2.7284 L17.3697297,2.7284 Z" id="パス_45"></path>
                    <path d="M18.7660663,2.75150333 C18.817053,2.78114002 18.874731,2.79720961 18.9336339,2.79818904 L19.0752555,2.63098904 C18.9347149,2.62338904 18.7336339,2.6885319 18.7660663,2.75150333 Z" id="パス_46"></path>
                </g>
            </g>
        </g>
    </g>
</svg>