<?xml version="1.0" encoding="UTF-8"?>
<svg width="108px" height="51px" viewBox="0 0 108 51" version="1.1" xmlns="http://www.w3.org/2000/svg" xmlns:xlink="http://www.w3.org/1999/xlink">
    <!-- Generator: Sketch 61.2 (89653) - https://sketch.com -->
    <title>Group 8</title>
    <desc>Created with Sketch.</desc>
    <g id="Page-1" stroke="none" stroke-width="1" fill="none" fill-rule="evenodd">
        <g id="Artboard" transform="translate(-191.000000, -1603.000000)" fill="#604838">
            <g id="Group-8" transform="translate(190.000000, 1596.000000)">
                <g id="line01_1" transform="translate(0.000000, 46.000000)" fill-rule="nonzero">
                    <path d="M1.97237668,2.69185311 C2.0749528,3.41137479 2.023749,4.14519157 1.82231979,4.84236276 C1.62645957,6.03848179 1.72109352,7.26572607 2.09783408,8.41532302 C2.34754153,9.28400232 2.97992216,9.98204656 3.80585868,10.3007013 C5.25221983,10.9285115 6.80081382,11.2711556 8.37070406,11.3107254 C9.62745884,11.3577755 10.8786618,11.1171272 12.0335681,10.6062336 C12.3771376,10.4226479 12.6999695,10.2007892 12.9962282,9.94466784 C13.0675497,9.90212232 13.1163105,9.82876112 13.1288897,9.74507724 C13.1414689,9.66139335 13.116518,9.57635762 13.0610068,9.51372423 C12.6313358,8.94726904 12.1590255,8.41448133 11.7662537,7.82109217 C11.4898477,7.37541851 11.4006547,6.83399333 11.5189366,6.31981227 C11.6372185,5.80563121 11.9529336,5.36234692 12.3943607,5.09066035 C12.6581373,4.9177475 12.944413,4.7839976 13.244683,4.6933842 C13.7824876,4.52200818 14.3685091,4.65803475 14.7821512,5.05025938 C15.4100103,5.56357268 15.7131766,6.38889035 15.5717948,7.19992735 C15.5456786,7.35891288 15.5042014,7.5148333 15.4479774,7.66538012 C14.9453278,9.07268037 14.981407,9.48426519 16.7730699,9.98927724 C18.57978,10.5240597 20.4429715,10.8321184 22.3218949,10.9067158 C25.8499711,10.9995457 29.3776684,10.7072417 32.8455568,10.0347283 C34.3075865,9.75613001 35.7917557,9.60378471 37.2603453,9.36137893 C38.3427228,9.18069684 39.4196339,8.96859178 40.4910783,8.72506374 C42.7870307,8.20405964 45.0567437,7.56942783 47.3658158,7.1393259 C49.8339647,6.67639819 52.2668542,6.07122541 54.7112236,5.48961987 C56.3126504,5.11001914 57.8837378,4.5982736 59.5187839,4.36428468 C60.3715663,4.2422401 61.2161487,4.05538564 62.070571,3.94344131 C64.7879947,3.6008748 67.4857388,3.07566227 70.2359618,2.95698443 C71.2506734,2.86089194 72.2576043,2.69214371 73.2493993,2.45197238 C74.6390379,2.19424814 76.0508568,2.08424752 77.462472,2.12371455 C78.4792509,2.14644009 79.5025897,2.16074877 80.5152687,2.08415527 C82.4713898,1.96237252 84.4331962,1.97277578 86.387987,2.11529768 C87.4851243,2.17926588 91.7662555,2.85598202 92.6501972,3.08912925 C93.5687266,3.30434602 94.4503141,3.66075299 95.265123,4.14628781 C95.51711,4.33214823 95.7418786,4.55407958 95.9325892,4.80532854 C96.086746,4.98292444 95.9588286,5.49887842 95.7275934,5.66216565 C95.6395359,5.74032293 95.5238621,5.77752832 95.4080993,5.76492788 C95.2923364,5.75232745 95.1868366,5.69104797 95.1167061,5.5956724 C94.6263339,4.95921676 93.9468037,4.50464888 93.1815462,4.30115818 C92.513119,4.06747254 91.8276366,3.88875153 91.1315887,3.76668709 C89.0400854,3.45133512 86.9433888,3.16740612 84.8414991,2.9149001 C83.2802488,2.74822092 81.7054074,2.76855812 80.1487363,2.97550154 C79.4519465,3.08498673 78.7456987,3.11715617 78.0422,3.07145383 C76.4760153,2.97207883 74.9039324,3.04998323 73.3543572,3.30375938 C71.5667942,3.52091456 69.7890711,3.82560516 68.0031481,4.05454396 C65.98271,4.31378348 63.9483321,4.47538733 61.9352738,4.782603 C60.0737063,5.03787552 58.2275023,5.39980472 56.4053085,5.86669553 C53.148336,6.75832237 49.8612974,7.51331538 46.5441928,8.13167458 C44.8517479,8.44983217 43.1896424,8.93969386 41.5053973,9.31003603 C40.2049042,9.5978929 38.8929314,9.83356519 37.5834186,10.0793377 C36.0418505,10.3680363 34.5011025,10.661785 32.9546145,10.9210245 C29.638173,11.5359158 26.2779691,11.8689501 22.9081827,11.9167399 C20.2401388,11.9319955 17.5913781,11.4520944 15.0896448,10.5001811 C14.5895426,10.255401 14.0024572,10.2887039 13.5316771,10.5885582 C13.2120361,10.8213942 12.8741391,11.026627 12.521458,11.2021479 C11.9629224,11.4937986 11.3676866,11.7045437 10.7527547,11.8283628 C8.49619824,12.1909687 6.18735664,11.9770427 4.03053402,11.2055146 C3.59470409,11.0255623 3.17813226,10.799917 2.78743978,10.5321652 C2.11936819,10.0938298 1.62765373,9.42294908 1.40248849,8.64257844 C0.79718012,6.79277464 0.876871508,4.77891925 1.62634385,2.98560178 C1.67882276,2.86103214 1.86085899,2.7936972 1.98303646,2.70026997 L1.97237668,2.69185311 Z M14.7526318,7.22265289 C14.7731314,6.99034735 14.7837911,6.91207048 14.7862511,6.83379361 C14.8200708,6.35474504 14.5775792,5.89972718 14.1663439,5.67058252 C13.7362182,5.48408822 13.2410548,5.5552201 12.8773307,5.85575361 C12.4820149,6.12949164 12.3348128,6.65478876 12.5280179,7.10229168 C12.7660059,7.4996395 13.0459444,7.86884504 13.3627606,8.20321796 C13.5357319,8.36014465 13.7702765,8.42494803 13.9966181,8.37834932 C14.2229598,8.33175061 14.4150182,8.17911918 14.5156567,7.96586229 C14.6238945,7.67548036 14.7050728,7.37499819 14.7526318,7.22265289 Z" id="Shape"></path>
                    <path d="M3.04040427,1 C3.1869872,0.841710827 3.28940732,0.631371611 3.48767012,0.532975639 C4.41394355,0.00792975614 5.62021509,-0.139878257 6.71719269,0.137252706 C6.91921403,0.190728778 7.03290976,0.270586379 6.99156586,0.422458423 C6.95602763,0.473360088 6.8879005,0.506380769 6.81209574,0.509446167 C5.50930469,0.378064977 4.18431301,0.538408665 3,0.970766414 L3.04040427,1 Z" id="Path"></path>
                    <path d="M2.20093149,3 C2.04302329,2.61512476 2.24850532,2.19405503 2.68893149,2 L2.85193149,2.1301536 C2.80793149,2.50606306 2.73593149,2.86822959 2.18793149,2.99191593 L2.20093149,3 Z" id="Path"></path>
                    <path d="M2.792,2.1665 C2.82459463,2.4742199 2.62530437,2.75885931 2.325,2.8335 L2.163,2.6735 C2.18983189,2.52243955 2.27653021,2.3886163 2.40342936,2.30238513 C2.53032851,2.21615396 2.68667318,2.18482336 2.837,2.2155 L2.792,2.1665 Z" id="Path"></path>
                    <path d="M1.886,5.893 C1.89256243,3.95954391 3.45655797,2.3928703 5.39,2.383 L5.138,2.107 C4.92157953,3.95196091 3.45708351,5.40151309 1.61,5.599 L1.886,5.893 Z" id="Path"></path>
                </g>
                <text id="point" font-family="CabinSketch-Bold, Cabin Sketch" font-size="27" font-weight="bold" letter-spacing="0.93025">
                    <tspan x="19" y="38">point</tspan>
                </text>
                <text id="1" font-family="CabinSketch-Bold, Cabin Sketch" font-size="43" font-weight="bold" letter-spacing="1.48150926">
                    <tspan x="96" y="38">1</tspan>
                </text>
            </g>
        </g>
    </g>
</svg>