<?xml version="1.0" encoding="UTF-8"?>
<svg width="95px" height="69px" viewBox="0 0 95 69" version="1.1" xmlns="http://www.w3.org/2000/svg" xmlns:xlink="http://www.w3.org/1999/xlink">
    <!-- Generator: Sketch 61.2 (89653) - https://sketch.com -->
    <title>Group 14</title>
    <desc>Created with Sketch.</desc>
    <g id="Page-1" stroke="none" stroke-width="1" fill="none" fill-rule="evenodd">
        <g id="Artboard" transform="translate(-182.000000, -8080.000000)">
            <g id="Group-14" transform="translate(182.000000, 8080.000000)">
                <g id="flag" fill-rule="nonzero">
                    <path d="M31.2913425,56.2486804 C31.2663966,56.2486804 30.6988768,56.2901169 30.1334358,56.3129069 C28.206363,56.3916362 26.281369,56.5097302 24.3542962,56.5200893 C21.5217733,56.3864876 18.6834748,56.4404738 15.8581295,56.6816915 C14.9541587,56.7277754 14.0478458,56.6742746 13.1556541,56.5221611 C12.0247721,56.4227136 10.9001266,56.2362494 9.77132346,56.1989566 C6.73623576,56.0995091 6.95035496,56.3605589 6.21652896,58.732797 C5.48270296,61.1050351 4.84658184,63.5104223 4.13770177,65.8909477 C3.89826493,66.6432867 3.61080021,67.3795959 3.27706731,68.0953681 C2.81065874,68.9143187 1.78636001,69.2316338 0.936307891,68.8205064 C0.492758478,68.6795043 0.164923109,68.3040434 0.0860675691,67.8467493 C-0.0143611863,67.2941413 -0.0269883239,66.7292327 0.0486486797,66.1727157 C0.44981045,64.0654123 0.958395928,61.9798377 1.57242901,59.9240956 C3.09828817,55.301857 4.19590893,50.5594526 5.47646648,45.8792029 C5.92341432,44.2445341 6.4264905,42.624368 6.93164551,41.0062737 C7.94749907,37.7700851 8.81437001,34.4952225 9.53225833,31.1816859 C10.5238589,26.656823 11.677608,22.1630375 13.0766587,17.7417658 C14.034998,14.7251905 14.9476032,11.6920407 15.899706,8.6754654 C16.0915095,8.13314956 15.9649302,7.52953208 15.5712513,7.10916671 C15.0345118,6.50009886 14.8955188,5.63834566 15.213693,4.89231539 C15.443826,3.67088132 15.8440577,2.487481 16.4027822,1.37643063 C16.7570747,0.789985573 17.3100555,0.349091322 17.9619026,0.133336436 C18.5021213,-0.0532782266 19.0911148,-0.0437393277 19.6249643,0.160270143 C20.8108465,0.609268865 21.7283458,1.57015948 22.119557,2.77283978 C22.3266927,3.30311802 22.3450373,3.88816538 22.1715277,4.43029872 C21.712215,5.70519622 21.1243644,6.93038666 20.4169975,8.08706748 C20.3650268,8.17822772 20.6020131,8.45378027 20.7329792,8.61952616 C20.81167,8.70349632 20.9193952,8.75458594 21.0344092,8.762482 C21.3715706,8.81014461 21.7137943,8.81014461 22.0509557,8.762482 C25.5996683,7.98289999 29.2274062,7.61787192 32.8608571,7.67477457 C34.7922134,7.59368597 36.7022711,7.24002648 38.5339765,6.62435998 C40.0422137,6.11876615 41.6292889,5.88719101 43.219653,5.94065817 C46.1691268,6.0368805 49.1205904,5.82439109 52.025565,5.30668013 C53.4704321,5.02037886 54.9557452,5.00071631 56.4077327,5.24866906 C58.0777495,5.59873097 59.8046709,5.57750898 61.4655192,5.18651435 C63.5847806,4.75705171 65.7507655,4.60176546 67.9098835,4.72449768 C70.0621408,4.7966932 72.2167715,4.70179322 74.3542478,4.44065783 C77.0491353,4.03781594 79.7764393,3.89212827 82.4990928,4.00557486 C83.1794463,4.01085605 83.8589833,3.95748033 84.5301069,3.84604444 C87.6920031,3.53734272 90.8518204,3.22449734 94.0137166,2.91993926 C94.2974688,2.88452545 94.5807313,2.98917216 94.7727647,3.20035716 C94.9647981,3.41154217 95.0414972,3.70275634 94.9782924,3.98071298 C94.9294459,4.31544317 94.860021,4.64686806 94.7704097,4.97311652 C94.6290494,5.40198401 94.4336397,5.80184598 94.2631758,6.22864166 C93.7088219,7.58775798 93.1489245,8.9461837 92.5834835,10.3039188 C92.4743885,10.6251785 92.3452494,10.9393271 92.1968216,11.2445267 C89.9932648,15.0691132 88.4237503,19.2169042 86.2513758,23.0539216 C85.5300228,24.3280932 84.6319695,25.5028172 83.8087539,26.7189777 C83.3015201,27.4689779 82.7693403,28.2024034 82.2766583,28.9606909 C81.9407439,29.4265218 81.8804788,30.0358355 82.1186674,30.5580669 C83.3752145,33.4614899 84.4587804,36.4362728 85.3637166,39.4669087 C85.47054,39.9078018 85.6303803,40.3342296 85.8397681,40.7369366 C87.6753725,43.9088986 88.234577,47.5490928 89.6211547,50.8888726 C89.6433031,50.9980709 89.6558237,51.108991 89.6585736,51.2203643 C89.7020137,51.9186948 89.2079566,52.5364238 88.5152187,52.6499227 C86.9332312,52.7576575 85.3491648,52.857105 83.7650985,52.9627681 C82.6406893,53.0789244 81.5243871,53.2629642 80.4223444,53.5138731 C77.4163603,54.0670501 74.3937455,54.5228513 71.3482637,54.8419121 C69.9871069,54.8934169 68.6241985,54.808739 67.2799989,54.5891496 C65.7018397,54.4061557 64.1083747,54.3950404 62.5277999,54.5560004 C61.5118537,54.6173994 60.4928553,54.6083998 59.4781604,54.5290667 C58.4595351,54.5042049 57.4325945,54.3757518 56.4222845,54.4461938 C54.7632686,54.8156602 53.0547925,54.9122386 51.3644979,54.7321055 C51.0248448,54.7103578 50.6842429,54.7561349 50.3625032,54.866774 C48.3578322,55.266141 46.3071296,55.3853797 44.2694607,55.2210558 C42.5672126,55.0758311 40.8528309,55.2587202 39.2199895,55.75973 C37.2938444,56.470738 35.2099231,56.6462003 33.1913906,56.2673268 C32.5599096,56.2038706 31.9239549,56.1976296 31.2913425,56.2486804 Z" id="Path" fill="#604838"></path>
                    <path d="M44.1320102,6.92372485 C41.7779165,6.70637319 39.4036426,6.95588288 37.1482589,7.65763916 C35.5000182,8.07371769 33.8235202,8.37135798 32.1318788,8.5482318 C30.4416901,8.72758726 28.7285765,8.67810989 27.0258834,8.7543875 C26.2316686,8.78644025 25.4406269,8.87254202 24.6583687,9.01208213 C23.4329298,9.24916119 22.236668,9.69239595 21.0028928,9.81402782 C19.588708,9.91458248 18.4321604,10.9679966 18.214394,12.3538661 C18.0893492,12.7867931 17.9392955,13.2114738 17.8330074,13.6485239 C16.6117367,18.6787231 14.9152957,23.5728595 13.5022896,28.5494582 C12.0614958,33.6346322 10.6283436,38.7198063 9.20283305,43.8049803 C9.13393063,44.0195302 9.08030797,44.2385915 9.0423589,44.4605554 C8.65900043,46.6779445 8.1207123,48.866379 7.43136523,51.0101222 C7.25213437,51.6553895 7.11875326,52.3171493 7.00412888,52.9789091 C6.95488742,53.5592172 7.3510465,54.0846695 7.92737622,54.203474 C9.50294054,54.4096297 11.0889253,54.5663081 12.6582373,54.8219411 C14.1194107,55.0414343 15.6044059,55.0580874 17.0702342,54.8714185 C18.3177193,54.7671493 19.5700881,54.7313607 20.8215778,54.7642175 C23.6642627,54.7642175 26.5069475,54.7642175 29.3475482,54.7642175 C30.9377011,54.7642175 32.5299381,54.6982477 34.1180069,54.7374173 C35.4798335,54.7823785 36.8420525,54.6605082 38.1736261,54.3745832 C40.697514,53.6790508 43.3234301,53.4175537 45.9368233,53.6014994 C46.5045227,53.6418637 47.0750947,53.6120852 47.6353483,53.5128524 C50.4509401,53.1397106 53.3061294,53.263404 56.1196371,52.7665688 C57.2505287,52.6700699 58.3885902,52.6928754 59.5146031,52.8346001 C60.296675,52.949457 61.0884571,52.9860628 61.8779496,52.9438627 C64.025317,52.6762915 66.1999857,52.7075182 68.3385969,53.0366327 C69.5748243,53.2107909 70.8270592,53.2453722 72.0711838,53.1397106 C74.6701316,52.8621166 77.2514386,52.4415953 79.8031198,51.8800992 C82.0978186,51.2364832 84.4725938,50.915172 86.8577299,50.9255983 C87.3266504,50.8576643 87.6512584,50.426763 87.5829896,49.9628512 C87.2036871,48.5568693 86.8410572,47.1426412 86.3867278,45.7613979 C86.0068024,44.4675501 85.5109086,43.2098222 84.9049471,42.0031794 C84.4221979,41.1162454 84.0318573,40.1830594 83.7399465,39.2180159 C82.9558827,36.1695967 81.7717922,33.2358172 80.2178517,30.4914449 C79.9617454,30.1012782 79.9512481,29.6012581 80.1907586,29.2009102 C80.7159468,28.3350563 81.2807324,27.493941 81.8580225,26.6548873 C82.8667171,25.16232 84.0212973,23.7501534 84.8778541,22.1771854 C86.8681503,18.5179216 88.7625788,14.8050574 90.6028212,11.0695161 C91.3968556,9.45737845 91.9637253,7.73597832 92.632715,6.06405556 C93.3558906,4.26019315 93.0953807,3.89529756 91.0904959,4.02311409 C89.7295918,4.11176105 88.3624355,4.19834644 87.0161199,4.40450215 C84.9942993,4.72547892 82.9458616,4.85251103 80.8993458,4.78382864 C79.3100645,4.73995231 77.7199734,4.83515457 76.1476439,5.06832351 C73.6752383,5.44614888 71.1757389,5.62334609 68.6741338,5.59814367 C66.0625402,5.49670505 63.447168,5.64722266 60.8650868,6.04756311 C59.2982081,6.34794418 57.693344,6.40290216 56.1092167,6.21042611 C53.5053631,5.9381919 50.8754741,6.03747396 48.3001698,6.50522877 C46.8308935,6.70726136 45.3553651,6.80415454 44.1320102,6.92372485 Z" id="Path" fill="#FFFFFF"></path>
                </g>
                <g id="Group-13" transform="translate(17.000000, 7.000000)" fill="#604838" font-family="CabinSketch-Bold, Cabin Sketch" font-weight="bold">
                    <text id="step" font-size="22" letter-spacing="0.757981481">
                        <tspan x="0" y="31">step</tspan>
                    </text>
                    <text id="1" font-size="35" letter-spacing="1.20587963">
                        <tspan x="48" y="31">1</tspan>
                    </text>
                </g>
            </g>
        </g>
    </g>
</svg>